<svg width="1353" height="1008" viewBox="0 0 1353 1008" fill="none" xmlns="http://www.w3.org/2000/svg">
<path d="M1352.24 885.509H0.129883V886.185H1352.24V885.509Z" fill="#FAFAFA"/>
<path d="M1144.61 914.931H1077.47V915.607H1144.61V914.931Z" fill="#E0E0E0"/>
<path d="M1187.15 914.579H1164.46V915.255H1187.15V914.579Z" fill="#E0E0E0"/>
<path d="M898.013 919.122H757.421V919.798H898.013V919.122Z" fill="#E0E0E0"/>
<path d="M724.24 926.45H703.282V927.126H724.24V926.45Z" fill="#E0E0E0"/>
<path d="M302.868 905.06H266.739V905.736H302.868V905.06Z" fill="#E0E0E0"/>
<path d="M501.114 905.06H317.876V905.736H501.114V905.06Z" fill="#E0E0E0"/>
<path d="M344.919 921.394H217.441V922.07H344.919V921.394Z" fill="#E0E0E0"/>
<path d="M641.031 764.9H118.872C114.782 764.893 110.861 763.263 107.971 760.368C105.081 757.473 103.458 753.55 103.458 749.459V15.4514C103.494 11.3843 105.132 7.49553 108.019 4.6297C110.905 1.76387 114.805 0.152475 118.872 0.145508H641.031C645.126 0.145508 649.053 1.77234 651.949 4.66811C654.845 7.56388 656.472 11.4914 656.472 15.5866V749.459C656.472 753.554 654.845 757.482 651.949 760.378C649.053 763.273 645.126 764.9 641.031 764.9ZM118.872 0.686355C114.961 0.693518 111.212 2.25227 108.449 5.02048C105.686 7.7887 104.134 11.5402 104.134 15.4514V749.459C104.134 753.37 105.686 757.122 108.449 759.89C111.212 762.658 114.961 764.217 118.872 764.224H641.031C644.944 764.217 648.696 762.659 651.463 759.892C654.231 757.124 655.789 753.373 655.796 749.459V15.4514C655.789 11.5377 654.231 7.78627 651.463 5.01883C648.696 2.2514 644.944 0.693503 641.031 0.686355H118.872Z" fill="#E0E0E0"/>
<path d="M1225.98 764.9H703.796C699.703 764.893 695.779 763.264 692.885 760.37C689.991 757.475 688.362 753.552 688.354 749.459V15.4514C688.397 11.3819 690.042 7.49309 692.932 4.62801C695.823 1.76293 699.726 0.152399 703.796 0.145508H1225.98C1230.04 0.159582 1233.94 1.77412 1236.82 4.63919C1239.7 7.50426 1241.33 11.389 1241.37 15.4514V749.459C1241.37 753.545 1239.75 757.464 1236.86 760.358C1233.98 763.253 1230.07 764.886 1225.98 764.9ZM703.796 0.686355C699.882 0.693503 696.13 2.2514 693.363 5.01883C690.596 7.78627 689.038 11.5377 689.031 15.4514V749.459C689.038 753.373 690.596 757.124 693.363 759.892C696.13 762.659 699.882 764.217 703.796 764.224H1225.98C1229.89 764.217 1233.65 762.659 1236.41 759.892C1239.18 757.124 1240.74 753.373 1240.75 749.459V15.4514C1240.74 11.5377 1239.18 7.78627 1236.41 5.01883C1233.65 2.2514 1229.89 0.693503 1225.98 0.686355H703.796Z" fill="#E0E0E0"/>
<path d="M924.299 885.509H1019.84V712.114H924.299V885.509Z" fill="#E0E0E0"/>
<path d="M1133.82 712.113H1019.84V885.508H1133.82V712.113Z" fill="#EBEBEB"/>
<g style="mix-blend-mode:multiply" opacity="0.7">
<path d="M924.298 734.64H1134.82V726.797H924.298V734.64Z" fill="#E0E0E0"/>
</g>
<path d="M919.025 730.069H1019.84V693.941H919.025V730.069Z" fill="#E0E0E0"/>
<path d="M1139.1 693.969H1019.84V730.097H1139.1V693.969Z" fill="#EBEBEB"/>
<path d="M524.911 51.499H203.298V435.228H524.911V51.499Z" fill="#E0E0E0"/>
<path d="M539.65 51.499H210.194V435.228H539.65V51.499Z" fill="#EBEBEB"/>
<path d="M524.911 435.229H203.298V462.568H524.911V435.229Z" fill="#E0E0E0"/>
<path d="M564.15 435.229H234.694V462.568H564.15V435.229Z" fill="#EBEBEB"/>
<path d="M519.043 414.621V72.1045L230.8 72.1045V414.621H519.043Z" fill="#F5F5F5"/>
<path d="M266.172 414.621L387.078 72.1045H444.137L323.258 414.621H266.172Z" fill="#FAFAFA"/>
<path d="M240.319 298.421C239.929 298.414 239.558 298.254 239.284 297.976C239.011 297.698 238.858 297.324 238.858 296.934V85.4906C238.858 85.1033 239.012 84.7318 239.286 84.458C239.56 84.1841 239.931 84.0303 240.319 84.0303C240.709 84.0302 241.083 84.1832 241.361 84.4563C241.639 84.7294 241.799 85.1008 241.806 85.4906V296.934C241.806 297.328 241.649 297.707 241.37 297.986C241.091 298.264 240.713 298.421 240.319 298.421Z" fill="#EBEBEB"/>
<path d="M335.508 414.621L456.414 72.1045H478.669L357.764 414.621H335.508Z" fill="#FAFAFA"/>
<path d="M519.017 414.621V72.1045H516.394V414.621H519.017Z" fill="#E0E0E0"/>
<path d="M544.49 98.444H222.904L221.011 80.1094H542.597L544.49 98.444Z" fill="#E0E0E0"/>
<path d="M544.49 111.884H222.904L221.011 93.5225H542.597L544.49 111.884Z" fill="#E0E0E0"/>
<path d="M544.49 128.001H222.904L221.011 109.64H542.597L544.49 128.001Z" fill="#E0E0E0"/>
<path d="M544.49 145.93H222.904L221.011 127.596H542.597L544.49 145.93Z" fill="#E0E0E0"/>
<path d="M544.49 167.429H222.904L221.011 149.067H542.597L544.49 167.429Z" fill="#E0E0E0"/>
<path d="M544.49 191.578H222.904L221.011 173.243H542.597L544.49 191.578Z" fill="#E0E0E0"/>
<path d="M1109.83 51.499H788.222V435.228H1109.83V51.499Z" fill="#E0E0E0"/>
<path d="M1124.55 51.499H795.091V435.228H1124.55V51.499Z" fill="#EBEBEB"/>
<path d="M1109.83 435.229H788.222V462.568H1109.83V435.229Z" fill="#E0E0E0"/>
<path d="M1149.07 435.229H819.618V462.568H1149.07V435.229Z" fill="#EBEBEB"/>
<path d="M1103.97 414.621V72.1045L815.724 72.1045V414.621H1103.97Z" fill="#F5F5F5"/>
<path d="M851.095 414.621L972.001 72.1045H1029.06L908.154 414.621H851.095Z" fill="#FAFAFA"/>
<path d="M825.243 298.421C824.853 298.414 824.481 298.254 824.208 297.976C823.935 297.698 823.782 297.324 823.782 296.934V85.4906C823.782 85.1033 823.936 84.7318 824.21 84.458C824.484 84.1841 824.855 84.0303 825.243 84.0303C825.63 84.0303 826.001 84.1841 826.275 84.458C826.549 84.7318 826.703 85.1033 826.703 85.4906V296.934C826.703 297.324 826.55 297.698 826.277 297.976C826.004 298.254 825.632 298.414 825.243 298.421Z" fill="#EBEBEB"/>
<path d="M920.432 414.621L1041.34 72.1045H1063.57L942.687 414.621H920.432Z" fill="#FAFAFA"/>
<path d="M1103.94 414.621V72.1045H1101.32V414.621H1103.94Z" fill="#E0E0E0"/>
<path d="M1129.41 98.444H807.827L805.907 80.1094H1127.52L1129.41 98.444Z" fill="#E0E0E0"/>
<path d="M1129.41 111.884H807.827L805.907 93.5225H1127.52L1129.41 111.884Z" fill="#E0E0E0"/>
<path d="M1129.41 128.001H807.827L805.907 109.64H1127.52L1129.41 128.001Z" fill="#E0E0E0"/>
<path d="M1129.41 145.93H807.827L805.907 127.596H1127.52L1129.41 145.93Z" fill="#E0E0E0"/>
<path d="M1129.41 167.429H807.827L805.907 149.067H1127.52L1129.41 167.429Z" fill="#E0E0E0"/>
<path d="M1129.41 191.578H807.827L805.907 173.243H1127.52L1129.41 191.578Z" fill="#E0E0E0"/>
<path d="M860.181 642.29H795.956V885.508H860.181V642.29Z" fill="#E0E0E0"/>
<path d="M847.958 885.509H860.154V855.708H835.167L847.958 885.509Z" fill="#F5F5F5"/>
<path d="M236.912 642.29H172.687V885.508H236.912V642.29Z" fill="#E0E0E0"/>
<path d="M860.181 642.29H226.257V869.12H860.181V642.29Z" fill="#F5F5F5"/>
<path d="M547.303 653.648V815.631H850.717V653.648H547.303Z" fill="#E0E0E0"/>
<path d="M235.722 653.648V815.631H539.136V653.648H235.722Z" fill="#E0E0E0"/>
<path d="M850.689 849.867V831.83H547.276V849.867H850.689Z" fill="#E0E0E0"/>
<path d="M539.108 849.894V831.856H235.695V849.894H539.108Z" fill="#E0E0E0"/>
<path d="M494.272 663.33H280.639C275.895 663.333 271.2 662.376 266.836 660.517C262.473 658.658 258.53 655.936 255.246 652.513H519.773C516.477 655.949 512.517 658.679 508.133 660.539C503.75 662.398 499.034 663.348 494.272 663.33Z" fill="#F5F5F5"/>
<path d="M806.989 663.33H593.356C588.612 663.333 583.917 662.376 579.553 660.517C575.189 658.658 571.247 655.936 567.963 652.513H832.49C829.199 655.956 825.24 658.692 820.856 660.552C816.471 662.412 811.752 663.357 806.989 663.33Z" fill="#F5F5F5"/>
<path d="M238.454 885.509H226.23V855.708H251.217L238.454 885.509Z" fill="#F5F5F5"/>
<g style="mix-blend-mode:multiply" opacity="0.4">
<path d="M691.221 492.963H619.722V642.29H691.221V492.963Z" fill="#E0E0E0"/>
</g>
<path d="M751.283 642.291H630.269L618.884 481.038H739.871L751.283 642.291Z" fill="#E0E0E0"/>
<path d="M765.046 642.291H633.702L622.317 481.038H753.635L765.046 642.291Z" fill="#F5F5F5"/>
<path d="M639.787 636.125L629.268 487.203H747.577L758.124 636.125H639.787Z" fill="#FAFAFA"/>
<path d="M668.424 602.782L662.61 520.547H718.939L724.753 602.782H668.424Z" fill="#F5F5F5"/>
<path d="M431.048 615.816C448.403 615.816 462.471 601.747 462.471 584.393C462.471 567.038 448.403 552.97 431.048 552.97C413.694 552.97 399.625 567.038 399.625 584.393C399.625 601.747 413.694 615.816 431.048 615.816Z" fill="#EBEBEB"/>
<path d="M484.862 630.797C502.216 630.797 516.285 616.729 516.285 599.374C516.285 582.02 502.216 567.951 484.862 567.951C467.507 567.951 453.438 582.02 453.438 599.374C453.438 616.729 467.507 630.797 484.862 630.797Z" fill="#EBEBEB"/>
<path d="M538.332 605.633C549.034 601.224 554.136 588.974 549.727 578.272C545.318 567.57 533.068 562.468 522.366 566.877C511.664 571.286 506.562 583.536 510.971 594.238C515.38 604.94 527.63 610.042 538.332 605.633Z" fill="#EBEBEB"/>
<path d="M483.214 568.755C485.065 557.329 477.303 546.566 465.877 544.716C454.451 542.865 443.689 550.627 441.838 562.053C439.987 573.479 447.75 584.241 459.175 586.092C470.601 587.943 481.364 580.18 483.214 568.755Z" fill="#EBEBEB"/>
<path d="M380.804 593.75C380.804 593.75 383.265 642.291 477.561 642.291C571.857 642.291 574.318 593.75 574.318 593.75H380.804Z" fill="#E0E0E0"/>
<path d="M293.727 625.659C293.727 625.659 263.007 572.711 305.626 530.552C305.626 530.552 316.74 537.799 316.443 547.561C316.145 557.324 304.517 559.757 307.032 567.897C309.547 576.037 320.553 584.122 313.387 590.748C306.221 597.373 314.55 603.431 314.063 611.679C313.576 619.926 293.727 625.659 293.727 625.659Z" fill="#E0E0E0"/>
<path d="M296.053 630.5C296.053 630.5 308.493 570.574 254.76 543.965C254.76 543.965 246.485 554.376 249.73 563.57C252.975 572.765 264.874 571.386 265.063 579.796C265.252 588.206 257.221 599.374 266.253 603.458C275.285 607.541 269.146 615.897 272.202 623.55C275.258 631.203 296.053 630.5 296.053 630.5Z" fill="#E0E0E0"/>
<path d="M248.919 602.782C248.919 602.782 249.947 642.291 289.104 642.291C328.261 642.291 329.288 602.782 329.288 602.782H248.919Z" fill="#EBEBEB"/>
<path d="M676.186 1007.63C965.761 1007.63 1200.51 993.925 1200.51 977.019C1200.51 960.113 965.761 946.407 676.186 946.407C386.611 946.407 151.864 960.113 151.864 977.019C151.864 993.925 386.611 1007.63 676.186 1007.63Z" fill="#F5F5F5"/>
<path d="M488.107 588.151C486.504 588.046 485 587.335 483.902 586.163C482.804 584.99 482.192 583.444 482.192 581.837C482.192 580.23 482.804 578.684 483.902 577.511C485 576.338 486.504 575.627 488.107 575.522C503.575 575.522 516.609 553.375 516.609 527.144C516.714 525.541 517.425 524.037 518.598 522.939C519.77 521.841 521.317 521.229 522.924 521.229C524.53 521.229 526.077 521.841 527.25 522.939C528.422 524.037 529.133 525.541 529.238 527.144C529.238 561.352 511.228 588.151 488.107 588.151Z" fill="#7E57C2"/>
<path d="M583.539 588.151C581.936 588.046 580.433 587.335 579.335 586.163C578.236 584.99 577.625 583.444 577.625 581.837C577.625 580.23 578.236 578.684 579.335 577.511C580.433 576.338 581.936 575.627 583.539 575.522C599.008 575.522 612.042 553.375 612.042 527.144C612.147 525.541 612.858 524.037 614.03 522.939C615.203 521.841 616.75 521.229 618.356 521.229C619.963 521.229 621.51 521.841 622.682 522.939C623.855 524.037 624.566 525.541 624.671 527.144C624.806 561.352 606.606 588.151 583.539 588.151Z" fill="#7E57C2"/>
<path d="M678.89 588.152C677.287 588.047 675.783 587.336 674.685 586.163C673.587 584.991 672.976 583.444 672.976 581.838C672.976 580.231 673.587 578.684 674.685 577.512C675.783 576.339 677.287 575.628 678.89 575.523C694.331 575.523 707.393 553.376 707.393 527.145C707.393 525.474 708.056 523.871 709.238 522.689C710.42 521.508 712.022 520.844 713.693 520.844C715.364 520.844 716.967 521.508 718.149 522.689C719.33 523.871 719.994 525.474 719.994 527.145C720.075 561.353 702.038 588.152 678.89 588.152Z" fill="#7E57C2"/>
<path d="M774.403 588.152C773.539 588.208 772.673 588.087 771.858 587.795C771.043 587.504 770.296 587.048 769.664 586.456C769.032 585.864 768.529 585.149 768.184 584.354C767.84 583.56 767.662 582.703 767.662 581.838C767.662 580.972 767.84 580.115 768.184 579.321C768.529 578.526 769.032 577.811 769.664 577.219C770.296 576.627 771.043 576.171 771.858 575.88C772.673 575.588 773.539 575.467 774.403 575.523C789.845 575.523 802.906 553.376 802.906 527.145C802.906 525.474 803.57 523.871 804.751 522.689C805.933 521.508 807.536 520.844 809.207 520.844C810.878 520.844 812.481 521.508 813.662 522.689C814.844 523.871 815.508 525.474 815.508 527.145C815.508 561.353 797.443 588.152 774.403 588.152Z" fill="#7E57C2"/>
<path d="M869.808 588.151C868.205 588.046 866.701 587.335 865.603 586.163C864.505 584.99 863.894 583.444 863.894 581.837C863.894 580.23 864.505 578.684 865.603 577.511C866.701 576.338 868.205 575.627 869.808 575.522C885.276 575.522 898.311 553.375 898.311 527.144C898.415 525.541 899.126 524.037 900.299 522.939C901.472 521.841 903.018 521.229 904.625 521.229C906.232 521.229 907.778 521.841 908.951 522.939C910.123 524.037 910.834 525.541 910.939 527.144C910.939 561.352 892.875 588.151 869.808 588.151Z" fill="#7E57C2"/>
<path d="M965.241 588.151C963.637 588.046 962.134 587.335 961.036 586.163C959.937 584.99 959.326 583.444 959.326 581.837C959.326 580.23 959.937 578.684 961.036 577.511C962.134 576.338 963.637 575.627 965.241 575.522C980.682 575.522 993.743 553.375 993.743 527.144C993.848 525.541 994.559 524.037 995.732 522.939C996.904 521.841 998.451 521.229 1000.06 521.229C1001.66 521.229 1003.21 521.841 1004.38 522.939C1005.56 524.037 1006.27 525.541 1006.37 527.144C1006.37 561.352 988.308 588.151 965.241 588.151Z" fill="#7E57C2"/>
<g opacity="0.3">
<path d="M488.107 588.152C486.504 588.047 485 587.336 483.902 586.164C482.804 584.991 482.192 583.445 482.192 581.838C482.192 580.231 482.804 578.685 483.902 577.512C485 576.339 486.504 575.628 488.107 575.523C503.575 575.523 516.609 553.376 516.609 527.145C516.714 525.542 517.425 524.038 518.598 522.94C519.77 521.842 521.317 521.23 522.924 521.23C524.53 521.23 526.077 521.842 527.25 522.94C528.422 524.038 529.133 525.542 529.238 527.145C529.238 561.353 511.228 588.152 488.107 588.152Z" fill="black"/>
<path d="M583.538 588.152C581.935 588.047 580.432 587.336 579.334 586.164C578.235 584.991 577.624 583.445 577.624 581.838C577.624 580.231 578.235 578.685 579.334 577.512C580.432 576.339 581.935 575.628 583.538 575.523C599.007 575.523 612.041 553.376 612.041 527.145C612.146 525.542 612.857 524.038 614.029 522.94C615.202 521.842 616.749 521.23 618.355 521.23C619.962 521.23 621.509 521.842 622.681 522.94C623.854 524.038 624.565 525.542 624.67 527.145C624.805 561.353 606.606 588.152 583.538 588.152Z" fill="black"/>
<path d="M678.89 588.152C677.287 588.047 675.783 587.336 674.685 586.163C673.587 584.991 672.976 583.444 672.976 581.838C672.976 580.231 673.587 578.684 674.685 577.512C675.783 576.339 677.287 575.628 678.89 575.523C694.331 575.523 707.393 553.376 707.393 527.145C707.393 525.474 708.056 523.871 709.238 522.689C710.42 521.508 712.022 520.844 713.693 520.844C715.364 520.844 716.967 521.508 718.149 522.689C719.33 523.871 719.994 525.474 719.994 527.145C720.075 561.353 702.038 588.152 678.89 588.152Z" fill="black"/>
<path d="M774.403 588.152C773.539 588.208 772.673 588.087 771.858 587.795C771.043 587.504 770.296 587.048 769.664 586.456C769.032 585.864 768.529 585.149 768.184 584.354C767.84 583.56 767.662 582.703 767.662 581.838C767.662 580.972 767.84 580.115 768.184 579.321C768.529 578.526 769.032 577.811 769.664 577.219C770.296 576.627 771.043 576.171 771.858 575.88C772.673 575.588 773.539 575.467 774.403 575.523C789.845 575.523 802.906 553.376 802.906 527.145C802.906 525.474 803.57 523.871 804.751 522.689C805.933 521.508 807.536 520.844 809.207 520.844C810.878 520.844 812.481 521.508 813.662 522.689C814.844 523.871 815.508 525.474 815.508 527.145C815.508 561.353 797.443 588.152 774.403 588.152Z" fill="black"/>
<path d="M869.808 588.152C868.205 588.047 866.701 587.336 865.603 586.164C864.505 584.991 863.894 583.445 863.894 581.838C863.894 580.231 864.505 578.685 865.603 577.512C866.701 576.339 868.205 575.628 869.808 575.523C885.276 575.523 898.311 553.376 898.311 527.145C898.415 525.542 899.126 524.038 900.299 522.94C901.472 521.842 903.018 521.23 904.625 521.23C906.232 521.23 907.778 521.842 908.951 522.94C910.123 524.038 910.834 525.542 910.939 527.145C910.939 561.353 892.875 588.152 869.808 588.152Z" fill="black"/>
<path d="M965.24 588.152C963.636 588.047 962.133 587.336 961.035 586.164C959.936 584.991 959.325 583.445 959.325 581.838C959.325 580.231 959.936 578.685 961.035 577.512C962.133 576.339 963.636 575.628 965.24 575.523C980.681 575.523 993.742 553.376 993.742 527.145C993.847 525.542 994.558 524.038 995.731 522.94C996.903 521.842 998.45 521.23 1000.06 521.23C1001.66 521.23 1003.21 521.842 1004.38 522.94C1005.55 524.038 1006.27 525.542 1006.37 527.145C1006.37 561.353 988.307 588.152 965.24 588.152Z" fill="black"/>
</g>
<path d="M428.317 533.608H1042.66C1050.9 533.773 1058.79 536.938 1064.86 542.509C1070.93 548.081 1074.76 555.675 1075.63 563.868L1109.65 947.408C1110.06 951.257 1109.65 955.149 1108.45 958.828C1107.25 962.507 1105.28 965.889 1102.67 968.749C1100.06 971.61 1096.88 973.884 1093.32 975.422C1089.77 976.959 1085.93 977.725 1082.06 977.669H467.691C459.457 977.492 451.57 974.323 445.503 968.754C439.436 963.185 435.605 955.597 434.726 947.408L400.734 563.868C400.316 560.019 400.721 556.125 401.922 552.444C403.123 548.763 405.093 545.379 407.702 542.518C410.31 539.656 413.497 537.382 417.051 535.846C420.605 534.31 424.446 533.547 428.317 533.608Z" fill="#7E57C2"/>
<path opacity="0.4" d="M428.317 533.608H1042.66C1050.9 533.773 1058.79 536.938 1064.86 542.509C1070.93 548.081 1074.76 555.675 1075.63 563.868L1109.65 947.408C1110.06 951.257 1109.65 955.149 1108.45 958.828C1107.25 962.507 1105.28 965.889 1102.67 968.749C1100.06 971.61 1096.88 973.884 1093.32 975.422C1089.77 976.959 1085.93 977.725 1082.06 977.669H467.691C459.457 977.492 451.57 974.323 445.503 968.754C439.436 963.185 435.605 955.597 434.726 947.408L400.734 563.868C400.316 560.019 400.721 556.125 401.922 552.444C403.123 548.763 405.093 545.379 407.702 542.518C410.31 539.656 413.497 537.382 417.051 535.846C420.605 534.31 424.446 533.547 428.317 533.608Z" fill="#FAFAFA"/>
<path d="M1037.55 533.607H423.179C415.052 533.704 407.266 536.882 401.393 542.499C395.52 548.116 391.998 555.753 391.539 563.867L374.232 947.407C374.026 951.315 374.62 955.223 375.977 958.893C377.334 962.562 379.426 965.916 382.125 968.749C384.824 971.582 388.072 973.835 391.672 975.368C395.272 976.902 399.147 977.684 403.059 977.668H1017.49C1025.61 977.571 1033.4 974.393 1039.27 968.776C1045.15 963.159 1048.67 955.521 1049.13 947.407L1066.46 563.867C1066.66 559.954 1066.06 556.041 1064.7 552.367C1063.34 548.694 1061.24 545.337 1058.53 542.504C1055.82 539.671 1052.57 537.42 1048.96 535.89C1045.35 534.36 1041.47 533.583 1037.55 533.607Z" fill="#7E57C2"/>
<path opacity="0.2" d="M1037.55 533.607H423.179C415.052 533.704 407.266 536.882 401.393 542.499C395.52 548.116 391.998 555.753 391.539 563.867L374.232 947.407C374.026 951.315 374.62 955.223 375.977 958.893C377.334 962.562 379.426 965.916 382.125 968.749C384.824 971.582 388.072 973.835 391.672 975.368C395.272 976.902 399.147 977.684 403.059 977.668H1017.49C1025.61 977.571 1033.4 974.393 1039.27 968.776C1045.15 963.159 1048.67 955.521 1049.13 947.407L1066.46 563.867C1066.66 559.954 1066.06 556.041 1064.7 552.367C1063.34 548.694 1061.24 545.337 1058.53 542.504C1055.82 539.671 1052.57 537.42 1048.96 535.89C1045.35 534.36 1041.47 533.583 1037.55 533.607Z" fill="#FAFAFA"/>
<path d="M434.455 876.313L448.76 559.567C448.932 556.46 450.28 553.535 452.53 551.385C454.78 549.236 457.764 548.023 460.875 547.993H998.556C1000.06 547.984 1001.54 548.281 1002.92 548.866C1004.3 549.451 1005.55 550.312 1006.58 551.395C1007.62 552.479 1008.42 553.763 1008.94 555.168C1009.46 556.573 1009.69 558.07 1009.62 559.567L995.284 876.313C995.113 879.42 993.765 882.346 991.515 884.495C989.265 886.645 986.281 887.858 983.169 887.887H445.515C444.016 887.897 442.531 887.6 441.151 887.015C439.771 886.43 438.525 885.569 437.489 884.485C436.454 883.401 435.651 882.118 435.129 880.712C434.607 879.307 434.378 877.81 434.455 876.313Z" fill="#7E57C2"/>
<path opacity="0.1" d="M434.455 876.313L448.76 559.567C448.932 556.46 450.28 553.535 452.53 551.385C454.78 549.236 457.764 548.023 460.875 547.993H998.556C1000.06 547.984 1001.54 548.281 1002.92 548.866C1004.3 549.451 1005.55 550.312 1006.58 551.395C1007.62 552.479 1008.42 553.763 1008.94 555.168C1009.46 556.573 1009.69 558.07 1009.62 559.567L995.284 876.313C995.113 879.42 993.765 882.346 991.515 884.495C989.265 886.645 986.281 887.858 983.169 887.887H445.515C444.016 887.897 442.531 887.6 441.151 887.015C439.771 886.43 438.525 885.569 437.489 884.485C436.454 883.401 435.651 882.118 435.129 880.712C434.607 879.307 434.378 877.81 434.455 876.313Z" fill="#FAFAFA"/>
<path opacity="0.1" d="M419.285 902.166L434.293 569.547C434.465 566.284 435.877 563.211 438.239 560.954C440.601 558.697 443.736 557.428 447.003 557.405H1011.64C1013.22 557.391 1014.78 557.7 1016.23 558.313C1017.68 558.925 1018.98 559.828 1020.07 560.966C1021.16 562.104 1022 563.452 1022.55 564.928C1023.09 566.403 1023.33 567.975 1023.25 569.547L1008.21 902.166C1008.04 905.427 1006.63 908.499 1004.28 910.76C1001.92 913.02 998.792 914.298 995.528 914.335H430.832C429.259 914.345 427.701 914.033 426.255 913.417C424.808 912.8 423.503 911.894 422.421 910.753C421.338 909.613 420.501 908.262 419.962 906.785C419.423 905.308 419.192 903.736 419.285 902.166Z" fill="black"/>
<path d="M405.331 928.992L420.988 582.04C421.198 578.647 422.679 575.458 425.134 573.108C427.59 570.758 430.84 569.418 434.239 569.357H1023.25C1024.89 569.343 1026.52 569.667 1028.03 570.307C1029.54 570.947 1030.91 571.89 1032.05 573.078C1033.18 574.266 1034.06 575.675 1034.63 577.216C1035.2 578.757 1035.45 580.399 1035.36 582.04L1019.62 928.992C1019.41 932.384 1017.93 935.573 1015.48 937.923C1013.02 940.274 1009.77 941.613 1006.37 941.674H417.446C415.801 941.692 414.171 941.371 412.655 940.733C411.14 940.094 409.772 939.151 408.636 937.962C407.5 936.773 406.621 935.363 406.052 933.82C405.484 932.277 405.238 930.634 405.331 928.992Z" fill="#FAFAFA"/>
<path d="M965.16 590.153C964.052 590.155 962.956 589.93 961.938 589.492C960.921 589.054 960.004 588.413 959.244 587.607C958.484 586.801 957.897 585.849 957.519 584.807C957.141 583.766 956.98 582.659 957.047 581.553C957.15 579.384 958.078 577.335 959.642 575.827C961.205 574.319 963.285 573.466 965.457 573.44C966.565 573.438 967.661 573.663 968.678 574.101C969.696 574.539 970.613 575.18 971.373 575.986C972.133 576.792 972.72 577.744 973.098 578.786C973.475 579.827 973.636 580.934 973.57 582.04C973.466 584.209 972.538 586.258 970.975 587.766C969.412 589.274 967.331 590.127 965.16 590.153Z" fill="#7E57C2"/>
<path d="M869.727 590.153C868.619 590.155 867.523 589.93 866.506 589.492C865.488 589.054 864.571 588.413 863.811 587.607C863.051 586.801 862.464 585.849 862.086 584.807C861.708 583.766 861.548 582.659 861.614 581.553C861.718 579.384 862.646 577.335 864.209 575.827C865.772 574.319 867.852 573.466 870.024 573.44C871.132 573.438 872.228 573.663 873.246 574.101C874.263 574.539 875.18 575.18 875.94 575.986C876.7 576.792 877.287 577.744 877.665 578.786C878.043 579.827 878.203 580.934 878.137 582.04C878.04 584.212 877.114 586.264 875.549 587.773C873.985 589.282 871.901 590.134 869.727 590.153Z" fill="#7E57C2"/>
<path d="M774.295 590.153C773.188 590.155 772.091 589.93 771.074 589.492C770.057 589.054 769.14 588.413 768.38 587.607C767.619 586.801 767.032 585.849 766.655 584.807C766.277 583.766 766.116 582.659 766.183 581.553C766.292 579.386 767.222 577.341 768.784 575.835C770.346 574.328 772.423 573.472 774.593 573.44C775.7 573.438 776.797 573.663 777.814 574.101C778.831 574.539 779.748 575.18 780.508 575.986C781.268 576.792 781.856 577.744 782.233 578.786C782.611 579.827 782.772 580.934 782.705 582.04C782.609 584.212 781.682 586.264 780.118 587.773C778.553 589.282 776.469 590.134 774.295 590.153Z" fill="#7E57C2"/>
<path d="M678.89 590.153C677.782 590.155 676.686 589.93 675.669 589.492C674.651 589.054 673.734 588.413 672.974 587.607C672.214 586.801 671.627 585.849 671.249 584.807C670.871 583.766 670.711 582.659 670.777 581.553C670.894 579.383 671.83 577.339 673.396 575.833C674.962 574.327 677.042 573.472 679.214 573.44C680.322 573.438 681.418 573.663 682.436 574.101C683.453 574.539 684.37 575.18 685.13 575.986C685.89 576.792 686.477 577.744 686.855 578.786C687.233 579.827 687.394 580.934 687.327 582.04C687.23 584.216 686.3 586.272 684.73 587.782C683.159 589.292 681.069 590.141 678.89 590.153Z" fill="#7E57C2"/>
<path d="M583.458 590.153C582.351 590.155 581.254 589.93 580.237 589.492C579.22 589.054 578.303 588.413 577.543 587.607C576.783 586.801 576.196 585.849 575.818 584.807C575.44 583.766 575.279 582.659 575.346 581.553C575.449 579.384 576.377 577.335 577.94 575.827C579.504 574.319 581.584 573.466 583.756 573.44C584.863 573.438 585.96 573.663 586.977 574.101C587.994 574.539 588.911 575.18 589.672 575.986C590.432 576.792 591.019 577.744 591.396 578.786C591.774 579.827 591.935 580.934 591.868 582.04C591.765 584.209 590.837 586.258 589.274 587.766C587.71 589.274 585.63 590.127 583.458 590.153Z" fill="#7E57C2"/>
<path d="M488.026 590.153C486.918 590.155 485.822 589.93 484.804 589.492C483.787 589.054 482.87 588.413 482.11 587.607C481.35 586.801 480.763 585.849 480.385 584.807C480.007 583.766 479.847 582.659 479.913 581.553C480.016 579.384 480.945 577.335 482.508 575.827C484.071 574.319 486.151 573.466 488.323 573.44C489.431 573.438 490.527 573.663 491.544 574.101C492.562 574.539 493.479 575.18 494.239 575.986C494.999 576.792 495.586 577.744 495.964 578.786C496.342 579.827 496.502 580.934 496.436 582.04C496.339 584.212 495.413 586.264 493.848 587.773C492.284 589.282 490.2 590.134 488.026 590.153Z" fill="#7E57C2"/>
<g opacity="0.1">
<path d="M965.159 590.153C964.051 590.155 962.955 589.93 961.937 589.492C960.92 589.054 960.003 588.413 959.243 587.607C958.483 586.801 957.896 585.849 957.518 584.807C957.14 583.766 956.979 582.659 957.046 581.553C957.149 579.384 958.077 577.335 959.641 575.827C961.204 574.319 963.284 573.466 965.456 573.44C966.564 573.438 967.66 573.663 968.677 574.101C969.695 574.539 970.612 575.18 971.372 575.986C972.132 576.792 972.719 577.744 973.097 578.786C973.475 579.827 973.635 580.934 973.569 582.04C973.465 584.209 972.537 586.258 970.974 587.766C969.411 589.274 967.33 590.127 965.159 590.153Z" fill="#FAFAFA"/>
<path d="M869.727 590.153C868.619 590.155 867.523 589.93 866.506 589.492C865.488 589.054 864.571 588.413 863.811 587.607C863.051 586.801 862.464 585.849 862.086 584.807C861.708 583.766 861.548 582.659 861.614 581.553C861.718 579.384 862.646 577.335 864.209 575.827C865.772 574.319 867.852 573.466 870.024 573.44C871.132 573.438 872.228 573.663 873.246 574.101C874.263 574.539 875.18 575.18 875.94 575.986C876.7 576.792 877.287 577.744 877.665 578.786C878.043 579.827 878.203 580.934 878.137 582.04C878.04 584.212 877.114 586.264 875.549 587.773C873.985 589.282 871.901 590.134 869.727 590.153Z" fill="#FAFAFA"/>
<path d="M774.295 590.153C773.188 590.155 772.091 589.93 771.074 589.492C770.057 589.054 769.14 588.413 768.38 587.607C767.619 586.801 767.032 585.849 766.655 584.807C766.277 583.766 766.116 582.659 766.183 581.553C766.292 579.386 767.222 577.341 768.784 575.835C770.346 574.328 772.423 573.472 774.593 573.44C775.7 573.438 776.797 573.663 777.814 574.101C778.831 574.539 779.748 575.18 780.508 575.986C781.268 576.792 781.856 577.744 782.233 578.786C782.611 579.827 782.772 580.934 782.705 582.04C782.609 584.212 781.682 586.264 780.118 587.773C778.553 589.282 776.469 590.134 774.295 590.153Z" fill="#FAFAFA"/>
<path d="M678.89 590.153C677.782 590.155 676.686 589.93 675.669 589.492C674.651 589.054 673.734 588.413 672.974 587.607C672.214 586.801 671.627 585.849 671.249 584.807C670.871 583.766 670.711 582.659 670.777 581.553C670.894 579.383 671.83 577.339 673.396 575.833C674.962 574.327 677.042 573.472 679.214 573.44C680.322 573.438 681.418 573.663 682.436 574.101C683.453 574.539 684.37 575.18 685.13 575.986C685.89 576.792 686.477 577.744 686.855 578.786C687.233 579.827 687.394 580.934 687.327 582.04C687.23 584.216 686.3 586.272 684.73 587.782C683.159 589.292 681.069 590.141 678.89 590.153Z" fill="#FAFAFA"/>
<path d="M583.457 590.153C582.35 590.155 581.253 589.93 580.236 589.492C579.219 589.054 578.302 588.413 577.542 587.607C576.782 586.801 576.195 585.849 575.817 584.807C575.439 583.766 575.278 582.659 575.345 581.553C575.448 579.384 576.376 577.335 577.939 575.827C579.503 574.319 581.583 573.466 583.755 573.44C584.862 573.438 585.959 573.663 586.976 574.101C587.993 574.539 588.91 575.18 589.671 575.986C590.431 576.792 591.018 577.744 591.395 578.786C591.773 579.827 591.934 580.934 591.868 582.04C591.764 584.209 590.836 586.258 589.273 587.766C587.709 589.274 585.629 590.127 583.457 590.153Z" fill="#FAFAFA"/>
<path d="M488.026 590.153C486.918 590.155 485.822 589.93 484.804 589.492C483.787 589.054 482.87 588.413 482.11 587.607C481.35 586.801 480.763 585.849 480.385 584.807C480.007 583.766 479.847 582.659 479.913 581.553C480.016 579.384 480.945 577.335 482.508 575.827C484.071 574.319 486.151 573.466 488.323 573.44C489.431 573.438 490.527 573.663 491.544 574.101C492.562 574.539 493.479 575.18 494.239 575.986C494.999 576.792 495.586 577.744 495.964 578.786C496.342 579.827 496.502 580.934 496.436 582.04C496.339 584.212 495.413 586.264 493.848 587.773C492.284 589.282 490.2 590.134 488.026 590.153Z" fill="#FAFAFA"/>
</g>
<path d="M511.878 620.385H463.878C463.182 620.391 462.492 620.252 461.853 619.978C461.213 619.704 460.638 619.299 460.162 618.791C459.687 618.283 459.323 617.681 459.092 617.025C458.861 616.368 458.769 615.671 458.821 614.977C458.874 613.56 459.461 612.215 460.464 611.212C461.467 610.209 462.812 609.622 464.229 609.569H512.229C512.925 609.563 513.615 609.702 514.254 609.976C514.894 610.25 515.469 610.655 515.945 611.163C516.42 611.671 516.785 612.273 517.016 612.929C517.247 613.586 517.339 614.283 517.286 614.977C517.233 616.394 516.646 617.739 515.643 618.742C514.64 619.745 513.295 620.332 511.878 620.385Z" fill="#7E57C2"/>
<path d="M607.309 620.385H559.309C558.614 620.391 557.924 620.252 557.284 619.978C556.645 619.704 556.069 619.299 555.594 618.791C555.119 618.283 554.754 617.681 554.523 617.025C554.292 616.368 554.2 615.671 554.253 614.977C554.308 613.537 554.914 612.173 555.945 611.167C556.977 610.16 558.355 609.588 559.796 609.569H607.769C608.466 609.563 609.157 609.702 609.798 609.976C610.438 610.25 611.016 610.654 611.493 611.162C611.97 611.67 612.338 612.271 612.572 612.927C612.806 613.584 612.902 614.282 612.853 614.977C612.798 616.417 612.192 617.781 611.16 618.787C610.129 619.794 608.75 620.366 607.309 620.385Z" fill="#7E57C2"/>
<path d="M702.742 620.385H654.742C654.045 620.391 653.354 620.252 652.713 619.978C652.072 619.704 651.495 619.3 651.018 618.792C650.54 618.284 650.173 617.683 649.939 617.027C649.705 616.37 649.609 615.672 649.658 614.977C649.713 613.537 650.319 612.173 651.35 611.167C652.382 610.16 653.76 609.588 655.201 609.569H703.228C703.924 609.563 704.614 609.702 705.253 609.976C705.893 610.25 706.468 610.655 706.944 611.163C707.419 611.671 707.784 612.273 708.015 612.929C708.246 613.586 708.338 614.283 708.285 614.977C708.237 616.419 707.633 617.787 706.6 618.795C705.567 619.802 704.185 620.372 702.742 620.385Z" fill="#7E57C2"/>
<path d="M798.146 620.385H750.146C749.45 620.391 748.761 620.252 748.121 619.978C747.482 619.704 746.906 619.299 746.431 618.791C745.956 618.283 745.591 617.681 745.36 617.025C745.129 616.368 745.037 615.671 745.089 614.977C745.143 613.56 745.73 612.215 746.733 611.212C747.736 610.209 749.081 609.622 750.498 609.569H798.498C799.194 609.563 799.883 609.702 800.523 609.976C801.162 610.25 801.738 610.655 802.213 611.163C802.689 611.671 803.053 612.273 803.284 612.929C803.515 613.586 803.607 614.283 803.555 614.977C803.501 616.394 802.914 617.739 801.911 618.742C800.908 619.745 799.564 620.332 798.146 620.385Z" fill="#7E57C2"/>
<path d="M893.579 620.385H845.579C844.883 620.391 844.194 620.252 843.554 619.978C842.915 619.704 842.339 619.299 841.864 618.791C841.388 618.283 841.024 617.681 840.793 617.025C840.562 616.368 840.47 615.671 840.522 614.977C840.577 613.537 841.183 612.173 842.215 611.167C843.246 610.16 844.625 609.588 846.066 609.569H894.066C894.762 609.563 895.451 609.702 896.091 609.976C896.73 610.25 897.306 610.655 897.781 611.163C898.256 611.671 898.621 612.273 898.852 612.929C899.083 613.586 899.175 614.283 899.123 614.977C899.067 616.417 898.461 617.781 897.43 618.787C896.398 619.794 895.02 620.366 893.579 620.385Z" fill="#7E57C2"/>
<path d="M989.011 620.385H941.011C940.315 620.391 939.625 620.252 938.986 619.978C938.346 619.704 937.771 619.299 937.295 618.791C936.82 618.283 936.455 617.681 936.224 617.025C935.994 616.368 935.901 615.671 935.954 614.977C936.009 613.537 936.615 612.173 937.646 611.167C938.678 610.16 940.056 609.588 941.497 609.569H989.47C990.167 609.563 990.858 609.702 991.499 609.976C992.14 610.25 992.717 610.654 993.194 611.162C993.672 611.67 994.039 612.271 994.273 612.927C994.507 613.584 994.603 614.282 994.554 614.977C994.499 616.417 993.893 617.781 992.862 618.787C991.83 619.794 990.452 620.366 989.011 620.385Z" fill="#7E57C2"/>
<g opacity="0.3">
<path d="M511.878 620.385H463.878C463.182 620.391 462.492 620.252 461.853 619.978C461.213 619.704 460.638 619.299 460.162 618.791C459.687 618.283 459.323 617.681 459.092 617.025C458.861 616.368 458.769 615.671 458.821 614.977C458.874 613.56 459.461 612.215 460.464 611.212C461.467 610.209 462.812 609.622 464.229 609.569H512.229C512.925 609.563 513.615 609.702 514.254 609.976C514.894 610.25 515.469 610.655 515.945 611.163C516.42 611.671 516.785 612.273 517.016 612.929C517.247 613.586 517.339 614.283 517.286 614.977C517.233 616.394 516.646 617.739 515.643 618.742C514.64 619.745 513.295 620.332 511.878 620.385Z" fill="black"/>
<path d="M607.309 620.385H559.309C558.614 620.391 557.924 620.252 557.284 619.978C556.645 619.704 556.069 619.299 555.594 618.791C555.119 618.283 554.754 617.681 554.523 617.025C554.292 616.368 554.2 615.671 554.253 614.977C554.308 613.537 554.914 612.173 555.945 611.167C556.977 610.16 558.355 609.588 559.796 609.569H607.769C608.466 609.563 609.157 609.702 609.798 609.976C610.438 610.25 611.016 610.654 611.493 611.162C611.97 611.67 612.338 612.271 612.572 612.927C612.806 613.584 612.902 614.282 612.853 614.977C612.798 616.417 612.192 617.781 611.16 618.787C610.129 619.794 608.75 620.366 607.309 620.385Z" fill="black"/>
<path d="M702.742 620.385H654.742C654.045 620.391 653.354 620.252 652.713 619.978C652.072 619.704 651.495 619.3 651.018 618.792C650.54 618.284 650.173 617.683 649.939 617.027C649.705 616.37 649.609 615.672 649.658 614.977C649.713 613.537 650.319 612.173 651.35 611.167C652.382 610.16 653.76 609.588 655.201 609.569H703.228C703.924 609.563 704.614 609.702 705.253 609.976C705.893 610.25 706.468 610.655 706.944 611.163C707.419 611.671 707.784 612.273 708.015 612.929C708.246 613.586 708.338 614.283 708.285 614.977C708.237 616.419 707.633 617.787 706.6 618.795C705.567 619.802 704.185 620.372 702.742 620.385Z" fill="black"/>
<path d="M798.147 620.385H750.147C749.451 620.391 748.762 620.252 748.122 619.978C747.483 619.704 746.907 619.299 746.432 618.791C745.957 618.283 745.592 617.681 745.361 617.025C745.13 616.368 745.038 615.671 745.09 614.977C745.144 613.56 745.731 612.215 746.734 611.212C747.737 610.209 749.082 609.622 750.499 609.569H798.499C799.195 609.563 799.884 609.702 800.524 609.976C801.163 610.25 801.739 610.655 802.214 611.163C802.69 611.671 803.054 612.273 803.285 612.929C803.516 613.586 803.608 614.283 803.556 614.977C803.502 616.394 802.915 617.739 801.912 618.742C800.909 619.745 799.565 620.332 798.147 620.385Z" fill="black"/>
<path d="M893.579 620.385H845.579C844.883 620.391 844.194 620.252 843.554 619.978C842.915 619.704 842.339 619.299 841.864 618.791C841.388 618.283 841.024 617.681 840.793 617.025C840.562 616.368 840.47 615.671 840.522 614.977C840.577 613.537 841.183 612.173 842.215 611.167C843.246 610.16 844.625 609.588 846.066 609.569H894.066C894.762 609.563 895.451 609.702 896.091 609.976C896.73 610.25 897.306 610.655 897.781 611.163C898.256 611.671 898.621 612.273 898.852 612.929C899.083 613.586 899.175 614.283 899.123 614.977C899.067 616.417 898.461 617.781 897.43 618.787C896.398 619.794 895.02 620.366 893.579 620.385Z" fill="black"/>
<path d="M989.011 620.385H941.011C940.315 620.391 939.625 620.252 938.986 619.978C938.346 619.704 937.771 619.299 937.295 618.791C936.82 618.283 936.455 617.681 936.224 617.025C935.994 616.368 935.901 615.671 935.954 614.977C936.009 613.537 936.615 612.173 937.646 611.167C938.678 610.16 940.056 609.588 941.497 609.569H989.47C990.167 609.563 990.858 609.702 991.499 609.976C992.14 610.25 992.717 610.654 993.194 611.162C993.672 611.67 994.039 612.271 994.273 612.927C994.507 613.584 994.603 614.282 994.554 614.977C994.499 616.417 993.893 617.781 992.862 618.787C991.83 619.794 990.452 620.366 989.011 620.385Z" fill="black"/>
</g>
<path d="M514.527 722.525H452.006C450.635 722.53 449.277 722.256 448.015 721.719C446.753 721.182 445.614 720.393 444.668 719.401C443.721 718.409 442.987 717.234 442.51 715.948C442.032 714.663 441.822 713.293 441.892 711.924L444.596 649.402C444.76 646.56 445.995 643.887 448.053 641.919C450.11 639.952 452.837 638.838 455.684 638.802H518.205C519.576 638.796 520.934 639.071 522.196 639.608C523.458 640.145 524.597 640.933 525.543 641.926C526.49 642.918 527.224 644.092 527.702 645.378C528.179 646.664 528.389 648.033 528.319 649.402L525.615 711.924C525.445 714.764 524.207 717.434 522.151 719.4C520.095 721.366 517.372 722.482 514.527 722.525Z" fill="#7E57C2"/>
<path d="M609.96 722.525H547.438C546.066 722.534 544.706 722.262 543.442 721.727C542.179 721.191 541.038 720.402 540.091 719.409C539.143 718.416 538.409 717.24 537.934 715.953C537.458 714.665 537.25 713.294 537.324 711.924L540.028 649.402C540.192 646.56 541.428 643.887 543.485 641.919C545.543 639.952 548.269 638.838 551.116 638.802H613.718C615.091 638.797 616.45 639.071 617.713 639.607C618.976 640.144 620.117 640.933 621.065 641.924C622.014 642.916 622.751 644.09 623.231 645.376C623.712 646.662 623.925 648.032 623.859 649.402L621.02 711.924C620.863 714.763 619.633 717.437 617.58 719.405C615.527 721.373 612.803 722.488 609.96 722.525Z" fill="#7E57C2"/>
<path d="M705.365 722.525H642.87C641.498 722.53 640.139 722.256 638.876 721.719C637.613 721.182 636.472 720.394 635.523 719.402C634.575 718.411 633.838 717.236 633.357 715.951C632.877 714.665 632.663 713.295 632.729 711.924L635.434 649.403C635.598 646.561 636.833 643.887 638.89 641.92C640.948 639.952 643.675 638.838 646.521 638.802H709.016C710.388 638.793 711.748 639.064 713.011 639.6C714.275 640.136 715.415 640.924 716.363 641.917C717.31 642.91 718.044 644.087 718.52 645.374C718.996 646.661 719.203 648.032 719.129 649.403L716.425 711.924C716.262 714.761 715.03 717.432 712.978 719.398C710.927 721.365 708.207 722.482 705.365 722.525Z" fill="#7E57C2"/>
<path d="M800.797 722.525H738.383C737.01 722.534 735.649 722.262 734.384 721.727C733.119 721.191 731.977 720.403 731.028 719.411C730.078 718.418 729.341 717.242 728.862 715.955C728.383 714.667 728.173 713.296 728.243 711.924L730.947 649.402C731.104 646.563 732.334 643.889 734.387 641.921C736.44 639.953 739.163 638.839 742.007 638.802H804.529C805.9 638.796 807.258 639.071 808.52 639.608C809.781 640.145 810.92 640.933 811.867 641.926C812.813 642.918 813.548 644.092 814.025 645.378C814.502 646.664 814.712 648.033 814.643 649.402L811.938 711.924C811.774 714.775 810.531 717.457 808.462 719.425C806.393 721.394 803.653 722.502 800.797 722.525Z" fill="#7E57C2"/>
<path d="M896.229 722.525H833.707C832.336 722.53 830.978 722.256 829.716 721.719C828.454 721.182 827.315 720.393 826.369 719.401C825.422 718.409 824.688 717.234 824.211 715.949C823.733 714.663 823.523 713.294 823.593 711.924L826.297 649.402C826.461 646.561 827.697 643.887 829.754 641.919C831.812 639.952 834.538 638.838 837.385 638.802H899.879C901.253 638.793 902.614 639.064 903.879 639.6C905.144 640.135 906.286 640.923 907.235 641.916C908.185 642.908 908.921 644.084 909.4 645.372C909.879 646.659 910.09 648.031 910.02 649.402L907.316 711.924C907.146 714.764 905.909 717.434 903.852 719.4C901.796 721.366 899.073 722.482 896.229 722.525Z" fill="#7E57C2"/>
<path d="M991.634 722.525H929.139C927.767 722.534 926.407 722.262 925.143 721.727C923.88 721.191 922.739 720.402 921.792 719.409C920.845 718.416 920.11 717.24 919.635 715.953C919.159 714.665 918.951 713.294 919.025 711.924L921.73 649.402C921.894 646.56 923.129 643.887 925.186 641.919C927.244 639.952 929.971 638.838 932.817 638.802H995.312C996.684 638.797 998.043 639.071 999.306 639.607C1000.57 640.144 1001.71 640.933 1002.66 641.924C1003.61 642.916 1004.34 644.09 1004.82 645.376C1005.3 646.662 1005.52 648.032 1005.45 649.402L1002.61 711.924C1002.46 714.75 1001.24 717.412 999.203 719.378C997.167 721.344 994.463 722.468 991.634 722.525Z" fill="#7E57C2"/>
<g opacity="0.8">
<path d="M514.527 722.525H452.006C450.635 722.53 449.277 722.256 448.015 721.719C446.753 721.182 445.614 720.393 444.668 719.401C443.721 718.409 442.987 717.234 442.51 715.948C442.032 714.663 441.822 713.293 441.892 711.924L444.596 649.402C444.76 646.56 445.995 643.887 448.053 641.919C450.11 639.952 452.837 638.838 455.684 638.802H518.205C519.576 638.796 520.934 639.071 522.196 639.608C523.458 640.145 524.597 640.933 525.543 641.926C526.49 642.918 527.224 644.092 527.702 645.378C528.179 646.664 528.389 648.033 528.319 649.402L525.615 711.924C525.445 714.764 524.207 717.434 522.151 719.4C520.095 721.366 517.372 722.482 514.527 722.525Z" fill="#FAFAFA"/>
<path d="M609.96 722.525H547.438C546.066 722.534 544.706 722.262 543.442 721.727C542.179 721.191 541.038 720.402 540.091 719.409C539.143 718.416 538.409 717.24 537.934 715.953C537.458 714.665 537.25 713.294 537.324 711.924L540.028 649.402C540.192 646.56 541.428 643.887 543.485 641.919C545.543 639.952 548.269 638.838 551.116 638.802H613.718C615.091 638.797 616.45 639.071 617.713 639.607C618.976 640.144 620.117 640.933 621.065 641.924C622.014 642.916 622.751 644.09 623.231 645.376C623.712 646.662 623.925 648.032 623.859 649.402L621.02 711.924C620.863 714.763 619.633 717.437 617.58 719.405C615.527 721.373 612.803 722.488 609.96 722.525Z" fill="#FAFAFA"/>
<path d="M705.365 722.525H642.87C641.498 722.53 640.139 722.256 638.876 721.719C637.613 721.182 636.472 720.394 635.523 719.402C634.575 718.411 633.838 717.236 633.357 715.951C632.877 714.665 632.663 713.295 632.729 711.924L635.434 649.403C635.598 646.561 636.833 643.887 638.89 641.92C640.948 639.952 643.675 638.838 646.521 638.802H709.016C710.388 638.793 711.748 639.064 713.011 639.6C714.275 640.136 715.415 640.924 716.363 641.917C717.31 642.91 718.044 644.087 718.52 645.374C718.996 646.661 719.203 648.032 719.129 649.403L716.425 711.924C716.262 714.761 715.03 717.432 712.978 719.398C710.927 721.365 708.207 722.482 705.365 722.525Z" fill="#FAFAFA"/>
<path d="M800.797 722.525H738.383C737.01 722.534 735.649 722.262 734.384 721.727C733.119 721.191 731.977 720.403 731.028 719.411C730.078 718.418 729.341 717.242 728.862 715.955C728.383 714.667 728.173 713.296 728.243 711.924L730.947 649.402C731.104 646.563 732.334 643.889 734.387 641.921C736.44 639.953 739.163 638.839 742.007 638.802H804.529C805.9 638.796 807.258 639.071 808.52 639.608C809.781 640.145 810.92 640.933 811.867 641.926C812.813 642.918 813.548 644.092 814.025 645.378C814.502 646.664 814.712 648.033 814.643 649.402L811.938 711.924C811.774 714.775 810.531 717.457 808.462 719.425C806.393 721.394 803.653 722.502 800.797 722.525Z" fill="#FAFAFA"/>
<path d="M896.229 722.525H833.707C832.336 722.53 830.978 722.256 829.716 721.719C828.454 721.182 827.315 720.393 826.369 719.401C825.422 718.409 824.688 717.234 824.211 715.949C823.733 714.663 823.523 713.294 823.593 711.924L826.297 649.402C826.461 646.561 827.697 643.887 829.754 641.919C831.812 639.952 834.538 638.838 837.385 638.802H899.879C901.253 638.793 902.614 639.064 903.879 639.6C905.144 640.135 906.286 640.923 907.235 641.916C908.185 642.908 908.921 644.084 909.4 645.372C909.879 646.659 910.09 648.031 910.02 649.402L907.316 711.924C907.146 714.764 905.909 717.434 903.852 719.4C901.796 721.366 899.073 722.482 896.229 722.525Z" fill="#FAFAFA"/>
<path d="M991.634 722.525H929.139C927.767 722.534 926.407 722.262 925.143 721.727C923.88 721.191 922.739 720.402 921.792 719.409C920.845 718.416 920.11 717.24 919.635 715.953C919.159 714.665 918.951 713.294 919.025 711.924L921.73 649.402C921.894 646.56 923.129 643.887 925.186 641.919C927.244 639.952 929.971 638.838 932.817 638.802H995.312C996.684 638.797 998.043 639.071 999.306 639.607C1000.57 640.144 1001.71 640.933 1002.66 641.924C1003.61 642.916 1004.34 644.09 1004.82 645.376C1005.3 646.662 1005.52 648.032 1005.45 649.402L1002.61 711.924C1002.46 714.75 1001.24 717.412 999.203 719.378C997.167 721.344 994.463 722.468 991.634 722.525Z" fill="#FAFAFA"/>
</g>
<path d="M510.147 819.525H447.625C446.254 819.53 444.896 819.256 443.634 818.719C442.372 818.182 441.233 817.393 440.287 816.401C439.34 815.409 438.606 814.234 438.129 812.948C437.651 811.663 437.441 810.293 437.511 808.924L440.215 746.402C440.386 743.563 441.623 740.892 443.679 738.926C445.735 736.961 448.458 735.844 451.303 735.802H513.932C515.304 735.796 516.662 736.071 517.923 736.608C519.185 737.145 520.324 737.933 521.271 738.926C522.217 739.918 522.952 741.092 523.429 742.378C523.906 743.664 524.116 745.033 524.046 746.402L521.342 808.924C521.17 811.782 519.918 814.468 517.839 816.437C515.76 818.405 513.01 819.509 510.147 819.525Z" fill="#7E57C2"/>
<path d="M605.578 819.525H543.057C541.685 819.53 540.327 819.256 539.066 818.719C537.804 818.182 536.665 817.393 535.718 816.401C534.772 815.409 534.038 814.234 533.56 812.949C533.083 811.663 532.873 810.294 532.943 808.924L535.647 746.403C535.811 743.561 537.046 740.887 539.104 738.92C541.161 736.952 543.888 735.838 546.734 735.802H609.229C610.613 735.792 611.985 736.067 613.259 736.608C614.533 737.15 615.682 737.948 616.635 738.952C617.588 739.956 618.325 741.144 618.8 742.445C619.275 743.745 619.478 745.129 619.397 746.511L616.693 808.924C616.535 811.773 615.297 814.454 613.233 816.424C611.168 818.393 608.431 819.502 605.578 819.525Z" fill="#7E57C2"/>
<path d="M700.983 819.525H638.489C637.116 819.534 635.757 819.263 634.493 818.727C633.23 818.191 632.089 817.402 631.142 816.409C630.194 815.416 629.46 814.24 628.984 812.953C628.508 811.666 628.301 810.295 628.375 808.924L631.079 746.403C631.243 743.561 632.478 740.887 634.536 738.92C636.593 736.952 639.32 735.838 642.166 735.802H704.661C706.033 735.793 707.393 736.064 708.657 736.6C709.92 737.136 711.061 737.924 712.008 738.917C712.955 739.91 713.69 741.087 714.165 742.374C714.641 743.661 714.849 745.032 714.775 746.403L712.071 808.924C711.907 811.766 710.671 814.44 708.614 816.407C706.556 818.374 703.83 819.488 700.983 819.525Z" fill="#7E57C2"/>
<path d="M796.416 819.525H733.921C732.549 819.53 731.19 819.256 729.927 818.72C728.663 818.183 727.523 817.394 726.574 816.403C725.625 815.411 724.888 814.237 724.408 812.951C723.928 811.665 723.714 810.295 723.78 808.925L726.485 746.403C726.642 743.563 727.871 740.89 729.924 738.922C731.978 736.954 734.701 735.839 737.545 735.802H800.066C801.459 735.777 802.841 736.041 804.126 736.576C805.412 737.112 806.572 737.907 807.535 738.913C808.498 739.919 809.242 741.114 809.72 742.421C810.199 743.729 810.402 745.121 810.315 746.511L807.611 809.033C807.42 811.874 806.158 814.537 804.08 816.484C802.002 818.431 799.263 819.518 796.416 819.525Z" fill="#7E57C2"/>
<path d="M891.848 819.525H829.326C827.955 819.531 826.597 819.257 825.335 818.719C824.073 818.182 822.935 817.394 821.988 816.402C821.041 815.409 820.307 814.235 819.83 812.949C819.353 811.664 819.142 810.294 819.212 808.925L821.917 746.403C822.061 743.54 823.29 740.839 825.355 738.849C827.419 736.86 830.164 735.732 833.031 735.694H895.553C896.924 735.689 898.282 735.963 899.543 736.5C900.805 737.037 901.944 737.826 902.891 738.818C903.837 739.81 904.572 740.985 905.049 742.271C905.526 743.556 905.736 744.926 905.666 746.295L902.962 808.817C902.818 811.68 901.589 814.381 899.524 816.37C897.459 818.36 894.715 819.488 891.848 819.525Z" fill="#7E57C2"/>
<path d="M987.172 819.525H924.758C923.386 819.534 922.026 819.262 920.763 818.727C919.499 818.191 918.359 817.402 917.411 816.409C916.464 815.416 915.73 814.24 915.254 812.953C914.778 811.665 914.571 810.294 914.644 808.924L917.349 746.402C917.513 743.56 918.748 740.887 920.805 738.919C922.863 736.952 925.59 735.838 928.436 735.802H990.931C992.303 735.797 993.662 736.071 994.925 736.607C996.188 737.144 997.329 737.933 998.278 738.924C999.226 739.916 999.963 741.09 1000.44 742.376C1000.92 743.662 1001.14 745.032 1001.07 746.402L998.232 808.924C998.075 811.763 996.845 814.437 994.792 816.405C992.739 818.373 990.015 819.488 987.172 819.525Z" fill="#7E57C2"/>
<g opacity="0.8">
<path d="M510.147 819.526H447.625C446.254 819.531 444.896 819.257 443.634 818.72C442.372 818.183 441.233 817.394 440.287 816.402C439.34 815.41 438.606 814.235 438.129 812.949C437.651 811.664 437.441 810.294 437.511 808.925L440.215 746.403C440.386 743.564 441.623 740.893 443.679 738.927C445.735 736.962 448.458 735.845 451.303 735.803H513.932C515.304 735.797 516.662 736.072 517.923 736.609C519.185 737.146 520.324 737.934 521.271 738.927C522.217 739.919 522.952 741.093 523.429 742.379C523.906 743.665 524.116 745.034 524.046 746.403L521.342 808.925C521.17 811.783 519.918 814.469 517.839 816.438C515.76 818.406 513.01 819.51 510.147 819.526Z" fill="#FAFAFA"/>
<path d="M605.578 819.526H543.057C541.685 819.531 540.327 819.257 539.066 818.72C537.804 818.183 536.665 817.394 535.718 816.402C534.772 815.41 534.038 814.235 533.56 812.95C533.083 811.664 532.873 810.295 532.943 808.925L535.647 746.403C535.811 743.562 537.046 740.888 539.104 738.921C541.161 736.953 543.888 735.839 546.734 735.803H609.229C610.613 735.793 611.985 736.068 613.259 736.609C614.533 737.151 615.682 737.949 616.635 738.953C617.588 739.956 618.325 741.145 618.8 742.446C619.275 743.746 619.478 745.13 619.397 746.512L616.693 808.925C616.535 811.774 615.297 814.455 613.233 816.425C611.168 818.394 608.431 819.503 605.578 819.526Z" fill="#FAFAFA"/>
<path d="M700.983 819.526H638.489C637.116 819.535 635.757 819.264 634.493 818.728C633.23 818.192 632.089 817.403 631.142 816.41C630.194 815.417 629.46 814.241 628.984 812.954C628.508 811.667 628.301 810.296 628.375 808.925L631.079 746.403C631.243 743.562 632.478 740.888 634.536 738.92C636.593 736.953 639.32 735.839 642.166 735.803H704.661C706.033 735.794 707.393 736.065 708.657 736.601C709.92 737.137 711.061 737.925 712.008 738.918C712.955 739.911 713.69 741.088 714.165 742.375C714.641 743.662 714.849 745.033 714.775 746.403L712.071 808.925C711.907 811.767 710.671 814.441 708.614 816.408C706.556 818.375 703.83 819.489 700.983 819.526Z" fill="#FAFAFA"/>
<path d="M796.416 819.525H733.921C732.549 819.53 731.19 819.256 729.927 818.72C728.663 818.183 727.523 817.394 726.574 816.403C725.625 815.411 724.888 814.237 724.408 812.951C723.928 811.665 723.714 810.295 723.78 808.925L726.485 746.403C726.642 743.563 727.871 740.89 729.924 738.922C731.978 736.954 734.701 735.839 737.545 735.802H800.066C801.459 735.777 802.841 736.041 804.126 736.576C805.412 737.112 806.572 737.907 807.535 738.913C808.498 739.919 809.242 741.114 809.72 742.421C810.199 743.729 810.402 745.121 810.315 746.511L807.611 809.033C807.42 811.874 806.158 814.537 804.08 816.484C802.002 818.431 799.263 819.518 796.416 819.525Z" fill="#FAFAFA"/>
<path d="M891.848 819.525H829.326C827.955 819.531 826.597 819.257 825.335 818.719C824.073 818.182 822.935 817.394 821.988 816.402C821.041 815.409 820.307 814.235 819.83 812.949C819.353 811.664 819.142 810.294 819.212 808.925L821.917 746.403C822.061 743.54 823.29 740.839 825.355 738.849C827.419 736.86 830.164 735.732 833.031 735.694H895.553C896.924 735.689 898.282 735.963 899.543 736.5C900.805 737.037 901.944 737.826 902.891 738.818C903.837 739.81 904.572 740.985 905.049 742.271C905.526 743.556 905.736 744.926 905.666 746.295L902.962 808.817C902.818 811.68 901.589 814.381 899.524 816.37C897.459 818.36 894.715 819.488 891.848 819.525Z" fill="#FAFAFA"/>
<path d="M987.172 819.526H924.758C923.386 819.535 922.026 819.263 920.763 818.728C919.499 818.192 918.359 817.403 917.411 816.41C916.464 815.417 915.73 814.241 915.254 812.954C914.778 811.666 914.571 810.295 914.644 808.925L917.349 746.403C917.513 743.561 918.748 740.887 920.805 738.92C922.863 736.953 925.59 735.839 928.436 735.803H990.931C992.303 735.798 993.662 736.072 994.925 736.608C996.188 737.145 997.329 737.933 998.278 738.925C999.226 739.917 999.963 741.091 1000.44 742.377C1000.92 743.663 1001.14 745.032 1001.07 746.403L998.232 808.925C998.075 811.764 996.845 814.438 994.792 816.406C992.739 818.374 990.015 819.489 987.172 819.526Z" fill="#FAFAFA"/>
</g>
<path d="M505.82 916.499H443.245C441.872 916.508 440.512 916.237 439.249 915.701C437.985 915.165 436.845 914.376 435.898 913.383C434.95 912.39 434.216 911.214 433.74 909.927C433.264 908.64 433.057 907.269 433.131 905.898L435.835 843.403C435.999 840.562 437.234 837.888 439.292 835.92C441.349 833.953 444.076 832.839 446.922 832.803H509.444C510.816 832.794 512.176 833.065 513.44 833.601C514.703 834.137 515.844 834.925 516.791 835.918C517.738 836.911 518.473 838.088 518.948 839.375C519.424 840.662 519.632 842.033 519.558 843.403L516.854 905.898C516.697 908.733 515.471 911.403 513.423 913.37C511.376 915.337 508.659 916.455 505.82 916.499Z" fill="#7E57C2"/>
<path d="M601.198 916.499H538.676C537.304 916.508 535.944 916.237 534.681 915.701C533.417 915.165 532.276 914.377 531.329 913.384C530.382 912.391 529.648 911.214 529.172 909.927C528.696 908.64 528.489 907.269 528.562 905.898L531.267 843.404C531.424 840.56 532.658 837.882 534.716 835.914C536.775 833.945 539.506 832.833 542.354 832.803H604.849C606.223 832.79 607.586 833.059 608.853 833.593C610.119 834.127 611.263 834.915 612.213 835.908C613.164 836.902 613.9 838.079 614.378 839.369C614.855 840.658 615.063 842.031 614.989 843.404L612.285 905.898C612.134 908.745 610.903 911.426 608.842 913.396C606.782 915.366 604.048 916.475 601.198 916.499Z" fill="#7E57C2"/>
<path d="M696.602 916.499H634.108C632.735 916.508 631.376 916.237 630.112 915.701C628.849 915.165 627.708 914.376 626.761 913.383C625.813 912.39 625.079 911.214 624.603 909.927C624.128 908.64 623.92 907.269 623.994 905.898L626.698 843.403C626.856 840.559 628.089 837.882 630.148 835.913C632.207 833.945 634.937 832.833 637.786 832.803H700.524C701.897 832.794 703.258 833.065 704.523 833.601C705.788 834.136 706.93 834.924 707.88 835.917C708.829 836.909 709.566 838.085 710.045 839.373C710.524 840.66 710.734 842.032 710.664 843.403L707.825 905.898C707.666 908.765 706.414 911.463 704.326 913.435C702.238 915.406 699.474 916.503 696.602 916.499Z" fill="#7E57C2"/>
<path d="M792.035 916.499H729.541C728.167 916.508 726.806 916.236 725.541 915.701C724.276 915.165 723.134 914.377 722.185 913.385C721.235 912.392 720.498 911.216 720.02 909.929C719.541 908.642 719.33 907.27 719.4 905.898L722.104 843.403C722.255 840.562 723.483 837.884 725.537 835.915C727.592 833.946 730.319 832.833 733.164 832.803H795.686C797.058 832.794 798.418 833.065 799.682 833.601C800.945 834.137 802.086 834.925 803.033 835.918C803.98 836.911 804.715 838.088 805.19 839.375C805.666 840.662 805.874 842.033 805.8 843.403L803.096 905.898C802.938 908.738 801.709 911.411 799.656 913.379C797.602 915.347 794.879 916.462 792.035 916.499Z" fill="#7E57C2"/>
<path d="M887.467 916.499H824.918C823.546 916.508 822.186 916.237 820.923 915.701C819.659 915.165 818.519 914.376 817.571 913.383C816.624 912.39 815.89 911.214 815.414 909.927C814.938 908.64 814.731 907.269 814.805 905.898L817.509 843.403C817.673 840.562 818.908 837.888 820.966 835.92C823.023 833.953 825.75 832.839 828.596 832.803H891.118C892.49 832.794 893.85 833.065 895.113 833.601C896.377 834.137 897.518 834.925 898.465 835.918C899.412 836.911 900.146 838.088 900.622 839.375C901.098 840.662 901.305 842.033 901.232 843.403L898.527 905.898C898.364 908.735 897.132 911.406 895.08 913.372C893.029 915.339 890.309 916.456 887.467 916.499Z" fill="#7E57C2"/>
<path d="M982.899 916.499H920.377C919.005 916.508 917.645 916.237 916.382 915.701C915.118 915.165 913.978 914.376 913.03 913.383C912.083 912.39 911.349 911.214 910.873 909.927C910.397 908.64 910.19 907.269 910.264 905.898L912.968 843.403C913.126 840.559 914.359 837.882 916.418 835.913C918.477 833.945 921.207 832.833 924.055 832.803H986.55C987.923 832.794 989.284 833.065 990.549 833.601C991.814 834.136 992.956 834.924 993.906 835.917C994.855 836.909 995.592 838.085 996.071 839.373C996.55 840.66 996.761 842.032 996.691 843.403L993.851 905.898C993.701 908.721 992.489 911.384 990.458 913.35C988.426 915.316 985.726 916.441 982.899 916.499Z" fill="#7E57C2"/>
<g opacity="0.8">
<path d="M505.82 916.499H443.245C441.872 916.508 440.512 916.237 439.249 915.701C437.985 915.165 436.845 914.376 435.898 913.383C434.95 912.39 434.216 911.214 433.74 909.927C433.264 908.64 433.057 907.269 433.131 905.898L435.835 843.403C435.999 840.562 437.234 837.888 439.292 835.92C441.349 833.953 444.076 832.839 446.922 832.803H509.444C510.816 832.794 512.176 833.065 513.44 833.601C514.703 834.137 515.844 834.925 516.791 835.918C517.738 836.911 518.473 838.088 518.948 839.375C519.424 840.662 519.632 842.033 519.558 843.403L516.854 905.898C516.697 908.733 515.471 911.403 513.423 913.37C511.376 915.337 508.659 916.455 505.82 916.499Z" fill="#FAFAFA"/>
<path d="M601.198 916.499H538.676C537.304 916.508 535.944 916.237 534.681 915.701C533.417 915.165 532.276 914.377 531.329 913.384C530.382 912.391 529.648 911.214 529.172 909.927C528.696 908.64 528.489 907.269 528.562 905.898L531.267 843.404C531.424 840.56 532.658 837.882 534.716 835.914C536.775 833.945 539.506 832.833 542.354 832.803H604.849C606.223 832.79 607.586 833.059 608.853 833.593C610.119 834.127 611.263 834.915 612.213 835.908C613.164 836.902 613.9 838.079 614.378 839.369C614.855 840.658 615.063 842.031 614.989 843.404L612.285 905.898C612.134 908.745 610.903 911.426 608.842 913.396C606.782 915.366 604.048 916.475 601.198 916.499Z" fill="#FAFAFA"/>
<path d="M696.603 916.499H634.109C632.736 916.508 631.377 916.237 630.113 915.701C628.85 915.165 627.709 914.376 626.762 913.383C625.814 912.39 625.08 911.214 624.604 909.927C624.129 908.64 623.921 907.269 623.995 905.898L626.699 843.403C626.857 840.559 628.09 837.882 630.149 835.913C632.208 833.945 634.938 832.833 637.787 832.803H700.525C701.898 832.794 703.259 833.065 704.524 833.601C705.789 834.136 706.931 834.924 707.88 835.917C708.83 836.909 709.567 838.085 710.046 839.373C710.525 840.66 710.735 842.032 710.665 843.403L707.826 905.898C707.667 908.765 706.415 911.463 704.327 913.435C702.239 915.406 699.475 916.503 696.603 916.499Z" fill="#FAFAFA"/>
<path d="M792.035 916.499H729.541C728.167 916.508 726.806 916.236 725.541 915.701C724.276 915.165 723.134 914.377 722.185 913.385C721.235 912.392 720.498 911.216 720.02 909.929C719.541 908.642 719.33 907.27 719.4 905.898L722.104 843.403C722.255 840.562 723.483 837.884 725.537 835.915C727.592 833.946 730.319 832.833 733.164 832.803H795.686C797.058 832.794 798.418 833.065 799.682 833.601C800.945 834.137 802.086 834.925 803.033 835.918C803.98 836.911 804.715 838.088 805.19 839.375C805.666 840.662 805.874 842.033 805.8 843.403L803.096 905.898C802.938 908.738 801.709 911.411 799.656 913.379C797.602 915.347 794.879 916.462 792.035 916.499Z" fill="#FAFAFA"/>
<path d="M887.467 916.499H824.918C823.546 916.508 822.186 916.237 820.923 915.701C819.659 915.165 818.519 914.376 817.571 913.383C816.624 912.39 815.89 911.214 815.414 909.927C814.938 908.64 814.731 907.269 814.805 905.898L817.509 843.403C817.673 840.562 818.908 837.888 820.966 835.92C823.023 833.953 825.75 832.839 828.596 832.803H891.118C892.49 832.794 893.85 833.065 895.113 833.601C896.377 834.137 897.518 834.925 898.465 835.918C899.412 836.911 900.146 838.088 900.622 839.375C901.098 840.662 901.305 842.033 901.232 843.403L898.527 905.898C898.364 908.735 897.132 911.406 895.08 913.372C893.029 915.339 890.309 916.456 887.467 916.499Z" fill="#FAFAFA"/>
<path d="M982.9 916.499H920.378C919.006 916.508 917.646 916.237 916.383 915.701C915.119 915.165 913.979 914.376 913.031 913.383C912.084 912.39 911.35 911.214 910.874 909.927C910.398 908.64 910.191 907.269 910.265 905.898L912.969 843.403C913.126 840.559 914.36 837.882 916.419 835.913C918.477 833.945 921.208 832.833 924.056 832.803H986.551C987.924 832.794 989.285 833.065 990.55 833.601C991.815 834.136 992.957 834.924 993.907 835.917C994.856 836.909 995.593 838.085 996.072 839.373C996.551 840.66 996.762 842.032 996.692 843.403L993.852 905.898C993.702 908.721 992.49 911.384 990.459 913.35C988.427 915.316 985.727 916.441 982.9 916.499Z" fill="#FAFAFA"/>
</g>
<path d="M488.107 588.152C465.067 588.152 447.003 561.353 447.003 527.144C447.003 492.936 465.067 466.164 488.107 466.164C511.147 466.164 529.238 492.963 529.238 527.144C529.133 528.748 528.423 530.251 527.25 531.349C526.077 532.448 524.531 533.059 522.924 533.059C521.317 533.059 519.771 532.448 518.598 531.349C517.426 530.251 516.715 528.748 516.61 527.144C516.61 500.94 503.575 478.766 488.107 478.766C472.639 478.766 459.605 500.94 459.605 527.144C459.605 553.348 472.666 575.523 488.107 575.523C488.971 575.466 489.838 575.588 490.653 575.879C491.468 576.171 492.214 576.627 492.846 577.219C493.478 577.811 493.982 578.526 494.326 579.32C494.671 580.115 494.848 580.971 494.848 581.837C494.848 582.703 494.671 583.56 494.326 584.354C493.982 585.148 493.478 585.864 492.846 586.456C492.214 587.047 491.468 587.503 490.653 587.795C489.838 588.087 488.971 588.208 488.107 588.152Z" fill="#7E57C2"/>
<path d="M583.539 588.152C560.499 588.152 542.435 561.353 542.435 527.144C542.435 492.936 560.499 466.164 583.539 466.164C606.579 466.164 624.805 492.963 624.805 527.144C624.7 528.748 623.989 530.251 622.817 531.349C621.644 532.448 620.098 533.059 618.491 533.059C616.884 533.059 615.338 532.448 614.165 531.349C612.992 530.251 612.282 528.748 612.177 527.144C612.177 500.94 599.142 478.766 583.674 478.766C568.206 478.766 555.171 500.94 555.171 527.144C555.171 553.348 568.233 575.523 583.674 575.523C585.277 575.628 586.781 576.339 587.879 577.511C588.977 578.684 589.588 580.231 589.588 581.837C589.588 583.444 588.977 584.99 587.879 586.163C586.781 587.336 585.277 588.047 583.674 588.152H583.539Z" fill="#7E57C2"/>
<path d="M678.89 588.152C655.823 588.152 637.759 561.353 637.759 527.144C637.759 492.936 655.823 466.164 678.89 466.164C701.957 466.164 719.994 492.963 719.994 527.144C719.994 528.815 719.33 530.418 718.149 531.6C716.967 532.781 715.364 533.445 713.693 533.445C712.022 533.445 710.42 532.781 709.238 531.6C708.056 530.418 707.393 528.815 707.393 527.144C707.393 500.94 694.331 478.766 678.89 478.766C663.449 478.766 650.388 500.94 650.388 527.144C650.388 553.348 663.449 575.523 678.89 575.523C680.493 575.628 681.997 576.339 683.095 577.511C684.193 578.684 684.805 580.231 684.805 581.837C684.805 583.444 684.193 584.99 683.095 586.163C681.997 587.336 680.493 588.047 678.89 588.152Z" fill="#7E57C2"/>
<path d="M774.404 588.152C751.337 588.152 733.272 561.353 733.272 527.144C733.272 492.936 751.337 466.164 774.404 466.164C797.471 466.164 815.508 492.963 815.508 527.144C815.508 528.815 814.844 530.418 813.662 531.6C812.481 532.781 810.878 533.445 809.207 533.445C807.536 533.445 805.933 532.781 804.752 531.6C803.57 530.418 802.906 528.815 802.906 527.144C802.906 500.94 789.845 478.766 774.404 478.766C758.963 478.766 745.901 500.94 745.901 527.144C745.901 553.348 758.936 575.523 774.404 575.523C776.007 575.628 777.51 576.339 778.609 577.511C779.707 578.684 780.318 580.231 780.318 581.837C780.318 583.444 779.707 584.99 778.609 586.163C777.51 587.336 776.007 588.047 774.404 588.152Z" fill="#7E57C2"/>
<path d="M869.808 588.152C846.768 588.152 828.704 561.353 828.704 527.144C828.704 492.936 846.768 466.164 869.808 466.164C892.848 466.164 910.94 492.963 910.94 527.144C910.835 528.748 910.124 530.251 908.951 531.349C907.778 532.448 906.232 533.059 904.625 533.059C903.019 533.059 901.472 532.448 900.299 531.349C899.127 530.251 898.416 528.748 898.311 527.144C898.311 500.94 885.276 478.766 869.808 478.766C854.34 478.766 841.306 500.94 841.306 527.144C841.306 553.348 854.367 575.523 869.808 575.523C870.672 575.466 871.539 575.588 872.354 575.879C873.169 576.171 873.916 576.627 874.548 577.219C875.179 577.811 875.683 578.526 876.028 579.32C876.372 580.115 876.55 580.971 876.55 581.837C876.55 582.703 876.372 583.56 876.028 584.354C875.683 585.148 875.179 585.864 874.548 586.456C873.916 587.047 873.169 587.503 872.354 587.795C871.539 588.087 870.672 588.208 869.808 588.152Z" fill="#7E57C2"/>
<path d="M965.241 588.152C942.201 588.152 924.137 561.353 924.137 527.144C924.137 492.936 942.201 466.164 965.241 466.164C988.281 466.164 1006.37 492.963 1006.37 527.144C1006.27 528.748 1005.56 530.251 1004.38 531.349C1003.21 532.448 1001.66 533.059 1000.06 533.059C998.451 533.059 996.905 532.448 995.732 531.349C994.559 530.251 993.848 528.748 993.743 527.144C993.743 500.94 980.682 478.766 965.241 478.766C949.8 478.766 936.738 500.94 936.738 527.144C936.738 553.348 949.8 575.523 965.241 575.523C966.844 575.628 968.347 576.339 969.446 577.511C970.544 578.684 971.155 580.231 971.155 581.837C971.155 583.444 970.544 584.99 969.446 586.163C968.347 587.336 966.844 588.047 965.241 588.152Z" fill="#7E57C2"/>
<g opacity="0.3">
<path d="M488.107 588.152C465.067 588.152 447.003 561.353 447.003 527.144C447.003 492.936 465.067 466.164 488.107 466.164C511.147 466.164 529.238 492.963 529.238 527.144C529.133 528.748 528.423 530.251 527.25 531.349C526.077 532.448 524.531 533.059 522.924 533.059C521.317 533.059 519.771 532.448 518.598 531.349C517.426 530.251 516.715 528.748 516.61 527.144C516.61 500.94 503.575 478.766 488.107 478.766C472.639 478.766 459.605 500.94 459.605 527.144C459.605 553.348 472.666 575.523 488.107 575.523C488.971 575.466 489.838 575.588 490.653 575.879C491.468 576.171 492.214 576.627 492.846 577.219C493.478 577.811 493.982 578.526 494.326 579.32C494.671 580.115 494.848 580.971 494.848 581.837C494.848 582.703 494.671 583.56 494.326 584.354C493.982 585.148 493.478 585.864 492.846 586.456C492.214 587.047 491.468 587.503 490.653 587.795C489.838 588.087 488.971 588.208 488.107 588.152Z" fill="black"/>
<path d="M583.539 588.152C560.499 588.152 542.435 561.353 542.435 527.144C542.435 492.936 560.499 466.164 583.539 466.164C606.579 466.164 624.805 492.963 624.805 527.144C624.7 528.748 623.989 530.251 622.817 531.349C621.644 532.448 620.098 533.059 618.491 533.059C616.884 533.059 615.338 532.448 614.165 531.349C612.992 530.251 612.282 528.748 612.177 527.144C612.177 500.94 599.142 478.766 583.674 478.766C568.206 478.766 555.171 500.94 555.171 527.144C555.171 553.348 568.233 575.523 583.674 575.523C585.277 575.628 586.781 576.339 587.879 577.511C588.977 578.684 589.588 580.231 589.588 581.837C589.588 583.444 588.977 584.99 587.879 586.163C586.781 587.336 585.277 588.047 583.674 588.152H583.539Z" fill="black"/>
<path d="M678.89 588.152C655.823 588.152 637.759 561.353 637.759 527.144C637.759 492.936 655.823 466.164 678.89 466.164C701.957 466.164 719.994 492.963 719.994 527.144C719.994 528.815 719.33 530.418 718.149 531.6C716.967 532.781 715.364 533.445 713.693 533.445C712.022 533.445 710.42 532.781 709.238 531.6C708.056 530.418 707.393 528.815 707.393 527.144C707.393 500.94 694.331 478.766 678.89 478.766C663.449 478.766 650.388 500.94 650.388 527.144C650.388 553.348 663.449 575.523 678.89 575.523C680.493 575.628 681.997 576.339 683.095 577.511C684.193 578.684 684.805 580.231 684.805 581.837C684.805 583.444 684.193 584.99 683.095 586.163C681.997 587.336 680.493 588.047 678.89 588.152Z" fill="black"/>
<path d="M774.404 588.152C751.337 588.152 733.272 561.353 733.272 527.144C733.272 492.936 751.337 466.164 774.404 466.164C797.471 466.164 815.508 492.963 815.508 527.144C815.508 528.815 814.844 530.418 813.662 531.6C812.481 532.781 810.878 533.445 809.207 533.445C807.536 533.445 805.933 532.781 804.752 531.6C803.57 530.418 802.906 528.815 802.906 527.144C802.906 500.94 789.845 478.766 774.404 478.766C758.963 478.766 745.901 500.94 745.901 527.144C745.901 553.348 758.936 575.523 774.404 575.523C776.007 575.628 777.51 576.339 778.609 577.511C779.707 578.684 780.318 580.231 780.318 581.837C780.318 583.444 779.707 584.99 778.609 586.163C777.51 587.336 776.007 588.047 774.404 588.152Z" fill="black"/>
<path d="M869.808 588.152C846.768 588.152 828.704 561.353 828.704 527.144C828.704 492.936 846.768 466.164 869.808 466.164C892.848 466.164 910.94 492.963 910.94 527.144C910.835 528.748 910.124 530.251 908.951 531.349C907.778 532.448 906.232 533.059 904.625 533.059C903.019 533.059 901.472 532.448 900.299 531.349C899.127 530.251 898.416 528.748 898.311 527.144C898.311 500.94 885.276 478.766 869.808 478.766C854.34 478.766 841.306 500.94 841.306 527.144C841.306 553.348 854.367 575.523 869.808 575.523C870.672 575.466 871.539 575.588 872.354 575.879C873.169 576.171 873.916 576.627 874.548 577.219C875.179 577.811 875.683 578.526 876.028 579.32C876.372 580.115 876.55 580.971 876.55 581.837C876.55 582.703 876.372 583.56 876.028 584.354C875.683 585.148 875.179 585.864 874.548 586.456C873.916 587.047 873.169 587.503 872.354 587.795C871.539 588.087 870.672 588.208 869.808 588.152Z" fill="black"/>
<path d="M965.24 588.152C942.2 588.152 924.136 561.353 924.136 527.144C924.136 492.936 942.2 466.164 965.24 466.164C988.28 466.164 1006.37 492.963 1006.37 527.144C1006.27 528.748 1005.56 530.251 1004.38 531.349C1003.21 532.448 1001.66 533.059 1000.06 533.059C998.45 533.059 996.904 532.448 995.731 531.349C994.558 530.251 993.847 528.748 993.742 527.144C993.742 500.94 980.681 478.766 965.24 478.766C949.799 478.766 936.737 500.94 936.737 527.144C936.737 553.348 949.799 575.523 965.24 575.523C966.843 575.628 968.347 576.339 969.445 577.511C970.543 578.684 971.154 580.231 971.154 581.837C971.154 583.444 970.543 584.99 969.445 586.163C968.347 587.336 966.843 588.047 965.24 588.152Z" fill="black"/>
</g>
<path d="M780.785 726.013C758.719 721.632 733.948 726.743 725.105 749.999C717.993 768.713 727.106 788.994 746.739 793.943C764.046 798.297 793.901 792.969 800.066 773.012C807.124 750.189 778.432 742.779 762.342 741.427C757.502 741.021 757.529 748.593 762.342 748.999C769.671 749.621 778.054 750.026 784.544 754.056C798.065 762.52 792.494 776.095 780.974 782.585C769.454 789.075 751.796 790.698 740.411 783.505C727.972 775.581 727.566 758.166 735.003 746.808C744.765 731.8 762.586 730.123 778.649 733.287C783.408 734.234 785.436 726.932 780.65 725.986L780.785 726.013Z" fill="#7E57C2"/>
<path opacity="0.1" d="M780.785 726.013C758.719 721.632 733.948 726.743 725.105 749.999C717.993 768.713 727.106 788.994 746.739 793.943C764.046 798.297 793.901 792.969 800.066 773.012C807.124 750.189 778.432 742.779 762.342 741.427C757.502 741.021 757.529 748.593 762.342 748.999C769.671 749.621 778.054 750.026 784.544 754.056C798.065 762.52 792.494 776.095 780.974 782.585C769.454 789.075 751.796 790.698 740.411 783.505C727.972 775.581 727.566 758.166 735.003 746.808C744.765 731.8 762.586 730.123 778.649 733.287C783.408 734.234 785.436 726.932 780.65 725.986L780.785 726.013Z" fill="#FAFAFA"/>
<path d="M537.324 638.909C558.428 666.885 581.955 692.947 607.634 716.791C611.204 720.117 616.585 714.763 613.043 711.383C587.803 688.009 564.666 662.464 543.896 635.042C541.002 631.202 534.431 635.042 537.378 638.855L537.324 638.909Z" fill="#7E57C2"/>
<path d="M545.14 713.627C561.095 685.26 589.029 661.057 615.45 642.533C619.398 639.829 615.639 633.177 611.637 635.989C584.162 655.297 555.281 680.23 538.623 709.788C538.165 710.649 538.058 711.653 538.323 712.591C538.588 713.529 539.205 714.329 540.045 714.824C540.885 715.319 541.883 715.471 542.832 715.248C543.781 715.025 544.608 714.445 545.14 713.627Z" fill="#7E57C2"/>
<g opacity="0.2">
<path d="M537.324 638.909C558.428 666.885 581.955 692.947 607.634 716.791C611.204 720.117 616.585 714.763 613.043 711.383C587.803 688.009 564.666 662.464 543.896 635.042C541.002 631.202 534.431 635.042 537.378 638.855L537.324 638.909Z" fill="black"/>
<path d="M545.14 713.627C561.095 685.26 589.029 661.057 615.45 642.533C619.398 639.829 615.639 633.177 611.637 635.989C584.162 655.297 555.281 680.23 538.623 709.788C538.165 710.649 538.058 711.653 538.323 712.591C538.588 713.529 539.205 714.329 540.045 714.824C540.885 715.319 541.883 715.471 542.832 715.248C543.781 715.025 544.608 714.445 545.14 713.627Z" fill="black"/>
</g>
<path d="M838.088 663.113H887.44C888.386 663.033 889.267 662.601 889.908 661.902C890.55 661.204 890.907 660.29 890.907 659.341C890.907 658.392 890.55 657.478 889.908 656.779C889.267 656.081 888.386 655.648 887.44 655.568H838.088C837.143 655.648 836.262 656.081 835.62 656.779C834.978 657.478 834.622 658.392 834.622 659.341C834.622 660.29 834.978 661.204 835.62 661.902C836.262 662.601 837.143 663.033 838.088 663.113Z" fill="#7E57C2"/>
<path d="M837.52 677.148H866.131C867.135 677.148 868.098 676.749 868.808 676.039C869.518 675.329 869.917 674.366 869.917 673.362C869.917 672.358 869.518 671.395 868.808 670.685C868.098 669.975 867.135 669.576 866.131 669.576H837.52C836.516 669.576 835.553 669.975 834.843 670.685C834.133 671.395 833.734 672.358 833.734 673.362C833.734 674.366 834.133 675.329 834.843 676.039C835.553 676.749 836.516 677.148 837.52 677.148Z" fill="#7E57C2"/>
<g opacity="0.1">
<path d="M838.088 663.113H887.44C888.386 663.033 889.267 662.601 889.908 661.902C890.55 661.204 890.907 660.29 890.907 659.341C890.907 658.392 890.55 657.478 889.908 656.779C889.267 656.081 888.386 655.648 887.44 655.568H838.088C837.143 655.648 836.262 656.081 835.62 656.779C834.978 657.478 834.622 658.392 834.622 659.341C834.622 660.29 834.978 661.204 835.62 661.902C836.262 662.601 837.143 663.033 838.088 663.113Z" fill="#FAFAFA"/>
<path d="M837.52 677.148H866.131C867.135 677.148 868.098 676.749 868.808 676.039C869.518 675.329 869.917 674.366 869.917 673.362C869.917 672.358 869.518 671.395 868.808 670.685C868.098 669.975 867.135 669.576 866.131 669.576H837.52C836.516 669.576 835.553 669.975 834.843 670.685C834.133 671.395 833.734 672.358 833.734 673.362C833.734 674.366 834.133 675.329 834.843 676.039C835.553 676.749 836.516 677.148 837.52 677.148Z" fill="#FAFAFA"/>
</g>
<path d="M542.489 856.843H584.81C585.814 856.843 586.777 856.444 587.487 855.734C588.197 855.024 588.596 854.061 588.596 853.057C588.596 852.053 588.197 851.09 587.487 850.38C586.777 849.67 585.814 849.271 584.81 849.271H542.489C541.485 849.271 540.522 849.67 539.812 850.38C539.102 851.09 538.703 852.053 538.703 853.057C538.703 854.061 539.102 855.024 539.812 855.734C540.522 856.444 541.485 856.843 542.489 856.843Z" fill="#7E57C2"/>
<path d="M540.974 873.095H595.87C596.874 873.095 597.837 872.696 598.547 871.986C599.257 871.276 599.656 870.313 599.656 869.309C599.656 868.305 599.257 867.342 598.547 866.632C597.837 865.922 596.874 865.523 595.87 865.523H540.974C539.97 865.523 539.007 865.922 538.297 866.632C537.587 867.342 537.188 868.305 537.188 869.309C537.188 870.313 537.587 871.276 538.297 871.986C539.007 872.696 539.97 873.095 540.974 873.095Z" fill="#7E57C2"/>
<path d="M540.974 889.834H568.422C569.426 889.834 570.389 889.436 571.099 888.726C571.809 888.016 572.208 887.053 572.208 886.049C572.208 885.045 571.809 884.082 571.099 883.372C570.389 882.662 569.426 882.263 568.422 882.263H540.974C539.97 882.263 539.007 882.662 538.297 883.372C537.587 884.082 537.188 885.045 537.188 886.049C537.188 887.053 537.587 888.016 538.297 888.726C539.007 889.436 539.97 889.834 540.974 889.834Z" fill="#7E57C2"/>
<g opacity="0.1">
<path d="M542.489 856.843H584.81C585.814 856.843 586.777 856.444 587.487 855.734C588.197 855.024 588.596 854.061 588.596 853.057C588.596 852.053 588.197 851.09 587.487 850.38C586.777 849.67 585.814 849.271 584.81 849.271H542.489C541.485 849.271 540.522 849.67 539.812 850.38C539.102 851.09 538.703 852.053 538.703 853.057C538.703 854.061 539.102 855.024 539.812 855.734C540.522 856.444 541.485 856.843 542.489 856.843Z" fill="#FAFAFA"/>
<path d="M540.974 873.095H595.87C596.874 873.095 597.837 872.696 598.547 871.986C599.257 871.276 599.656 870.313 599.656 869.309C599.656 868.305 599.257 867.342 598.547 866.632C597.837 865.922 596.874 865.523 595.87 865.523H540.974C539.97 865.523 539.007 865.922 538.297 866.632C537.587 867.342 537.188 868.305 537.188 869.309C537.188 870.313 537.587 871.276 538.297 871.986C539.007 872.696 539.97 873.095 540.974 873.095Z" fill="#FAFAFA"/>
<path d="M540.974 889.834H568.422C569.426 889.834 570.389 889.436 571.099 888.726C571.809 888.016 572.208 887.053 572.208 886.049C572.208 885.045 571.809 884.082 571.099 883.372C570.389 882.662 569.426 882.263 568.422 882.263H540.974C539.97 882.263 539.007 882.662 538.297 883.372C537.587 884.082 537.188 885.045 537.188 886.049C537.188 887.053 537.587 888.016 538.297 888.726C539.007 889.436 539.97 889.834 540.974 889.834Z" fill="#FAFAFA"/>
</g>
<path d="M244.024 432.253L256.815 431.686L251.028 456.024C246.463 452.898 242.303 449.22 238.642 445.071C237.587 443.83 237.063 442.223 237.184 440.598C237.306 438.973 238.063 437.461 239.291 436.391L244.024 432.253Z" fill="#E4897B"/>
<path d="M271.661 444.801L265.928 464.596L251.027 455.969L256.814 431.686L271.661 444.801Z" fill="#E4897B"/>
<path d="M269.139 327.286L242.966 329.709L302.995 978.032L329.168 975.608L269.139 327.286Z" fill="#7E57C2"/>
<path opacity="0.3" d="M269.139 327.286L242.966 329.709L302.995 978.032L329.168 975.608L269.139 327.286Z" fill="black"/>
<path d="M321.496 322.426L295.323 324.85L355.352 973.172L381.525 970.749L321.496 322.426Z" fill="#7E57C2"/>
<path opacity="0.3" d="M321.496 322.426L295.323 324.85L355.352 973.172L381.525 970.749L321.496 322.426Z" fill="black"/>
<path d="M295.331 324.856L269.158 327.279L329.187 975.602L355.36 973.179L295.331 324.856Z" fill="#7E57C2"/>
<path opacity="0.1" d="M295.331 324.856L269.158 327.279L329.187 975.602L355.36 973.179L295.331 324.856Z" fill="black"/>
<path d="M289.806 279.52L266.252 281.71L242.969 329.71L321.499 322.436L289.806 279.52Z" fill="#7E57C2"/>
<g opacity="0.8">
<path d="M289.806 279.52L266.252 281.71L242.969 329.71L321.499 322.436L289.806 279.52Z" fill="#FAFAFA"/>
</g>
<path d="M276.231 261.131L266.252 281.71L289.806 279.52L276.231 261.131Z" fill="#263238"/>
<path d="M474.126 297.772C476.83 300.477 479.075 303.046 481.4 305.885C483.726 308.725 485.944 311.294 488.161 313.998C492.623 319.406 496.788 325.112 500.844 330.926C509.206 342.748 516.26 355.442 521.883 368.785C522.559 370.516 523.181 372.328 523.83 374.194L524.803 376.898C525.339 378.517 525.72 380.183 525.939 381.874C526.526 387.256 525.812 392.699 523.857 397.748C520.938 405.2 516.848 412.138 511.742 418.3C502.713 429.35 492.318 439.209 480.806 447.641L470.611 436.824C478.634 426.793 485.97 416.232 492.569 405.211C495.46 400.503 497.68 395.415 499.167 390.095C499.578 388.789 499.625 387.396 499.302 386.065L498.383 384.064C497.761 382.739 497.22 381.36 496.544 380.062C490.82 368.954 484.123 358.376 476.533 348.45C472.747 343.285 468.745 338.255 464.688 333.225C462.66 330.737 460.605 328.249 458.496 325.815L452.33 318.703L474.126 297.772Z" fill="#E4897B"/>
<path d="M454.25 445.072L465.77 467.868L477.047 458.16L467.798 441.962L454.25 445.072Z" fill="#E4897B"/>
<path d="M367.471 311.132C360.458 324.491 353.175 337.696 345.621 350.749C341.917 357.32 338.022 363.783 334.237 370.3L328.422 380.035L326.962 382.469C326.232 383.632 325.421 385.011 324.691 385.931C323.96 386.85 323.23 387.959 322.527 388.797C321.824 389.635 321.067 390.582 320.364 391.366C314.901 397.317 309.086 402.934 302.949 408.186C297.026 413.243 291.104 418.165 284.993 422.843C272.905 432.281 260.492 441.07 247.62 449.453L238.345 437.77L270.39 406.212C275.636 400.804 280.936 395.72 285.939 390.365C290.855 385.327 295.486 380.018 299.812 374.465C300.335 373.816 300.794 373.194 301.191 372.599C301.651 371.95 301.975 371.409 302.3 370.868C302.579 370.433 302.832 369.982 303.057 369.516L304.301 367.001L309.304 356.806C312.738 350.072 316.091 343.285 319.58 336.605C326.484 323.138 333.696 309.825 341.213 296.664L367.471 311.132Z" fill="#E4897B"/>
<path d="M443.379 219.783C443.027 221.351 443.595 222.838 444.596 223.109C445.596 223.379 446.705 222.297 447.057 220.729C447.408 219.161 446.813 217.673 445.813 217.403C444.812 217.132 443.622 218.214 443.379 219.783Z" fill="#263238"/>
<path d="M443.433 222.812C444.28 228.086 445.826 233.224 448.03 238.09C446.785 238.583 445.448 238.797 444.112 238.718C442.776 238.638 441.473 238.267 440.296 237.631L443.433 222.812Z" fill="#DE5753"/>
<path d="M447.517 210.264C447.324 210.264 447.136 210.208 446.976 210.102C445.977 209.491 444.844 209.133 443.676 209.057C442.508 208.982 441.339 209.192 440.269 209.669C440.036 209.76 439.776 209.757 439.544 209.662C439.313 209.566 439.127 209.384 439.025 209.155C438.934 208.921 438.937 208.662 439.033 208.43C439.128 208.198 439.31 208.012 439.539 207.911C440.906 207.324 442.395 207.077 443.878 207.19C445.361 207.303 446.795 207.773 448.058 208.56C448.16 208.628 448.248 208.716 448.316 208.819C448.385 208.921 448.431 209.037 448.454 209.158C448.477 209.279 448.475 209.403 448.449 209.523C448.422 209.644 448.372 209.758 448.301 209.858C448.213 209.984 448.096 210.087 447.959 210.158C447.822 210.229 447.671 210.265 447.517 210.264Z" fill="#263238"/>
<path d="M388.672 225.759C392.079 240.308 395.947 266.917 386.157 276.625C386.157 276.625 390.7 291.363 417.716 291.363C447.462 291.363 431.237 276.625 431.237 276.625C414.876 272.758 414.822 260.724 417.202 249.448L388.672 225.759Z" fill="#E4897B"/>
<path d="M382.48 281.683C380.155 277.031 377.613 271.677 382.48 270C387.726 268.162 416.851 266.296 427.046 269.73C429.762 270.457 432.089 272.213 433.533 274.626C434.976 277.039 435.424 279.919 434.78 282.656L382.48 281.683Z" fill="#7E57C2"/>
<path opacity="0.6" d="M382.48 281.683C380.155 277.031 377.613 271.677 382.48 270C387.726 268.162 416.851 266.296 427.046 269.73C429.762 270.457 432.089 272.213 433.533 274.626C434.976 277.039 435.424 279.919 434.78 282.656L382.48 281.683Z" fill="#FAFAFA"/>
<path d="M343.566 960.145C341.82 960.136 340.08 959.945 338.374 959.577C338.286 959.562 338.205 959.52 338.142 959.457C338.079 959.394 338.037 959.313 338.022 959.226C338.004 959.135 338.012 959.041 338.046 958.955C338.079 958.868 338.137 958.794 338.211 958.739C338.428 958.577 343.62 954.845 346.648 955.494C346.976 955.551 347.286 955.68 347.557 955.872C347.828 956.064 348.054 956.313 348.217 956.602C348.46 956.926 348.592 957.32 348.592 957.725C348.592 958.13 348.46 958.523 348.217 958.847C347.568 959.902 345.594 960.145 343.566 960.145ZM339.699 958.901C342.673 959.388 346.73 959.388 347.541 958.279C347.541 958.279 347.865 957.846 347.406 957.062C347.307 956.89 347.17 956.742 347.006 956.63C346.842 956.517 346.655 956.443 346.459 956.413C344.003 956.572 341.65 957.456 339.699 958.955V958.901Z" fill="#FAFAFA"/>
<path d="M338.482 959.659H338.239C338.168 959.618 338.111 959.559 338.072 959.487C338.034 959.415 338.017 959.334 338.023 959.253C338.023 959.01 338.266 953.277 340.51 951.384C340.78 951.142 341.098 950.962 341.443 950.855C341.788 950.747 342.153 950.716 342.512 950.762C342.876 950.762 343.23 950.888 343.511 951.12C343.792 951.352 343.984 951.675 344.053 952.033C344.486 954.25 340.7 958.577 338.645 959.686L338.482 959.659ZM342.187 951.546C341.798 951.551 341.424 951.695 341.132 951.952C339.806 953.769 339.07 955.949 339.023 958.199C340.97 956.657 343.377 953.385 343.134 952.087C343.134 951.952 343.134 951.627 342.403 951.546H342.187Z" fill="#FAFAFA"/>
<path d="M462.876 960.145C460.826 960.144 458.78 959.954 456.765 959.577C456.67 959.561 456.583 959.516 456.515 959.449C456.447 959.381 456.402 959.293 456.386 959.198C456.371 959.105 456.383 959.009 456.422 958.923C456.46 958.836 456.523 958.763 456.602 958.712C457.603 958.144 466.419 953.087 468.555 956.575C468.769 956.88 468.884 957.244 468.884 957.616C468.884 957.989 468.769 958.353 468.555 958.658C467.96 959.847 465.418 960.145 462.876 960.145ZM458.252 958.874C461.984 959.415 467.014 959.334 467.879 958.117C467.879 958.117 468.15 957.738 467.744 957.062C466.554 955.142 461.2 957.441 458.252 958.928V958.874Z" fill="#FAFAFA"/>
<path d="M456.846 959.658C456.758 959.682 456.664 959.682 456.576 959.658C456.508 959.61 456.455 959.544 456.421 959.468C456.388 959.392 456.376 959.308 456.387 959.226C456.387 959.009 456.711 953.655 459.091 951.573C459.451 951.242 459.882 950.998 460.35 950.858C460.818 950.717 461.312 950.684 461.795 950.761C463.12 950.897 463.499 951.573 463.58 952.114C463.958 954.412 459.442 958.604 457.063 959.685L456.846 959.658ZM461.389 951.546C460.789 951.538 460.208 951.761 459.767 952.168C458.345 953.909 457.521 956.061 457.414 958.306C459.794 956.846 462.823 953.52 462.633 952.141C462.633 952.005 462.633 951.654 461.66 951.546H461.389Z" fill="#FAFAFA"/>
<path d="M434.996 959.172H454.872L455.061 913.173H435.212L434.996 959.172Z" fill="#E4897B"/>
<path d="M315.713 959.172H335.589L343.81 913.173H323.934L315.713 959.172Z" fill="#E4897B"/>
<path d="M336.914 956.873H314.604C314.21 956.868 313.827 957.004 313.524 957.257C313.221 957.51 313.019 957.863 312.955 958.252L309.71 975.911C309.643 976.349 309.672 976.796 309.796 977.222C309.919 977.647 310.134 978.041 310.424 978.376C310.715 978.71 311.075 978.977 311.479 979.159C311.883 979.34 312.322 979.431 312.765 979.426C320.554 979.291 324.312 978.831 334.129 978.831C340.159 978.831 352.626 979.48 360.982 979.48C369.338 979.48 370.068 971.368 366.634 970.475C351.192 967.122 345.243 962.498 340.186 958.117C339.283 957.318 338.12 956.875 336.914 956.873Z" fill="#263238"/>
<path d="M454.656 956.873H433.022C432.628 956.868 432.244 957.004 431.942 957.257C431.639 957.51 431.437 957.863 431.372 958.252L428.127 975.911C428.052 976.346 428.073 976.792 428.19 977.218C428.306 977.644 428.515 978.038 428.802 978.374C429.089 978.71 429.446 978.978 429.848 979.16C430.25 979.342 430.688 979.433 431.129 979.426C438.944 979.291 450.221 978.831 460.064 978.831C471.584 978.831 481.536 979.48 495.03 979.48C503.143 979.48 505.117 971.368 501.682 970.475C485.998 967.068 473.288 966.717 459.55 958.442C458.097 957.472 456.402 956.929 454.656 956.873Z" fill="#263238"/>
<path d="M348.271 281.115C329.801 285.387 310.412 336.146 310.412 336.146L348.785 361.782C357.595 348.424 365.318 334.38 371.879 319.785C382.02 296.556 367.12 276.761 348.271 281.115Z" fill="#7E57C2"/>
<path opacity="0.7" d="M348.271 281.115C329.801 285.387 310.412 336.146 310.412 336.146L348.785 361.782C357.595 348.424 365.318 334.38 371.879 319.785C382.02 296.556 367.12 276.761 348.271 281.115Z" fill="black"/>
<path d="M362.847 313.484L346.974 360.565L348.785 361.782C348.785 361.782 356.033 350.965 363.74 336.551L362.847 313.484Z" fill="#7E57C2"/>
<path opacity="0.8" d="M362.847 313.484L346.974 360.565L348.785 361.782C348.785 361.782 356.033 350.965 363.74 336.551L362.847 313.484Z" fill="black"/>
<path d="M472.206 369.868C472.044 392.042 470.719 419.625 467.42 453.861H361.144C359.764 437.635 366.958 357.969 348.271 281.115C359.961 278.849 371.785 277.35 383.67 276.626C398.711 275.76 413.789 275.76 428.83 276.626C439.203 277.634 449.483 279.443 459.577 282.034C459.577 282.034 468.664 291.878 471.422 338.039C471.963 347.26 472.26 357.753 472.206 369.868Z" fill="#7E57C2"/>
<path opacity="0.7" d="M472.206 369.868C472.044 392.042 470.719 419.625 467.42 453.861H361.144C359.764 437.635 366.958 357.969 348.271 281.115C359.961 278.849 371.785 277.35 383.67 276.626C398.711 275.76 413.789 275.76 428.83 276.626C439.203 277.634 449.483 279.443 459.577 282.034C459.577 282.034 468.664 291.878 471.422 338.039C471.963 347.26 472.26 357.753 472.206 369.868Z" fill="black"/>
<path d="M472.206 369.867C465.77 358.131 454.087 334.577 455.737 321.191L471.421 338.174C471.962 347.26 472.26 357.753 472.206 369.867Z" fill="#7E57C2"/>
<path opacity="0.8" d="M472.206 369.867C465.77 358.131 454.087 334.577 455.737 321.191L471.421 338.174C471.962 347.26 472.26 357.753 472.206 369.867Z" fill="black"/>
<path d="M438.755 300.098C437.078 319.028 479.994 364.567 479.994 364.567L514.392 336.551C505.383 321.348 494.589 307.277 482.239 294.636C462.119 275.193 440.648 278.897 438.755 300.098Z" fill="#7E57C2"/>
<path opacity="0.7" d="M438.755 300.098C437.078 319.028 479.994 364.567 479.994 364.567L514.392 336.551C505.383 321.348 494.589 307.277 482.239 294.636C462.119 275.193 440.648 278.897 438.755 300.098Z" fill="black"/>
<path d="M455.062 913.2L454.953 936.889H435.104L435.186 913.2H455.062Z" fill="#CE6F64"/>
<path d="M323.933 913.2H343.809L339.564 936.889H319.688L323.933 913.2Z" fill="#CE6F64"/>
<path d="M392.242 203.368C389.349 222.947 386.671 234.196 394.189 246.636C396.579 250.664 400.026 253.962 404.156 256.171C408.286 258.381 412.942 259.418 417.619 259.17C422.297 258.922 426.817 257.398 430.69 254.765C434.564 252.131 437.643 248.488 439.593 244.229C447.354 228.004 450.816 198.69 433.752 186.305C430.151 183.524 425.882 181.741 421.374 181.135C416.865 180.528 412.277 181.119 408.069 182.849C403.862 184.578 400.184 187.385 397.406 190.987C394.627 194.589 392.846 198.86 392.242 203.368Z" fill="#E4897B"/>
<path d="M451.059 194.093C445.207 197.289 438.767 199.267 432.13 199.907C427.181 222.541 414.011 248.583 392.702 241.092C384.589 238.388 376.477 218.728 375.638 201.286C374.232 202.99 373.286 205.207 372.555 206.126C371.339 198.375 372.217 190.439 375.097 183.141C380.993 166.428 384.914 177.516 391.323 167.375C395.46 160.668 402.816 157.207 415.661 156.774C412.064 158.64 411.388 161.642 416.715 161.209C422.043 160.777 444.785 159.533 458.036 168.484C449.085 170.512 454.548 184.709 466.5 177.137C462.146 184.195 456.738 190.902 451.059 194.093Z" fill="#263238"/>
<path d="M416.823 215.483C416.899 220.461 418.567 225.285 421.583 229.247C425.612 234.439 430.236 231.951 431.345 226.11C432.319 220.918 431.345 211.94 426.315 208.803C421.285 205.666 416.796 209.533 416.823 215.483Z" fill="#E4897B"/>
<path d="M392.594 169.485C389.895 169.314 387.279 168.485 384.974 167.071C382.669 165.657 380.745 163.7 379.37 161.372C379.37 161.372 379.018 177.219 392.594 169.485Z" fill="#1E2A4C"/>
<path d="M429.695 453.86C429.695 453.86 413.037 605.675 402.842 662.545C391.701 724.742 348.758 932.318 348.758 932.318H312.251C312.251 932.318 338.157 729.853 343.566 668.089C349.38 601.159 361.251 453.752 361.251 453.752L429.695 453.86Z" fill="#7E57C2"/>
<path opacity="0.6" d="M429.695 453.86C429.695 453.86 413.037 605.675 402.842 662.545C391.701 724.742 348.758 932.318 348.758 932.318H312.251C312.251 932.318 338.157 729.853 343.566 668.089C349.38 601.159 361.251 453.752 361.251 453.752L429.695 453.86Z" fill="#FAFAFA"/>
<path d="M353.923 918.906C354.085 918.906 350.705 932.887 350.705 932.887H309.79L310.06 920.421L353.923 918.906Z" fill="#7E57C2"/>
<path opacity="0.1" d="M353.923 918.906C354.085 918.906 350.705 932.887 350.705 932.887H309.79L310.06 920.421L353.923 918.906Z" fill="#FAFAFA"/>
<path d="M417.553 507.945C391.674 513.056 398.191 610.272 403.248 660.274C409.414 624.929 417.797 556.918 423.449 508.648C421.619 507.756 419.542 507.508 417.553 507.945Z" fill="#7E57C2"/>
<path opacity="0.4" d="M417.553 507.945C391.674 513.056 398.191 610.272 403.248 660.274C409.414 624.929 417.797 556.918 423.449 508.648C421.619 507.756 419.542 507.508 417.553 507.945Z" fill="#FAFAFA"/>
<path d="M467.392 453.86C467.392 453.86 475.883 602.376 476.046 662.978C476.235 725.986 462.2 932.319 462.2 932.319H428.532C428.532 932.319 419.473 729.664 415.579 667.792C411.361 600.321 397.542 453.86 397.542 453.86H467.392Z" fill="#7E57C2"/>
<path opacity="0.6" d="M467.392 453.86C467.392 453.86 475.883 602.376 476.046 662.978C476.235 725.986 462.2 932.319 462.2 932.319H428.532C428.532 932.319 419.473 729.664 415.579 667.792C411.361 600.321 397.542 453.86 397.542 453.86H467.392Z" fill="#FAFAFA"/>
<path d="M475.532 434.769L466.094 435.526C465.325 435.59 464.58 435.825 463.914 436.214C463.247 436.602 462.676 437.134 462.24 437.772C461.805 438.409 461.518 439.135 461.398 439.897C461.279 440.659 461.331 441.439 461.551 442.178L465.445 455.294C465.774 456.359 466.355 457.33 467.139 458.122C467.924 458.915 468.888 459.507 469.95 459.847C471.012 460.186 472.141 460.265 473.24 460.075C474.339 459.885 475.376 459.432 476.262 458.755C481.137 454.218 484.633 448.397 486.349 441.962L475.532 434.769Z" fill="#E4897B"/>
<path d="M454.223 908.143C454.132 908.13 454.049 908.085 453.99 908.015C453.93 907.945 453.898 907.857 453.898 907.765C457.63 850.679 466.284 712.52 466.122 662.979C466.122 612.274 459.956 498.859 458.009 465.3C458.005 465.255 458.011 465.21 458.025 465.167C458.04 465.125 458.063 465.086 458.094 465.053C458.124 465.02 458.161 464.993 458.203 464.975C458.244 464.957 458.288 464.948 458.333 464.948C458.422 464.948 458.508 464.981 458.573 465.041C458.638 465.102 458.678 465.184 458.685 465.273C460.524 498.832 466.554 612.247 466.798 662.979C466.96 712.547 458.306 850.706 454.575 907.819C454.575 907.864 454.565 907.909 454.547 907.95C454.53 907.991 454.503 908.028 454.47 908.059C454.437 908.089 454.398 908.112 454.355 908.127C454.313 908.142 454.268 908.147 454.223 908.143Z" fill="#7E57C2"/>
<path opacity="0.3" d="M454.223 908.143C454.132 908.13 454.049 908.085 453.99 908.015C453.93 907.945 453.898 907.857 453.898 907.765C457.63 850.679 466.284 712.52 466.122 662.979C466.122 612.274 459.956 498.859 458.009 465.3C458.005 465.255 458.011 465.21 458.025 465.167C458.04 465.125 458.063 465.086 458.094 465.053C458.124 465.02 458.161 464.993 458.203 464.975C458.244 464.957 458.288 464.948 458.333 464.948C458.422 464.948 458.508 464.981 458.573 465.041C458.638 465.102 458.678 465.184 458.685 465.273C460.524 498.832 466.554 612.247 466.798 662.979C466.96 712.547 458.306 850.706 454.575 907.819C454.575 907.864 454.565 907.909 454.547 907.95C454.53 907.991 454.503 908.028 454.47 908.059C454.437 908.089 454.398 908.112 454.355 908.127C454.313 908.142 454.268 908.147 454.223 908.143Z" fill="#FAFAFA"/>
<path d="M468.149 918.906C468.312 918.906 466.797 932.887 466.797 932.887H425.855L424.26 920.421L468.149 918.906Z" fill="#7E57C2"/>
<path opacity="0.1" d="M468.149 918.906C468.312 918.906 466.797 932.887 466.797 932.887H425.855L424.26 920.421L468.149 918.906Z" fill="#FAFAFA"/>
</svg>
