<svg width="1353" height="1050" viewBox="0 0 1353 1050" fill="none" xmlns="http://www.w3.org/2000/svg">
<path d="M1200.46 762.326H711.778C707.578 762.319 703.551 760.647 700.581 757.677C697.611 754.706 695.939 750.68 695.932 746.479V34.5111C695.946 30.3152 697.621 26.2956 700.59 23.3311C703.56 20.3667 707.582 18.6985 711.778 18.6914H1200.46C1204.65 18.6985 1208.68 20.3667 1211.65 23.3311C1214.62 26.2956 1216.29 30.3152 1216.31 34.5111V746.479C1216.3 750.68 1214.63 754.706 1211.66 757.677C1208.69 760.647 1204.66 762.319 1200.46 762.326ZM711.778 19.3675C709.779 19.3532 707.797 19.7342 705.946 20.4885C704.094 21.2428 702.411 22.3556 700.991 23.7629C699.571 25.1702 698.443 26.8442 697.672 28.6888C696.902 30.5333 696.503 32.512 696.5 34.5111V746.479C696.5 750.503 698.098 754.361 700.943 757.206C703.788 760.051 707.647 761.65 711.67 761.65H1200.46C1204.48 761.65 1208.34 760.051 1211.19 757.206C1214.03 754.361 1215.63 750.503 1215.63 746.479V34.5111C1215.63 30.4876 1214.03 26.6289 1211.19 23.7838C1208.34 20.9388 1204.48 19.3404 1200.46 19.3404L711.778 19.3675Z" fill="#F0F0F0"/>
<path d="M636.818 762.326H148.029C143.829 762.318 139.802 760.646 136.832 757.676C133.862 754.706 132.19 750.679 132.183 746.479V34.5108C132.19 30.3102 133.862 26.2837 136.832 23.3134C139.802 20.3431 143.829 18.6712 148.029 18.6641H636.818C641.018 18.6712 645.045 20.3431 648.015 23.3134C650.986 26.2837 652.657 30.3102 652.665 34.5108V746.479C652.657 750.679 650.986 754.706 648.015 757.676C645.045 760.646 641.018 762.318 636.818 762.326ZM148.029 19.3672C144.011 19.3672 140.156 20.9618 137.312 23.801C134.467 26.6402 132.866 30.492 132.859 34.5108V746.479C132.859 750.502 134.457 754.361 137.302 757.206C140.147 760.051 144.006 761.65 148.029 761.65H636.818C640.841 761.65 644.7 760.051 647.545 757.206C650.39 754.361 651.989 750.502 651.989 746.479V34.5108C651.989 30.4873 650.39 26.6286 647.545 23.7835C644.7 20.9385 640.841 19.3401 636.818 19.3401L148.029 19.3672Z" fill="#F0F0F0"/>
<path d="M1352.11 927.473H0V928.149H1352.11V927.473Z" fill="#E0E0E0"/>
<path d="M607.017 670.544L624.757 688.122L627.19 690.556L504.283 814.815L464.531 774.63L313.365 927.473H341.489L464.531 803.051L504.283 843.236L641.361 704.618L642.415 705.672L660.155 723.25L673.054 656.212L607.017 670.544Z" fill="#F0F0F0"/>
<path d="M364.151 217.505L381.89 235.083L384.324 237.489L261.417 361.776L221.665 321.564L132.858 411.398V439.82L221.665 350.012L261.417 390.197L398.494 251.578L399.576 252.633L417.289 270.211L430.188 203.173L364.151 217.505Z" fill="#F0F0F0"/>
<path d="M223.694 181.431C223.697 181.923 223.603 182.411 223.418 182.867C223.232 183.323 222.957 183.738 222.61 184.087C222.263 184.437 221.851 184.714 221.396 184.903C220.942 185.092 220.454 185.19 219.962 185.19H209.145V196.007C209.145 196.996 208.752 197.946 208.052 198.645C207.352 199.345 206.403 199.739 205.413 199.739C204.424 199.739 203.474 199.345 202.774 198.645C202.075 197.946 201.681 196.996 201.681 196.007V185.19H190.865C190.346 185.234 189.824 185.17 189.331 185.002C188.839 184.833 188.386 184.565 188.003 184.213C187.62 183.861 187.314 183.433 187.105 182.956C186.895 182.48 186.787 181.965 186.787 181.444C186.787 180.924 186.895 180.409 187.105 179.933C187.314 179.456 187.62 179.028 188.003 178.676C188.386 178.324 188.839 178.055 189.331 177.887C189.824 177.719 190.346 177.655 190.865 177.699H201.681V166.882C201.681 165.892 202.075 164.943 202.774 164.243C203.474 163.544 204.424 163.15 205.413 163.15C206.403 163.15 207.352 163.544 208.052 164.243C208.752 164.943 209.145 165.892 209.145 166.882V177.699H219.962C220.452 177.699 220.937 177.796 221.39 177.983C221.843 178.171 222.254 178.446 222.601 178.792C222.947 179.139 223.222 179.55 223.41 180.003C223.597 180.456 223.694 180.941 223.694 181.431Z" fill="#F0F0F0"/>
<path d="M1142.26 439.82C1142.26 440.809 1141.87 441.759 1141.17 442.458C1140.47 443.158 1139.52 443.551 1138.53 443.551H1127.72V454.368C1127.72 455.358 1127.32 456.307 1126.62 457.007C1125.92 457.707 1124.97 458.1 1123.98 458.1C1122.99 458.1 1122.04 457.707 1121.34 457.007C1120.64 456.307 1120.25 455.358 1120.25 454.368V443.551H1109.43C1108.45 443.551 1107.5 443.158 1106.8 442.458C1106.1 441.759 1105.7 440.809 1105.7 439.82C1105.7 438.83 1106.1 437.881 1106.8 437.181C1107.5 436.481 1108.45 436.088 1109.43 436.088H1120.25V425.271C1120.25 424.281 1120.64 423.332 1121.34 422.632C1122.04 421.932 1122.99 421.539 1123.98 421.539C1124.97 421.539 1125.92 421.932 1126.62 422.632C1127.32 423.332 1127.72 424.281 1127.72 425.271V436.088H1138.53C1139.52 436.088 1140.47 436.481 1141.17 437.181C1141.87 437.881 1142.26 438.83 1142.26 439.82Z" fill="#F0F0F0"/>
<path d="M780.871 89.5151C780.875 90.0075 780.781 90.4957 780.595 90.9516C780.409 91.4075 780.135 91.8221 779.788 92.1715C779.441 92.5209 779.029 92.7982 778.574 92.9874C778.119 93.1766 777.632 93.274 777.14 93.274H766.323V104.091C766.323 104.581 766.226 105.066 766.039 105.519C765.851 105.972 765.576 106.383 765.23 106.73C764.883 107.076 764.472 107.351 764.019 107.539C763.566 107.726 763.081 107.823 762.591 107.823C762.101 107.823 761.616 107.726 761.163 107.539C760.71 107.351 760.299 107.076 759.952 106.73C759.606 106.383 759.331 105.972 759.143 105.519C758.956 105.066 758.859 104.581 758.859 104.091V93.274H748.042C747.524 93.3181 747.002 93.254 746.509 93.0858C746.016 92.9177 745.564 92.649 745.181 92.2969C744.798 91.9448 744.492 91.517 744.282 91.0405C744.073 90.5639 743.965 90.0491 743.965 89.5287C743.965 89.0082 744.073 88.4934 744.282 88.0169C744.492 87.5404 744.798 87.1125 745.181 86.7604C745.564 86.4083 746.016 86.1397 746.509 85.9715C747.002 85.8033 747.524 85.7392 748.042 85.7833H758.859V75.0746C758.859 74.5845 758.956 74.0992 759.143 73.6465C759.331 73.1937 759.606 72.7823 759.952 72.4358C760.299 72.0893 760.71 71.8144 761.163 71.6268C761.616 71.4393 762.101 71.3428 762.591 71.3428C763.081 71.3428 763.566 71.4393 764.019 71.6268C764.472 71.8144 764.883 72.0893 765.23 72.4358C765.576 72.7823 765.851 73.1937 766.039 73.6465C766.226 74.0992 766.323 74.5845 766.323 75.0746V85.8915H777.14C778.111 85.8911 779.044 86.2694 779.741 86.946C780.438 87.6226 780.843 88.5443 780.871 89.5151Z" fill="#F0F0F0"/>
<path d="M220.908 644.989H153.303V676.088H220.908V644.989Z" fill="#F5F5F5"/>
<path d="M294.246 644.989H226.641V676.088H294.246V644.989Z" fill="#F5F5F5"/>
<path d="M257.577 681.496H189.972V712.595H257.577V681.496Z" fill="#F5F5F5"/>
<path d="M1100.08 63.1758H1032.47V94.2744H1100.08V63.1758Z" fill="#F5F5F5"/>
<path d="M1173.44 63.1758H1105.84V94.2744H1173.44V63.1758Z" fill="#F5F5F5"/>
<path d="M1136.77 99.6826H1069.17V130.781H1136.77V99.6826Z" fill="#F5F5F5"/>
<path d="M296.762 509.589H256.848V570.299H296.762V509.589Z" fill="#F5F5F5"/>
<path d="M357.093 474.299H317.179V570.299H357.093V474.299Z" fill="#F5F5F5"/>
<path d="M417.424 419.917H377.51V570.299H417.424V419.917Z" fill="#F5F5F5"/>
<path d="M477.755 362.371H437.841V570.299H477.755V362.371Z" fill="#F5F5F5"/>
<path d="M1002.27 678.792H962.353V739.502H1002.27V678.792Z" fill="#F5F5F5"/>
<path d="M1062.6 643.475H1022.68V739.475H1062.6V643.475Z" fill="#F5F5F5"/>
<path d="M1122.93 589.093H1083.01V739.475H1122.93V589.093Z" fill="#F5F5F5"/>
<path d="M1183.26 531.574H1143.35V739.502H1183.26V531.574Z" fill="#F5F5F5"/>
<path d="M1211.17 1039.43C1211.17 1045.19 974.927 1049.87 683.52 1049.87C392.112 1049.87 155.898 1045.19 155.898 1039.43C155.898 1033.67 392.112 1029.02 683.52 1029.02C974.927 1029.02 1211.17 1033.67 1211.17 1039.43Z" fill="#F5F5F5"/>
<path d="M1028.8 744.261L1046.53 761.866L1048.97 764.273L926.062 888.532L886.309 848.347L696.5 1040.32H724.597L886.309 876.768L926.062 916.98L1063.17 778.335L1064.22 779.389L1081.96 796.967L1094.83 729.956L1028.8 744.261Z" fill="#7E57C2"/>
<path d="M356.146 1028.88L373.967 932.313H252.791L270.612 1028.83C271.156 1031.79 272.72 1034.46 275.032 1036.39C277.344 1038.32 280.258 1039.37 283.268 1039.37H343.491C346.493 1039.37 349.401 1038.33 351.712 1036.41C354.023 1034.5 355.591 1031.83 356.146 1028.88Z" fill="#263238"/>
<path d="M361.122 845.021C345.168 840.802 320.802 873.929 313.393 906.218V859.299C319.545 848.887 327.588 839.715 337.109 832.257C357.12 816.032 375.563 795.02 359.581 790.801C344.6 786.853 322.209 815.788 313.393 846.076V785.555C317.099 779.956 321.662 774.974 326.914 770.79C339.543 760.514 351.252 747.317 341.084 744.64C332.35 742.342 319.45 757.837 313.339 775.279V755.7C314.453 747.594 316.645 739.673 319.856 732.147C329.131 711.649 334.134 690.529 321.911 692.124C309.688 693.72 301.711 730.173 308.39 758.188V768.275C303.874 747.777 288.352 726.549 278.211 729.199C268.07 731.849 279.752 745.046 292.381 755.349C299.043 760.472 304.506 766.988 308.39 774.441V822.008C301.143 789.557 276.588 756.079 260.552 760.298C244.516 764.516 263.013 785.447 283.052 801.78C293.57 809.89 302.213 820.175 308.39 831.933V889.046C300.656 857.19 276.724 825.064 260.985 829.201C245.246 833.339 258.714 848.699 281.213 867.223C292.377 876.299 301.577 887.551 308.255 900.295V932.313H313.204V916.358C319.455 904.711 328.111 894.526 338.596 886.477C358.662 870.116 377.104 849.24 361.122 845.021Z" fill="#7E57C2"/>
<path d="M381.431 927.824H245.327V941.075H381.431V927.824Z" fill="#263238"/>
<path opacity="0.2" d="M381.431 927.824H245.327V941.075H381.431V927.824Z" fill="white"/>
<path d="M1086.56 315.291C1078.93 342.451 1062.56 366.34 1039.99 383.255C1017.41 400.171 989.885 409.169 961.677 408.857H945.83V407.694C939.993 406.898 934.219 405.697 928.55 404.097C900.175 396.134 875.412 378.636 858.429 354.55C841.447 330.464 833.282 301.262 835.311 271.861C837.34 242.461 849.438 214.657 869.568 193.132C889.698 171.608 916.63 157.677 945.83 153.686V152.496H961.677C981.578 152.287 1001.26 156.712 1019.15 165.421C1037.05 174.13 1052.67 186.885 1064.79 202.676C1076.9 218.467 1085.18 236.86 1088.96 256.401C1092.73 275.942 1091.91 296.095 1086.56 315.264V315.291Z" fill="#7E57C2"/>
<path opacity="0.3" d="M1086.56 315.291C1078.93 342.451 1062.56 366.34 1039.99 383.255C1017.41 400.171 989.885 409.169 961.677 408.857H945.83V407.694C939.993 406.898 934.219 405.697 928.55 404.097C900.175 396.134 875.412 378.636 858.429 354.55C841.447 330.464 833.282 301.262 835.311 271.861C837.34 242.461 849.438 214.657 869.568 193.132C889.698 171.608 916.63 157.677 945.83 153.686V152.496H961.677C981.578 152.287 1001.26 156.712 1019.15 165.421C1037.05 174.13 1052.67 186.885 1064.79 202.676C1076.9 218.467 1085.18 236.86 1088.96 256.401C1092.73 275.942 1091.91 296.095 1086.56 315.264V315.291Z" fill="black"/>
<path d="M995.322 399.392C1060.84 372.626 1092.26 297.814 1065.5 232.293C1038.73 166.772 963.917 135.354 898.396 162.119C832.875 188.884 801.457 263.697 828.223 329.218C854.988 394.739 929.801 426.157 995.322 399.392Z" fill="#7E57C2"/>
<path d="M988.409 373.029C1039.43 350.077 1062.19 290.11 1039.23 239.088C1016.28 188.066 956.316 165.31 905.294 188.262C854.272 211.213 831.516 271.181 854.468 322.203C877.419 373.225 937.387 395.98 988.409 373.029Z" fill="white"/>
<path d="M1020.55 291.596C1026.54 250.934 998.442 213.11 957.781 207.113C917.119 201.116 879.295 229.217 873.298 269.878C867.301 310.539 895.402 348.364 936.063 354.361C976.724 360.358 1014.55 332.257 1020.55 291.596Z" fill="#7E57C2"/>
<path d="M993.914 287.827C997.847 261.853 979.979 237.608 954.004 233.675C928.029 229.742 903.785 247.61 899.852 273.585C895.919 299.56 913.787 323.804 939.762 327.737C965.736 331.67 989.981 313.802 993.914 287.827Z" fill="white"/>
<path d="M941.259 300.633C945.198 301.737 949.376 301.648 953.264 300.377C957.152 299.107 960.576 296.713 963.104 293.497C965.632 290.281 967.15 286.388 967.465 282.31C967.781 278.232 966.881 274.152 964.879 270.585C962.876 267.018 959.861 264.125 956.215 262.272C952.569 260.418 948.455 259.687 944.393 260.171C940.332 260.654 936.504 262.331 933.396 264.99C930.287 267.648 928.036 271.168 926.927 275.105C925.453 280.391 926.134 286.045 928.821 290.829C931.507 295.614 935.98 299.139 941.259 300.633Z" fill="#7E57C2"/>
<path d="M803.425 201.767L834.361 197.035L829.656 166.099C829.568 165.664 829.569 165.216 829.66 164.782C829.75 164.348 829.928 163.936 830.183 163.573C830.437 163.21 830.763 162.902 831.14 162.668C831.517 162.435 831.937 162.28 832.376 162.214C832.814 162.148 833.262 162.172 833.691 162.284C834.12 162.396 834.522 162.595 834.872 162.867C835.222 163.139 835.513 163.48 835.727 163.868C835.942 164.256 836.075 164.684 836.119 165.125L841.23 198.549L853.102 207.284L848.991 180.242C848.858 179.381 849.073 178.503 849.588 177.801C850.103 177.098 850.875 176.629 851.736 176.496C852.597 176.364 853.475 176.578 854.177 177.093C854.88 177.608 855.349 178.381 855.481 179.241L860.511 212.801L875.52 223.834L871.436 196.792C871.367 196.369 871.382 195.936 871.481 195.52C871.579 195.103 871.759 194.709 872.011 194.362C872.262 194.015 872.58 193.722 872.945 193.498C873.311 193.275 873.717 193.126 874.14 193.06C874.992 192.934 875.86 193.147 876.557 193.652C877.254 194.158 877.726 194.915 877.872 195.764L883.064 229.215L948.263 277.215C952.347 280.596 949.669 284.868 946.316 283.922L878.494 234.002L846.233 238.923C845.372 239.056 844.494 238.841 843.792 238.327C843.089 237.812 842.62 237.039 842.488 236.179C842.355 235.318 842.57 234.44 843.084 233.738C843.599 233.035 844.372 232.566 845.232 232.433L871.004 228.512L855.995 217.479L823.761 222.374C822.9 222.506 822.022 222.292 821.32 221.777C820.617 221.262 820.148 220.489 820.015 219.629C819.883 218.768 820.097 217.89 820.612 217.188C821.127 216.485 821.9 216.016 822.76 215.883L848.531 211.962L836.66 203.228L804.399 208.122C803.964 208.21 803.516 208.209 803.082 208.118C802.647 208.028 802.236 207.85 801.873 207.596C801.51 207.341 801.202 207.016 800.968 206.639C800.735 206.262 800.58 205.841 800.514 205.403C800.448 204.964 800.472 204.517 800.584 204.088C800.696 203.658 800.894 203.257 801.167 202.907C801.439 202.556 801.779 202.265 802.168 202.051C802.556 201.837 802.984 201.703 803.425 201.659V201.767Z" fill="#263238"/>
<path d="M519.482 1040.32H516.777V958.409H611.182V877.715H705.613V797.13H800.018V716.435H894.449V635.877H988.854V555.183H1084.61V557.887H991.558V638.473L990.206 638.581H897.153V719.14H802.722V799.726L801.37 799.834H708.318V880.42H613.886V960.978L612.534 961.114H519.482V1040.32Z" fill="#263238"/>
<path d="M1103.43 556.535L1084.61 576.005V537.064L1103.43 556.535Z" fill="#263238"/>
<path d="M649.582 225.43C656.072 240.141 662.264 255.176 668.511 270.022L677.733 292.224C680.869 299.471 683.952 306.989 687.116 313.29C688.065 315.616 689.4 317.764 691.064 319.645C693.432 322.294 695.942 324.812 698.582 327.19C703.991 332.436 710.183 337.547 716.268 342.739L753.532 373.648L743.499 389.495C728.518 382.248 713.996 374.514 699.745 365.833C692.579 361.506 685.548 356.936 678.436 351.906C674.679 349.235 671.068 346.364 667.619 343.307C665.451 341.402 663.434 339.332 661.588 337.114L660.101 335.113L658.938 333.382C658.154 332.219 657.613 331.3 656.937 330.218C654.503 326.216 652.448 322.484 650.42 318.725C648.392 314.967 646.445 311.262 644.606 307.53C640.901 300.066 637.277 292.63 633.789 285.139C626.893 270.158 620.43 255.176 614.508 239.762L649.582 225.43Z" fill="#9E6141"/>
<path d="M648.851 223.05L674.082 270.374C667.349 286.182 656.428 299.852 642.496 309.909L624.486 289.087L648.851 223.05Z" fill="#7E57C2"/>
<g opacity="0.5">
<path d="M648.851 223.05L674.082 270.374C667.349 286.182 656.428 299.852 642.496 309.909L624.486 289.087L648.851 223.05Z" fill="white"/>
</g>
<path d="M611.723 90.7052C604.106 90.1202 596.521 92.1858 590.252 96.5521C583.983 100.918 579.416 107.317 577.325 114.665C569.699 137.326 560.748 150.36 550.283 154.822C533.219 162.178 516.885 177.105 527.297 198.306C543.765 231.839 613.832 228.458 627.542 214.126C641.253 199.794 626.731 203.309 640.793 190.221C654.855 177.132 669.755 140.03 659.858 113.88C654.341 99.4128 633.356 85.8917 611.723 90.7052Z" fill="#263238"/>
<path d="M642.281 166.802C641.957 168.162 641.237 169.395 640.212 170.345C639.186 171.295 637.902 171.919 636.522 172.138C635.141 172.357 633.727 172.162 632.458 171.576C631.189 170.991 630.122 170.042 629.393 168.849C628.664 167.657 628.305 166.275 628.362 164.878C628.42 163.482 628.89 162.134 629.714 161.005C630.539 159.876 631.679 159.018 632.992 158.538C634.305 158.058 635.731 157.979 637.088 158.311C638.9 158.753 640.463 159.894 641.436 161.485C642.409 163.076 642.713 164.988 642.281 166.802Z" fill="white"/>
<path d="M545.686 906.326L547.119 937.452H563.75L567.536 906.326H545.686Z" fill="#9E6141"/>
<path d="M609.857 959.356C609.857 949.215 605.747 946.186 600.176 945.835C594.605 945.483 574.378 938.641 574.378 938.641C574.378 938.641 570.673 932.205 566.995 930.88C563.318 929.555 559.234 933.422 559.234 933.422L548.904 932.151C548.904 932.151 546.2 927.527 543.685 931.584C539.737 937.884 538.439 955.272 538.276 959.356H609.857Z" fill="#7E57C2"/>
<path d="M608.775 956.814H595.795L539.006 956.517C538.276 956.517 538.52 955.435 539.25 955.462H543.09C543.09 955.462 543.09 955.462 543.09 955.3C544.01 954.217 544.683 952.946 545.063 951.576C545.443 950.206 545.519 948.77 545.288 947.367C545.056 945.964 544.522 944.629 543.722 943.454C542.922 942.279 541.876 941.292 540.656 940.562C540.088 940.237 540.899 939.291 541.44 939.643C546.578 942.833 548.309 949.188 544.144 955.435H552.257L609.046 955.733C609.749 955.76 609.478 956.841 608.775 956.814Z" fill="black"/>
<path d="M570.808 943.131C574.08 939.723 578.488 938.75 581.381 941.319C581.841 941.751 582.625 940.805 582.166 940.399C578.84 937.452 573.701 938.723 569.97 942.59C569.429 943.158 570.267 943.698 570.808 943.131Z" fill="white"/>
<path d="M576.568 944.942C579.84 941.535 584.248 940.561 587.141 943.157C587.601 943.563 588.385 942.616 587.925 942.211C584.599 939.263 579.461 940.534 575.756 944.401C575.216 944.969 576.027 945.51 576.568 944.942Z" fill="white"/>
<path d="M582.382 946.782C585.654 943.347 590.062 942.401 592.956 944.97C593.415 945.375 594.2 944.429 593.713 944.023C590.414 941.076 585.276 942.347 581.544 946.214C581.003 946.782 581.841 947.322 582.382 946.782Z" fill="white"/>
<path d="M627.029 391.713C627.029 391.713 625.65 444.012 620.566 517.486C619.565 531.71 618.429 546.773 617.158 562.403C614.454 594.854 611.101 629.739 606.909 665.164C596.769 750.482 568.455 913.655 568.455 913.655L542.684 914.223C542.684 914.223 517.291 768.195 545.091 667.138C543.333 649.669 541.9 633.281 540.791 617.867C537.358 575.972 536.455 533.908 538.087 491.904C538.087 489.362 538.33 486.874 538.465 484.441C538.709 480.384 539.006 476.463 539.304 472.704C539.763 466.566 540.358 460.833 540.953 455.505C546.767 405.775 557.179 391.442 557.179 391.442L627.029 391.713Z" fill="#263238"/>
<g opacity="0.2">
<path d="M620.565 517.486C619.565 531.71 618.429 546.773 617.158 562.403C591.17 541.391 556.015 503.722 538.465 484.44C538.708 480.384 539.006 476.463 539.303 472.704L620.565 517.486Z" fill="black"/>
</g>
<path d="M690.335 748.075L721.379 747.182C737.956 667.354 783.928 515.322 759.969 492.174C675.921 410.912 517.075 372.539 517.075 372.539C497.902 376.352 484.057 382.301 479.838 400.717C475.484 419.647 478.161 445.256 501.228 461.481C515.317 471.405 532.949 477.977 568.32 494.229C602.865 510.614 638.589 524.39 675.191 535.441C689.605 539.849 694.418 541.283 702.233 543.554C685.954 602.398 690.145 725.197 690.335 748.075Z" fill="#263238"/>
<path d="M694.769 746.101L694.391 775.604H710.995L716.646 746.101H694.769Z" fill="#9E6141"/>
<path d="M725.652 755.457L727.761 744.451H687.576L687.387 755.457H725.652Z" fill="#263238"/>
<path d="M757.129 797.644C757.129 787.476 752.991 784.447 747.448 784.122C741.904 783.798 721.622 776.902 721.622 776.902C721.622 776.902 717.944 770.466 714.24 769.168C710.535 767.87 706.506 771.683 706.506 771.683L696.175 770.439C696.175 770.439 693.471 765.788 690.956 769.844C687.008 776.145 685.71 793.56 685.548 797.644H757.129Z" fill="#7E57C2"/>
<path d="M756.047 794.966H743.066L686.278 794.695C685.548 794.695 685.791 793.587 686.521 793.614H690.361C690.343 793.561 690.343 793.504 690.361 793.451C691.281 792.368 691.955 791.097 692.334 789.727C692.714 788.357 692.791 786.921 692.559 785.518C692.327 784.116 691.793 782.781 690.993 781.605C690.193 780.43 689.147 779.443 687.927 778.713C687.359 778.389 688.171 777.442 688.712 777.794C693.823 780.985 695.58 787.34 691.416 793.614H699.528L756.317 793.911C757.02 793.911 756.75 794.993 756.047 794.966Z" fill="black"/>
<path d="M718.079 781.31C721.352 777.876 725.759 776.902 728.653 779.498C729.113 779.904 729.897 778.957 729.41 778.552C726.111 775.604 720.973 776.875 717.241 780.742C716.7 781.31 717.539 781.851 718.079 781.31Z" fill="white"/>
<path d="M723.759 783.122C727.031 779.687 731.439 778.741 734.332 781.31C734.792 781.715 735.576 780.796 735.116 780.363C731.79 777.416 726.652 778.714 722.947 782.581C722.379 783.149 723.218 783.662 723.759 783.122Z" fill="white"/>
<path d="M729.626 784.933C732.926 781.526 737.333 780.553 740.227 783.122C740.687 783.527 741.444 782.608 740.984 782.202C737.685 779.228 732.547 780.526 728.815 784.393C728.274 784.96 729.086 785.501 729.626 784.933Z" fill="white"/>
<path d="M570.43 919.685L572.944 908.706H538.709L538.952 919.685H570.43Z" fill="#263238"/>
<path d="M479.811 389.197C532.381 413.941 626.271 419.268 628.164 406.775C633.573 371.62 626.947 330.489 633.816 307.962C662.724 293.089 644.795 274.295 651.15 247.821C653.463 238.117 651.942 227.896 646.904 219.286C641.866 210.676 633.7 204.343 624.108 201.605C619.511 200.253 614.724 198.901 610.019 197.657L607.152 196.954C594.5 193.951 581.663 191.782 568.725 190.464C564.02 189.896 559.098 189.382 553.987 188.814C548.876 188.247 543.847 187.895 539.087 187.679C534.882 187.449 530.674 188.085 526.725 189.547C522.775 191.009 519.167 193.266 516.126 196.179C513.084 199.092 510.672 202.598 509.04 206.48C507.407 210.363 506.589 214.539 506.636 218.75C507.315 242.788 506.412 266.844 503.932 290.764C503.418 295.712 502.851 300.472 502.202 305.123C500.041 321.544 496.798 337.805 492.493 353.799C492.432 354.102 492.35 354.4 492.25 354.691C490.447 361.037 488.572 366.869 486.625 372.188C486.03 373.864 485.408 375.46 484.759 377.001C483.488 380.192 481.244 386.06 479.811 389.197Z" fill="#7E57C2"/>
<g opacity="0.3">
<path d="M479.811 389.197C532.381 413.941 626.271 419.268 628.164 406.775C633.573 371.62 626.947 330.489 633.816 307.962C662.724 293.089 644.795 274.295 651.15 247.821C653.463 238.117 651.942 227.896 646.904 219.286C641.866 210.676 633.7 204.343 624.108 201.605C619.511 200.253 614.724 198.901 610.019 197.657L607.152 196.954C594.5 193.951 581.663 191.782 568.725 190.464C564.02 189.896 559.098 189.382 553.987 188.814C548.876 188.247 543.847 187.895 539.087 187.679C534.882 187.449 530.674 188.085 526.725 189.547C522.775 191.009 519.167 193.266 516.126 196.179C513.084 199.092 510.672 202.598 509.04 206.48C507.407 210.363 506.589 214.539 506.636 218.75C507.315 242.788 506.412 266.844 503.932 290.764C503.418 295.712 502.851 300.472 502.202 305.123C500.041 321.544 496.798 337.805 492.493 353.799C492.432 354.102 492.35 354.4 492.25 354.691C490.447 361.037 488.572 366.869 486.625 372.188C486.03 373.864 485.408 375.46 484.759 377.001C483.488 380.192 481.244 386.06 479.811 389.197Z" fill="white"/>
</g>
<path d="M477.377 229.351C477.377 229.351 500.011 186.841 530.488 188.463C549.958 189.491 547.254 231.244 525.593 262.613C505.42 254.555 490.357 244.873 477.377 229.351Z" fill="#7E57C2"/>
<g opacity="0.5">
<path d="M477.377 229.351C477.377 229.351 500.011 186.841 530.488 188.463C549.958 189.491 547.254 231.244 525.593 262.613C505.42 254.555 490.357 244.873 477.377 229.351Z" fill="white"/>
</g>
<path d="M568.86 190.464C579.163 215.072 608.315 232.596 608.315 232.596C613.723 222.779 614.427 206.067 610.181 197.684L607.314 196.981C594.654 193.962 581.808 191.785 568.86 190.464Z" fill="#9E6141"/>
<path d="M609.722 204.58C609.781 204.965 609.899 205.339 610.073 205.688C613.67 213.26 608.045 219.21 600.446 217.614C599.712 217.479 598.989 217.289 598.283 217.046C595.585 216.152 593.232 214.442 591.549 212.152C586.415 205.11 580.747 198.474 574.594 192.303C586.871 187.516 593.74 166.099 596.471 152.523L611.588 177.456L614.292 182.865C612.313 185.432 610.651 188.228 609.343 191.194C608.307 193.286 607.8 195.6 607.866 197.934C607.932 200.268 608.569 202.55 609.722 204.58Z" fill="#9E6141"/>
<g opacity="0.2">
<path d="M609.397 191.14C610.705 188.175 612.367 185.378 614.346 182.811L611.642 177.403L600.365 176.294C601.639 182.11 604.818 187.335 609.397 191.14Z" fill="black"/>
</g>
<path d="M596.146 127.672C591.63 149.982 589.25 159.311 597.12 173.481C608.964 194.791 636.818 195.278 647.797 174.752C657.667 156.256 663.4 122.885 644.66 108.553C625.92 94.2207 600.662 105.362 596.146 127.672Z" fill="#9E6141"/>
<path d="M632.572 102.522C632.572 102.522 639.116 125.779 652.313 128.104C665.51 130.43 656.694 111.879 644.39 102.847C639.062 98.8987 632.572 102.522 632.572 102.522Z" fill="#263238"/>
<path d="M626.271 134.568C626.416 134.634 626.572 134.668 626.731 134.668C626.89 134.668 627.046 134.634 627.191 134.568C628.427 133.785 629.829 133.304 631.286 133.163C632.742 133.022 634.211 133.225 635.574 133.757C635.713 133.829 635.866 133.873 636.023 133.884C636.18 133.896 636.337 133.876 636.486 133.825C636.635 133.774 636.772 133.693 636.889 133.588C637.005 133.483 637.1 133.355 637.166 133.212C637.231 133.069 637.268 132.915 637.272 132.757C637.276 132.6 637.249 132.444 637.191 132.298C637.133 132.151 637.047 132.018 636.936 131.907C636.825 131.795 636.693 131.707 636.547 131.647C634.832 130.952 632.976 130.676 631.133 130.84C629.289 131.005 627.512 131.606 625.947 132.594C625.812 132.669 625.694 132.771 625.6 132.894C625.507 133.017 625.441 133.158 625.405 133.308C625.369 133.458 625.365 133.614 625.394 133.766C625.422 133.918 625.481 134.062 625.568 134.189C625.738 134.435 625.986 134.616 626.271 134.703" fill="#263238"/>
<path d="M655.963 140.977C656.092 141.009 656.226 141.013 656.356 140.99C656.487 140.966 656.611 140.916 656.72 140.842C656.839 140.772 656.943 140.68 657.025 140.569C657.107 140.459 657.167 140.333 657.2 140.2C657.232 140.066 657.238 139.927 657.216 139.791C657.194 139.655 657.145 139.525 657.072 139.409C656.227 137.972 655.048 136.761 653.636 135.876C652.224 134.991 650.62 134.459 648.959 134.325C648.822 134.321 648.686 134.345 648.558 134.395C648.43 134.445 648.313 134.52 648.215 134.616C648.117 134.712 648.039 134.826 647.985 134.953C647.932 135.079 647.905 135.215 647.905 135.352C647.901 135.489 647.925 135.626 647.975 135.754C648.025 135.882 648.1 135.998 648.196 136.096C648.292 136.195 648.406 136.273 648.533 136.326C648.659 136.379 648.795 136.407 648.932 136.407C650.24 136.544 651.498 136.987 652.602 137.701C653.706 138.416 654.626 139.38 655.287 140.517C655.364 140.635 655.463 140.736 655.579 140.815C655.695 140.894 655.826 140.949 655.963 140.977Z" fill="#263238"/>
<path d="M589.44 123.94C589.44 123.94 581.057 138.11 591.604 141.977C602.15 145.844 608.316 138.624 608.235 132.296C608.153 125.968 606.261 119.289 621.756 122.399C635.52 125.103 644.038 96.5194 625.731 96.9791C614.427 97.2495 593.632 104.199 589.44 123.94Z" fill="#263238"/>
<path d="M639.063 168.1C639.063 168.1 628.705 161.799 626.866 156.742C626.866 156.742 624.162 165.071 629.571 168.938C630.964 170.028 632.72 170.548 634.482 170.392C636.244 170.236 637.881 169.417 639.063 168.1Z" fill="white"/>
<path d="M630.977 144.114C630.49 145.899 630.977 147.603 632.221 147.927C633.465 148.252 634.736 147.035 635.223 145.223C635.709 143.411 635.223 141.734 633.952 141.41C632.681 141.085 631.464 142.302 630.977 144.114Z" fill="#263238"/>
<path d="M648.878 149.414C648.392 151.199 648.878 152.902 650.122 153.2C651.366 153.497 652.61 152.307 653.097 150.496C653.584 148.684 653.097 147.007 651.853 146.71C650.609 146.412 649.338 147.602 648.878 149.414Z" fill="#263238"/>
<path d="M651.312 146.683H655.937C655.937 146.683 652.827 149.387 651.312 146.683Z" fill="#263238"/>
<path d="M642.037 146.088C642.037 146.088 643.849 151.659 646.093 156.661C646.281 157.038 646.378 157.452 646.377 157.872C646.376 158.293 646.277 158.707 646.088 159.082C645.899 159.458 645.625 159.784 645.288 160.035C644.951 160.286 644.56 160.455 644.146 160.528C642.149 160.891 640.117 161.027 638.089 160.934L642.037 146.088Z" fill="#7A4224"/>
<path d="M584.302 140.787C584.623 142.834 585.374 144.789 586.507 146.523C587.64 148.257 589.128 149.731 590.873 150.847C595.389 153.551 599.229 148.792 599.31 143.005C599.31 137.786 597.12 130.133 591.955 129.889C586.79 129.646 583.328 135.298 584.302 140.706" fill="#9E6141"/>
<path d="M593.469 150.334C593.468 150.874 593.306 151.402 593.002 151.849C592.699 152.296 592.268 152.642 591.766 152.842C591.264 153.042 590.713 153.087 590.185 152.972C589.658 152.856 589.176 152.585 588.804 152.193C588.432 151.801 588.186 151.307 588.097 150.773C588.009 150.24 588.082 149.693 588.307 149.202C588.533 148.71 588.9 148.298 589.363 148.018C589.825 147.738 590.36 147.602 590.9 147.629C591.594 147.664 592.247 147.964 592.725 148.468C593.204 148.971 593.47 149.639 593.469 150.334Z" fill="white"/>
<path d="M633.356 141.409H637.981C637.981 141.409 634.898 144.113 633.356 141.409Z" fill="#263238"/>
<path d="M907.89 539.471L992.424 555.128L941.828 485.603L907.89 539.471Z" fill="#7E57C2"/>
<g opacity="0.6">
<path d="M941.827 485.603L977.739 534.955L992.423 555.128L968.166 550.666L907.862 539.471L941.827 485.603Z" fill="white"/>
</g>
<path d="M977.739 534.955L992.423 555.129L968.085 550.667C970.906 545.196 974.133 539.944 977.739 534.955Z" fill="#263238"/>
<path d="M405.823 147.765L941.827 485.603L955.375 504.235L930.496 503.559L942.882 524.463L919.193 521.515L929.036 543.393L907.862 539.471L371.885 201.606L405.823 147.765Z" fill="#7E57C2"/>
<path d="M405.831 147.709L371.876 201.587L398.117 218.125L432.072 164.247L405.831 147.709Z" fill="#263238"/>
<path d="M354.903 161.102L361.982 149.869C365.546 144.214 371.21 140.206 377.729 138.727C384.248 137.249 391.087 138.42 396.742 141.984L405.893 147.751L371.938 201.629L362.787 195.862C357.132 192.298 353.124 186.633 351.646 180.115C350.167 173.596 351.339 166.757 354.903 161.102Z" fill="#7E57C2"/>
<g opacity="0.6">
<path d="M354.903 161.102L361.982 149.869C365.546 144.214 371.21 140.206 377.729 138.727C384.248 137.249 391.087 138.42 396.742 141.984L405.893 147.751L371.938 201.629L362.787 195.862C357.132 192.298 353.124 186.633 351.646 180.115C350.167 173.596 351.339 166.757 354.903 161.102Z" fill="white"/>
</g>
<path d="M918.841 521.272C918.724 521.449 918.545 521.575 918.34 521.625C918.134 521.675 917.917 521.646 917.732 521.542L408.905 200.903C408.723 200.784 408.594 200.598 408.549 200.385C408.503 200.172 408.544 199.95 408.662 199.767C408.78 199.584 408.967 199.455 409.18 199.41C409.393 199.364 409.615 199.405 409.798 199.523L918.598 520.19C918.773 520.301 918.898 520.478 918.943 520.681C918.989 520.884 918.952 521.096 918.841 521.272Z" fill="#263238"/>
<path d="M930.173 503.343C930.051 503.522 929.867 503.649 929.657 503.699C929.447 503.749 929.226 503.718 929.037 503.614L420.318 182.947C420.139 182.825 420.013 182.64 419.968 182.428C419.922 182.216 419.961 181.995 420.075 181.811C420.13 181.72 420.203 181.642 420.289 181.58C420.375 181.518 420.473 181.475 420.577 181.452C420.681 181.429 420.788 181.428 420.892 181.447C420.996 181.467 421.095 181.508 421.183 181.568L929.902 502.343C930.061 502.448 930.176 502.608 930.226 502.792C930.276 502.976 930.257 503.172 930.173 503.343Z" fill="#263238"/>
<path d="M589.169 330.056C586.465 331.327 583.896 332.489 581.3 333.598C579.786 334.274 578.298 334.896 576.784 335.518C572.647 337.249 568.482 338.925 564.263 340.467C555.88 343.604 547.335 346.389 538.6 348.904C529.702 351.452 520.675 353.528 511.558 355.124C506.88 355.962 502.12 356.53 497.118 356.936C492.397 357.376 487.648 357.421 482.92 357.071L481.163 356.936C478.923 356.693 476.739 356.081 474.7 355.124C472.102 353.892 469.784 352.144 467.885 349.986C465.805 347.568 464.257 344.739 463.342 341.684C462.535 339.05 462.071 336.323 461.963 333.571C461.834 330.412 461.942 327.249 462.287 324.106C462.772 319.114 463.512 314.15 464.505 309.233C466.316 299.849 468.426 290.925 470.751 282.191C472.13 276.999 473.456 271.861 475.078 266.723L509.665 288.519C509.259 289.817 508.908 291.223 508.556 292.44C506.285 300.742 504.013 309.017 502.256 317.048C501.985 318.292 501.715 319.536 501.471 320.753C503.527 320.753 505.636 320.753 507.745 320.618C515.858 320.32 523.97 319.509 532.462 318.617C539.358 317.86 546.307 316.967 553.284 315.912L557.8 315.291L583.328 311.64L589.169 330.056Z" fill="#9E6141"/>
<path d="M581.3 312.019C581.3 312.019 603.501 305.015 608.342 305.826C613.615 306.746 612.074 334.518 605.394 338.547C598.715 342.577 582.679 330.435 582.679 330.435L581.3 312.019Z" fill="#9E6141"/>
<path d="M581.327 312.262C583.916 309.01 587.183 306.361 590.9 304.501C595.849 302.581 600.338 299.444 602.663 300.255C604.989 301.067 596.795 308.611 596.795 308.611L581.327 312.262Z" fill="#9E6141"/>
<path d="M608.234 305.826C608.234 305.826 621.999 309.261 626.515 314.75C631.031 320.24 618.7 317.238 618.7 317.238C618.7 317.238 633.113 321.943 627.596 333.004C624.892 338.412 608.505 340.035 600.933 339.277C600.906 339.277 600.392 316.156 608.234 305.826Z" fill="#9E6141"/>
<path d="M737.28 350.148C737.28 350.148 736.902 348.282 731.709 347.065C728.19 346.095 724.508 345.856 720.893 346.362L733.467 354.475C733.467 354.475 732.088 365.535 738.037 370.484C749.99 380.435 759.211 374.513 761.78 372.377C764.349 370.24 760.077 360.64 752.559 355.07C748.151 351.784 742.777 350.053 737.28 350.148Z" fill="#9E6141"/>
</svg>
