<svg width="598" height="659" viewBox="0 0 598 659" fill="none" xmlns="http://www.w3.org/2000/svg">
<path d="M284.6 350.206L129.7 424.706C127.3 425.906 124.4 424.906 123.3 422.506L19.3001 206.506C18.2001 204.106 19.2001 201.206 21.6001 200.106L176.4 125.506C178.8 124.406 181.7 125.406 182.9 127.806L286.8 343.806C288 346.206 287 349.006 284.6 350.206Z" fill="#E0E0E0"/>
<path d="M274.6 341.706L129.3 411.706L28.7002 202.606L173.9 132.606L274.6 341.706Z" fill="#FAFAFA"/>
<path fill-rule="evenodd" clip-rule="evenodd" d="M136.5 159.706L73.2002 190.106L73.3002 185.506C73.4002 178.206 77.6002 171.506 84.2002 168.106L87.3002 166.606L82.8002 157.306C79.5002 150.606 82.4002 142.406 89.1002 139.206C95.9002 135.906 104 138.806 107.2 145.506L111.7 154.406C118.4 151.106 126.4 152.006 132.4 156.506L136.5 159.706ZM102 148.306C100.3 144.606 95.9002 143.106 92.3002 144.906C88.6002 146.606 87.1002 151.006 88.9002 154.606C90.6002 158.206 95.0002 159.806 98.6002 158.006C102.3 156.306 103.8 151.906 102 148.306Z" fill="#EBEBEB"/>
<path d="M96.8003 206.306C96.9003 206.506 88.2003 211.006 77.3003 216.206C66.4003 221.406 57.5003 225.506 57.4003 225.206C57.3003 225.006 66.0003 220.506 76.8003 215.306C87.7003 210.006 96.6003 206.006 96.8003 206.306Z" fill="#E0E0E0"/>
<path d="M79.6006 222.706C79.7006 223.006 75.5006 225.206 70.3006 227.806C65.0006 230.306 60.7006 232.106 60.6006 231.906C60.4006 231.606 64.6006 229.406 69.8006 226.806C75.1006 224.306 79.4006 222.506 79.6006 222.706Z" fill="#E0E0E0"/>
<path d="M181 196.706C181.1 196.906 156.7 209.006 126.4 223.506C96.0997 238.106 71.4997 249.706 71.3997 249.506C71.2997 249.206 95.6997 237.206 126 222.606C156.2 208.006 180.9 196.406 181 196.706Z" fill="#E0E0E0"/>
<path d="M186.1 207.106C186.2 207.406 161.7 219.406 131.5 234.006C101.2 248.606 76.4997 260.206 76.3997 259.906C76.2997 259.706 100.7 247.606 131 233.106C161.3 218.506 185.9 206.906 186.1 207.106Z" fill="#E0E0E0"/>
<path d="M191.1 217.606C191.2 217.906 166.8 229.906 136.5 244.506C106.2 259.006 81.5997 270.606 81.3997 270.406C81.2997 270.106 105.8 258.106 136 243.506C166.3 228.906 191 217.306 191.1 217.606Z" fill="#E0E0E0"/>
<path d="M196.1 228.106C196.2 228.306 171.8 240.306 141.5 254.906C111.2 269.506 86.6003 281.106 86.5003 280.806C86.4003 280.606 110.8 268.506 141.1 254.006C171.3 239.406 196 227.806 196.1 228.106Z" fill="#E0E0E0"/>
<path d="M201.2 238.506C201.3 238.806 176.8 250.806 146.6 265.406C116.3 279.906 91.6003 291.506 91.5003 291.306C91.4003 291.006 115.8 279.006 146.1 264.406C176.4 249.906 201 238.306 201.2 238.506Z" fill="#E0E0E0"/>
<path d="M206.2 249.006C206.3 249.206 181.9 261.206 151.6 275.806C121.3 290.406 96.7003 302.006 96.5003 301.706C96.4003 301.506 120.9 289.506 151.1 274.906C181.4 260.306 206.1 248.706 206.2 249.006Z" fill="#E0E0E0"/>
<path d="M155.901 284.806C155.901 284.806 155.201 285.306 153.801 286.006C152.267 286.806 150.334 287.806 148.001 289.006C143.101 291.406 136.301 294.806 128.701 298.406C121.101 302.106 114.301 305.306 109.301 307.606C106.901 308.673 104.901 309.573 103.301 310.306C101.901 310.906 101.101 311.206 101.101 311.206C101.101 311.106 101.801 310.706 103.101 309.906C104.701 309.106 106.634 308.14 108.901 307.006C113.901 304.506 120.701 301.106 128.301 297.506C135.801 293.906 142.701 290.606 147.701 288.306C150.101 287.24 152.101 286.34 153.701 285.606C155.101 285.006 155.901 284.706 155.901 284.806Z" fill="#E0E0E0"/>
<path d="M173.201 168.306C173.301 168.606 169.501 170.706 164.601 173.006C159.801 175.306 155.801 177.006 155.601 176.806C155.501 176.506 159.301 174.406 164.201 172.106C169.001 169.706 173.101 168.006 173.201 168.306Z" fill="#E0E0E0"/>
<path d="M141.9 319.606C142.1 319.806 135.8 323.106 127.9 326.906C120.1 330.706 113.6 333.506 113.5 333.306C113.3 333.006 119.6 329.706 127.5 325.906C135.3 322.206 141.8 319.306 141.9 319.606Z" fill="#E0E0E0"/>
<path d="M147.5 328.606C147.6 328.806 141.2 332.206 133.2 336.006C125.2 339.906 118.6 342.806 118.5 342.506C118.4 342.306 124.8 338.906 132.8 335.106C140.8 331.206 147.3 328.306 147.5 328.606Z" fill="#E0E0E0"/>
<path d="M223.8 278.406C224 278.606 221 280.306 217.2 282.206C213.4 284.006 210.2 285.306 210.1 285.006C210 284.706 212.9 283.106 216.7 281.206C220.5 279.406 223.7 278.106 223.8 278.406Z" fill="#E0E0E0"/>
<path d="M228.4 286.706C228.6 287.006 225.6 288.606 221.8 290.506C218 292.306 214.8 293.606 214.7 293.306C214.5 293.106 217.5 291.406 221.3 289.506C225.1 287.706 228.3 286.406 228.4 286.706Z" fill="#E0E0E0"/>
<path d="M139 345.006C139.1 345.206 136.2 346.906 132.6 348.606C128.9 350.406 125.8 351.606 125.7 351.406C125.6 351.106 128.4 349.506 132.1 347.706C135.8 345.906 138.9 344.706 139 345.006Z" fill="#E0E0E0"/>
<path d="M233.7 296.406C233.8 296.706 231.7 298.006 229 299.306C226.2 300.606 223.9 301.506 223.7 301.206C223.6 301.006 225.7 299.706 228.5 298.406C231.3 297.006 233.6 296.206 233.7 296.406Z" fill="#E0E0E0"/>
<path d="M135.601 374.306C135.601 374.306 135.801 374.173 136.201 373.906C136.667 373.573 137.234 373.173 137.901 372.706C139.501 371.706 141.634 370.339 144.301 368.606C150.001 365.006 158.001 360.006 167.601 354.006L168.001 353.706L168.201 354.206C169.301 356.906 169.501 360.106 168.501 363.006C167.601 366.006 165.301 368.806 162.101 370.006C159.001 371.106 155.101 371.006 152.201 368.906C149.201 366.706 148.001 362.706 148.901 359.106C149.201 357.806 149.901 356.506 150.801 355.506C151.001 355.239 151.234 355.006 151.501 354.806C151.801 354.506 152.101 354.306 152.401 354.106C152.801 354.006 153.401 353.906 153.801 354.206C154.301 354.506 154.501 354.806 154.601 355.106C155.901 357.406 156.501 360.006 156.701 362.506C156.801 365.006 156.401 367.606 155.501 369.806C154.701 372.106 153.301 374.206 151.201 375.506C149.101 376.906 146.401 376.606 144.501 375.406C142.501 374.206 141.201 372.406 140.501 370.406C139.201 366.306 140.001 362.406 140.501 359.106L140.601 358.306L141.201 358.906C143.501 361.606 144.701 364.706 145.001 367.506C145.301 370.306 144.901 372.706 144.301 374.606C143.701 376.506 142.901 377.806 142.301 378.606C142.001 379.006 141.701 379.306 141.501 379.506C141.367 379.706 141.301 379.806 141.301 379.806C141.101 379.706 142.801 378.206 143.901 374.506C144.401 372.606 144.801 370.306 144.401 367.606C144.001 364.906 142.901 361.906 140.601 359.406L141.301 359.206C140.701 362.506 140.001 366.306 141.301 370.106C141.901 371.906 143.201 373.506 144.901 374.606C146.701 375.706 148.901 375.906 150.701 374.706C152.501 373.606 153.801 371.606 154.601 369.506C155.401 367.306 155.801 365.006 155.601 362.606C155.501 360.206 154.901 357.806 153.701 355.606C153.601 355.406 153.401 355.206 153.301 355.106C153.201 355.006 153.101 355.006 152.901 355.106C152.501 355.306 151.901 355.806 151.601 356.206C150.801 357.106 150.201 358.206 149.901 359.406C149.101 362.606 150.201 366.206 152.801 368.006C155.401 369.906 158.901 370.106 161.701 369.006C164.601 368.006 166.701 365.506 167.601 362.706C168.501 360.006 168.301 357.006 167.401 354.606L168.001 354.806C158.401 360.606 150.401 365.506 144.601 369.006C141.867 370.673 139.667 372.006 138.001 373.006C137.334 373.406 136.767 373.739 136.301 374.006C135.901 374.206 135.667 374.306 135.601 374.306Z" fill="#E0E0E0"/>
<path d="M239.5 323.906C239.5 323.906 239.5 324.506 239.2 325.706C239 326.306 238.7 327.106 238.2 327.906C237.8 328.606 236.9 329.406 235.7 329.806C235.2 329.906 234.5 330.006 233.8 329.706C233.1 329.506 232.6 329.006 232.1 328.406C231.3 327.306 230.7 325.906 229.9 324.606C228.4 321.806 226.7 318.806 224.9 315.506L225.8 315.306C225.7 319.906 225.5 324.906 225.3 330.106C225.233 331.373 225.2 332.606 225.2 333.806L225.1 335.906L224.2 334.106C221.4 328.406 218.9 323.206 216.7 318.606L217.5 318.506C215.9 324.206 215.6 329.106 215.6 332.506C215.6 335.906 215.8 337.806 215.7 337.906C215.633 337.839 215.533 337.373 215.4 336.506C215.3 335.606 215.1 334.206 215.1 332.506C214.9 329.106 215.1 324.106 216.6 318.306L216.9 317.106L217.5 318.206C219.7 322.806 222.3 328.006 225.1 333.606L224.1 333.806C224.167 332.606 224.233 331.373 224.3 330.106C224.5 324.906 224.7 319.906 224.9 315.306V313.506L225.8 315.106C227.5 318.406 229.1 321.406 230.6 324.206C231.3 325.606 232 326.906 232.7 328.006C233.4 329.006 234.6 329.506 235.6 329.206C237.7 328.606 238.5 326.706 238.9 325.606C239.3 324.506 239.4 323.806 239.5 323.906Z" fill="#E0E0E0"/>
<path d="M239.3 316.406C239.4 316.606 231.2 322.506 220.8 329.506C210.5 336.606 202 342.106 201.8 341.806C201.7 341.606 209.9 335.706 220.3 328.706C230.6 321.606 239.1 316.106 239.3 316.406Z" fill="#E0E0E0"/>
<path d="M249.4 318.106C249.6 318.306 243.6 323.906 235.9 330.406C228.2 337.006 221.9 342.206 221.7 341.906C221.5 341.706 227.6 336.206 235.2 329.606C242.9 323.106 249.2 317.906 249.4 318.106Z" fill="#E0E0E0"/>
<path d="M427.6 60.306C427.8 51.606 419.8 44.906 411.7 41.706C403.6 38.506 394.5 37.306 387.3 32.406C380.9 28.106 376.6 21.406 371.2 15.906C357.9 2.40598 337.1 -3.19401 318.9 1.80599C300.6 6.80599 285.6 22.106 280.9 40.506C277.8 52.906 280 67.606 289.7 75.806C301.1 85.406 317.9 83.306 332.5 80.306C347 77.306 363.5 74.406 375.6 82.906C382.9 88.106 387.1 96.506 391.6 104.206C396.1 112.006 401.7 119.906 410.2 122.806C418.6 125.706 430.1 120.706 430.5 111.706" fill="#263238"/>
<path d="M427 65.1059C426 72.4059 431.3 78.9059 436.6 84.1059C441.8 89.2059 447.8 94.7059 448.7 102.006C449.8 110.606 443.6 119.006 445.4 127.406C446.5 132.706 450.7 136.806 453.2 141.706C456.7 148.506 456.9 156.706 454.7 164.106C452.6 171.406 449.1 187.806 444 193.606C429.9 209.406 407.4 223.006 386.7 227.706C366 232.506 344.6 232.506 323.4 231.206C306.1 230.206 286.1 231.006 271.7 207.106C264.2 194.806 260.5 178.406 256.6 164.506C253.1 152.506 250.2 139.706 253.7 127.806C255.8 120.906 260 114.706 262 107.806C264.6 99.1059 263.6 89.8059 264.7 80.8059C266.9 61.4059 279 43.3059 296.1 33.8059C313.2 24.3059 334.9 23.6059 352.6 32.0059" fill="#263238"/>
<path d="M273 95.0059C274.6 70.2059 291.1 39.7059 315.9 42.4059L393.2 62.1059C400.7 62.9059 406.4 69.4059 406.2 76.9059L397.5 263.506C397.7 263.506 397.9 263.539 398.1 263.606C398.1 263.606 380.5 316.206 329.3 300.106C319.2 296.906 314.5 285.906 312.5 274.406L312 274.506C312 273.206 312 271.906 312 270.606C310.3 257.406 311.7 245.006 311.7 245.006C311.5 229.906 311.5 223.706 311.5 223.906C311.5 223.906 279.8 218.506 273.3 177.106C270 156.506 271.2 122.706 273 95.0059Z" fill="#FFBE9D"/>
<path d="M285.4 120.006C285.3 122.806 287.6 125.206 290.5 125.406C293.4 125.606 295.9 123.406 296 120.606C296.1 117.806 293.8 115.406 290.9 115.206C288 115.106 285.5 117.206 285.4 120.006Z" fill="#263238"/>
<path d="M280.2 112.606C280.9 113.306 284.9 110.406 290.7 110.406C296.4 110.306 300.6 113.306 301.2 112.606C301.5 112.306 300.8 111.006 299 109.706C297.2 108.406 294.1 107.106 290.6 107.106C287 107.106 284 108.406 282.3 109.706C280.5 111.106 279.9 112.306 280.2 112.606Z" fill="#263238"/>
<path d="M341.6 120.006C341.5 122.806 343.8 125.206 346.8 125.406C349.7 125.606 352.1 123.406 352.2 120.606C352.3 117.806 350.1 115.406 347.1 115.206C344.2 115.106 341.7 117.206 341.6 120.006Z" fill="#263238"/>
<path d="M336.5 113.806C337.1 114.506 341.2 111.606 346.9 111.606C352.6 111.506 356.8 114.506 357.4 113.806C357.7 113.506 357.1 112.206 355.2 110.906C353.4 109.606 350.4 108.306 346.8 108.306C343.2 108.306 340.2 109.606 338.5 110.906C336.8 112.306 336.2 113.506 336.5 113.806Z" fill="#263238"/>
<path d="M315.6 156.206C315.6 155.906 312.1 155.306 306.3 154.506C304.9 154.406 303.5 154.106 303.2 153.106C302.9 152.006 303.5 150.406 304.2 148.706C305.6 145.173 307.067 141.473 308.6 137.606C314.6 121.806 319 108.806 318.3 108.606C317.7 108.306 312.3 120.906 306.3 136.806C304.833 140.673 303.433 144.406 302.1 148.006C301.5 149.606 300.6 151.506 301.3 153.706C301.7 154.806 302.8 155.606 303.7 155.806C304.7 156.106 305.5 156.106 306.2 156.206C312 156.506 315.6 156.506 315.6 156.206Z" fill="#263238"/>
<path d="M311.5 223.906C311.5 223.906 339.4 225.706 367.1 209.206C367.1 209.206 353 237.906 311.6 233.906L311.5 223.906Z" fill="#EB996E"/>
<path d="M317.999 170.006C320.099 167.306 323.699 165.806 327.299 166.206C329.699 166.506 332.199 167.706 333.799 169.706C335.299 171.706 335.599 174.606 334.199 176.506C332.599 178.706 329.399 179.206 326.699 178.406C323.999 177.606 321.599 175.806 319.399 174.006C318.799 173.506 318.099 173.006 317.799 172.306C317.399 171.606 317.299 170.706 317.799 170.206" fill="#EB996E"/>
<path d="M332.4 160.206C331.5 160.106 331.5 166.406 326.2 170.706C320.9 175.206 314.2 174.406 314.2 175.306C314.1 175.706 315.7 176.506 318.4 176.606C321.2 176.706 325.2 175.806 328.5 173.106C331.7 170.506 333.1 166.806 333.3 164.306C333.6 161.706 332.9 160.206 332.4 160.206Z" fill="#263238"/>
<path d="M333.899 103.806C334.499 105.406 340.199 104.606 346.899 105.506C353.599 106.206 358.999 108.106 359.899 106.706C360.299 106.106 359.399 104.606 357.199 103.106C354.999 101.606 351.599 100.106 347.599 99.7061C343.499 99.2061 339.799 99.906 337.399 100.906C334.899 101.906 333.699 103.106 333.899 103.806Z" fill="#263238"/>
<path d="M282.4 96.1061C283.4 97.4061 287.3 96.0061 292.1 96.0061C296.8 95.8061 300.8 96.9061 301.8 95.5061C302.2 94.9061 301.5 93.6061 299.8 92.3061C298.1 91.1061 295.2 90.1061 291.9 90.2061C288.7 90.3061 285.8 91.5061 284.2 92.8061C282.5 94.1061 281.9 95.5061 282.4 96.1061Z" fill="#263238"/>
<path d="M422.2 198.506C410.8 200.806 398.3 197.306 389.8 189.406C381.3 181.406 376.9 169.306 378.4 157.806C379.7 147.606 385.2 137.206 381.6 127.606C377 114.906 359.1 110.906 354.4 98.206C351.6 90.806 354.1 82.206 351 75.006C348 68.106 340.9 64.206 333.9 61.706C326.9 59.206 319.4 57.406 313.6 52.906C307.7 48.306 304.1 39.806 307.9 33.406C338.8 37.106 369.3 44.506 398.4 55.406C405.2 57.906 412.3 60.906 416.3 67.006C420.5 73.306 420.3 81.506 420 89.206C418.266 126.406 416.533 163.606 414.8 200.806" fill="#263238"/>
<path d="M419.6 212.706C419.6 212.773 419.8 212.639 420.2 212.306C420.733 211.906 421.367 211.439 422.1 210.906C423.7 209.606 426 207.806 428.9 205.206C431.8 202.606 435.3 199.406 438.7 195.006C442 190.606 445.3 184.906 446.4 177.906C447.7 171.106 446.8 162.506 441.1 156.106C438.3 152.906 434.7 150.606 431.4 147.806C428.1 145.206 425.3 141.806 423.9 137.606C420.8 129.106 422.2 119.306 421 109.306C419.7 99.406 416.2 89.106 409.3 80.806C405.8 76.606 401.7 73.106 397 70.706C392.3 68.206 387.2 67.206 382.5 65.806C377.7 64.506 373.4 62.606 369.7 59.606C366.1 56.606 363.1 53.1059 360.5 49.4059C355.3 42.0059 351.4 34.1059 346.5 27.5059C344 24.2059 341.3 21.3059 338.3 18.9059C335.3 16.5059 332 14.706 328.6 13.606C321.9 11.306 314.9 12.1059 310.2 15.4059C305.6 18.9059 303.9 24.006 303.7 27.806C303.5 31.806 304.8 34.8059 306.2 36.4059C306.8 37.2059 307.4 37.7059 307.9 38.0059C308.3 38.3393 308.5 38.4726 308.5 38.4059C308.567 38.4059 308.4 38.206 308 37.806C307.6 37.506 307.1 37.006 306.5 36.106C305.3 34.606 304.1 31.7059 304.4 27.9059C304.7 24.2059 306.5 19.406 310.8 16.206C315.2 13.206 321.9 12.506 328.2 14.806C331.4 15.906 334.6 17.6059 337.4 19.9059C340.3 22.3059 342.9 25.2059 345.3 28.4059C350.1 34.9059 353.9 42.806 359.1 50.306C361.8 54.106 364.8 57.8059 368.7 60.9059C372.4 64.1059 377.1 66.2059 382 67.5059C386.8 69.0059 391.7 70.006 396.1 72.306C400.6 74.606 404.6 78.0059 407.9 81.9059C414.5 89.9059 418 99.906 419.2 109.606C420.5 119.206 419.1 129.206 422.3 138.106C423.9 142.606 427 146.406 430.4 149.106C433.8 151.906 437.3 154.106 440 157.106C445.3 163.006 446.3 171.106 445.2 177.706C444.2 184.406 441.1 190.006 437.9 194.306C434.6 198.706 431.3 202.006 428.5 204.706C425.6 207.306 423.4 209.306 421.8 210.606C420.3 212.006 419.5 212.706 419.6 212.706Z" fill="#455A64"/>
<path d="M427.1 217.906C435.7 209.606 450.2 216.806 457.4 226.206C464.5 235.706 469.6 247.906 480.4 252.606C491.3 257.406 505.4 253.306 514.5 260.906C527.1 271.306 520 295.506 533.6 304.606C539 308.206 546.1 308.006 551.9 311.006C565.5 318.006 565.3 337.206 563.2 352.306C560.3 373.506 557 395.606 545.3 413.506C533.6 431.506 510.8 444.106 490.5 437.206C471 430.506 461 409.506 453 390.506C442.067 364.173 431.1 337.839 420.1 311.506C413.8 296.306 407.3 280.806 405.3 264.506C403.2 248.106 406 230.406 416.4 217.606" fill="#263238"/>
<path d="M432.6 199.706C438.8 199.006 443.5 206.606 441.9 212.606C440.3 218.606 434.5 222.606 428.6 224.706C425.3 225.806 421.7 226.506 418.3 225.906C414.9 225.206 411.6 222.906 410.5 219.606C409.4 216.106 410.3 213.806 413.4 211.806C417.5 209.306 419.8 207.306 423.1 205.506C428 202.806 427.7 202.406 432.6 199.706Z" fill="#704FAA"/>
<path d="M290.1 266.406L314.2 248.206L404.8 242.406L408.4 254.606L379 438.506L402.2 657.906H275.8L290.1 266.406Z" fill="#704FAA"/>
<g opacity="0.3">
<path d="M387.199 580.106C384.299 577.006 379.499 572.706 375.299 572.606C344.999 572.006 314.099 569.006 283.799 568.306L281.399 658.006C288.699 645.206 295.499 631.906 297.399 617.406C298.299 611.006 299.299 603.406 305.099 600.706C308.399 599.106 312.299 599.706 315.799 600.506C326.699 602.606 337.599 605.406 348.699 606.106C359.799 606.806 371.499 605.206 380.799 599.106C383.999 597.006 386.999 594.306 388.499 590.806C389.999 587.306 389.799 582.906 387.199 580.106Z" fill="black"/>
</g>
<path d="M309.7 270.106L306.9 243.806C306.4 239.206 309.8 235.106 314.5 234.606L397.9 227.106C400.1 226.906 402.1 228.606 402.2 230.906L403.1 262.206L379 303.206L354.1 311.106H323.8L306.3 292.406L309.7 270.106Z" fill="#704FAA"/>
<path d="M390.8 252.206C390.8 252.206 389.6 252.006 387.5 251.806C385.3 251.606 382.2 251.406 378.4 251.706C374.5 251.906 370 252.506 365 253.606C360 254.606 354.6 256.106 348.9 257.506C343.2 258.906 337.6 260.006 332.5 260.406C327.3 260.806 322.6 260.506 318.8 259.506C315 258.606 312.2 257.106 310.4 256.006C309.467 255.406 308.767 254.906 308.3 254.506C307.9 254.106 307.7 253.906 307.7 253.906C307.7 253.806 308.7 254.606 310.6 255.606C312.4 256.706 315.3 258.006 319 258.806C322.7 259.606 327.3 259.906 332.4 259.506C337.4 259.006 342.9 257.906 348.6 256.506C354.4 255.106 359.8 253.706 364.8 252.706C369.9 251.606 374.5 251.106 378.3 250.906C382.2 250.806 385.4 251.106 387.5 251.406C388.567 251.606 389.4 251.773 390 251.906C390.534 252.039 390.8 252.139 390.8 252.206Z" fill="#263238"/>
<g opacity="0.3">
<path d="M311.7 256.306C309.5 262.406 309.4 270.006 314 274.706C317.6 278.606 323.6 279.506 328.8 278.506C334 277.506 338.7 274.706 343.3 272.006C354.8 265.206 366.5 258.106 379.5 255.206C380.3 255.006 381.2 254.806 381.8 254.206C382.5 253.606 382.6 252.506 381.9 251.906C381.6 251.706 381.2 251.706 380.8 251.606C369.3 250.506 357.8 253.706 346.5 256.306C335.2 258.806 323.1 260.606 312.2 256.706" fill="black"/>
</g>
<path d="M327.7 233.806C327.7 233.906 326 234.406 324.8 236.506C323.5 238.606 323.6 242.206 323.7 246.106C323.9 253.906 325.2 260.106 324.9 260.206C324.7 260.206 324.2 258.706 323.7 256.206C323.2 253.606 322.7 250.106 322.6 246.106C322.6 244.206 322.6 242.306 322.7 240.606C322.9 238.806 323.4 237.306 324.2 236.106C324.9 235.006 325.8 234.306 326.5 234.006C327.2 233.706 327.6 233.706 327.7 233.806Z" fill="#263238"/>
<path d="M349.7 256.706C349.4 256.606 350.1 250.906 349.1 243.906C348.1 237.006 345.8 231.706 346.1 231.506C346.3 231.506 347 232.706 347.8 234.906C348.7 237.106 349.6 240.206 350.1 243.806C350.6 247.306 350.6 250.606 350.4 252.906C350.2 255.306 349.8 256.706 349.7 256.706Z" fill="#263238"/>
<path d="M376.6 229.306C376.7 229.306 377.4 230.406 378.1 232.406C378.9 234.506 379.4 237.506 379.2 240.806C379 244.106 378 247.006 377 248.906C376.1 250.806 375.2 251.806 375.1 251.806C374.8 251.606 377.8 247.106 378.2 240.706C378.7 234.306 376.2 229.406 376.6 229.306Z" fill="#263238"/>
<path d="M259.6 278.306C259.6 278.306 231.2 297.306 223.7 331.706C217.8 358.706 201.7 501.606 201.7 501.606L173.5 556.406L191.9 600.206C207.7 601.306 223.3 596.806 236.1 587.606L248.5 578.606L271.2 544.906L259.6 278.306Z" fill="#EBEBEB"/>
<path d="M307.8 253.006L259.6 278.306L248.2 315.606L238.1 424.006L257.2 551.106L223.7 657.506L281.4 658.006L282.8 595.606L288.6 393.606L294.2 264.906L307.8 253.006Z" fill="#EBEBEB"/>
<path d="M284.5 421.406C284.433 421.406 284.133 420.906 283.6 419.906C283 418.839 282.2 417.373 281.2 415.506C280.2 413.506 279.2 411.006 277.9 408.206C277.4 406.806 276.9 405.206 276.3 403.506C275.7 401.906 275.1 400.106 274.6 398.206C270 383.206 267 361.606 267.7 337.806C267.7 335.939 267.766 334.106 267.9 332.306V332.006L268.2 331.906C271.066 330.639 273.9 329.439 276.7 328.306L276.6 329.206C273.667 326.873 270.833 324.606 268.1 322.406L267.9 322.306V322.106C267.5 313.106 269.7 305.006 271.8 298.006C273.9 290.906 276.2 284.806 278.3 279.806C280.3 274.806 282.1 270.906 283.3 268.306C283.966 266.973 284.466 265.973 284.8 265.306C285.2 264.573 285.4 264.206 285.4 264.206C285.4 264.273 285.266 264.639 285 265.306C284.666 266.106 284.2 267.139 283.6 268.406C282.5 271.106 280.8 275.006 278.8 280.106C276.9 285.106 274.6 291.206 272.6 298.206C270.6 305.206 268.5 313.306 268.9 322.006L268.7 321.606C271.433 323.806 274.266 326.073 277.2 328.406L277.9 328.906L277.1 329.306C274.3 330.439 271.467 331.606 268.6 332.806L269 332.406C268.866 334.206 268.766 336.006 268.7 337.806C268.1 361.606 270.9 383.106 275.3 398.006C275.7 399.906 276.4 401.606 276.9 403.306C277.5 405.006 277.9 406.606 278.5 408.006C279.7 410.806 280.6 413.306 281.5 415.306C282.433 417.173 283.166 418.673 283.7 419.806C284.233 420.873 284.5 421.406 284.5 421.406Z" fill="#263238"/>
<path d="M246.6 497.306C246.6 497.306 246.466 496.773 246.2 495.706C245.866 494.573 245.466 493.073 245 491.206C244.5 489.206 244 486.806 243.4 484.006C242.8 481.106 242.1 477.906 241.5 474.306C240.9 470.706 240.2 466.806 239.7 462.506C239 458.306 238.6 453.706 238.1 449.006C237.2 439.406 236.6 428.806 236.6 417.706C236.7 406.506 237.3 396.006 238.2 386.406C238.7 381.606 239.2 377.006 239.9 372.806C240.4 368.606 241.1 364.606 241.7 361.006C242.3 357.506 243.1 354.206 243.6 351.406C244.2 348.606 244.8 346.106 245.3 344.206C245.766 342.273 246.166 340.74 246.5 339.606C246.766 338.606 246.9 338.106 246.9 338.106C246.966 338.106 246.9 338.64 246.7 339.706C246.433 340.84 246.1 342.373 245.7 344.306C245.3 346.206 244.7 348.706 244.2 351.506C243.7 354.406 243 357.606 242.5 361.206C241.9 364.806 241.2 368.706 240.7 372.906C240.1 377.106 239.7 381.706 239.2 386.506C238.3 396.006 237.7 406.606 237.7 417.706C237.7 428.806 238.2 439.306 239 448.906C239.5 453.606 239.9 458.206 240.5 462.406C241 466.706 241.7 470.606 242.3 474.206C242.8 477.806 243.5 481.006 244 483.806C244.5 486.706 245 489.106 245.4 491.106C245.8 493.04 246.133 494.573 246.4 495.706C246.6 496.773 246.666 497.306 246.6 497.306Z" fill="#263238"/>
<path d="M259.7 594.906C259.8 594.906 259 596.806 257.3 599.706C255.7 602.606 253.2 606.506 249.9 610.406C246.7 614.406 243.4 617.606 240.9 619.806C238.4 621.906 236.7 623.106 236.6 623.006C236.5 622.906 238 621.506 240.4 619.206C242.8 616.906 245.9 613.606 249.1 609.806C252.3 605.906 254.9 602.106 256.7 599.306C258.5 596.606 259.5 594.806 259.7 594.906Z" fill="#263238"/>
<path d="M481.2 275.206C501.8 283.106 517.1 300.806 522 322.406C537.8 391.906 564.7 484.406 565.2 514.206C565.7 552.206 549.1 578.206 527.4 583.006C510.2 586.806 354.8 578.306 354.8 578.306L347.5 520.406L473.4 501.806L456.2 405.506L473.2 272.106L481.2 275.206Z" fill="#EBEBEB"/>
<path d="M473.201 272.106L438.401 257.806L401.701 236.306L401.501 242.606C406.001 250.306 407.501 259.406 405.801 268.106L375.301 427.506L382.201 543.906L396.401 658.006H506.901L456.201 538.706L474.101 377.906L473.201 272.106Z" fill="#EBEBEB"/>
<path d="M505.5 584.006C505.5 584.006 505.234 584.039 504.7 584.106C504.167 584.173 503.434 584.24 502.5 584.306C500.5 584.506 497.6 584.506 493.9 584.606C486.4 584.606 475.5 584.406 462 584.006C434.9 583.106 397.3 581.306 354.7 578.806H354.3L354.2 578.406C353.4 571.506 352.5 564.206 351.5 556.806C350 544.306 348.4 532.106 347 520.406L346.9 519.906H347.4C385.9 514.306 419.5 509.406 443.6 505.906C455.5 504.206 465.1 502.806 471.8 501.906C475.067 501.439 477.6 501.106 479.4 500.906C480.2 500.773 480.834 500.673 481.3 500.606C481.767 500.539 482 500.539 482 500.606C482 500.606 481.8 500.639 481.4 500.706C480.867 500.773 480.2 500.873 479.4 501.006C477.6 501.34 475.067 501.739 471.8 502.206C465.2 503.306 455.6 504.706 443.7 506.506C419.6 510.106 386 515.106 347.6 520.906L348 520.306C349.5 532.006 351 544.206 352.6 556.706C353.5 564.106 354.4 571.306 355.3 578.206L354.8 577.806C397.3 580.306 435 582.206 462 583.306C475.5 583.806 486.4 584.106 493.9 584.206C497.6 584.206 500.5 584.306 502.5 584.106C503.434 584.039 504.167 584.006 504.7 584.006C505.234 584.006 505.5 584.006 505.5 584.006Z" fill="#263238"/>
<path d="M455.101 395.806C455.167 395.806 455.267 396.139 455.401 396.806C455.601 397.673 455.801 398.706 456.001 399.906C456.501 402.706 457.201 406.606 458.101 411.306C459.801 421.106 462.101 434.306 464.701 448.906C467.101 463.506 469.301 476.806 470.901 486.606C471.701 491.306 472.301 495.106 472.701 498.006C472.901 499.273 473.067 500.306 473.201 501.106C473.267 501.839 473.267 502.206 473.201 502.206C473.201 502.206 473.101 501.839 472.901 501.106C472.767 500.306 472.567 499.306 472.301 498.106C471.801 495.206 471.101 491.406 470.201 486.706C468.501 477.106 466.101 463.806 463.601 449.106C461.101 434.406 458.901 421.106 457.401 411.406C456.701 406.706 456.101 402.806 455.601 400.006C455.467 398.739 455.334 397.706 455.201 396.906C455.134 396.173 455.101 395.806 455.101 395.806Z" fill="#263238"/>
<path d="M417.7 247.506C417.7 247.506 417.767 247.639 417.9 247.906C417.967 248.239 418.067 248.639 418.2 249.106C418.4 250.106 418.9 251.606 419.3 253.606C420.2 257.606 421.2 263.406 421.9 270.806C422.7 278.106 423 287.006 422.6 296.906C422.3 306.906 421.2 317.906 419.7 329.506V329.906L419.3 330.006C415.7 330.606 411.8 331.406 407.9 332.106L408.3 331.406C409 333.106 409.6 335.006 410.1 337.006C413.8 350.506 412.2 364.106 408.8 375.606C405.4 387.106 400.2 396.706 395.5 404.406C390.7 412.106 386.4 418.006 383.5 422.106C382.034 424.106 380.867 425.673 380 426.806C379.667 427.273 379.367 427.673 379.1 428.006C378.9 428.273 378.8 428.406 378.8 428.406C378.734 428.406 378.8 428.239 379 427.906C379.2 427.573 379.5 427.173 379.9 426.706C380.7 425.506 381.767 423.906 383.1 421.906C386 417.706 390.2 411.706 394.8 404.006C399.4 396.306 404.6 386.706 407.9 375.306C411.2 364.006 412.8 350.506 409.1 337.206C408.6 335.306 408 333.506 407.3 331.806L407.1 331.206L407.7 331.106C411.6 330.306 415.5 329.606 419.1 329.006L418.7 329.406C420.2 317.806 421.3 306.806 421.7 296.906C422.1 287.006 421.9 278.206 421.3 270.806C420.7 263.506 419.7 257.706 418.9 253.706C418.6 251.706 418.2 250.206 418 249.106C417.934 248.639 417.867 248.273 417.8 248.006C417.734 247.739 417.7 247.573 417.7 247.506Z" fill="#263238"/>
<path d="M417.7 411.006V385.606C417.7 385.606 418.001 379.306 412.801 380.606C407.501 381.906 408.501 391.806 408.501 391.806C408.501 391.806 407.501 430.506 409.801 430.106C412.101 429.806 413.001 426.806 413.001 426.806V412.006L417.7 411.006Z" fill="#704FAA"/>
<path d="M439.7 412.606C439.7 412.906 433.6 413.106 426.1 413.106C418.5 413.106 412.4 412.906 412.4 412.606C412.4 412.306 418.5 412.006 426.1 412.006C433.6 412.006 439.7 412.306 439.7 412.606Z" fill="#263238"/>
<path d="M490.001 290.206C490.001 290.306 489.001 290.706 487.101 291.306C485.301 292.006 482.701 293.006 479.601 294.606C473.401 297.706 465.401 303.406 459.101 312.006C457.601 314.106 456.201 316.306 455.101 318.506C454.101 320.806 453.301 323.006 452.701 325.206C451.501 329.706 451.001 333.806 450.701 337.306C450.401 340.706 450.301 343.606 450.301 345.506C450.301 347.506 450.301 348.506 450.201 348.506C450.201 348.506 450.001 347.506 449.901 345.506C449.801 343.606 449.701 340.706 450.001 337.206C450.201 333.706 450.601 329.506 451.801 325.006C452.301 322.706 453.201 320.406 454.201 318.106C455.301 315.806 456.701 313.506 458.301 311.406C464.701 302.606 472.901 296.906 479.301 293.906C482.401 292.406 485.101 291.506 487.001 290.906C488.901 290.406 490.001 290.206 490.001 290.206Z" fill="#263238"/>
<path d="M41.7998 501.606L223.7 568.906L377 592.406L194.7 503.506L41.7998 501.606Z" fill="#263238"/>
<path d="M119.6 574.206C118.2 564.506 114.9 555.106 109.9 546.706C109 545.006 107.9 543.306 107.5 541.506C107 539.606 107.2 537.506 108.5 536.106C110.8 533.506 115.1 534.606 118 536.606C123.9 540.506 127.9 547.006 130.2 553.706C132.5 560.506 133.4 567.606 134.2 574.706" fill="#FFBE9D"/>
<path d="M190.5 556.906H181.5C179.7 555.006 176.9 553.306 173.5 552.306C171.5 551.706 169.4 552.906 167.6 554.706C171.6 548.006 176 540.706 176.8 538.706C178.4 534.806 174.8 531.806 169 531.806C163.1 531.806 137.4 568.306 137.4 568.306C137.4 568.306 153.4 539.006 154.9 534.506C158.8 523.306 146.6 522.506 142.1 527.906C136.6 534.606 114.3 568.306 114.3 568.306C114.3 568.306 110.1 575.106 113 581.606C115.9 588.206 124.4 585.606 124.4 585.606C124.4 585.606 124.3 591.206 130.4 594.606C136.9 598.206 145.5 594.006 145.5 594.006L178.8 601.506C178.8 601.506 184 601.006 190.8 600.306C207.6 598.606 221.2 585.706 223.7 568.906L190.5 556.906Z" fill="#FFBE9D"/>
<path d="M168.101 554.206C168.501 554.406 164.001 561.406 158.301 569.706C155.401 573.906 152.801 577.606 150.801 580.306C148.801 583.006 147.501 584.606 147.401 584.506C147.301 584.406 148.401 582.706 150.201 579.906C152.001 577.106 154.601 573.306 157.401 569.106C160.301 564.906 163.001 561.206 164.901 558.506C165.767 557.306 166.534 556.239 167.201 555.306C167.801 554.506 168.001 554.206 168.101 554.206Z" fill="#EB996E"/>
<path d="M166.1 591.306C166 591.206 167.1 589.106 169.1 585.806C171 582.606 173.8 578.106 176.9 573.106C178.4 570.706 179.9 568.306 181.1 566.106C182.4 564.006 182.3 561.706 181.9 560.006C180.9 556.306 178.8 554.806 179 554.706C179.1 554.606 179.6 554.906 180.3 555.706C181 556.506 182 557.906 182.6 559.806C183.1 561.606 183.3 564.206 182 566.606C180.8 568.806 179.3 571.206 177.8 573.706C174.7 578.706 171.8 583.106 169.7 586.206C167.5 589.406 166.2 591.406 166.1 591.306Z" fill="#EB996E"/>
<path d="M183.601 594.606C183.501 594.606 184.001 592.506 185.401 589.406C186.134 587.739 186.934 585.939 187.801 584.006C188.601 582.006 189.601 579.706 190.201 577.306C190.801 574.906 190.401 572.406 189.101 570.806C188.501 570.006 187.601 569.506 186.801 569.106C185.901 568.706 185.001 568.406 184.301 568.406C182.801 568.506 181.501 569.306 180.701 569.606C179.901 570.106 179.401 570.306 179.301 570.206C179.301 570.106 179.701 569.806 180.501 569.306C180.901 569.039 181.401 568.739 182.001 568.406C182.601 568.106 183.301 567.706 184.301 567.606C185.201 567.606 186.201 567.906 187.101 568.306C188.001 568.706 189.101 569.206 189.901 570.206C191.401 572.106 191.801 574.906 191.201 577.506C190.601 580.106 189.501 582.306 188.601 584.406C187.701 586.406 186.801 588.206 186.001 589.706C184.501 592.706 183.701 594.606 183.601 594.606Z" fill="#EB996E"/>
<path d="M189.7 563.106C189.8 563.106 190.3 563.206 191.1 563.506C192 563.906 193.3 564.606 194.6 565.606C197.4 567.606 200.6 571.406 201.8 576.606C202.9 581.906 201.6 586.706 200 589.706C199.2 591.206 198.4 592.306 197.7 593.006C197.1 593.706 196.7 594.106 196.6 594.006C196.5 593.906 198 592.406 199.3 589.406C200.7 586.406 201.9 581.806 200.8 576.906C199.7 572.006 196.7 568.206 194.2 566.206C191.6 564.006 189.7 563.306 189.7 563.106Z" fill="#EB996E"/>
<path d="M131.1 544.006C131.4 544.106 128 549.506 123.6 556.006C119.2 562.506 115.5 567.706 115.2 567.506C115 567.406 118.3 562.006 122.7 555.506C127.1 549.006 130.9 543.806 131.1 544.006Z" fill="#EB996E"/>
<path d="M346.9 522.506L326.1 517.806L306.2 499.006C303.7 496.706 300.6 495.406 297.3 495.206L260.9 493.106C257.3 492.906 253.7 494.106 251 496.406L225 518.406L338.3 573.606L353.9 575.006L346.9 522.506Z" fill="#FFBE9D"/>
<path d="M285.3 512.806C285.3 513.006 282.6 512.506 278.3 512.006C274.1 511.506 267.9 510.906 261.9 513.706C258.9 515.006 256.3 516.906 254 518.606C251.7 520.306 249.7 521.906 247.8 523.106C246 524.406 244.5 525.206 243.3 525.706C242.2 526.206 241.6 526.506 241.6 526.406C241.5 526.206 243.9 525.106 247.4 522.506C249.2 521.206 251.2 519.606 253.4 517.806C255.7 516.106 258.3 514.106 261.4 512.706C264.5 511.306 267.8 510.706 270.7 510.606C273.7 510.606 276.3 510.906 278.4 511.206C280.6 511.606 282.3 512.006 283.5 512.306C284.7 512.606 285.3 512.806 285.3 512.806Z" fill="#EB996E"/>
<path d="M292.8 533.106C292.7 533.206 291.3 532.606 288.9 532.306C286.4 532.006 283 532.306 279.5 533.606C276 534.906 273.1 536.706 271 538.006C268.8 539.306 267.5 540.106 267.4 540.006C267.3 539.906 268.5 538.906 270.5 537.406C272.6 536.006 275.5 534.006 279.2 532.706C282.8 531.306 286.5 531.106 289 531.606C291.5 532.106 292.8 533.006 292.8 533.106Z" fill="#EB996E"/>
<path d="M339.601 536.406C339.301 536.606 336.4 532.206 332.5 527.106C328.7 521.906 325.301 517.906 325.601 517.706C325.801 517.506 329.5 521.206 333.3 526.506C337.2 531.706 339.801 536.306 339.601 536.406Z" fill="#EB996E"/>
<path d="M282.299 495.206L328.399 452.306C330.399 450.506 330.199 447.306 328.099 445.606C326.399 444.306 323.999 444.406 322.499 445.806L268.399 494.306" fill="#E8505B"/>
<g opacity="0.3">
<path d="M282.299 495.206L328.399 452.306C330.399 450.506 330.199 447.306 328.099 445.606C326.399 444.306 323.999 444.406 322.499 445.806L268.399 494.306" fill="black"/>
</g>
<path d="M597.9 658.406C597.9 658.606 464.062 658.906 298.95 658.906C133.838 658.906 0 658.606 0 658.406C0 658.106 133.838 657.806 298.95 657.806C464.062 657.806 597.9 658.106 597.9 658.406Z" fill="#263238"/>
</svg>
