<svg width="1078" height="803" viewBox="0 0 1078 803" fill="none" xmlns="http://www.w3.org/2000/svg">
<path d="M1077.6 705.395H0.505859V705.934H1077.6V705.395Z" fill="#EBEBEB"/>
<path d="M969.673 740.056H898.326V740.594H969.673V740.056Z" fill="#EBEBEB"/>
<path d="M714.014 745.915H695.294V746.454H714.014V745.915Z" fill="#EBEBEB"/>
<path d="M896.171 720.065H793.481V720.603H896.171V720.065Z" fill="#EBEBEB"/>
<path d="M164.525 723.684H113.514V724.223H164.525V723.684Z" fill="#EBEBEB"/>
<path d="M239.383 723.684H183.697V724.223H239.383V723.684Z" fill="#EBEBEB"/>
<path d="M422.963 732.774H283.716V733.313H422.963V732.774Z" fill="#EBEBEB"/>
<path d="M511.047 609.318H95.0962C91.8377 609.313 88.7146 608.014 86.4125 605.708C84.1104 603.402 82.8174 600.277 82.8174 597.018V12.3084C82.8457 9.06856 84.1512 5.97074 86.4503 3.68783C88.7493 1.40491 91.8563 0.121273 95.0962 0.115723H511.047C514.31 0.115723 517.438 1.41165 519.745 3.71842C522.052 6.02519 523.348 9.15384 523.348 12.4161V597.018C523.348 600.28 522.052 603.409 519.745 605.716C517.438 608.023 514.31 609.318 511.047 609.318ZM95.0962 0.546561C91.9805 0.552267 88.9944 1.79397 86.7933 3.99912C84.5922 6.20428 83.3559 9.19269 83.3559 12.3084V597.018C83.3559 600.134 84.5922 603.122 86.7933 605.327C88.9944 607.532 91.9805 608.774 95.0962 608.78H511.047C514.165 608.774 517.153 607.533 519.358 605.329C521.562 603.124 522.803 600.136 522.809 597.018V12.3084C522.803 9.19071 521.562 6.20235 519.358 3.99781C517.153 1.79327 514.165 0.552255 511.047 0.546561H95.0962Z" fill="#EBEBEB"/>
<path d="M977.018 609.318H561.045C557.785 609.313 554.66 608.015 552.354 605.709C550.049 603.404 548.751 600.279 548.745 597.018V12.3084C548.779 9.06659 550.089 5.9688 552.392 3.68648C554.694 1.40416 557.804 0.121212 561.045 0.115723H977.018C980.254 0.126934 983.356 1.41308 985.65 3.69539C987.945 5.9777 989.247 9.07228 989.275 12.3084V597.018C989.275 600.273 987.985 603.395 985.688 605.701C983.39 608.006 980.273 609.307 977.018 609.318ZM561.045 0.546561C557.928 0.552255 554.939 1.79327 552.735 3.99781C550.53 6.20235 549.289 9.19071 549.284 12.3084V597.018C549.289 600.136 550.53 603.124 552.735 605.329C554.939 607.533 557.928 608.774 561.045 608.78H977.018C980.136 608.774 983.124 607.533 985.329 605.329C987.533 603.124 988.774 600.136 988.78 597.018V12.3084C988.774 9.19071 987.533 6.20235 985.329 3.99781C983.124 1.79327 980.136 0.552255 977.018 0.546561H561.045Z" fill="#EBEBEB"/>
<path d="M951.384 56.1245H611.087V705.395H951.384V56.1245Z" fill="#EBEBEB"/>
<path d="M926.072 77.3003H636.399V705.395H926.072V77.3003Z" fill="#F5F5F5"/>
<path d="M821.982 129.388H740.532V151.899H821.982V129.388Z" fill="white"/>
<path d="M858.668 353.014H902.85C904.678 353.014 906.432 353.74 907.724 355.033C909.017 356.325 909.743 358.079 909.743 359.907C909.743 361.735 909.017 363.489 907.724 364.781C906.432 366.074 904.678 366.8 902.85 366.8H858.668C856.84 366.8 855.086 366.074 853.793 364.781C852.501 363.489 851.774 361.735 851.774 359.907C851.774 358.079 852.501 356.325 853.793 355.033C855.086 353.74 856.84 353.014 858.668 353.014Z" fill="white"/>
<path d="M378.436 125.209H152.117V307.604H378.436V125.209Z" fill="#EBEBEB"/>
<path d="M366.265 295.454V137.359H164.245V295.454H366.265Z" fill="#FAFAFA"/>
<path d="M342.719 218.485V210.924H187.812V218.485H342.719Z" fill="#E0E0E0"/>
<path d="M342.719 235.697V228.136H187.812V235.697H342.719Z" fill="#E0E0E0"/>
<path d="M342.719 252.887V245.326H187.812V252.887H342.719Z" fill="#E0E0E0"/>
<path d="M303.879 270.099V262.538H226.652V270.099H303.879Z" fill="#E0E0E0"/>
<path d="M187.92 137.359C187.92 140.463 187.306 143.537 186.113 146.404C184.921 149.27 183.173 151.873 180.97 154.061C178.768 156.249 176.155 157.981 173.28 159.155C170.406 160.329 167.328 160.924 164.224 160.904C159.94 160.914 155.736 159.744 152.074 157.522V125.209H184.387C186.651 128.861 187.873 133.062 187.92 137.359Z" fill="#EBEBEB"/>
<path d="M378.436 125.209V157.522C373.932 160.231 368.652 161.355 363.435 160.716C358.219 160.077 353.366 157.71 349.65 153.994C345.934 150.278 343.568 145.426 342.929 140.209C342.29 134.993 343.414 129.712 346.123 125.209H378.436Z" fill="#EBEBEB"/>
<path d="M187.92 295.475C187.927 299.749 186.765 303.943 184.559 307.603H152.247V275.291C155.821 273.151 159.898 271.996 164.063 271.945C168.229 271.894 172.333 272.948 175.959 274.999C179.584 277.05 182.601 280.026 184.702 283.623C186.804 287.22 187.914 291.31 187.92 295.475Z" fill="#EBEBEB"/>
<path d="M378.436 275.269V307.582H346.123C343.9 303.928 342.73 299.731 342.741 295.454C342.745 291.283 343.856 287.187 345.959 283.585C348.063 279.983 351.084 277.003 354.714 274.949C358.345 272.895 362.455 271.84 366.626 271.893C370.797 271.945 374.879 273.103 378.457 275.248L378.436 275.269Z" fill="#EBEBEB"/>
<path d="M285.07 179.092C286.845 168.159 279.421 157.857 268.487 156.083C257.554 154.308 247.252 161.732 245.478 172.666C243.703 183.599 251.127 193.901 262.06 195.675C272.994 197.45 283.296 190.026 285.07 179.092Z" fill="#E0E0E0"/>
<path d="M561.326 446.354H113.514V462.468H561.326V446.354Z" fill="#EBEBEB"/>
<path d="M557.448 462.468H411.955V705.395H557.448V462.468Z" fill="#F5F5F5"/>
<path d="M264.544 462.468H119.05V705.395H264.544V462.468Z" fill="#F5F5F5"/>
<path d="M124.026 462.468H119.05V705.395H124.026V462.468Z" fill="#EBEBEB"/>
<path d="M416.931 462.468H411.955V705.395H416.931V462.468Z" fill="#EBEBEB"/>
<path d="M195.46 407.515H168.705L170.859 446.355H193.305L195.46 407.515Z" fill="#F0F0F0"/>
<path d="M427.745 429.509H287.96V446.354H427.745V429.509Z" fill="#F0F0F0"/>
<path d="M427.766 431.491H363.313V444.394H427.766V431.491Z" fill="#FAFAFA"/>
<path d="M539.051 802.678C769.727 802.678 956.726 791.76 956.726 778.293C956.726 764.825 769.727 753.907 539.051 753.907C308.376 753.907 121.377 764.825 121.377 778.293C121.377 791.76 308.376 802.678 539.051 802.678Z" fill="#F5F5F5"/>
<path d="M734.457 627.457C772.148 627.457 802.702 596.903 802.702 559.212C802.702 521.522 772.148 490.968 734.457 490.968C696.767 490.968 666.213 521.522 666.213 559.212C666.213 596.903 696.767 627.457 734.457 627.457Z" fill="white"/>
<path d="M734.457 628.297C720.793 628.301 707.434 624.253 696.07 616.664C684.706 609.076 675.848 598.288 670.616 585.665C665.384 573.041 664.013 559.15 666.676 545.748C669.339 532.345 675.917 520.033 685.578 510.37C695.239 500.706 707.548 494.124 720.95 491.456C734.352 488.789 748.243 490.156 760.868 495.384C773.493 500.612 784.284 509.467 791.876 520.829C799.468 532.19 803.52 545.548 803.52 559.212C803.503 577.526 796.222 595.084 783.275 608.036C770.327 620.987 752.771 628.274 734.457 628.297ZM734.457 491.829C721.125 491.829 708.092 495.783 697.007 503.19C685.922 510.598 677.283 521.126 672.182 533.444C667.081 545.762 665.747 559.316 668.35 572.391C670.952 585.467 677.374 597.477 686.803 606.903C696.232 616.329 708.244 622.747 721.321 625.345C734.397 627.944 747.951 626.606 760.267 621.501C772.583 616.396 783.108 607.753 790.512 596.666C797.916 585.578 801.866 572.544 801.862 559.212C801.844 541.343 794.737 524.21 782.099 511.577C769.461 498.943 752.327 491.841 734.457 491.829Z" fill="#704FAA"/>
<path d="M745.444 520.523H723.471V597.901H745.444V520.523Z" fill="#704FAA"/>
<path d="M773.146 570.22V548.247H695.768V570.22H773.146Z" fill="#704FAA"/>
<path d="M272.17 43.35L270.705 41.7775C280.677 32.3508 293.33 26.2538 306.917 24.3286L307.218 26.4828C294.07 28.3371 281.822 34.2313 272.17 43.35Z" fill="#704FAA"/>
<path d="M256.229 66.8951L254.226 66.1196C256.4 60.6319 259.298 55.4592 262.842 50.7388L264.566 52.0313C261.148 56.5995 258.345 61.5968 256.229 66.8951Z" fill="#704FAA"/>
<path d="M316.33 149.422C348.976 149.422 375.441 122.957 375.441 90.3114C375.441 57.6655 348.976 31.2007 316.33 31.2007C283.685 31.2007 257.22 57.6655 257.22 90.3114C257.22 122.957 283.685 149.422 316.33 149.422Z" fill="#704FAA"/>
<path d="M351.638 63.6857C349.361 61.3223 346.636 59.4365 343.622 58.1385C340.608 56.8406 337.366 56.1566 334.084 56.1265C330.803 56.0964 327.548 56.7209 324.511 57.9633C321.474 59.2058 318.715 61.0413 316.395 63.3625C314.077 61.0419 311.32 59.2068 308.285 57.9647C305.249 56.7225 301.997 56.0982 298.717 56.1283C295.437 56.1584 292.196 56.8422 289.184 58.1399C286.172 59.4375 283.449 61.3229 281.174 63.6857C276.716 68.5077 274.315 74.8782 274.48 81.4431C274.645 88.008 277.363 94.2498 282.057 98.8419L310.062 126.846C310.902 127.687 311.899 128.353 312.997 128.808C314.095 129.263 315.272 129.497 316.46 129.497C317.648 129.497 318.825 129.263 319.922 128.808C321.02 128.353 322.018 127.687 322.858 126.846L350.862 98.8419C355.542 94.2355 358.241 87.9859 358.385 81.4212C358.53 74.8564 356.109 68.4939 351.638 63.6857Z" fill="white"/>
<path d="M316.331 116.14C315.897 116.125 315.477 115.979 315.127 115.722C314.777 115.464 314.513 115.107 314.37 114.696L301.898 78.2261L296.685 93.4777C296.536 93.9015 296.259 94.2685 295.893 94.5273C295.526 94.7861 295.087 94.9237 294.638 94.921H273.764C273.193 94.921 272.645 94.6941 272.241 94.2901C271.837 93.8861 271.61 93.3382 271.61 92.7668C271.61 92.1955 271.837 91.6476 272.241 91.2436C272.645 90.8396 273.193 90.6127 273.764 90.6127H293.152L299.916 70.8588C300.062 70.4355 300.337 70.0684 300.702 69.8086C301.067 69.5488 301.504 69.4092 301.952 69.4092C302.399 69.4092 302.836 69.5488 303.201 69.8086C303.566 70.0684 303.841 70.4355 303.987 70.8588L316.675 107.975L328.997 78.9585C329.153 78.5887 329.409 78.2697 329.736 78.0375C330.064 77.8053 330.449 77.6692 330.85 77.6445C331.253 77.6213 331.655 77.712 332.009 77.9063C332.363 78.1006 332.656 78.3905 332.853 78.7431L339.359 90.5911H358.983C359.555 90.5911 360.103 90.8181 360.507 91.222C360.911 91.626 361.138 92.174 361.138 92.7453C361.138 93.3166 360.911 93.8645 360.507 94.2685C360.103 94.6725 359.555 94.8995 358.983 94.8995H338.109C337.724 94.9027 337.345 94.8024 337.012 94.6092C336.678 94.4159 336.403 94.1368 336.214 93.8008L331.108 84.6671L318.313 114.826C318.148 115.215 317.872 115.547 317.519 115.781C317.167 116.015 316.754 116.139 316.331 116.14Z" fill="#704FAA"/>
<path d="M644.305 702.81H419.473C415.809 702.851 412.177 702.129 408.808 700.69C405.438 699.251 402.405 697.127 399.901 694.453C397.397 691.778 395.477 688.612 394.262 685.156C393.048 681.699 392.566 678.028 392.847 674.375L429.188 135.829C429.823 128.138 433.294 120.958 438.927 115.683C444.56 110.408 451.953 107.415 459.67 107.286H684.545C688.218 107.244 691.86 107.969 695.237 109.414C698.614 110.86 701.653 112.994 704.159 115.68C706.665 118.366 708.582 121.546 709.79 125.015C710.997 128.485 711.467 132.168 711.17 135.829L674.765 674.375C674.11 682.045 670.632 689.199 665.005 694.452C659.378 699.705 652.001 702.683 644.305 702.81Z" fill="#263238"/>
<path d="M694.152 326.604H688.487C687.461 326.616 686.444 326.414 685.501 326.011C684.557 325.607 683.709 325.012 683.009 324.261C682.31 323.511 681.774 322.623 681.438 321.654C681.101 320.684 680.971 319.656 681.055 318.633L688.013 215.685C688.175 213.532 689.139 211.518 690.715 210.042C692.291 208.566 694.363 207.735 696.522 207.714H702.188C703.213 207.702 704.231 207.904 705.174 208.307C706.117 208.711 706.966 209.307 707.665 210.057C708.365 210.807 708.9 211.695 709.237 212.665C709.573 213.634 709.704 214.662 709.619 215.685L702.661 318.633C702.5 320.786 701.535 322.8 699.96 324.276C698.384 325.752 696.311 326.583 694.152 326.604Z" fill="#263238"/>
<path d="M425.913 257.929H420.269C419.434 257.94 418.606 257.777 417.837 257.452C417.068 257.126 416.375 256.644 415.802 256.036C415.229 255.429 414.788 254.709 414.508 253.922C414.227 253.136 414.113 252.299 414.173 251.466L416.694 214.285C416.853 212.539 417.651 210.914 418.935 209.721C420.219 208.529 421.899 207.852 423.652 207.822H429.317C430.149 207.818 430.974 207.984 431.739 208.313C432.504 208.641 433.193 209.123 433.763 209.73C434.333 210.336 434.772 211.054 435.052 211.837C435.333 212.621 435.448 213.454 435.392 214.285L432.871 251.466C432.717 253.213 431.92 254.841 430.635 256.035C429.35 257.229 427.667 257.903 425.913 257.929Z" fill="#704FAA"/>
<path d="M421.433 324.32H415.767C414.934 324.328 414.108 324.164 413.342 323.837C412.575 323.51 411.885 323.027 411.314 322.42C410.743 321.813 410.305 321.094 410.026 320.309C409.746 319.523 409.633 318.689 409.693 317.858L412.213 280.677C412.372 278.931 413.17 277.306 414.455 276.113C415.739 274.92 417.419 274.244 419.171 274.214H424.88C425.712 274.209 426.536 274.376 427.301 274.704C428.066 275.032 428.756 275.515 429.326 276.121C429.896 276.728 430.335 277.445 430.615 278.229C430.895 279.013 431.011 279.846 430.954 280.677L428.434 317.858C428.279 319.612 427.476 321.246 426.182 322.441C424.887 323.636 423.194 324.306 421.433 324.32Z" fill="#704FAA"/>
<path d="M639.544 702.81H414.712C411.048 702.851 407.416 702.129 404.047 700.69C400.678 699.251 397.645 697.127 395.14 694.453C392.636 691.779 390.716 688.613 389.501 685.156C388.287 681.699 387.805 678.028 388.086 674.375L424.449 135.829C425.106 128.136 428.601 120.961 434.255 115.701C439.909 110.442 447.317 107.473 455.038 107.373H679.784C683.449 107.332 687.083 108.054 690.454 109.494C693.825 110.934 696.859 113.061 699.364 115.737C701.868 118.414 703.788 121.583 705.001 125.042C706.214 128.501 706.694 132.175 706.41 135.829L670.026 674.375C669.37 682.049 665.889 689.206 660.258 694.459C654.626 699.713 647.245 702.689 639.544 702.81Z" fill="#704FAA"/>
<path opacity="0.3" d="M390.456 668.343L425.957 142.809H703.976L668.475 668.343H390.456Z" fill="white"/>
<path opacity="0.1" d="M500.211 668.343L599.433 142.809H661.71L562.489 668.343H500.211Z" fill="white"/>
<path opacity="0.1" d="M453.164 668.343L552.386 142.809H583.944L484.723 668.343H453.164Z" fill="white"/>
<path d="M539.353 120.578H593.574C594.026 120.57 594.476 120.657 594.892 120.834C595.309 121.011 595.684 121.274 595.992 121.605C596.301 121.936 596.537 122.328 596.684 122.756C596.832 123.184 596.888 123.638 596.848 124.089C596.774 125.038 596.348 125.925 595.656 126.578C594.963 127.231 594.052 127.603 593.1 127.622H538.879C538.426 127.626 537.976 127.536 537.559 127.357C537.143 127.178 536.768 126.913 536.46 126.58C536.152 126.248 535.916 125.854 535.769 125.425C535.622 124.996 535.566 124.541 535.605 124.089C535.68 123.142 536.106 122.257 536.799 121.608C537.492 120.958 538.403 120.591 539.353 120.578Z" fill="white"/>
<path d="M528.065 754.618L509.065 756.428L502.215 712.59L521.215 710.759L528.065 754.618Z" fill="#FFB573"/>
<path d="M506.89 747.143L526.794 740.961C527.137 740.841 527.513 740.86 527.843 741.013C528.173 741.165 528.43 741.44 528.561 741.779L535.023 757.569C535.184 757.992 535.255 758.444 535.232 758.896C535.209 759.348 535.093 759.791 534.891 760.196C534.688 760.601 534.404 760.959 534.056 761.249C533.708 761.538 533.304 761.752 532.869 761.878C525.674 764.032 518.824 764.527 510.142 768.34C499.996 772.649 495.752 778.422 484.831 778.422C477.011 778.422 475.245 771.248 478.562 770.257C493.641 765.691 491.66 761.942 502.603 750.159C503.741 748.793 505.22 747.753 506.89 747.143Z" fill="#263238"/>
<path opacity="0.2" d="M502.215 712.59L505.748 735.209L524.769 733.378L521.236 710.759L502.215 712.59Z" fill="black"/>
<path d="M515.959 158.664C491.035 155.734 466.24 157.694 441.359 162.52C437.213 163.325 433.431 165.429 430.561 168.527C427.691 171.626 425.882 175.558 425.397 179.753C422.704 203.578 419.624 256.981 431.644 336.642L533.494 328.026C533.688 313.571 523.412 247.718 531.9 179.387C532.247 176.975 532.108 174.518 531.49 172.16C530.872 169.803 529.788 167.593 528.302 165.662C526.816 163.73 524.959 162.115 522.839 160.914C520.719 159.712 518.379 158.947 515.959 158.664Z" fill="white"/>
<path d="M456.654 179.085L460.294 186.366C460.464 186.734 460.734 187.046 461.073 187.267C461.412 187.488 461.807 187.609 462.212 187.616L466.154 187.831C466.857 187.862 467.55 187.649 468.114 187.228L474.9 182.166L466.52 176.069L456.654 179.085Z" fill="#263238"/>
<path d="M466.283 185.742C464.846 185.076 463.219 184.946 461.695 185.376C458.485 196.685 454.974 229.149 454.607 243.538C464.344 271.909 467.533 274.774 467.533 274.774L472.466 240.63C472.466 240.63 466.929 205.711 466.283 185.742Z" fill="#263238"/>
<path d="M494.395 109.548C492.068 123.594 490.087 149.25 500.168 158.319C492.779 166.074 483.107 175.057 466.52 176.069C449.933 177.082 452.496 165.6 456.697 159.461C472.185 155.325 471.431 143.778 468.394 132.986L494.395 109.548Z" fill="#FFB573"/>
<path d="M504.391 157.091C503.216 156.585 501.998 156.188 500.75 155.906C500.445 155.826 500.121 155.847 499.83 155.968C499.538 156.088 499.294 156.301 499.134 156.574C497.54 159.288 492.672 171.416 466.52 176.07C470.828 178.611 476.537 186.496 478.993 190.287C486.834 186.216 507.234 174.045 505.295 158.298C505.256 158.037 505.152 157.791 504.995 157.581C504.837 157.37 504.629 157.202 504.391 157.091Z" fill="#F5F5F5"/>
<path d="M456.848 160.107C456.903 159.862 456.896 159.607 456.828 159.365C456.759 159.123 456.631 158.902 456.456 158.723C456.28 158.543 456.063 158.41 455.823 158.336C455.583 158.261 455.328 158.248 455.082 158.297C454.176 158.473 453.283 158.711 452.41 159.008C452.208 159.087 452.02 159.196 451.85 159.331C449.847 161.184 438.925 176.952 449.158 189.705C451.312 186.237 458.744 178.374 466.52 176.069C459.153 172.752 455.534 166.569 456.848 160.107Z" fill="#F5F5F5"/>
<path opacity="0.2" d="M483.796 119.113L468.416 132.986C469.157 135.491 469.676 138.058 469.967 140.655C475.912 139.642 483.904 132.9 484.335 126.652C484.626 124.128 484.444 121.571 483.796 119.113Z" fill="black"/>
<path d="M463.245 67.0894C449.976 72.281 449.114 83.1811 450.32 95.0938C451.527 107.006 464.495 99.1221 467.382 91.6686C470.268 84.2151 481.621 59.8944 463.245 67.0894Z" fill="#263238"/>
<path d="M505.575 90.8503C501.892 109.613 500.664 120.75 489.936 129.389C473.758 142.314 451.85 131.155 449.911 111.81C448.166 94.3831 454.478 66.5727 473.801 61.1441C478.015 59.9034 482.48 59.7837 486.754 60.7968C491.029 61.8099 494.965 63.9208 498.174 66.9208C501.383 69.9209 503.753 73.7063 505.051 77.903C506.349 82.0997 506.53 86.5624 505.575 90.8503Z" fill="#FFB573"/>
<path d="M504.8 106.382C489.01 107.222 492.349 98.2604 495.214 93.1119C498.079 87.9634 492.241 79.4544 496.054 75.0383C489.247 77.7526 482.073 75.5123 472.961 69.179C465.895 64.2459 457.042 83.9567 448.425 74.069C440.282 64.7414 447.843 50.6745 467.403 48.4127C486.963 46.1508 490.518 59.9806 503.356 58.7527C516.195 57.5249 511.736 68.1019 509.216 70.2561C519.987 70.9669 525.868 81.2639 504.8 106.382Z" fill="#263238"/>
<path d="M506.739 71.5699C509.209 70.2149 511.273 68.2243 512.716 65.8042C514.159 63.3841 514.929 60.6223 514.946 57.8047C519.211 65.2797 518.759 73.7672 506.739 71.5699Z" fill="#263238"/>
<path d="M465.809 110.884C467.526 111.181 469.284 111.128 470.98 110.728C472.675 110.328 474.272 109.59 475.675 108.557C475.718 108.517 475.751 108.469 475.774 108.415C475.798 108.361 475.809 108.304 475.809 108.245C475.809 108.187 475.798 108.129 475.774 108.075C475.751 108.021 475.718 107.973 475.675 107.933C475.591 107.852 475.479 107.808 475.363 107.808C475.247 107.808 475.135 107.852 475.051 107.933C473.48 109.046 471.671 109.78 469.769 110.075C467.866 110.37 465.92 110.22 464.086 109.635C463.969 109.605 463.845 109.62 463.738 109.675C463.631 109.731 463.548 109.824 463.504 109.936C463.471 110.05 463.483 110.173 463.54 110.278C463.596 110.383 463.692 110.461 463.806 110.496C464.461 110.685 465.131 110.815 465.809 110.884Z" fill="#263238"/>
<path d="M509.388 112.134C506.439 115.935 502.114 118.426 497.346 119.07C491.078 119.889 488.988 114.051 491.616 108.601C494.007 103.689 500.233 97.3559 506.006 99.0577C511.779 100.759 513.007 107.394 509.388 112.134Z" fill="#FFB573"/>
<path d="M503.163 520.071C503.917 463.825 511.112 329.856 511.112 329.856L431.708 336.556C431.708 336.556 447.499 474.617 457.02 532.005C466.929 591.654 497.325 731.396 497.325 731.396L529.638 728.639C529.638 728.639 517.833 563.564 503.163 520.071Z" fill="#263238"/>
<path d="M495.386 732.279L533.709 729.027L532.201 716.662L492.263 719.333L495.386 732.279Z" fill="#704FAA"/>
<path d="M477.269 91.9701C477.075 93.4996 476.085 94.6628 475.115 94.5551C474.146 94.4474 473.478 93.1118 473.693 91.5608C473.909 90.0098 474.878 88.8681 475.848 88.9758C476.817 89.0835 477.485 90.4406 477.269 91.9701Z" fill="#263238"/>
<path d="M459.691 90.5915C459.497 92.1425 458.506 93.2842 457.537 93.1765C456.568 93.0688 455.9 91.7332 456.115 90.2037C456.331 88.6743 457.3 87.511 458.269 87.6187C459.239 87.7264 459.907 88.9759 459.691 90.5915Z" fill="#263238"/>
<path d="M464.646 92.4009C462.051 96.3872 458.936 100.009 455.383 103.172C457.666 105.563 462.384 104.917 462.384 104.917L464.646 92.4009Z" fill="#ED893E"/>
<path opacity="0.4" d="M448.576 90.9795C448.253 93.4353 450.73 95.4817 454.155 95.9126C457.58 96.3434 460.747 94.4693 461.048 92.0135" fill="#704FAA"/>
<path opacity="0.4" d="M468.932 93.2627C468.459 95.6969 470.85 97.8942 474.21 98.5405C477.571 99.1867 480.867 97.4634 481.319 95.0507" fill="#704FAA"/>
<path d="M475.546 99.2082C475.159 99.2296 474.77 99.2296 474.383 99.2082C472.727 99.0102 471.171 98.3112 469.924 97.2048C469.379 96.7395 468.954 96.1504 468.684 95.487C468.415 94.8236 468.308 94.1051 468.373 93.3919C467.279 92.9159 466.115 92.6247 464.926 92.5302C463.731 92.232 462.481 92.232 461.285 92.5302C460.984 95.1583 457.709 96.9678 454.047 96.5155C452.391 96.3345 450.832 95.6417 449.588 94.5336C449.047 94.066 448.624 93.4766 448.354 92.8138C448.084 92.151 447.976 91.4336 448.037 90.7207L449.071 90.85C449.028 91.4008 449.116 91.954 449.33 92.4636C449.544 92.9732 449.876 93.4244 450.299 93.7797C451.384 94.7348 452.739 95.3294 454.177 95.4814C457.279 95.8907 460.036 94.4474 460.316 92.2933C460.467 91.0869 462.966 91.1731 465.034 91.4316C467.102 91.6901 469.558 92.2717 469.342 93.4565C469.297 94.0075 469.385 94.5614 469.598 95.0713C469.812 95.5812 470.145 96.0322 470.57 96.3862C471.668 97.3286 473.019 97.9287 474.454 98.1124C475.89 98.2962 477.348 98.0555 478.648 97.4202C479.15 97.1866 479.588 96.8357 479.926 96.397C480.263 95.9583 480.49 95.4447 480.587 94.8998V94.3828L507.17 97.808L507.04 98.842L481.449 95.5461C481.263 96.1457 480.957 96.7012 480.549 97.1789C480.142 97.6567 479.642 98.0466 479.079 98.325C477.99 98.9012 476.778 99.2043 475.546 99.2082Z" fill="#263238"/>
<path d="M484.033 85.2063C484.187 85.2067 484.337 85.1618 484.464 85.0771C484.674 84.9552 484.827 84.7562 484.891 84.5227C484.956 84.2891 484.926 84.0396 484.809 83.8276C484.141 82.5747 483.175 81.5062 481.994 80.7169C480.814 79.9277 479.458 79.4423 478.045 79.3038C477.803 79.292 477.565 79.3756 477.384 79.5367C477.203 79.6978 477.092 79.9236 477.075 80.1655C477.063 80.402 477.145 80.6337 477.302 80.811C477.459 80.9882 477.679 81.0967 477.915 81.1133C479.033 81.2446 480.103 81.6468 481.03 82.285C481.957 82.9232 482.714 83.7781 483.236 84.7755C483.318 84.9126 483.435 85.025 483.575 85.1009C483.716 85.1767 483.874 85.2132 484.033 85.2063Z" fill="#263238"/>
<path d="M454.004 82.7719C454.153 82.7865 454.303 82.7648 454.442 82.7085C454.581 82.6522 454.704 82.5631 454.801 82.4488C455.498 81.5366 456.398 80.8003 457.431 80.2991C458.463 79.7978 459.599 79.5454 460.747 79.5622C460.865 79.5741 460.986 79.5623 461.1 79.5275C461.214 79.4927 461.321 79.4356 461.413 79.3594C461.505 79.2833 461.581 79.1897 461.637 79.084C461.692 78.9783 461.727 78.8626 461.738 78.7436C461.753 78.6275 461.744 78.5095 461.713 78.3966C461.682 78.2837 461.629 78.178 461.557 78.0858C461.485 77.9936 461.395 77.9167 461.293 77.8595C461.191 77.8023 461.078 77.766 460.962 77.7527C459.515 77.7148 458.079 78.0166 456.77 78.6339C455.46 79.2511 454.314 80.1667 453.422 81.3071C453.269 81.4902 453.194 81.7266 453.214 81.9648C453.234 82.2029 453.348 82.4234 453.53 82.578C453.671 82.6791 453.833 82.7455 454.004 82.7719Z" fill="#263238"/>
<path d="M569.318 511.002C552.838 426.3 549.133 360.058 533.494 327.896L456.568 336.513C456.568 336.513 502.387 462.727 524.769 516.603C548.013 572.612 593.897 668.3 593.897 668.3H632.328C632.328 668.3 596.46 549.583 569.318 511.002Z" fill="#263238"/>
<path d="M325.486 190.352L317.171 185.096C315.821 184.226 314.211 183.852 312.616 184.036C311.021 184.221 309.54 184.953 308.425 186.108L302.781 192.054C302.173 192.695 301.703 193.455 301.4 194.285C301.098 195.116 300.969 195.999 301.021 196.882C301.074 197.764 301.307 198.626 301.706 199.415C302.105 200.204 302.661 200.902 303.341 201.467L307.369 204.914C310.873 207.883 314.96 210.085 319.368 211.377L331.539 214.974L339.531 206.357C341.965 197.374 325.486 190.352 325.486 190.352Z" fill="#FFB573"/>
<path d="M448.575 186.323C445.56 193.691 442.608 200.541 439.399 207.542C436.189 214.543 432.936 221.458 429.339 228.33C425.741 235.202 421.907 242.03 417.555 248.881C415.401 252.284 413.01 255.688 410.296 259.113C407.378 262.89 404.055 266.335 400.386 269.389C397.964 271.368 395.292 273.02 392.437 274.3C391.533 274.645 390.693 274.989 389.702 275.291L388.194 275.7C387.435 275.887 386.665 276.023 385.889 276.11C383.263 276.405 380.605 276.216 378.048 275.549C374.85 274.655 371.812 273.266 369.043 271.435C366.969 270.141 364.989 268.701 363.119 267.127C356.902 261.699 351.172 255.738 345.993 249.312C340.974 243.28 336.235 237.227 331.69 231.044C327.144 224.862 322.771 218.787 318.291 212.303L342.116 196.922C349.634 209.059 357.954 220.681 367.018 231.712C371.185 236.821 375.775 241.57 380.74 245.908C381.702 246.695 382.717 247.415 383.778 248.062C384.575 248.601 385.372 248.816 384.812 248.622C384.054 248.414 383.261 248.37 382.485 248.493C382.172 248.522 381.862 248.58 381.559 248.665H381.387C381.279 248.665 381.279 248.665 381.257 248.665C381.747 248.345 382.215 247.993 382.657 247.61C384.624 245.825 386.406 243.848 387.978 241.707C389.809 239.252 391.64 236.494 393.385 233.629C396.952 227.672 400.202 221.531 403.122 215.232C406.138 208.77 409.046 202.307 411.739 195.586C414.432 188.865 416.995 182.036 419.171 175.509L448.575 186.323Z" fill="#704FAA"/>
<g opacity="0.6">
<path d="M448.575 186.323C445.56 193.691 442.608 200.541 439.399 207.542C436.189 214.543 432.936 221.458 429.339 228.33C425.741 235.202 421.907 242.03 417.555 248.881C415.401 252.284 413.01 255.688 410.296 259.113C407.378 262.89 404.055 266.335 400.386 269.389C397.964 271.368 395.292 273.02 392.437 274.3C391.533 274.645 390.693 274.989 389.702 275.291L388.194 275.7C387.435 275.887 386.665 276.023 385.889 276.11C383.263 276.405 380.605 276.216 378.048 275.549C374.85 274.655 371.812 273.266 369.043 271.435C366.969 270.141 364.989 268.701 363.119 267.127C356.902 261.699 351.172 255.738 345.993 249.312C340.974 243.28 336.235 237.227 331.69 231.044C327.144 224.862 322.771 218.787 318.291 212.303L342.116 196.922C349.634 209.059 357.954 220.681 367.018 231.712C371.185 236.821 375.775 241.57 380.74 245.908C381.702 246.695 382.717 247.415 383.778 248.062C384.575 248.601 385.372 248.816 384.812 248.622C384.054 248.414 383.261 248.37 382.485 248.493C382.172 248.522 381.862 248.58 381.559 248.665H381.387C381.279 248.665 381.279 248.665 381.257 248.665C381.747 248.345 382.215 247.993 382.657 247.61C384.624 245.825 386.406 243.848 387.978 241.707C389.809 239.252 391.64 236.494 393.385 233.629C396.952 227.672 400.202 221.531 403.122 215.232C406.138 208.77 409.046 202.307 411.739 195.586C414.432 188.865 416.995 182.036 419.171 175.509L448.575 186.323Z" fill="white"/>
</g>
<path d="M504.972 153.257C496.894 168.336 468.136 225.788 464.646 261.246C451.915 228.933 454.694 157.457 454.694 157.457C445.62 158.342 436.72 160.518 428.262 163.92C425.536 165.04 423.174 166.893 421.436 169.273C419.698 171.653 418.654 174.468 418.417 177.405C415.938 214.389 417.107 251.527 421.907 288.281C430.847 357.861 439.141 466.066 439.141 466.066C439.141 466.066 510.336 463.093 565.268 451.503C558.568 398.317 535.648 309.177 535.432 285.308C535.174 254.59 535.885 194.531 536.854 169.456C537.017 165.916 535.907 162.435 533.726 159.641C531.545 156.848 528.437 154.927 524.963 154.226C518.374 153.005 511.649 152.679 504.972 153.257Z" fill="#704FAA"/>
<path opacity="0.7" d="M504.972 153.257C496.894 168.336 468.136 225.788 464.646 261.246C451.915 228.933 454.694 157.458 454.694 157.458C445.62 158.342 436.72 160.518 428.262 163.92C425.536 165.04 423.174 166.893 421.436 169.273C419.698 171.653 418.654 174.468 418.417 177.405C415.938 214.389 417.107 251.527 421.907 288.281C430.847 357.861 439.141 466.066 439.141 466.066C439.141 466.066 510.336 463.093 565.268 451.503C558.568 398.317 535.648 309.177 535.432 285.308C535.174 254.59 535.885 194.51 536.854 169.435C537.058 166.002 536.044 162.608 533.991 159.85C531.938 157.091 528.977 155.146 525.631 154.356C518.83 153.023 511.876 152.653 504.972 153.257Z" fill="white"/>
<path d="M488.191 454.519C475.826 386.296 466.025 286.191 465.228 274.149H466.326C467.123 286.191 476.946 386.167 489.29 454.39L488.191 454.519Z" fill="white"/>
<path d="M482.03 333.152H416.371C415.045 333.093 413.774 332.605 412.749 331.762C411.723 330.919 410.999 329.767 410.684 328.478L388.732 226.434C388.572 225.877 388.546 225.29 388.656 224.721C388.767 224.152 389.011 223.617 389.368 223.161C389.726 222.704 390.186 222.339 390.713 222.096C391.239 221.852 391.815 221.737 392.395 221.76H458.032C459.362 221.815 460.638 222.301 461.667 223.144C462.697 223.987 463.425 225.142 463.741 226.434L485.692 328.478C485.853 329.035 485.879 329.622 485.769 330.191C485.658 330.76 485.414 331.295 485.056 331.752C484.699 332.208 484.238 332.573 483.712 332.816C483.186 333.06 482.609 333.175 482.03 333.152Z" fill="white"/>
<path d="M479.984 334.014H413.204C411.854 333.951 410.56 333.454 409.516 332.596C408.472 331.738 407.733 330.566 407.409 329.253L385.07 225.486C384.91 224.918 384.887 224.319 385.002 223.74C385.117 223.161 385.368 222.617 385.733 222.153C386.099 221.689 386.569 221.317 387.105 221.069C387.641 220.821 388.228 220.704 388.819 220.726H455.598C456.948 220.789 458.242 221.286 459.286 222.144C460.33 223.002 461.069 224.174 461.393 225.486L483.71 329.253C483.875 329.821 483.902 330.419 483.79 330.998C483.677 331.578 483.429 332.123 483.065 332.588C482.701 333.052 482.232 333.424 481.696 333.672C481.161 333.92 480.573 334.038 479.984 334.014Z" fill="#704FAA"/>
<path d="M487.631 275.463L471.022 274.839C469.025 274.77 467.036 275.122 465.184 275.873L456.568 279.319C455.759 279.639 455.024 280.119 454.405 280.731C453.787 281.342 453.298 282.071 452.968 282.876C452.638 283.681 452.474 284.543 452.485 285.413C452.497 286.282 452.684 287.14 453.035 287.936L456.481 295.389C457.177 296.835 458.349 297.997 459.801 298.68C461.252 299.362 462.895 299.524 464.452 299.138L473.952 296.768C473.952 296.768 491.788 295.346 492.435 285.997L487.631 275.463Z" fill="#FFB573"/>
<path d="M533.493 162.498C537.608 168.961 541.378 174.863 545.083 181.196C548.788 187.53 552.429 193.798 555.854 200.347C559.279 206.896 562.532 213.66 565.483 220.898C567.015 224.688 568.325 228.565 569.404 232.509C570.792 237.315 571.432 242.307 571.299 247.308V248.148C571.307 248.292 571.307 248.436 571.299 248.579C571.299 249.355 571.084 250.13 570.933 250.906C570.782 251.681 570.588 252.284 570.373 253.06C570.158 253.835 569.921 254.245 569.684 254.848C568.86 256.712 567.803 258.463 566.539 260.061C564.779 262.26 562.777 264.254 560.571 266.006C557.183 268.675 553.581 271.06 549.801 273.137C543.15 276.773 536.304 280.038 529.293 282.917C522.507 285.803 515.743 288.432 508.936 290.909C502.128 293.386 495.429 295.777 488.342 298.147L480.134 271.004C486.597 269.238 493.189 267.062 499.63 264.865C506.071 262.667 512.555 260.212 518.673 257.648C524.677 255.168 530.531 252.341 536.208 249.182C538.603 247.855 540.887 246.334 543.036 244.637C543.601 244.209 544.108 243.709 544.544 243.151C544.359 243.36 544.213 243.6 544.114 243.861C544.114 244.055 544.006 244.185 543.898 244.422C543.813 244.675 543.748 244.934 543.704 245.197C543.614 245.528 543.556 245.867 543.532 246.21C543.532 246.339 543.532 246.36 543.532 246.317V246.166C543.382 244.123 542.984 242.104 542.347 240.156C541.486 237.336 540.464 234.567 539.288 231.863C536.655 225.9 533.677 220.096 530.37 214.478C527.009 208.705 523.433 202.932 519.599 197.245C515.764 191.558 511.844 185.892 507.902 180.722L533.493 162.498Z" fill="#704FAA"/>
<g opacity="0.7">
<path d="M533.493 162.498C537.608 168.961 541.378 174.863 545.083 181.196C548.788 187.53 552.429 193.798 555.854 200.347C559.279 206.896 562.532 213.66 565.483 220.898C567.015 224.688 568.325 228.565 569.404 232.509C570.792 237.315 571.432 242.307 571.299 247.308V248.148C571.307 248.292 571.307 248.436 571.299 248.579C571.299 249.355 571.084 250.13 570.933 250.906C570.782 251.681 570.588 252.284 570.373 253.06C570.158 253.835 569.921 254.245 569.684 254.848C568.86 256.712 567.803 258.463 566.539 260.061C564.779 262.26 562.777 264.254 560.571 266.006C557.183 268.675 553.581 271.06 549.801 273.137C543.15 276.773 536.304 280.038 529.293 282.917C522.507 285.803 515.743 288.432 508.936 290.909C502.128 293.386 495.429 295.777 488.342 298.147L480.134 271.004C486.597 269.238 493.189 267.062 499.63 264.865C506.071 262.667 512.555 260.212 518.673 257.648C524.677 255.168 530.531 252.341 536.208 249.182C538.603 247.855 540.887 246.334 543.036 244.637C543.601 244.209 544.108 243.709 544.544 243.151C544.359 243.36 544.213 243.6 544.114 243.861C544.114 244.055 544.006 244.185 543.898 244.422C543.813 244.675 543.748 244.934 543.704 245.197C543.614 245.528 543.556 245.867 543.532 246.21C543.532 246.339 543.532 246.36 543.532 246.317V246.166C543.382 244.123 542.984 242.104 542.347 240.156C541.486 237.336 540.464 234.567 539.288 231.863C536.655 225.9 533.677 220.096 530.37 214.478C527.009 208.705 523.433 202.932 519.599 197.245C515.764 191.558 511.844 185.892 507.902 180.722L533.493 162.498Z" fill="white"/>
</g>
<path d="M511.693 237.248C511.55 237.246 511.409 237.208 511.285 237.136C511.16 237.065 511.056 236.962 510.982 236.839C510.919 236.745 510.876 236.639 510.855 236.528C510.833 236.416 510.835 236.302 510.859 236.191C510.883 236.081 510.929 235.976 510.995 235.884C511.061 235.791 511.144 235.713 511.241 235.654L514.601 233.5C517.738 231.522 520.2 228.638 521.662 225.23C523.124 221.822 523.516 218.05 522.787 214.414L516.023 180.162C515.528 177.601 514.184 175.282 512.207 173.58C510.231 171.878 507.738 170.892 505.132 170.783C502.525 170.673 499.958 171.446 497.846 172.976C495.733 174.506 494.199 176.704 493.491 179.215L483.904 212.798C482.857 216.348 482.915 220.133 484.069 223.649C485.223 227.166 487.42 230.248 490.367 232.487L493.555 234.9C493.735 235.04 493.851 235.246 493.88 235.472C493.908 235.698 493.845 235.926 493.706 236.106C493.638 236.195 493.554 236.269 493.458 236.324C493.361 236.379 493.255 236.415 493.145 236.429C493.035 236.443 492.923 236.435 492.816 236.406C492.709 236.376 492.609 236.326 492.521 236.257L489.505 233.866C486.266 231.427 483.845 228.06 482.564 224.212C481.282 220.365 481.202 216.219 482.332 212.324L491.94 178.741C492.764 175.873 494.529 173.365 496.949 171.621C499.37 169.876 502.307 168.995 505.288 169.119C508.269 169.243 511.122 170.365 513.39 172.306C515.657 174.246 517.206 176.891 517.79 179.818L524.554 214.091C525.352 218.063 524.925 222.184 523.329 225.908C521.732 229.632 519.042 232.783 515.614 234.943L512.232 237.097C512.157 237.158 512.071 237.202 511.978 237.228C511.886 237.254 511.789 237.261 511.693 237.248Z" fill="#263238"/>
<path d="M516.863 180.874L492.672 179.861C492.559 179.856 492.448 179.828 492.345 179.779C492.243 179.731 492.151 179.663 492.075 179.579C491.999 179.494 491.94 179.396 491.902 179.289C491.864 179.183 491.847 179.069 491.853 178.956C491.875 178.732 491.979 178.523 492.147 178.372C492.314 178.22 492.532 178.137 492.758 178.138L516.928 179.15C517.041 179.156 517.152 179.183 517.255 179.232C517.357 179.28 517.449 179.349 517.525 179.433C517.601 179.517 517.66 179.615 517.698 179.722C517.736 179.829 517.752 179.942 517.746 180.055C517.744 180.167 517.719 180.278 517.672 180.38C517.626 180.482 517.56 180.574 517.478 180.651C517.395 180.727 517.299 180.786 517.193 180.824C517.087 180.863 516.975 180.879 516.863 180.874Z" fill="#263238"/>
<path d="M505.102 170.835C504.878 170.83 504.665 170.74 504.506 170.584C504.346 170.428 504.251 170.218 504.24 169.995C504.24 165.686 502.904 158.211 498.876 156.574C498.765 156.537 498.662 156.477 498.574 156.398C498.487 156.32 498.416 156.224 498.367 156.117C498.318 156.01 498.291 155.894 498.289 155.777C498.286 155.659 498.307 155.542 498.352 155.433C498.396 155.324 498.462 155.226 498.546 155.143C498.63 155.061 498.729 154.996 498.839 154.954C498.949 154.911 499.066 154.892 499.183 154.896C499.301 154.901 499.416 154.929 499.522 154.98C505.489 157.436 505.985 168.681 505.985 170.059C505.985 170.286 505.898 170.505 505.742 170.669C505.585 170.833 505.371 170.931 505.145 170.942L505.102 170.835Z" fill="#263238"/>
<path d="M431.105 200.11H430.933C430.711 200.063 430.516 199.931 430.391 199.741C430.266 199.552 430.221 199.32 430.265 199.097C433.109 184.945 444.871 162.606 455.232 156.014C455.327 155.955 455.432 155.916 455.542 155.898C455.652 155.88 455.764 155.884 455.872 155.911C455.981 155.937 456.083 155.984 456.172 156.05C456.262 156.116 456.338 156.199 456.396 156.294C456.458 156.386 456.501 156.49 456.522 156.6C456.543 156.71 456.542 156.822 456.517 156.931C456.493 157.04 456.447 157.143 456.382 157.234C456.316 157.324 456.233 157.4 456.137 157.457C446.12 163.79 434.703 185.462 431.946 199.399C431.91 199.597 431.807 199.776 431.654 199.906C431.5 200.036 431.306 200.108 431.105 200.11Z" fill="#263238"/>
<path d="M438.171 202.329C436.835 205.754 433.863 207.822 431.708 206.939C429.554 206.056 428.714 202.63 430.05 199.119C431.385 195.608 434.358 193.626 436.512 194.531C438.666 195.435 439.528 198.904 438.171 202.329Z" fill="white"/>
<path d="M495.041 235.697C495.041 237.291 494.05 238.562 492.995 238.519C491.939 238.476 491.121 237.141 491.185 235.525C491.25 233.909 492.176 232.638 493.232 232.703C494.287 232.768 495.106 234.082 495.041 235.697Z" fill="white"/>
<path d="M513.611 236.473C513.611 238.067 512.641 239.338 511.564 239.295C510.487 239.252 509.712 237.916 509.776 236.301C509.841 234.685 510.746 233.436 511.93 233.479C513.115 233.522 513.675 234.922 513.611 236.473Z" fill="white"/>
<path d="M878.917 206.594L876.763 206.465C877.121 201.878 876.522 197.268 875.004 192.925C873.487 188.582 871.083 184.603 867.945 181.238C864.808 177.874 861.005 175.198 856.779 173.382C852.552 171.565 847.995 170.646 843.395 170.684V168.53C848.29 168.488 853.14 169.464 857.638 171.396C862.136 173.328 866.183 176.174 869.523 179.753C872.863 183.332 875.423 187.566 877.04 192.187C878.657 196.807 879.296 201.713 878.917 206.594Z" fill="#704FAA"/>
<path d="M880.053 215.626L878.805 233.463L880.959 233.614L882.207 215.777L880.053 215.626Z" fill="#704FAA"/>
<path d="M843.395 176.069H694.756C686.639 176.203 678.861 179.351 672.937 184.901C667.012 190.452 663.364 198.007 662.702 206.099L661.345 226.111C661.036 229.962 661.533 233.834 662.805 237.482C664.076 241.13 666.093 244.473 668.728 247.299C671.362 250.124 674.557 252.369 678.107 253.891C681.658 255.414 685.486 256.18 689.349 256.14H837.988L866.811 273.912L871.377 206.099C871.689 202.249 871.195 198.377 869.926 194.729C868.657 191.081 866.642 187.738 864.009 184.912C861.376 182.086 858.183 179.841 854.634 178.318C851.084 176.796 847.257 176.03 843.395 176.069Z" fill="#704FAA"/>
<path d="M835.855 204.741H698.181V209.739H835.855V204.741Z" fill="white"/>
<path d="M834.649 222.47H732.433V227.468H834.649V222.47Z" fill="white"/>
<path d="M619.79 283.132H771.703C775.653 283.089 779.568 283.87 783.199 285.426C786.829 286.981 790.096 289.276 792.79 292.165C795.484 295.053 797.546 298.472 798.845 302.202C800.143 305.932 800.65 309.892 800.332 313.829L798.954 334.294C798.271 342.563 794.54 350.283 788.485 355.955C782.431 361.628 774.484 364.848 766.189 364.991H614.254L582.329 383.194L587.025 313.829C587.703 305.559 591.433 297.836 597.488 292.162C603.544 286.489 611.493 283.27 619.79 283.132Z" fill="white"/>
<path opacity="0.15" d="M619.79 283.132H771.703C775.653 283.089 779.568 283.87 783.199 285.426C786.829 286.981 790.096 289.276 792.79 292.165C795.484 295.053 797.546 298.472 798.845 302.202C800.143 305.932 800.65 309.892 800.332 313.829L798.954 334.294C798.271 342.563 794.54 350.283 788.485 355.955C782.431 361.628 774.484 364.848 766.189 364.991H614.254L582.329 383.194L587.025 313.829C587.703 305.559 591.433 297.836 597.488 292.162C603.544 286.489 611.493 283.27 619.79 283.132Z" fill="#704FAA"/>
<path opacity="0.5" d="M763.991 312.451H623.194V317.578H763.991V312.451Z" fill="#704FAA"/>
<path opacity="0.5" d="M677.608 330.567H621.966V335.694H677.608V330.567Z" fill="#704FAA"/>
<path opacity="0.5" d="M726.789 330.567H691.245V335.694H726.789V330.567Z" fill="#704FAA"/>
</svg>
