<svg width="564" height="808" viewBox="0 0 564 808" fill="none" xmlns="http://www.w3.org/2000/svg">
<path d="M381.1 800.741C332.9 771.141 318.8 711.741 317.3 657.641C317.1 648.641 315.5 639.241 319.3 631.041C323.1 622.941 332.8 616.941 341.1 620.241C348 622.941 351.4 630.541 355.5 636.741C361 645.041 368.8 651.641 377.9 655.641C383.8 658.341 391 659.641 396.4 656.241C404 651.441 404.2 640.641 403.6 631.741C402.533 615.007 401.433 598.307 400.3 581.641C399.7 572.741 399.1 563.541 401.4 554.841C403.7 546.241 409.3 537.941 417.7 535.041C426.1 532.141 436.9 536.441 439.3 545.041C440.2 548.641 439.7 552.541 440.2 556.241C440.7 559.941 442.6 563.941 446.2 564.741C449.9 565.541 453.3 562.841 455.8 560.041C464.5 550.441 470.1 538.441 475.3 526.441C480.4 514.541 485.4 502.341 493.2 491.941C501 481.541 512.1 473.041 524.9 471.541C537.7 470.041 551.9 477.141 555.9 489.541C559.9 501.941 553.3 515.241 545.9 525.941C534.9 541.841 521.6 556.141 506.6 568.141C503.9 570.341 501 572.641 500.1 576.041C498.5 582.141 504.5 587.741 510.6 589.341C517.4 591.141 524.6 590.041 531.6 590.441C538.7 590.841 546.4 593.441 549.4 599.941C553.7 608.841 546.6 618.941 539.4 625.641C525.1 639.141 508.5 650.141 490.5 657.941C484.1 660.741 477.2 663.341 472.2 668.241C467.2 673.241 464.5 681.441 468 687.541C471.6 693.741 480 695.241 486.8 693.541C493.7 691.841 499.6 687.741 506 684.841C518.1 679.441 534 679.341 542.5 689.441C548.1 696.141 549.2 705.841 547.1 714.341C545 722.841 540.1 730.341 534.8 737.341C516.5 761.641 492.4 781.841 464.4 793.441C436.4 805.141 410.1 809.341 381.1 800.741Z" fill="#F5F5F5"/>
<path d="M393 766.041C399.3 738.341 408.7 708.541 419.7 677.641C422.433 669.974 425.133 662.374 427.8 654.841C430.5 647.441 433.2 640.041 436.3 632.941C442.4 618.741 449.3 605.541 456.2 593.141C463.2 580.841 470.3 569.341 476.9 558.741C483.6 548.041 490.1 538.241 496.3 529.641C508.7 512.141 520.4 499.341 528.8 490.841C533 486.541 536.3 483.341 538.6 481.241C539.733 480.241 540.6 479.441 541.2 478.841C541.8 478.308 542.133 478.041 542.2 478.041C542.2 478.041 541.933 478.341 541.4 478.941C540.733 479.541 539.867 480.374 538.8 481.441C536.6 483.741 533.3 486.941 529.2 491.241C521 499.941 509.5 512.841 497.2 530.241C491.1 538.941 484.7 548.841 478.1 559.441C471.5 570.141 464.5 581.641 457.6 593.941C450.7 606.241 443.8 619.441 437.8 633.541C434.7 640.641 432.1 647.941 429.4 655.441C426.733 662.974 424 670.574 421.2 678.241C410.3 709.041 400.9 738.741 394.5 766.341" fill="#E0E0E0"/>
<path d="M436.8 632.841C436.6 632.841 436.3 631.541 435.6 629.041C435 626.641 434.2 623.041 433.3 618.641C431.5 609.741 429.5 597.441 427.2 583.941C425 570.341 422.7 558.041 420.8 549.341C419.9 544.941 419 541.341 418.5 538.941C417.9 536.441 417.6 535.041 417.7 535.041C417.8 535.041 418.3 536.341 419.1 538.741C419.9 541.141 420.8 544.641 421.9 549.041C424.2 557.741 426.6 570.041 428.9 583.641C431 597.041 433 609.141 434.5 618.341C435.233 622.541 435.833 626.074 436.3 628.941C436.7 631.441 436.9 632.741 436.8 632.841Z" fill="#E0E0E0"/>
<path d="M550.6 604.341C550.6 604.441 549 604.741 546.1 605.141C543.1 605.641 538.9 606.241 533.6 607.141C523.2 608.941 508.8 611.841 493 615.841C477.3 619.841 463.2 624.041 453.1 627.441C448.1 629.041 444 630.441 441.2 631.441C438.4 632.441 436.8 632.941 436.8 632.841C436.7 632.741 438.2 632.041 441 630.841C443.7 629.641 447.7 628.041 452.7 626.241C462.8 622.641 476.9 618.241 492.6 614.241C508.4 610.241 522.9 607.441 533.5 605.941C538.7 605.241 543 604.741 546 604.541C549 604.241 550.6 604.241 550.6 604.341Z" fill="#E0E0E0"/>
<path d="M394.299 763.841C394.233 763.841 393.933 763.374 393.399 762.441C392.799 761.374 392.066 760.041 391.199 758.441C389.299 754.941 386.699 749.741 383.499 743.341C377.099 730.441 368.899 712.441 360.099 692.341C351.299 672.341 343.299 654.241 337.199 641.241C334.199 634.941 331.799 629.741 329.999 625.941C329.199 624.274 328.533 622.874 327.999 621.741C327.599 620.741 327.399 620.241 327.399 620.241C327.466 620.241 327.766 620.674 328.299 621.541C328.899 622.674 329.633 624.041 330.499 625.641C332.399 629.141 335.099 634.341 338.299 640.741C344.599 653.641 352.799 671.641 361.599 691.641C370.399 711.741 378.499 729.841 384.499 742.741C387.499 749.041 389.999 754.241 391.799 758.141C392.533 759.807 393.166 761.207 393.699 762.341C394.166 763.274 394.366 763.774 394.299 763.841Z" fill="#E0E0E0"/>
<path d="M544.4 705.241C544.4 705.307 543.9 705.541 542.9 705.941C541.7 706.407 540.233 707.007 538.5 707.741C534.5 709.341 529.1 711.441 522.5 714.041C508.9 719.341 490.3 726.941 469.7 735.341C449 743.741 430.3 751.141 416.6 756.141C409.8 758.641 404.2 760.641 400.4 761.941C398.6 762.541 397.1 763.041 395.9 763.441C394.833 763.774 394.3 763.907 394.3 763.841C394.3 763.774 394.8 763.541 395.8 763.141C396.933 762.674 398.366 762.074 400.1 761.341C404.2 759.741 409.6 757.641 416.2 755.041C429.8 749.741 448.4 742.141 469 733.741C489.6 725.341 508.4 717.941 522.1 712.941C528.9 710.441 534.5 708.441 538.3 707.141C540.1 706.541 541.6 706.041 542.8 705.641C543.8 705.307 544.333 705.174 544.4 705.241Z" fill="#E0E0E0"/>
<path d="M433.7 170.941C433.4 170.841 434.8 166.641 436.8 161.641C438.8 156.541 440.7 152.641 440.9 152.741C441.2 152.841 439.8 156.941 437.8 162.041C435.8 167.041 434 171.041 433.7 170.941Z" fill="#E0E0E0"/>
<path d="M438.499 172.84C438.299 172.74 439.699 168.541 441.699 163.541C443.699 158.541 445.5 154.541 445.8 154.641C446.1 154.741 444.699 158.94 442.699 163.94C440.699 168.94 438.799 172.94 438.499 172.84Z" fill="#E0E0E0"/>
<path d="M443.4 174.741C443.1 174.641 444.5 170.541 446.5 165.441C448.5 160.441 450.4 156.441 450.7 156.541C450.9 156.641 449.5 160.841 447.5 165.841C445.5 170.941 443.7 174.841 443.4 174.741Z" fill="#E0E0E0"/>
<path d="M448.3 176.74C448 176.64 449.4 172.44 451.4 167.44C453.4 162.34 455.2 158.44 455.5 158.54C455.8 158.64 454.4 162.74 452.4 167.84C450.4 172.84 448.5 176.84 448.3 176.74Z" fill="#E0E0E0"/>
<path d="M453.1 178.641C452.8 178.541 454.3 174.341 456.3 169.341C458.3 164.341 460.1 160.341 460.4 160.441C460.6 160.541 459.2 164.741 457.2 169.741C455.2 174.741 453.4 178.741 453.1 178.641Z" fill="#E0E0E0"/>
<path d="M457.999 180.541C457.699 180.441 459.099 176.341 461.099 171.241C463.099 166.241 464.999 162.241 465.199 162.341C465.499 162.441 464.099 166.641 462.099 171.641C460.099 176.741 458.199 180.641 457.999 180.541Z" fill="#E0E0E0"/>
<path d="M462.8 182.541C462.6 182.441 464 178.241 466 173.241C468 168.141 469.8 164.241 470.1 164.341C470.3 164.441 468.9 168.541 466.9 173.641C464.9 178.641 463.1 182.641 462.8 182.541Z" fill="#E0E0E0"/>
<path d="M467.7 184.441C467.4 184.341 468.8 180.141 470.8 175.141C472.8 170.141 474.7 166.141 474.9 166.241C475.2 166.341 473.8 170.541 471.8 175.541C469.8 180.541 467.9 184.541 467.7 184.441Z" fill="#E0E0E0"/>
<path d="M464.7 189.54C464.6 189.84 456.8 187.04 447.3 183.24C437.8 179.44 430.2 176.14 430.3 175.94C430.4 175.64 438.2 178.44 447.7 182.24C457.2 186.04 464.8 189.34 464.7 189.54Z" fill="#E0E0E0"/>
<path d="M187.9 40.8405C185.8 23.2405 170.9 6.94049 153.3 6.94049C142.9 6.94049 133 12.3405 125.8 19.9405C122.7 23.3405 120.6 25.7405 118.9 28.2405C117.7 25.4405 116.1 22.6405 113.7 18.7405C108.2 9.94049 99.4997 2.64049 89.2997 0.540491C71.9997 -2.85951 54.2998 10.2405 48.6998 26.9405C43.0998 43.7405 47.7998 62.5405 56.8998 77.5405C66.0998 92.6405 81.8997 112.34 111 122.14C131.1 119.54 157.9 101.74 169.9 88.8405C181.8 75.8405 190.1 58.3405 187.9 40.8405Z" fill="#6B4AA5"/>
<path d="M181.6 72.2407C181.6 72.2407 181.4 72.2407 181 72.2407C180.534 72.2407 179.967 72.2074 179.3 72.1407C177.7 72.0074 175.5 71.8407 172.7 71.6407C167 71.0407 158.8 70.3407 148.7 69.4407L149.2 69.1407C146.3 76.6407 142.9 85.5407 139.2 95.2407L138.6 96.7407L138.2 95.1407C135.1 82.5407 131.7 68.3407 128.1 53.3407C127.033 48.7407 125.967 44.2074 124.9 39.7407L125.9 39.9407C119.4 48.9407 113.2 57.4407 107.6 65.1407L107.4 65.4407L107.1 65.3407C89.8002 63.5407 75.3002 62.0407 64.9002 60.9407C59.9002 60.4407 55.8002 59.9407 53.0002 59.6407C51.6668 59.4407 50.6002 59.3074 49.8002 59.2407C49.0668 59.1074 48.7002 59.0407 48.7002 59.0407C48.7669 59.0407 49.1335 59.0407 49.8002 59.0407C50.6002 59.1074 51.6668 59.2074 53.0002 59.3407C55.9002 59.5407 59.9002 59.9407 65.0002 60.3407C75.3002 61.3407 89.9002 62.7407 107.2 64.3407L106.7 64.5407C112.3 56.8407 118.5 48.2407 125 39.3407L125.7 38.2407L126 39.5407C127.067 43.9407 128.134 48.4741 129.2 53.1407C132.8 68.0407 136.2 82.2407 139.2 94.9407L138.2 94.8407C142 85.1407 145.4 76.3407 148.4 68.8407L148.5 68.5407H148.8C158.9 69.6407 167 70.5407 172.8 71.1407C175.534 71.4741 177.7 71.7407 179.3 71.9407C179.967 72.0074 180.534 72.0741 181 72.1407C181.4 72.2074 181.6 72.2407 181.6 72.2407Z" fill="#FAFAFA"/>
<path d="M405.3 587.44C405.3 587.44 463.8 573.54 465.8 571.04L417.6 447.04C410.9 429.74 399.6 414.34 384.3 403.84C377.3 399.04 369.6 395.14 361.5 392.34C330.2 381.74 304.6 383.54 304.6 383.54L223.4 379.24C198.1 380.74 176.6 388.14 159.3 397.04C131.9 411.04 110.8 434.84 99.0996 463.34L62.5996 554.34L154.6 573.54L158.1 671.34L144.2 806.34H398L396.2 592.44L405.3 587.44Z" fill="#6B4AA5"/>
<g opacity="0.3">
<path d="M455.7 554.84C455.8 555.14 440.6 560.04 421.8 565.94C403 571.74 387.7 576.24 387.6 575.94C387.5 575.74 402.7 570.74 421.5 564.94C440.3 559.04 455.7 554.54 455.7 554.84Z" fill="white"/>
</g>
<path d="M190.2 467.64C190.1 467.74 189.6 466.941 188.6 465.541C187.7 464.141 186.3 462.141 184.5 459.741C182.6 457.341 180.3 454.541 177.6 451.641C174.8 448.841 171.6 445.741 168 442.841C164.4 440.041 160.8 437.541 157.4 435.441C154 433.341 150.8 431.641 148.1 430.341C145.3 429.041 143.1 428.141 141.5 427.541C139.9 426.841 139.1 426.541 139.1 426.441C139.1 426.341 140 426.641 141.7 427.141C143.3 427.641 145.6 428.541 148.4 429.741C151.2 430.941 154.4 432.541 157.9 434.541C161.4 436.641 165 439.141 168.7 442.041C172.3 445.041 175.5 448.041 178.3 451.041C181 454.041 183.3 456.841 185 459.341C186.8 461.741 188.2 463.841 189 465.341C189.8 466.841 190.3 467.64 190.2 467.64Z" fill="#263238"/>
<path d="M178.2 497.24C178.5 497.34 175.7 527.14 171.9 563.94C168.1 600.74 164.8 630.54 164.5 630.54C164.2 630.54 167.1 600.64 170.9 563.84C174.6 527.04 177.9 497.24 178.2 497.24Z" fill="#263238"/>
<path d="M378 441.94C377.9 441.94 377.5 439.64 376.7 435.84C375.9 432.14 374.7 427.04 372.7 421.54C370.7 416.04 368.5 411.34 366.7 407.94C364.9 404.54 363.7 402.54 363.9 402.44C363.9 402.34 364.3 402.84 364.9 403.74C365.5 404.64 366.4 405.94 367.4 407.54C369.3 410.84 371.7 415.64 373.7 421.24C375.7 426.74 376.9 431.94 377.5 435.74C377.8 437.64 377.9 439.14 378 440.24C378.1 441.34 378.1 441.94 378 441.94Z" fill="#263238"/>
<path d="M383.099 546.34C383.099 546.34 382.899 545.34 382.599 543.44C382.399 541.54 382.099 538.74 381.699 535.34C381.099 528.54 380.399 519.14 379.999 508.74C379.699 498.24 379.699 488.84 379.899 481.94C379.999 478.54 380.099 475.74 380.199 473.84C380.299 471.94 380.399 470.94 380.499 470.94C380.499 470.94 380.599 471.94 380.599 473.84C380.599 475.94 380.599 478.74 380.599 481.94C380.599 488.84 380.699 498.24 381.099 508.64C381.399 519.04 381.999 528.44 382.499 535.34C382.699 538.54 382.899 541.24 382.999 543.34C383.199 545.24 383.199 546.34 383.099 546.34Z" fill="#263238"/>
<path d="M260.199 528.84C238.899 530.14 217.499 529.74 196.199 527.64V536.04H260.199V528.84Z" fill="white"/>
<g opacity="0.3">
<path d="M323.899 390.541C323.966 390.607 324.066 391.041 324.199 391.841C324.333 392.774 324.499 394.007 324.699 395.541C325.099 398.741 325.699 403.541 326.099 409.541C327.099 421.541 327.899 438.641 328.199 458.841V459.541L327.499 459.241C314.799 453.041 300.499 446.241 285.599 438.841C257.199 424.641 231.499 411.741 212.799 402.441C203.599 397.741 196.099 393.941 190.899 391.241C188.366 389.974 186.366 388.974 184.899 388.241C184.299 387.907 183.799 387.607 183.399 387.341C183.066 387.207 182.899 387.107 182.899 387.041C182.899 387.041 183.066 387.141 183.399 387.341C183.799 387.474 184.333 387.707 184.999 388.041C186.466 388.707 188.499 389.674 191.099 390.941C196.299 393.541 203.899 397.241 213.199 401.741C231.899 411.041 257.599 423.841 286.099 437.941C300.899 445.341 315.199 452.141 327.999 458.341L327.299 458.841C327.099 438.641 326.399 421.541 325.599 409.541C325.199 403.541 324.699 398.841 324.399 395.541C324.266 394.007 324.133 392.774 323.999 391.841C323.933 391.041 323.899 390.607 323.899 390.541Z" fill="white"/>
</g>
<g opacity="0.3">
<path d="M171.099 563.34C171.099 563.407 170.733 563.34 169.999 563.14C169.266 563.007 168.299 562.774 167.099 562.44C164.299 561.74 160.599 560.84 156.099 559.74C146.899 557.34 134.099 554.14 119.999 550.64C105.899 547.24 92.9992 544.34 83.6992 542.14C79.1992 541.14 75.4992 540.34 72.6992 539.64C71.4992 539.374 70.5325 539.14 69.7992 538.94C69.0659 538.74 68.6992 538.64 68.6992 538.64C68.7659 538.574 69.1325 538.607 69.7992 538.74C70.5992 538.874 71.5992 539.04 72.7992 539.24C75.3992 539.74 79.1992 540.54 83.8992 541.44C93.1992 543.44 106.099 546.24 120.199 549.64C134.399 553.04 147.099 556.44 156.299 558.94C160.899 560.24 164.599 561.34 167.199 562.04C168.332 562.44 169.299 562.74 170.099 562.94C170.766 563.207 171.099 563.34 171.099 563.34Z" fill="white"/>
</g>
<path d="M312.699 375.44C312.799 375.14 318.199 378.04 323.499 385.94C328.799 393.74 333.699 405.84 336.399 419.84C337.799 426.84 338.399 433.54 338.699 439.74C338.799 442.84 338.899 445.74 338.799 448.44C338.599 451.24 338.599 453.74 338.399 456.04C338.133 458.374 337.899 460.474 337.699 462.34C337.399 464.14 337.099 465.74 336.899 466.94C336.399 469.54 336.099 470.94 335.899 470.94C335.799 470.84 335.899 469.44 336.099 466.84C336.233 465.507 336.366 463.974 336.499 462.24C336.633 460.374 336.766 458.274 336.899 455.94C336.999 453.64 336.999 451.14 337.099 448.44C337.099 445.74 336.899 442.84 336.799 439.84C336.399 433.74 335.699 427.14 334.399 420.24C331.699 406.54 327.099 394.44 322.299 386.74C319.899 382.84 317.399 380.04 315.599 378.24C313.799 376.44 312.599 375.64 312.699 375.44Z" fill="#263238"/>
<path d="M221.799 376.04C221.999 376.24 220.299 378.24 217.599 382.14C214.799 385.94 211.299 391.84 208.199 399.74C204.999 407.54 202.699 417.34 201.199 428.44C199.699 439.54 199.099 451.94 198.299 464.94C197.599 477.84 197.599 490.24 197.599 501.54C197.599 512.74 197.499 522.94 197.499 531.44C197.499 540.04 197.299 546.94 197.099 551.74C196.799 556.54 196.499 559.14 196.299 559.14C196.099 559.14 195.999 556.44 195.899 551.74C195.699 546.84 195.599 539.94 195.299 531.54C195.099 522.94 194.799 512.84 194.699 501.54C194.499 490.24 194.499 477.84 195.199 464.74C195.999 451.74 196.699 439.34 198.299 428.04C199.999 416.84 202.599 406.74 206.099 398.84C209.599 390.94 213.499 385.04 216.599 381.34C219.699 377.64 221.699 375.94 221.799 376.04Z" fill="#263238"/>
<path d="M356.3 543.24C356.1 543.24 356 540.84 355.9 536.64C355.8 532.34 355.7 526.24 355.6 518.64C355.533 514.773 355.5 510.607 355.5 506.14C355.4 501.74 355.6 496.84 355.2 491.94C354.8 487.14 353.6 481.94 350.1 478.04C346.7 474.04 341.5 471.44 336 471.34C330.5 471.24 325.2 473.54 321.3 477.04C317.3 480.54 315.1 485.34 313.8 490.04C312.6 494.74 312.1 499.54 311.3 503.94C310.633 508.407 310 512.507 309.4 516.24C308.2 523.74 307.1 529.84 306.4 534.04C305.7 538.24 305.2 540.54 305 540.54C304.9 540.44 305.1 538.14 305.6 533.94C306.1 529.64 306.9 523.54 307.9 516.04C308.433 512.24 309 508.14 309.6 503.74C310.3 499.34 310.7 494.54 312 489.54C313.2 484.64 315.6 479.34 319.9 475.54C324.1 471.74 329.9 469.14 336 469.24C342.2 469.34 347.9 472.34 351.6 476.64C355.5 481.04 356.8 486.74 357.1 491.84C357.4 496.94 357.2 501.64 357.2 506.14C357.133 510.607 357.066 514.773 357 518.64C356.9 526.24 356.8 532.34 356.7 536.64C356.6 540.84 356.4 543.24 356.3 543.24Z" fill="#263238"/>
<path d="M336.999 451.74C336.299 458.74 334.099 466.64 329.199 471.74C333.499 470.84 337.899 470.84 342.099 471.94C339.099 465.84 338.599 458.54 338.699 451.74" fill="#263238"/>
<path d="M356.3 497.24C356 497.34 355.699 493.94 353.199 489.34C351.899 487.04 349.999 484.54 347.399 482.34C344.799 480.24 341.299 478.44 337.499 477.74C333.699 477.04 329.899 477.54 326.699 478.74C323.499 479.94 320.899 481.74 318.899 483.44C315.099 486.94 313.799 490.14 313.399 490.04C313.299 489.94 313.999 486.44 317.899 482.44C319.799 480.44 322.599 478.34 325.999 476.94C329.399 475.64 333.599 474.94 337.899 475.64C342.099 476.44 345.899 478.44 348.599 480.94C351.399 483.34 353.299 486.14 354.499 488.64C356.899 493.74 356.5 497.34 356.3 497.24Z" fill="#263238"/>
<path d="M409.9 723.84C421.8 723.84 432.4 715.24 438 704.74C443.6 694.24 445.1 682.04 445.6 670.14C447.1 638.64 443.2 606.94 434.2 576.74L382 585.84L396.2 726.44L409.9 723.84Z" fill="#FFBE9D"/>
<path d="M198.7 741.341L368.7 735.141L409.9 536.041L230.9 545.941L198.7 741.341Z" fill="#263238"/>
<path d="M286.2 542.54L288.8 537.44L302.3 536.44C302.3 536.44 305.8 527.54 325.2 526.64C342.5 525.84 343.3 534.54 343.3 534.54H352.6V538.84L286.2 542.54Z" fill="#455A64"/>
<path d="M381 677.141L393.9 673.441C396.3 672.741 398.9 672.641 401.3 673.041C404.4 673.641 407.1 675.141 409.3 677.341C413.6 681.541 420.5 688.441 421.4 690.541C422.9 693.541 422.9 698.741 421.4 700.741C420 702.641 424.6 712.541 424 715.841C423.4 719.141 422.6 722.441 421.4 723.841C420.3 725.241 421.4 729.941 418.6 733.541C415.7 737.041 413.1 739.241 413.1 739.241C413.1 739.241 377.7 740.941 374.3 739.241C370.8 737.641 364.8 731.241 364.8 731.241C364.8 731.241 361.6 725.541 366.5 724.941L346.3 717.241C343.9 716.341 342.5 713.641 343.4 711.241C343.7 710.341 344.3 709.641 345.2 709.241C345.2 709.241 336.2 706.341 334.1 705.441C329.9 703.641 328.3 693.941 337 695.141C341.5 695.841 347.7 697.141 347.7 697.141C347.7 697.141 344.4 691.741 349 688.541C351.8 686.641 364.4 688.941 364.4 688.941L381 677.141Z" fill="#FFBE9D"/>
<path d="M385.501 730.241C385.501 730.541 380.701 730.341 375.001 728.741C369.301 727.141 365.201 724.641 365.401 724.341C365.501 724.141 369.701 726.141 375.301 727.741C380.801 729.341 385.501 729.941 385.501 730.241Z" fill="#EB996E"/>
<path d="M377.8 717.741C377.7 717.941 370.3 716.341 361.3 714.041C352.3 711.741 345.1 709.641 345.2 709.341C345.2 709.141 352.6 710.741 361.6 713.041C370.6 715.341 377.8 717.441 377.8 717.741Z" fill="#EB996E"/>
<path d="M382 705.141C381.9 705.441 374 703.841 364.3 701.541C354.6 699.341 346.8 697.241 346.8 696.941C346.9 696.641 354.8 698.341 364.5 700.541C374.2 702.841 382 704.941 382 705.141Z" fill="#EB996E"/>
<path d="M395.1 689.041C395.1 689.241 393.3 689.741 390.5 690.541C388.966 690.941 387.3 691.374 385.5 691.841C384.566 692.041 383.6 692.274 382.6 692.541C381.5 692.841 380.3 692.941 379.2 692.841C378 692.841 376.9 692.541 375.8 692.341C374.8 692.074 373.833 691.841 372.9 691.641C371.1 691.241 369.433 690.841 367.9 690.441C365 689.741 363.3 689.241 363.3 689.041C363.3 688.941 365.1 689.141 368 689.741C369.6 690.007 371.3 690.341 373.1 690.741C375 691.041 377.1 691.641 379.2 691.841C381.4 692.041 383.3 691.241 385.3 690.841C387.1 690.507 388.766 690.174 390.3 689.841C393.2 689.241 395 688.941 395.1 689.041Z" fill="#EB996E"/>
<path d="M397.3 695.841C397.4 695.741 397.9 696.241 398.3 697.141C398.7 698.041 398.9 699.541 398.4 701.141C398 702.641 396.9 703.741 396.1 704.241C395.2 704.841 394.6 704.941 394.5 704.841C394.4 704.541 396.6 703.441 397.4 700.841C398.3 698.141 397.1 695.941 397.3 695.841Z" fill="#EB996E"/>
<path d="M396.6 709.541C396.8 709.441 397.6 710.841 397.5 712.741C397.4 714.741 396.5 716.041 396.2 715.841C396 715.741 396.4 714.441 396.5 712.741C396.6 711.041 396.3 709.641 396.6 709.541Z" fill="#EB996E"/>
<path d="M396.801 724.34C397.101 724.24 397.601 725.24 397.301 726.44C397.101 727.74 396.201 728.44 396.001 728.24C395.801 728.04 396.101 727.24 396.301 726.24C396.501 725.34 396.501 724.44 396.801 724.34Z" fill="#EB996E"/>
<path d="M400.7 688.241C400.6 688.341 399.3 688.341 397.3 688.041C396.1 687.907 394.866 687.774 393.6 687.641C392.2 687.341 390.8 687.141 389.3 687.341C387.9 687.541 386.5 688.441 385.4 689.141C384.3 689.841 383.4 690.741 382.4 691.241C380.6 692.341 379.2 692.441 379.2 692.341C379.1 692.141 380.4 691.841 382 690.641C383.6 689.441 385.7 687.041 389.1 686.341C389.966 686.274 390.8 686.274 391.6 686.341C392.4 686.341 393.1 686.541 393.8 686.641C395 686.907 396.2 687.141 397.4 687.341C399.4 687.741 400.7 688.141 400.7 688.241Z" fill="#EB996E"/>
<path d="M421.1 724.54C421 724.44 421.4 723.54 422 721.94C422.6 720.34 423.5 717.94 423.4 714.94C423.4 713.44 423.1 711.74 422.7 710.04C422.3 708.24 421.4 706.44 421 704.34C420.5 702.24 421.1 699.94 421.4 697.84C421.7 695.74 421.3 693.54 420.3 691.44C419.3 689.34 418 687.44 416.6 685.74C415.2 683.94 413.9 682.24 412.5 680.74C409.9 677.74 407 675.34 404.2 674.24C401.4 673.04 398.8 672.94 397.1 673.14C395.4 673.34 394.6 673.84 394.5 673.74C394.5 673.674 394.7 673.54 395.1 673.34C395.6 673.14 396.2 672.94 397.1 672.74C398.8 672.34 401.5 672.34 404.4 673.54C407.4 674.64 410.5 677.04 413.2 680.14C414.6 681.64 416 683.34 417.4 685.04C418.8 686.84 420.2 688.74 421.2 690.94C422.3 693.14 422.8 695.64 422.4 697.94C422.1 700.24 421.5 702.24 421.9 704.24C422.3 706.14 423.1 707.94 423.5 709.74C423.9 711.54 424.2 713.34 424.2 714.94C424.1 718.14 423.1 720.54 422.4 722.14C421.7 723.74 421.2 724.54 421.1 724.54Z" fill="#EB996E"/>
<path d="M302.1 626.04L162.6 648.14L168.8 575.34L91.1999 560.34L81.6999 668.14L80.0999 692.84C78.9999 709.64 86.7 725.74 100.4 735.44C112.8 744.24 128.7 746.64 143.2 741.94L173.2 732.14L319.4 680.14" fill="#FFBE9D"/>
<path d="M386.6 610.94C387.1 608.54 385.1 606.34 382.6 606.34C374.7 606.24 353.5 606.44 346 608.54C336.7 611.14 302.1 626.04 302.1 626.04L316.8 680.14L369.8 680.64C369.8 680.64 389.2 671.74 389.5 667.94C389.6 665.94 389 660.64 389 660.64L394.8 657.54C403.6 652.04 398 641.44 398 641.44C398 641.44 404 638.04 404.3 631.94C404.6 625.54 399.6 623.04 399.6 623.04C399.6 623.04 402 614.44 397.5 612.14C393.1 609.84 385.5 612.84 385.5 612.84C386 612.44 386.4 611.74 386.6 610.94Z" fill="#FFBE9D"/>
<path d="M389.599 611.841C389.599 611.941 388.999 612.141 387.999 612.441C386.899 612.741 385.299 613.041 383.399 613.441C379.499 614.141 374.099 614.741 368.099 615.341C362.099 615.941 356.699 616.74 352.899 617.64C349.099 618.54 346.999 619.741 346.899 619.541C346.899 619.541 347.399 619.14 348.399 618.64C349.299 618.14 350.799 617.541 352.799 616.941C356.599 615.841 361.999 614.941 367.999 614.341C373.999 613.641 379.399 613.241 383.299 612.741C387.199 612.241 389.599 611.741 389.599 611.841Z" fill="#EB996E"/>
<path d="M399.6 622.74C399.6 622.84 398.3 623.64 395.9 624.64C393.5 625.54 390 626.64 386.2 627.44C382.3 628.24 378.8 628.74 376.3 629.04C373.7 629.44 372.2 629.54 372.1 629.44C372.1 629.04 378.3 627.94 386 626.44C389.8 625.64 393.2 624.74 395.6 623.94C398 623.14 399.5 622.54 399.6 622.74Z" fill="#EB996E"/>
<path d="M398.1 641.54C398.2 641.74 393.2 643.94 386.7 645.34C380.2 646.84 374.8 647.04 374.8 646.74C374.8 646.44 380.1 645.84 386.5 644.34C392.9 642.94 398 641.24 398.1 641.54Z" fill="#EB996E"/>
<path d="M394.799 657.54C394.899 657.84 391.099 659.54 386.099 660.74C381.099 661.94 376.899 662.14 376.899 661.84C376.899 661.54 380.899 660.94 385.899 659.74C390.799 658.54 394.699 657.24 394.799 657.54Z" fill="#EB996E"/>
<path d="M367.199 647.94C367.199 648.04 366.599 648.44 365.499 648.54C364.499 648.64 362.899 648.44 361.499 647.44C360.199 646.44 359.399 645.04 359.199 644.04C358.899 642.94 358.999 642.24 359.199 642.24C359.499 642.24 359.699 644.84 362.099 646.54C364.499 648.24 367.099 647.64 367.199 647.94Z" fill="#EB996E"/>
<path d="M366.099 664.74C366.099 665.04 363.999 665.14 362.199 663.54C360.299 661.84 360.199 659.74 360.499 659.74C360.799 659.74 361.299 661.34 362.899 662.74C364.399 664.14 366.099 664.44 366.099 664.74Z" fill="#EB996E"/>
<path d="M359.9 630.64C360 630.94 358.599 631.44 357.199 630.34C355.799 629.34 355.899 627.84 356.199 627.84C356.499 627.84 356.8 628.84 357.8 629.54C358.8 630.34 359.9 630.34 359.9 630.64Z" fill="#EB996E"/>
<path d="M302.1 626.04C302.1 625.974 302.233 625.874 302.5 625.74C302.833 625.607 303.266 625.407 303.8 625.14C305 624.674 306.633 623.974 308.7 623.04C313 621.14 319.3 618.44 327.2 615.14C331.2 613.54 335.6 611.84 340.4 610.04C342.8 609.14 345.2 608.14 348 607.64C350.7 607.14 353.5 606.84 356.4 606.64C362.2 606.14 368.3 605.94 374.8 605.84C376.4 605.84 378 605.84 379.6 605.84C380.466 605.84 381.3 605.84 382.1 605.84C382.9 605.84 383.9 605.94 384.7 606.34C386.4 607.24 387.6 609.14 387 611.24C386.8 611.64 386.6 611.74 386.4 611.84C386.2 612.04 386 612.174 385.8 612.24C385.4 612.44 385 612.64 384.6 612.84C383.8 613.14 383 613.44 382.1 613.74C381.8 613.74 381.5 613.64 381.5 613.34C381.4 613.04 381.6 612.84 381.8 612.74C383.933 612.074 386.133 611.574 388.4 611.24C390.7 610.94 393 610.64 395.4 611.04C396.6 611.24 397.9 611.54 398.9 612.44C399.8 613.44 400.3 614.64 400.6 615.84C401 618.34 400.7 620.74 400.1 623.14L399.8 622.54C401 623.14 401.9 624.04 402.8 625.14C404.8 627.84 405.3 631.44 404.3 634.64C403.2 637.74 400.9 640.14 398.2 641.84L398.4 641.14C399.8 644.04 400.5 647.24 400.1 650.44C399.7 653.54 397.7 656.34 395.1 657.94C393.1 659.007 391.133 660.074 389.2 661.14L389.5 660.64C389.633 662.04 389.766 663.44 389.9 664.84C389.9 665.507 389.933 666.174 390 666.84C390 667.24 389.966 667.607 389.9 667.94C389.9 668.34 389.7 668.74 389.5 669.04C388.7 670.34 387.6 671.14 386.5 671.94C385.433 672.74 384.333 673.474 383.2 674.14C378.7 676.84 374.3 679.04 370 681.04C369.933 681.107 369.866 681.14 369.8 681.14C353.8 680.84 340.5 680.64 331.2 680.54C326.7 680.44 323.1 680.34 320.5 680.24C319.366 680.24 318.433 680.207 317.7 680.14C317.1 680.14 316.8 680.14 316.8 680.14C316.8 680.074 317.1 680.04 317.7 680.04C318.433 680.04 319.366 680.04 320.5 680.04C323.1 680.04 326.7 680.04 331.2 680.04C340.5 680.04 353.8 680.14 369.8 680.24H369.7C373.9 678.24 378.3 676.04 382.7 673.34C383.833 672.674 384.9 671.974 385.9 671.24C387 670.44 388 669.54 388.7 668.54C388.9 668.34 389 668.04 389 667.84C389 667.574 389 667.274 389 666.94C389 666.207 388.966 665.507 388.9 664.84C388.766 663.507 388.633 662.14 388.5 660.74C388.5 660.54 388.6 660.34 388.8 660.24C390.666 659.24 392.6 658.207 394.6 657.14C396.9 655.64 398.8 653.14 399.1 650.24C399.5 647.44 398.8 644.34 397.5 641.64C397.4 641.44 397.5 641.14 397.7 640.94C400.2 639.44 402.4 637.14 403.3 634.24C404.2 631.44 403.8 628.14 401.9 625.74C401.2 624.84 400.3 623.94 399.4 623.44C399.1 623.34 399 623.14 399.1 622.84C399.6 620.64 399.9 618.24 399.5 616.04C399.3 614.94 398.9 613.94 398.1 613.24C397.4 612.54 396.3 612.24 395.3 612.04C393.1 611.74 390.8 611.94 388.6 612.24C386.4 612.54 384.2 613.04 382.1 613.64L381.8 612.74C382.6 612.54 383.4 612.24 384.2 611.94C384.6 611.74 384.966 611.54 385.3 611.34C385.7 611.24 386 610.84 386.1 610.84C386.1 610.24 386.2 609.44 385.8 608.74C385.5 608.14 384.9 607.54 384.3 607.24C383.6 606.84 382.9 606.74 382.1 606.84C381.3 606.84 380.466 606.84 379.6 606.84C378 606.84 376.4 606.84 374.8 606.84C368.4 606.94 362.2 607.04 356.5 607.44C353.6 607.74 350.8 607.94 348.1 608.44C345.5 608.94 343 609.94 340.6 610.74C335.8 612.44 331.5 614.24 327.5 615.74C319.6 618.94 313.3 621.54 308.9 623.34C306.766 624.207 305.1 624.874 303.9 625.34C303.366 625.54 302.933 625.707 302.6 625.84C302.266 625.974 302.1 626.04 302.1 626.04Z" fill="#EB996E"/>
<path d="M163.1 648.04C163.3 648.34 157.6 651.04 152.8 656.94C147.9 662.74 146.3 668.84 146 668.64C145.8 668.64 146.1 667.14 147 664.74C147.9 662.34 149.6 659.24 152 656.24C154.5 653.24 157.3 651.04 159.5 649.74C161.6 648.44 163.1 647.94 163.1 648.04Z" fill="#EB996E"/>
<path d="M345.399 216.541C342.499 179.941 311.999 151.641 275.199 151.541H271.599C232.199 153.841 212.099 188.441 215.399 227.741L222.199 385.241C222.299 387.941 223.899 390.241 226.299 391.341L314.599 432.841L311.899 350.141C311.899 350.141 349.799 344.341 350.299 306.541C350.599 288.241 347.999 250.641 345.399 216.541Z" fill="#FFBE9D"/>
<path d="M312.199 350.141C312.199 350.141 288.099 351.541 262.699 335.541C262.699 335.541 274.299 362.741 311.999 359.441L312.199 350.141Z" fill="#EB996E"/>
<path d="M331.999 240.041C331.999 242.941 329.699 245.341 326.699 245.441C323.799 245.641 321.299 243.441 321.199 240.641C321.099 237.741 323.4 235.341 326.4 235.141C329.4 235.041 331.899 237.141 331.999 240.041Z" fill="#263238"/>
<path d="M337.199 235.041C336.499 235.741 332.399 232.741 326.599 232.741C320.799 232.641 316.499 235.641 315.899 234.941C315.599 234.541 316.299 233.341 318.099 231.941C319.999 230.641 323.099 229.341 326.699 229.341C330.299 229.341 333.399 230.741 335.099 232.041C336.899 233.441 337.499 234.741 337.199 235.041Z" fill="#263238"/>
<path d="M274.799 241.841C274.899 244.641 272.599 247.141 269.599 247.241C266.599 247.441 264.099 245.241 263.999 242.341C263.899 239.541 266.299 237.041 269.199 236.941C272.199 236.741 274.699 238.941 274.799 241.841Z" fill="#263238"/>
<path d="M279.999 236.041C279.399 236.741 275.299 233.641 269.499 233.641C263.699 233.641 259.399 236.541 258.799 235.841C258.499 235.541 259.099 234.241 260.999 232.941C262.799 231.541 265.999 230.241 269.599 230.341C273.199 230.341 276.199 231.641 277.999 233.041C279.799 234.441 280.399 235.741 279.999 236.041Z" fill="#263238"/>
<path d="M301.099 279.141C300.999 278.841 304.599 278.241 310.499 277.441C311.999 277.341 313.399 277.041 313.599 276.041C313.999 274.941 313.399 273.341 312.699 271.641C311.299 268.041 309.832 264.274 308.299 260.341C302.199 244.241 297.799 230.941 298.499 230.741C299.099 230.441 304.599 243.341 310.699 259.441C312.099 263.441 313.466 267.241 314.799 270.841C315.399 272.541 316.399 274.441 315.599 276.641C315.199 277.741 314.099 278.541 313.099 278.841C312.199 279.141 311.399 279.141 310.599 279.141C304.699 279.441 301.099 279.541 301.099 279.141Z" fill="#263238"/>
<path d="M283.899 283.141C284.899 283.141 284.899 289.441 290.299 293.941C295.699 298.441 302.399 297.741 302.399 298.541C302.499 298.941 300.899 299.841 298.099 299.841C295.299 299.941 291.199 299.041 287.899 296.341C284.699 293.541 283.199 289.941 282.999 287.341C282.799 284.641 283.499 283.141 283.899 283.141Z" fill="#263238"/>
<path d="M281.599 213.241C280.999 214.841 275.199 214.041 268.399 214.841C261.599 215.541 256.099 217.541 255.099 216.141C254.699 215.441 255.699 213.941 257.899 212.441C260.099 210.841 263.699 209.441 267.799 208.941C271.899 208.541 275.599 209.241 278.099 210.241C280.599 211.241 281.799 212.441 281.599 213.241Z" fill="#263238"/>
<path d="M335.099 218.241C334.099 219.541 330.099 218.141 325.199 218.041C320.399 217.841 316.399 218.941 315.399 217.541C314.999 216.941 315.699 215.541 317.399 214.341C319.199 213.041 322.099 212.041 325.399 212.141C328.799 212.241 331.599 213.441 333.299 214.841C334.999 216.241 335.499 217.541 335.099 218.241Z" fill="#263238"/>
<path d="M221.099 255.741C220.399 255.441 195.099 248.041 195.899 273.941C196.599 299.741 222.499 293.641 222.499 292.941C222.499 292.141 221.099 255.741 221.099 255.741Z" fill="#FFBE9D"/>
<path d="M216.599 283.341C216.399 283.241 216.099 283.641 215.399 284.041C214.599 284.441 213.399 284.641 211.999 284.241C209.199 283.241 206.799 279.041 206.499 274.341C206.399 272.041 206.799 269.741 207.599 267.841C208.299 265.941 209.499 264.641 210.899 264.341C212.299 263.941 213.299 264.741 213.599 265.441C213.999 266.141 213.799 266.741 213.899 266.741C213.999 266.841 214.499 266.341 214.299 265.241C214.099 264.741 213.799 264.141 213.199 263.641C212.499 263.141 211.599 262.941 210.699 263.041C208.699 263.241 206.899 265.141 206.099 267.241C205.099 269.241 204.599 271.841 204.699 274.441C205.099 279.641 207.899 284.441 211.599 285.441C213.499 285.841 214.999 285.241 215.699 284.641C216.499 283.941 216.599 283.341 216.599 283.341Z" fill="#EB996E"/>
<path d="M237.999 178.841L345.899 181.241C342.499 173.841 336.499 167.841 329.999 162.941C315.999 152.341 298.799 145.641 281.199 145.341C263.599 145.041 227.799 166.441 215.099 178.641C204.899 188.341 204.899 196.741 204.899 196.741C203.299 210.641 211.099 226.541 214.299 240.341C215.899 247.441 218.999 268.841 218.999 268.841C224.899 268.841 227.099 264.041 226.199 258.241L225.099 235.141C225.099 235.141 245.299 220.741 235.699 194.541C234.199 192.441 230.899 182.841 237.999 178.841Z" fill="#263238"/>
<path d="M260.699 260.64C260.299 260.74 259.999 260.54 259.899 260.14C259.799 259.74 260.099 259.34 260.399 259.34C260.799 259.24 261.099 259.54 261.199 259.84C261.199 260.24 260.999 260.64 260.699 260.64Z" fill="#EB996E"/>
<path d="M271.799 258.14C271.399 258.24 271.099 257.94 270.999 257.54C270.899 257.04 271.099 256.64 271.499 256.64C271.799 256.54 272.199 256.84 272.299 257.24C272.399 257.74 272.099 258.14 271.799 258.14Z" fill="#EB996E"/>
<path d="M279.299 258.04C278.899 258.04 278.599 257.64 278.499 257.04C278.399 256.44 278.699 255.94 278.999 255.94C279.399 255.94 279.699 256.34 279.799 256.94C279.799 257.44 279.599 257.94 279.299 258.04Z" fill="#EB996E"/>
<path d="M266.099 267.64C265.799 267.64 265.499 267.44 265.499 267.24C265.499 267.04 265.799 266.84 266.099 266.84C266.499 266.84 266.799 267.04 266.799 267.24C266.799 267.44 266.499 267.64 266.099 267.64Z" fill="#EB996E"/>
<path d="M276.3 265.34C276 265.34 275.7 265.04 275.6 264.64C275.6 264.24 275.8 263.94 276.2 263.84C276.5 263.84 276.9 264.14 276.9 264.54C276.9 264.94 276.7 265.34 276.3 265.34Z" fill="#EB996E"/>
<path d="M329.3 259.141C329 259.141 328.7 258.941 328.6 258.541C328.5 258.141 328.7 257.741 329.1 257.641C329.4 257.641 329.8 257.841 329.8 258.241C329.9 258.641 329.7 259.041 329.3 259.141Z" fill="#EB996E"/>
<path d="M336.899 258.441C336.599 258.441 336.199 258.141 336.199 257.641C336.199 257.241 336.399 256.841 336.799 256.841C337.099 256.741 337.399 257.141 337.499 257.541C337.499 258.041 337.299 258.441 336.899 258.441Z" fill="#EB996E"/>
<path d="M322.699 259.241C322.299 259.341 321.999 259.141 321.899 258.841C321.899 258.541 322.099 258.241 322.399 258.141C322.799 258.141 323.099 258.341 323.199 258.641C323.199 258.941 322.999 259.241 322.699 259.241Z" fill="#EB996E"/>
<path d="M328.3 266.84C327.9 267.04 327.5 266.84 327.4 266.44C327.2 266.04 327.3 265.64 327.7 265.54C328 265.34 328.4 265.54 328.5 265.94C328.7 266.34 328.6 266.74 328.3 266.84Z" fill="#EB996E"/>
<path d="M334.699 265.541C334.399 265.441 334.199 265.141 334.199 264.941C334.299 264.641 334.699 264.441 334.999 264.541C335.399 264.641 335.599 264.941 335.499 265.241C335.399 265.541 335.099 265.641 334.699 265.541Z" fill="#EB996E"/>
<path d="M214.399 180.041C211.599 170.641 214.299 160.141 220.399 152.341C226.499 144.641 236.399 140.041 246.199 140.441C251.299 140.641 256.3 142.041 261.3 141.541C270.6 140.541 277.799 133.041 286.499 129.341C299.899 123.741 317.099 128.841 325.199 141.041C328.499 145.941 330.699 151.941 335.699 155.041C339.999 157.741 345.499 157.541 350.399 158.941C360.299 161.941 366.999 172.441 366.499 182.741C365.999 193.041 358.8 202.441 349.3 206.541C339.8 210.541 328.499 209.441 319.499 204.441C311.399 199.841 304.1 192.141 294.8 192.441C285.1 192.741 276.699 201.741 267.199 199.941C262.299 198.941 258.5 195.141 254.8 191.541C251.2 188.041 246.999 184.441 241.999 184.141C236.899 183.841 234.299 190.841 236.099 195.541L214.399 180.041Z" fill="#263238"/>
<path d="M343.799 167.541C343.799 167.541 343.733 167.674 343.599 167.941C343.499 168.141 343.299 168.541 342.999 168.941C342.399 169.841 341.399 171.141 339.899 172.541C338.399 173.841 336.199 175.241 333.499 176.241C330.699 177.141 327.299 177.541 323.699 176.841C320.099 176.041 316.299 174.141 313.399 170.941C310.399 167.741 308.699 163.341 305.899 159.541C304.599 157.641 302.899 155.941 300.699 154.841C298.599 153.741 296.099 153.241 293.599 153.241C290.999 153.341 288.499 154.041 286.199 155.241C283.999 156.541 282.099 158.441 280.799 160.841C279.499 163.141 278.599 165.741 276.999 168.041C275.499 170.441 272.899 172.141 270.099 172.241C267.299 172.441 264.799 171.441 262.599 170.141C260.399 168.841 258.499 167.041 256.899 165.341C253.499 162.041 250.199 158.641 246.199 157.741C242.099 156.841 238.199 158.241 235.299 160.341C232.399 162.341 230.599 165.141 229.399 167.641C228.199 170.241 227.499 172.641 227.099 174.641C226.699 176.541 226.599 178.141 226.399 179.141C226.299 180.241 226.199 180.841 226.199 180.841C226.199 180.774 226.199 180.607 226.199 180.341C226.199 180.074 226.199 179.674 226.199 179.141C226.299 178.141 226.399 176.541 226.799 174.541C227.099 172.541 227.699 170.041 228.799 167.441C229.999 164.741 231.899 161.941 234.899 159.741C237.799 157.541 241.999 155.941 246.399 156.941C250.799 157.841 254.199 161.341 257.499 164.741C259.199 166.341 260.999 168.041 263.099 169.241C265.199 170.441 267.599 171.441 269.999 171.241C272.499 171.141 274.799 169.641 276.199 167.541C277.599 165.341 278.599 162.741 279.899 160.341C281.199 157.841 283.299 155.641 285.699 154.341C288.199 153.041 290.899 152.341 293.499 152.241C296.199 152.241 298.899 152.741 301.199 153.941C303.499 155.141 305.299 157.041 306.699 159.041C309.499 162.941 311.199 167.241 313.999 170.341C316.799 173.441 320.399 175.341 323.899 176.041C327.299 176.841 330.599 176.541 333.299 175.641C335.999 174.841 338.099 173.441 339.599 172.241C342.699 169.641 343.699 167.441 343.799 167.541Z" fill="#455A64"/>
<path d="M363.299 167.94C363.399 167.94 363.599 168.64 363.799 170.04C363.899 171.44 363.899 173.44 363.199 175.84C362.599 178.14 361.299 180.94 359.199 183.44C357.099 185.94 354.099 188.14 350.699 189.64C343.699 192.74 336.599 192.44 331.799 191.74C329.399 191.44 327.499 190.94 326.199 190.64C324.899 190.24 324.199 190.04 324.199 189.94C324.199 189.84 327.099 190.54 331.899 191.04C336.699 191.54 343.499 191.64 350.199 188.64C353.599 187.24 356.399 185.14 358.499 182.84C360.499 180.44 361.799 177.84 362.499 175.64C363.899 171.04 363.099 167.94 363.299 167.94Z" fill="#455A64"/>
<path d="M179.3 584.641C179.6 588.941 181.5 592.841 183.8 595.841C186.1 598.841 190.8 601.841 194.6 601.641C194.6 601.641 204.1 602.441 209.1 594.341C213.8 586.941 214.9 571.741 211.2 562.741C208.7 556.541 202.9 550.741 196.2 550.541C187.4 550.341 181.9 556.741 180 563.141" fill="#E0E0E0"/>
<path d="M180 563.141C180 563.141 180.2 561.441 181.7 558.841C182.4 557.541 183.4 555.941 185 554.541C186.5 553.041 188.6 551.641 191.2 550.841C192.5 550.441 193.9 550.241 195.4 550.141C196.9 550.141 198.4 550.241 200 550.741C203 551.741 205.9 553.841 208.1 556.641C210.4 559.341 212.1 562.841 212.9 566.641C213.8 570.441 214.1 574.441 213.8 578.541C213.4 584.741 212.2 591.041 208.7 595.741C207 598.041 204.6 599.741 202.1 600.741C199.6 601.741 197 602.141 194.6 602.041C192.6 602.141 190.8 601.441 189.2 600.741C187.7 599.941 186.3 598.941 185.2 597.841C182.9 595.741 181.7 593.241 180.8 591.341C179.9 589.241 179.6 587.541 179.4 586.441C179.333 585.841 179.3 585.407 179.3 585.141C179.233 584.807 179.233 584.641 179.3 584.641C179.4 584.641 179.4 587.141 181.2 591.141C182.2 593.041 183.5 595.341 185.7 597.341C186.8 598.341 188.1 599.241 189.6 600.041C191.1 600.741 192.8 601.241 194.6 601.141C199.2 601.341 204.6 599.641 207.9 595.141C211.2 590.741 212.4 584.541 212.8 578.441C213.2 570.541 211.9 562.541 207.4 557.241C205.2 554.641 202.6 552.541 199.7 551.641C198.3 551.141 196.8 550.941 195.4 550.941C194 550.941 192.7 551.241 191.4 551.541C188.9 552.241 186.9 553.541 185.4 554.941C183.8 556.341 182.8 557.741 182 559.041C180.5 561.541 180.2 563.241 180 563.141Z" fill="#263238"/>
<path d="M174.6 585.041C175 589.341 176.8 593.241 179.1 596.241C181.4 599.241 186.1 602.241 189.9 602.041C189.9 602.041 199.4 602.841 204.5 594.741C209.1 587.341 210.2 572.141 206.5 563.141C204 556.841 198.3 551.141 191.6 550.941C182.8 550.741 177.2 557.141 175.4 563.541" fill="#E0E0E0"/>
<path d="M175.4 563.541C175.4 563.541 175.6 561.841 177 559.241C177.7 557.941 178.7 556.341 180.3 554.941C181.8 553.441 183.9 552.041 186.5 551.241C187.8 550.841 189.2 550.641 190.7 550.541C192.2 550.541 193.8 550.641 195.3 551.141C198.4 552.141 201.2 554.241 203.5 557.041C205.7 559.741 207.4 563.241 208.3 567.041C209.1 570.841 209.4 574.841 209.1 578.941C208.7 585.141 207.5 591.341 204 596.141C202.3 598.441 199.9 600.141 197.4 601.141C194.9 602.141 192.3 602.541 189.9 602.441H190C187.9 602.541 186.1 601.841 184.6 601.041C183 600.341 181.6 599.341 180.5 598.241C178.2 596.141 177 593.641 176.1 591.641C175.2 589.641 174.9 587.941 174.7 586.841C174.633 586.241 174.6 585.807 174.6 585.541C174.6 585.207 174.6 585.041 174.6 585.041C174.7 585.041 174.7 587.541 176.5 591.441C177.5 593.441 178.8 595.741 181 597.741C182.1 598.741 183.4 599.641 184.9 600.441C186.4 601.141 188.1 601.641 189.9 601.541H190C194.5 601.741 199.9 600.041 203.3 595.541C206.5 591.041 207.7 584.941 208.1 578.841C208.5 570.941 207.2 562.941 202.7 557.641C200.6 554.941 197.9 552.941 195 552.041C193.6 551.541 192.1 551.341 190.7 551.341C189.3 551.341 188 551.641 186.7 551.941C184.2 552.641 182.2 553.941 180.7 555.341C179.2 556.741 178.1 558.141 177.3 559.441C175.8 561.941 175.5 563.641 175.4 563.541Z" fill="#263238"/>
<path d="M183.1 561.341C178.7 560.441 174.2 563.441 172.3 567.441C170.5 571.541 170.9 576.341 172.4 580.541C173.1 582.641 174.1 584.741 175.7 586.441C177.3 588.041 179.4 589.241 181.7 589.341C185 589.441 188 587.141 189.9 584.441C193 580.041 194.1 574.241 192.7 569.141C191.8 565.641 189.3 562.041 185.7 561.941" fill="#E0E0E0"/>
<path d="M185.699 561.941C185.699 561.941 186 561.941 186.5 561.941C187 562.041 187.799 562.241 188.699 562.741C190.399 563.641 192.399 566.041 193.199 569.541C194.099 573.041 194 577.541 192 581.841C191 583.941 189.6 586.041 187.5 587.741C185.5 589.341 182.6 590.341 179.8 589.541C177 588.741 174.899 586.741 173.599 584.541C172.299 582.241 171.499 579.941 171.099 577.641C170.099 573.041 170.899 568.441 173.099 565.541C175.199 562.541 178.1 561.341 180 561.041C181 560.941 181.8 561.041 182.3 561.041C182.833 561.174 183.099 561.274 183.099 561.341C183.099 561.441 181.999 561.141 180.099 561.441C178.299 561.841 175.599 563.141 173.699 565.941C171.699 568.741 171 573.041 172 577.441C172.5 579.641 173.3 581.941 174.5 583.941C175.7 586.041 177.699 587.841 180.099 588.541C182.499 589.241 185 588.341 186.9 586.941C188.8 585.441 190.199 583.441 191.099 581.441C193.099 577.341 193.2 573.041 192.5 569.741C191.8 566.441 190 564.041 188.4 563.041C186.8 562.041 185.699 562.141 185.699 561.941Z" fill="#263238"/>
<path d="M193.199 594.141C192.999 594.241 192.799 593.541 192.099 592.741C191.399 591.941 190.199 591.041 188.699 590.541C187.099 590.041 185.599 589.941 184.499 589.941C183.399 589.841 182.699 589.741 182.699 589.541C182.699 589.441 183.299 589.241 184.499 589.141C185.599 589.041 187.299 589.041 188.999 589.541C190.799 590.141 192.099 591.241 192.699 592.341C193.299 593.341 193.299 594.141 193.199 594.141Z" fill="#263238"/>
<path d="M194.7 558.541C194.8 558.641 194.4 559.241 193.5 560.041C192.6 560.741 191.1 561.541 189.3 561.841C187.5 562.141 185.8 561.941 184.7 561.641C183.6 561.241 183 560.841 183 560.641C183.1 560.441 185.8 561.441 189.1 560.841C192.4 560.241 194.5 558.341 194.7 558.541Z" fill="#263238"/>
<path d="M563.9 806.84C563.9 807.04 437.673 807.34 281.95 807.34C126.227 807.34 0 807.04 0 806.84C0 806.54 126.227 806.24 281.95 806.24C437.673 806.24 563.9 806.54 563.9 806.84Z" fill="#263238"/>
</svg>
