<svg width="437" height="413" viewBox="0 0 437 413" fill="none" xmlns="http://www.w3.org/2000/svg">
<mask id="mask0_958_8008" style="mask-type:luminance" maskUnits="userSpaceOnUse" x="253" y="1" width="74" height="357">
<path d="M326.512 357.574H253.332V1L326.512 30.7346V357.574Z" fill="white"/>
</mask>
<g mask="url(#mask0_958_8008)">
<path opacity="0.5" d="M326.512 293.538H253.332V1L326.512 30.7346V293.538Z" stroke="#999999" stroke-miterlimit="10"/>
</g>
<path d="M326.512 357.574H253.332V1L326.512 30.7346V357.574Z" stroke="#999999" stroke-width="0.75" stroke-linecap="round" stroke-linejoin="round"/>
<path d="M287.73 26.8706H276.697V37.903H287.73V26.8706Z" stroke="#999999" stroke-miterlimit="10"/>
<path d="M272.323 43.5112H261.291V54.5437H272.323V43.5112Z" stroke="#999999" stroke-miterlimit="10"/>
<path d="M287.73 60.1416H276.697V71.174H287.73V60.1416Z" stroke="#999999" stroke-miterlimit="10"/>
<path d="M303.136 60.1416H292.104V71.174H303.136V60.1416Z" stroke="#999999" stroke-miterlimit="10"/>
<path d="M272.323 93.4219H261.291V104.454H272.323V93.4219Z" stroke="#999999" stroke-miterlimit="10"/>
<path d="M303.136 93.4219H292.104V104.454H303.136V93.4219Z" stroke="#999999" stroke-miterlimit="10"/>
<path d="M287.73 110.053H276.697V121.085H287.73V110.053Z" stroke="#999999" stroke-miterlimit="10"/>
<path d="M272.323 126.693H261.291V137.725H272.323V126.693Z" stroke="#999999" stroke-miterlimit="10"/>
<path d="M303.136 126.693H292.104V137.725H303.136V126.693Z" stroke="#999999" stroke-miterlimit="10"/>
<path d="M318.543 126.693H307.511V137.725H318.543V126.693Z" stroke="#999999" stroke-miterlimit="10"/>
<path d="M287.73 143.323H276.697V154.356H287.73V143.323Z" stroke="#999999" stroke-miterlimit="10"/>
<path d="M272.323 159.963H261.291V170.996H272.323V159.963Z" stroke="#999999" stroke-miterlimit="10"/>
<path d="M318.543 159.963H307.511V170.996H318.543V159.963Z" stroke="#999999" stroke-miterlimit="10"/>
<path d="M303.215 176.787L292.184 176.629L292.026 187.66L303.057 187.818L303.215 176.787Z" stroke="#999999" stroke-miterlimit="10"/>
<path d="M287.73 192.839H276.697V203.872H287.73V192.839Z" stroke="#999999" stroke-miterlimit="10"/>
<path d="M303.136 209.479H292.104V220.512H303.136V209.479Z" stroke="#999999" stroke-miterlimit="10"/>
<path d="M318.543 209.479H307.511V220.512H318.543V209.479Z" stroke="#999999" stroke-miterlimit="10"/>
<path d="M287.73 226.12H276.697V237.152H287.73V226.12Z" stroke="#999999" stroke-miterlimit="10"/>
<path d="M272.323 242.75H261.291V253.782H272.323V242.75Z" stroke="#999999" stroke-miterlimit="10"/>
<path d="M303.225 259.565L292.194 259.407L292.036 270.438L303.067 270.596L303.225 259.565Z" stroke="#999999" stroke-miterlimit="10"/>
<path d="M318.627 177.007L307.596 176.849L307.438 187.88L318.469 188.038L318.627 177.007Z" stroke="#999999" stroke-miterlimit="10"/>
<mask id="mask1_958_8008" style="mask-type:luminance" maskUnits="userSpaceOnUse" x="342" y="40" width="80" height="318">
<path d="M415.301 54.1868V40.5625H387.744V54.1868H342.005V357.574H421.969V54.1868H415.301Z" fill="white"/>
</mask>
<g mask="url(#mask1_958_8008)">
<path opacity="0.3" d="M415.301 54.1868V40.5625H387.744V54.1868H342.005V357.574H421.969V54.1868H415.301Z" stroke="#999999" stroke-miterlimit="10"/>
</g>
<path d="M415.301 54.1868V40.5625H387.744V54.1868H342.005V357.574H421.969V54.1868H415.301Z" stroke="#999999" stroke-width="0.75" stroke-linecap="round" stroke-linejoin="round"/>
<path d="M396.146 71.4243H384.333V83.2372H396.146V71.4243Z" stroke="#999999" stroke-miterlimit="10"/>
<path d="M379.651 89.2305H367.838V101.043H379.651V89.2305Z" stroke="#999999" stroke-miterlimit="10"/>
<path d="M412.632 89.2305H400.819V101.043H412.632V89.2305Z" stroke="#999999" stroke-miterlimit="10"/>
<path d="M363.155 107.046H351.342V118.859H363.155V107.046Z" stroke="#999999" stroke-miterlimit="10"/>
<path d="M396.146 107.046H384.333V118.859H396.146V107.046Z" stroke="#999999" stroke-miterlimit="10"/>
<path d="M412.632 107.046H400.819V118.859H412.632V107.046Z" stroke="#999999" stroke-miterlimit="10"/>
<path d="M363.155 142.668H351.342V154.481H363.155V142.668Z" stroke="#999999" stroke-miterlimit="10"/>
<path d="M396.146 142.668H384.333V154.481H396.146V142.668Z" stroke="#999999" stroke-miterlimit="10"/>
<path d="M379.651 160.484H367.838V172.297H379.651V160.484Z" stroke="#999999" stroke-miterlimit="10"/>
<path d="M412.632 160.484H400.819V172.297H412.632V160.484Z" stroke="#999999" stroke-miterlimit="10"/>
<path d="M412.632 178.29H400.819V190.103H412.632V178.29Z" stroke="#999999" stroke-miterlimit="10"/>
<path d="M363.155 196.105H351.342V207.918H363.155V196.105Z" stroke="#999999" stroke-miterlimit="10"/>
<path d="M379.651 196.105H367.838V207.918H379.651V196.105Z" stroke="#999999" stroke-miterlimit="10"/>
<path d="M396.23 214.121L384.418 213.952L384.249 225.764L396.061 225.933L396.23 214.121Z" stroke="#999999" stroke-miterlimit="10"/>
<path d="M363.155 231.728H351.342V243.54H363.155V231.728Z" stroke="#999999" stroke-miterlimit="10"/>
<path d="M237.838 169.647C235.689 162.777 228.81 158.48 228.81 158.48C230.769 158.03 232.6 157.141 234.164 155.879C235.729 154.617 236.985 153.015 237.838 151.195C235.292 148.401 232.404 145.937 229.243 143.863C233.098 143.863 236.547 138.708 236.547 138.708C231.816 131 222.797 130.229 222.797 130.229C231.392 128.629 228.81 119.37 228.81 119.37C225.37 113.781 212.478 118.079 212.478 118.079C220.186 113.357 215.06 105.62 215.06 105.62C204.741 102.18 195.722 108.193 195.722 108.193C198.295 101.323 193.14 95.7343 193.14 95.7343C191.293 95.5824 189.435 95.8053 187.677 96.3895C185.78 93.4455 183.301 90.9206 180.392 88.9703C182.349 88.5215 184.178 87.6333 185.741 86.3729C187.303 85.1125 188.558 83.5131 189.411 81.6957C186.866 78.8967 183.979 76.4298 180.816 74.3536C184.67 74.3536 188.13 69.1987 188.13 69.1987C183.399 61.4904 174.37 60.7292 174.37 60.7292C182.965 59.1201 180.392 49.8606 180.392 49.8606C176.953 44.2721 164.012 48.5695 164.012 48.5695C171.721 43.8482 166.585 36.111 166.585 36.111C156.275 32.6712 147.247 38.6933 147.247 38.6933C149.829 31.8136 144.674 26.2252 144.674 26.2252C134.355 25.3676 127.485 36.5446 127.485 36.5446C122.157 25.5796 116.684 29.3085 116.684 29.3085C114.149 32.8045 112.965 37.0997 113.35 41.4008C107.877 36.9011 100.593 36.4193 100.593 36.4193C99.8621 40.1296 99.6031 43.9174 99.8219 47.6926C97.519 44.5804 91.3235 44.8888 91.3235 44.8888C88.8376 51.0554 91.5548 57.935 93.1928 61.1725C93.0386 61.4133 92.8845 61.6542 92.7399 61.8951C86.7275 57.9446 80.3971 62.6178 80.3971 62.6178C79.4336 65.094 80.8692 68.0713 82.9601 70.7307C80.2978 69.6915 77.5071 69.0174 74.6641 68.7265C73.7815 73.136 73.4577 77.639 73.7005 82.1293C70.9641 78.4389 63.6027 78.8051 63.6027 78.8051C61.483 84.0467 62.5428 89.7219 64.0267 93.9422C61.932 94.6769 59.9771 95.7618 58.2455 97.1507C55.4827 97.3811 52.8269 98.3239 50.5372 99.8872C50.4271 100.182 50.3401 100.485 50.2771 100.793C45.3053 93.2581 40.7285 96.3125 40.7285 96.3125C38.0892 99.9649 36.8544 104.446 37.2501 108.935C31.546 104.242 23.9438 103.732 23.9438 103.732C23.1842 107.601 22.9155 111.55 23.144 115.487C20.7352 112.249 14.2795 112.596 14.2795 112.596C10.8397 121.287 17.4303 131.443 17.4303 131.443C10.7434 125.238 2.97731 130.99 2.97731 130.99C0.443225 137.369 13.3835 146.859 13.3835 146.859C4.61532 143.314 0 151.08 0 151.08C3.52653 161.862 16.38 165.446 16.38 165.446C9.00902 167.556 5.38614 175.592 5.38614 175.592C11.071 184.765 27.9424 179.841 27.9424 179.841C27.9424 179.841 20.3691 184.1 20.1474 191.047C20.1474 191.047 29.3395 193.514 34.2728 189.486C34.2728 189.486 32.7023 196.867 36.5082 201.472C36.5082 201.472 43.4553 198.004 43.6865 194.188C43.6865 194.188 48.3886 202.927 53.5435 204.055C54.7112 203.291 55.6844 202.266 56.3853 201.059C57.0863 199.853 57.4956 198.5 57.5807 197.108C57.5807 197.108 68.1121 207.639 74.163 206.743C74.163 206.743 76.1865 199.796 74.6159 196.202C74.6159 196.202 82.459 197.551 86.7179 197.108C86.7179 197.108 87.6139 191.721 85.8218 188.359C85.8218 188.359 92.9904 191.721 98.1453 189.255C98.1453 189.255 97.7021 182.982 96.3532 180.294C99.1555 181.093 102.053 181.508 104.967 181.527C105.952 182.267 107.076 182.801 108.272 183.098C109.603 182.227 110.713 181.058 111.513 179.683C112.312 178.308 112.78 176.765 112.878 175.178C112.878 175.178 124.883 187.193 131.782 186.171C132.625 183.173 133.008 180.064 132.919 176.95C139.471 182.732 152.749 178.877 152.749 178.877C152.749 178.877 145.484 182.963 145.272 189.621C145.272 189.621 154.088 191.991 158.761 188.118C158.761 188.118 157.258 195.2 160.91 199.613C160.91 199.613 167.568 196.289 167.789 192.627C167.789 192.627 172.299 201.01 177.242 202.089C178.359 201.355 179.29 200.37 179.959 199.212C180.629 198.054 181.018 196.756 181.096 195.421C181.096 195.421 191.213 205.538 197.013 204.671C197.013 204.671 198.94 198.013 197.437 194.573C197.437 194.573 204.962 195.865 209 195.431C209 195.431 209.867 190.276 208.142 187.058C208.142 187.058 215.022 190.276 219.965 187.915C219.965 187.915 219.531 181.893 218.24 179.321C218.24 179.321 224.686 181.248 229.205 180.178C227.48 172.875 222.759 171.295 222.759 171.295C232.25 172.933 237.838 169.647 237.838 169.647Z" fill="#7E57C2"/>
<mask id="mask2_958_8008" style="mask-type:luminance" maskUnits="userSpaceOnUse" x="0" y="26" width="238" height="181">
<path d="M237.838 169.647C235.689 162.777 228.81 158.48 228.81 158.48C230.769 158.03 232.6 157.141 234.164 155.879C235.729 154.617 236.985 153.015 237.838 151.195C235.292 148.401 232.404 145.937 229.243 143.863C233.098 143.863 236.547 138.708 236.547 138.708C231.816 131 222.797 130.229 222.797 130.229C231.392 128.629 228.81 119.37 228.81 119.37C225.37 113.781 212.478 118.079 212.478 118.079C220.186 113.357 215.06 105.62 215.06 105.62C204.741 102.18 195.722 108.193 195.722 108.193C198.295 101.323 193.14 95.7343 193.14 95.7343C191.293 95.5824 189.435 95.8053 187.677 96.3895C185.78 93.4455 183.301 90.9206 180.392 88.9703C182.349 88.5215 184.178 87.6333 185.741 86.3729C187.303 85.1125 188.558 83.5131 189.411 81.6957C186.866 78.8967 183.979 76.4298 180.816 74.3536C184.67 74.3536 188.13 69.1987 188.13 69.1987C183.399 61.4904 174.37 60.7292 174.37 60.7292C182.965 59.1201 180.392 49.8606 180.392 49.8606C176.953 44.2721 164.012 48.5695 164.012 48.5695C171.721 43.8482 166.585 36.111 166.585 36.111C156.275 32.6712 147.247 38.6933 147.247 38.6933C149.829 31.8136 144.674 26.2252 144.674 26.2252C134.355 25.3676 127.485 36.5446 127.485 36.5446C122.157 25.5796 116.684 29.3085 116.684 29.3085C114.149 32.8045 112.965 37.0997 113.35 41.4008C107.877 36.9011 100.593 36.4193 100.593 36.4193C99.8621 40.1296 99.6031 43.9174 99.8219 47.6926C97.519 44.5804 91.3235 44.8888 91.3235 44.8888C88.8376 51.0554 91.5548 57.935 93.1928 61.1725C93.0386 61.4133 92.8845 61.6542 92.7399 61.8951C86.7275 57.9446 80.3971 62.6178 80.3971 62.6178C79.4336 65.094 80.8692 68.0713 82.9601 70.7307C80.2978 69.6915 77.5071 69.0174 74.6641 68.7265C73.7815 73.136 73.4577 77.639 73.7005 82.1293C70.9641 78.4389 63.6027 78.8051 63.6027 78.8051C61.483 84.0467 62.5428 89.7219 64.0267 93.9422C61.932 94.6769 59.9771 95.7618 58.2455 97.1507C55.4827 97.3811 52.8269 98.3239 50.5372 99.8872C50.4271 100.182 50.3401 100.485 50.2771 100.793C45.3053 93.2581 40.7285 96.3125 40.7285 96.3125C38.0892 99.9649 36.8544 104.446 37.2501 108.935C31.546 104.242 23.9438 103.732 23.9438 103.732C23.1842 107.601 22.9155 111.55 23.144 115.487C20.7352 112.249 14.2795 112.596 14.2795 112.596C10.8397 121.287 17.4303 131.443 17.4303 131.443C10.7434 125.238 2.97731 130.99 2.97731 130.99C0.443225 137.369 13.3835 146.859 13.3835 146.859C4.61532 143.314 0 151.08 0 151.08C3.52653 161.862 16.38 165.446 16.38 165.446C9.00902 167.556 5.38614 175.592 5.38614 175.592C11.071 184.765 27.9424 179.841 27.9424 179.841C27.9424 179.841 20.3691 184.1 20.1474 191.047C20.1474 191.047 29.3395 193.514 34.2728 189.486C34.2728 189.486 32.7023 196.867 36.5082 201.472C36.5082 201.472 43.4553 198.004 43.6865 194.188C43.6865 194.188 48.3886 202.927 53.5435 204.055C54.7112 203.291 55.6844 202.266 56.3853 201.059C57.0863 199.853 57.4956 198.5 57.5807 197.108C57.5807 197.108 68.1121 207.639 74.163 206.743C74.163 206.743 76.1865 199.796 74.6159 196.202C74.6159 196.202 82.459 197.551 86.7179 197.108C86.7179 197.108 87.6139 191.721 85.8218 188.359C85.8218 188.359 92.9904 191.721 98.1453 189.255C98.1453 189.255 97.7021 182.982 96.3532 180.294C99.1555 181.093 102.053 181.508 104.967 181.527C105.952 182.267 107.076 182.801 108.272 183.098C109.603 182.227 110.713 181.058 111.513 179.683C112.312 178.308 112.78 176.765 112.878 175.178C112.878 175.178 124.883 187.193 131.782 186.171C132.625 183.173 133.008 180.064 132.919 176.95C139.471 182.732 152.749 178.877 152.749 178.877C152.749 178.877 145.484 182.963 145.272 189.621C145.272 189.621 154.088 191.991 158.761 188.118C158.761 188.118 157.258 195.2 160.91 199.613C160.91 199.613 167.568 196.289 167.789 192.627C167.789 192.627 172.299 201.01 177.242 202.089C178.359 201.355 179.29 200.37 179.959 199.212C180.629 198.054 181.018 196.756 181.096 195.421C181.096 195.421 191.213 205.538 197.013 204.671C197.013 204.671 198.94 198.013 197.437 194.573C197.437 194.573 204.962 195.865 209 195.431C209 195.431 209.867 190.276 208.142 187.058C208.142 187.058 215.022 190.276 219.965 187.915C219.965 187.915 219.531 181.893 218.24 179.321C218.24 179.321 224.686 181.248 229.205 180.178C227.48 172.875 222.759 171.295 222.759 171.295C232.25 172.933 237.838 169.647 237.838 169.647Z" fill="white"/>
</mask>
<g mask="url(#mask2_958_8008)">
<path opacity="0.2" d="M237.838 169.647C235.689 162.777 228.81 158.48 228.81 158.48C230.769 158.03 232.6 157.141 234.164 155.879C235.729 154.617 236.985 153.015 237.838 151.195C235.292 148.401 232.404 145.937 229.243 143.863C233.098 143.863 236.547 138.708 236.547 138.708C231.816 131 222.797 130.229 222.797 130.229C231.392 128.629 228.81 119.37 228.81 119.37C225.37 113.781 212.478 118.079 212.478 118.079C220.186 113.357 215.06 105.62 215.06 105.62C204.741 102.18 195.722 108.193 195.722 108.193C198.295 101.323 193.14 95.7343 193.14 95.7343C191.293 95.5824 189.435 95.8053 187.677 96.3895C185.78 93.4455 183.301 90.9206 180.392 88.9703C182.349 88.5215 184.178 87.6333 185.741 86.3729C187.303 85.1125 188.558 83.5131 189.411 81.6957C186.866 78.8967 183.979 76.4298 180.816 74.3536C184.67 74.3536 188.13 69.1987 188.13 69.1987C183.399 61.4904 174.37 60.7292 174.37 60.7292C182.965 59.1201 180.392 49.8606 180.392 49.8606C176.953 44.2721 164.012 48.5695 164.012 48.5695C171.721 43.8482 166.585 36.111 166.585 36.111C156.275 32.6712 147.247 38.6933 147.247 38.6933C149.829 31.8136 144.674 26.2252 144.674 26.2252C134.355 25.3676 127.485 36.5446 127.485 36.5446C122.157 25.5796 116.684 29.3085 116.684 29.3085C114.149 32.8045 112.965 37.0997 113.35 41.4008C107.877 36.9011 100.593 36.4193 100.593 36.4193C99.8621 40.1296 99.6031 43.9174 99.8219 47.6926C97.519 44.5804 91.3235 44.8888 91.3235 44.8888C88.8376 51.0554 91.5548 57.935 93.1928 61.1725C93.0386 61.4133 92.8845 61.6542 92.7399 61.8951C86.7275 57.9446 80.3971 62.6178 80.3971 62.6178C79.4336 65.094 80.8692 68.0713 82.9601 70.7307C80.2978 69.6915 77.5071 69.0174 74.6641 68.7265C73.7815 73.136 73.4577 77.639 73.7005 82.1293C70.9641 78.4389 63.6027 78.8051 63.6027 78.8051C61.483 84.0467 62.5428 89.7219 64.0267 93.9422C61.932 94.6769 59.9771 95.7618 58.2455 97.1507C55.4827 97.3811 52.8269 98.3239 50.5372 99.8872C50.4271 100.182 50.3401 100.485 50.2771 100.793C45.3053 93.2581 40.7285 96.3125 40.7285 96.3125C38.0892 99.9649 36.8544 104.446 37.2501 108.935C31.546 104.242 23.9438 103.732 23.9438 103.732C23.1842 107.601 22.9155 111.55 23.144 115.487C20.7352 112.249 14.2795 112.596 14.2795 112.596C10.8397 121.287 17.4303 131.443 17.4303 131.443C10.7434 125.238 2.97731 130.99 2.97731 130.99C0.443225 137.369 13.3835 146.859 13.3835 146.859C4.61532 143.314 0 151.08 0 151.08C3.52653 161.862 16.38 165.446 16.38 165.446C9.00902 167.556 5.38614 175.592 5.38614 175.592C11.071 184.765 27.9424 179.841 27.9424 179.841C27.9424 179.841 20.3691 184.1 20.1474 191.047C20.1474 191.047 29.3395 193.514 34.2728 189.486C34.2728 189.486 32.7023 196.867 36.5082 201.472C36.5082 201.472 43.4553 198.004 43.6865 194.188C43.6865 194.188 48.3886 202.927 53.5435 204.055C54.7112 203.291 55.6844 202.266 56.3853 201.059C57.0863 199.853 57.4956 198.5 57.5807 197.108C57.5807 197.108 68.1121 207.639 74.163 206.743C74.163 206.743 76.1865 199.796 74.6159 196.202C74.6159 196.202 82.459 197.551 86.7179 197.108C86.7179 197.108 87.6139 191.721 85.8218 188.359C85.8218 188.359 92.9904 191.721 98.1453 189.255C98.1453 189.255 97.7021 182.982 96.3532 180.294C99.1555 181.093 102.053 181.508 104.967 181.527C105.952 182.267 107.076 182.801 108.272 183.098C109.603 182.227 110.713 181.058 111.513 179.683C112.312 178.308 112.78 176.765 112.878 175.178C112.878 175.178 124.883 187.193 131.782 186.171C132.625 183.173 133.008 180.064 132.919 176.95C139.471 182.732 152.749 178.877 152.749 178.877C152.749 178.877 145.484 182.963 145.272 189.621C145.272 189.621 154.088 191.991 158.761 188.118C158.761 188.118 157.258 195.2 160.91 199.613C160.91 199.613 167.568 196.289 167.789 192.627C167.789 192.627 172.299 201.01 177.242 202.089C178.359 201.355 179.29 200.37 179.959 199.212C180.629 198.054 181.018 196.756 181.096 195.421C181.096 195.421 191.213 205.538 197.013 204.671C197.013 204.671 198.94 198.013 197.437 194.573C197.437 194.573 204.962 195.865 209 195.431C209 195.431 209.867 190.276 208.142 187.058C208.142 187.058 215.022 190.276 219.965 187.915C219.965 187.915 219.531 181.893 218.24 179.321C218.24 179.321 224.686 181.248 229.205 180.178C227.48 172.875 222.759 171.295 222.759 171.295C232.25 172.933 237.838 169.647 237.838 169.647Z" fill="white"/>
<g opacity="0.2">
<path d="M179.901 62.2515H179.814L179.881 62.3575L179.901 62.2515Z" fill="black"/>
<path d="M119.594 28.7111C118.596 28.5688 117.579 28.762 116.703 29.2603C115.689 30.6535 114.887 32.1894 114.323 33.8178C115.849 31.8927 117.621 30.1758 119.594 28.7111Z" fill="black"/>
<path d="M237.838 169.647C235.689 162.777 228.81 158.48 228.81 158.48C229.08 158.412 229.32 158.325 229.571 158.248C227.772 157.567 226.029 156.746 224.358 155.791C224.358 155.791 229.07 159.52 228.029 168.5C222.479 167.874 215.956 163.047 215.956 163.047C216.371 166.496 214.395 173.501 214.395 173.501C207.824 174.156 201.349 167.72 201.349 167.72C201.975 172.075 198.892 177.567 198.892 177.567C194.074 176.392 186.087 171.853 186.087 171.853C186.385 176.363 181.471 183.127 181.471 183.127C174.544 181.701 167.221 166.13 167.221 166.13C166.583 167.611 165.608 168.922 164.373 169.959C163.139 170.997 161.679 171.731 160.11 172.104C154.945 168.866 153.259 157.516 153.259 157.516C151.525 161.572 142.612 162.623 142.612 162.623C140.271 156.129 144.867 148.709 144.867 148.709C137.929 151.166 128.911 144.855 128.911 144.855C129.951 142.396 131.719 140.314 133.979 138.891C127.851 138.968 118.1 129.256 118.1 129.256C118.015 130.648 117.606 132.001 116.905 133.208C116.204 134.414 115.231 135.439 114.063 136.203C110.825 135.499 107.761 131.79 105.931 129.13C104.553 129.691 103.132 130.135 101.681 130.46C100.8 131.237 99.8557 131.939 98.8583 132.561C100.271 134.535 101.518 136.624 102.587 138.804C98.733 143.005 90.8128 142.552 90.8128 142.552C93.7034 145.009 94.8885 150.338 94.8885 150.338C91.1018 152.332 83.3261 153.999 83.3261 153.999C86.1107 156.745 86.8238 163.943 86.8238 163.943C81.5436 167.026 67.8422 161.168 67.8422 161.168C68.2813 162.491 68.4054 163.899 68.2047 165.279C68.004 166.659 67.4839 167.973 66.6859 169.117C61.4829 169.984 53.9095 163.615 53.9095 163.615C55.1139 167.228 49.959 173.039 49.959 173.039C44.7078 170.148 43.4167 162.738 43.4167 162.738C40.343 168.317 30.8907 169.483 30.8907 169.483C28.5205 162.95 33.9644 156.186 33.9644 156.186C33.9644 156.186 20.1281 167.026 11.437 160.628C11.437 160.628 11.8225 151.822 17.8734 147.139C14.3782 147.398 10.8643 147.053 7.48656 146.117C5.97285 146.411 4.53391 147.007 3.25582 147.869C1.97772 148.732 0.886728 149.844 0.0480957 151.137C3.57462 161.919 16.4281 165.504 16.4281 165.504C9.05711 167.614 5.43424 175.65 5.43424 175.65C11.1191 184.823 27.9905 179.899 27.9905 179.899C27.9905 179.899 20.4172 184.158 20.1955 191.105C20.1955 191.105 29.3876 193.571 34.3209 189.544C34.3209 189.544 32.7504 196.924 36.5563 201.53C36.5563 201.53 43.5034 198.061 43.7346 194.246C43.7346 194.246 48.4367 202.985 53.5916 204.112C54.7593 203.349 55.7325 202.324 56.4334 201.117C57.1344 199.911 57.5437 198.558 57.6288 197.165C57.6288 197.165 68.1602 207.697 74.2111 206.801C74.2111 206.801 76.2345 199.854 74.664 196.26C74.664 196.26 82.5071 197.609 86.7659 197.165C86.7659 197.165 87.662 191.779 85.8699 188.416C85.8699 188.416 93.0385 191.779 98.1934 189.313C98.1934 189.313 97.7502 183.04 96.4013 180.352C99.2036 181.151 102.101 181.565 105.015 181.585C106 182.325 107.124 182.859 108.32 183.156C109.652 182.285 110.761 181.116 111.561 179.741C112.361 178.366 112.828 176.823 112.926 175.235C112.926 175.235 124.931 187.251 131.83 186.229C132.673 183.231 133.056 180.122 132.967 177.008C139.519 182.789 152.797 178.935 152.797 178.935C152.797 178.935 145.532 183.021 145.32 189.679C145.32 189.679 154.136 192.049 158.809 188.176C158.809 188.176 157.306 195.258 160.958 199.671C160.958 199.671 167.616 196.346 167.838 192.685C167.838 192.685 172.347 201.068 177.29 202.147C178.408 201.413 179.338 200.428 180.007 199.27C180.677 198.112 181.066 196.814 181.144 195.479C181.144 195.479 191.213 205.538 197.013 204.671C197.013 204.671 198.94 198.013 197.437 194.573C197.437 194.573 204.962 195.865 209 195.431C209 195.431 209.867 190.276 208.142 187.058C208.142 187.058 215.022 190.276 219.965 187.915C219.965 187.915 219.531 181.893 218.24 179.321C218.24 179.321 224.686 181.248 229.205 180.178C227.48 172.875 222.759 171.295 222.759 171.295C232.25 172.933 237.838 169.647 237.838 169.647Z" fill="black"/>
<path d="M2.68823 132.213C4.38007 131.325 6.26986 130.881 8.18036 130.922C8.18036 130.922 6.82178 130.575 4.91399 129.911C4.24091 130.224 3.59615 130.595 2.98693 131.019C2.83454 131.402 2.73409 131.804 2.68823 132.213Z" fill="black"/>
<path d="M141.774 135.731C139.67 135.557 137.58 135.236 135.521 134.767C135.352 135.987 135.117 137.196 134.817 138.39C136.975 137.128 139.325 136.23 141.774 135.731Z" fill="black"/>
</g>
</g>
<path d="M65.6357 149.5C65.9829 149.403 66.351 149.41 66.6938 149.522C67.0366 149.633 67.3389 149.843 67.5628 150.126L88.3365 176.931L86.4095 145.607C86.3835 145.259 86.4611 144.912 86.6326 144.608C86.8041 144.304 87.0618 144.059 87.373 143.901C87.6312 143.779 87.9154 143.721 88.2011 143.732C88.4868 143.744 88.7654 143.825 89.0129 143.968C89.2604 144.111 89.4694 144.312 89.6218 144.554C89.7742 144.796 89.8655 145.071 89.8878 145.356C90.4466 152.679 92.2195 173.684 94.7055 181.238C97.3648 189.428 111.211 211.474 111.211 211.474C111.211 211.474 123.554 196.057 124.479 189.756C125.972 179.446 116.279 153.036 112.704 143.786C112.569 143.433 112.523 143.052 112.573 142.678C112.622 142.303 112.764 141.947 112.986 141.641C113.209 141.336 113.504 141.091 113.845 140.928C114.186 140.766 114.562 140.692 114.94 140.712C115.368 140.736 115.781 140.881 116.13 141.13C116.48 141.379 116.752 141.722 116.915 142.119L131.985 178.733C131.985 178.733 139.25 168.732 140.261 163.885C141.321 158.74 138.334 145.212 137.12 139.922C136.969 139.326 137.051 138.694 137.35 138.157C137.649 137.619 138.143 137.217 138.729 137.031C139.051 136.928 139.391 136.894 139.727 136.931C140.063 136.967 140.388 137.074 140.68 137.244C140.973 137.413 141.226 137.643 141.425 137.916C141.623 138.19 141.762 138.503 141.832 138.833L146.592 161.534L176.606 147.014C176.913 146.859 177.259 146.797 177.601 146.835C177.942 146.872 178.266 147.008 178.533 147.226C178.762 147.406 178.944 147.639 179.063 147.906C179.181 148.173 179.232 148.465 179.211 148.756C179.19 149.047 179.098 149.329 178.943 149.576C178.787 149.823 178.574 150.029 178.321 150.174C171.981 153.816 154.232 164.222 148.914 169.82C138.72 180.467 125.856 208.227 122.706 222.622C115.489 255.565 126.675 357.516 126.675 357.516H93.819C93.819 357.516 105.854 252.655 100.284 218.257C98.8872 209.585 87.7584 185.622 87.7584 185.622L64.6336 152.236C64.4815 151.998 64.3864 151.729 64.3556 151.448C64.3249 151.168 64.3594 150.884 64.4564 150.619C64.5534 150.354 64.7103 150.116 64.9149 149.921C65.1194 149.727 65.3661 149.583 65.6357 149.5Z" fill="#999999"/>
<path d="M389.093 367.296C382.349 363.702 375.103 360.359 368.715 357.574H63.2752C63.2752 357.574 25.6974 377.404 43.253 377.404C60.8085 377.404 95.1102 373.347 87.3345 381.133C79.5588 388.918 114.15 385.815 140.165 385.815C166.18 385.815 139.731 399.44 159.436 399.44H298.377C312.994 399.44 285.851 378.521 302.539 378.521H356.227C386.174 378.492 407.458 377.018 389.093 367.296Z" fill="#7E57C2"/>
<path d="M126.377 405.992H82.6903C82.3185 405.997 81.953 405.895 81.6381 405.697C81.3231 405.499 81.0721 405.215 80.9152 404.878C80.7583 404.541 80.7024 404.165 80.7541 403.797C80.8057 403.429 80.9628 403.083 81.2065 402.802L87.1611 395.759C87.5436 395.306 88.0202 394.942 88.5577 394.693C89.0952 394.443 89.6806 394.314 90.2733 394.314H130.742C131.057 394.31 131.368 394.383 131.647 394.527C131.927 394.672 132.168 394.882 132.347 395.141C132.527 395.4 132.641 395.698 132.678 396.011C132.716 396.324 132.676 396.641 132.563 396.934L130.154 403.352C129.864 404.121 129.348 404.785 128.674 405.257C128 405.728 127.199 405.984 126.377 405.992Z" fill="#7E57C2"/>
<path d="M78.2871 397.464H57.2917C56.8742 397.476 56.4642 397.351 56.1235 397.11C55.7827 396.868 55.5297 396.523 55.4025 396.125C55.2754 395.727 55.2809 395.298 55.4183 394.904C55.5557 394.51 55.8175 394.17 56.1644 393.938L58.3708 392.377C59.0598 391.886 59.8854 391.623 60.7315 391.625H81.3125C81.709 391.619 82.0976 391.736 82.4254 391.958C82.7533 392.181 83.0044 392.5 83.1445 392.871C83.2847 393.242 83.307 393.647 83.2085 394.031C83.11 394.415 82.8954 394.759 82.594 395.017L80.9946 396.414C80.2526 397.086 79.2882 397.46 78.2871 397.464Z" fill="#7E57C2"/>
<path d="M156.824 412.929H134.461C134.151 412.931 133.845 412.859 133.569 412.718C133.293 412.577 133.055 412.372 132.876 412.119C132.696 411.867 132.58 411.575 132.537 411.268C132.494 410.961 132.526 410.648 132.63 410.356L133.594 407.659C133.866 406.852 134.384 406.152 135.076 405.656C135.767 405.16 136.597 404.893 137.448 404.893H159.301C159.579 404.89 159.855 404.948 160.109 405.061C160.363 405.175 160.589 405.343 160.773 405.553C160.956 405.762 161.091 406.009 161.17 406.276C161.248 406.543 161.268 406.824 161.228 407.1L160.919 409.403C160.783 410.388 160.292 411.29 159.538 411.94C158.784 412.589 157.819 412.941 156.824 412.929Z" fill="#7E57C2"/>
<path d="M347.729 410.954H387.34C388.113 410.964 388.869 410.721 389.492 410.261C390.115 409.802 390.57 409.151 390.789 408.409C391.007 407.666 390.976 406.873 390.702 406.149C390.427 405.426 389.923 404.812 389.267 404.402L384.738 401.569C382.324 400.07 379.534 399.285 376.693 399.305H338.546C337.888 399.305 337.242 399.489 336.683 399.835C336.123 400.182 335.67 400.678 335.376 401.267C335.082 401.856 334.958 402.515 335.017 403.171C335.077 403.827 335.318 404.453 335.714 404.98C337.116 406.839 338.932 408.346 341.017 409.383C343.102 410.42 345.4 410.957 347.729 410.954Z" fill="#7E57C2"/>
<path d="M344.212 395.19H367.057C367.275 395.209 367.493 395.153 367.675 395.032C367.857 394.91 367.993 394.73 368.059 394.522C368.125 394.313 368.118 394.088 368.039 393.884C367.961 393.68 367.815 393.509 367.626 393.398L363.772 390.691C362.55 389.823 361.089 389.355 359.59 389.351H337.487C337.28 389.337 337.074 389.389 336.9 389.501C336.726 389.612 336.592 389.777 336.518 389.97C336.445 390.164 336.436 390.376 336.492 390.575C336.548 390.774 336.667 390.95 336.831 391.076L339.423 393.369C340.742 394.543 342.446 395.191 344.212 395.19Z" fill="#7E57C2"/>
<path d="M313.475 397.378H333.786C334.121 397.377 334.448 397.28 334.729 397.099C335.01 396.917 335.233 396.659 335.371 396.354C335.509 396.049 335.557 395.711 335.508 395.38C335.46 395.049 335.317 394.739 335.097 394.487L332.775 391.866C332.07 391.075 331.207 390.442 330.24 390.009C329.274 389.575 328.226 389.351 327.167 389.352H307.588C307.285 389.351 306.987 389.43 306.723 389.579C306.46 389.729 306.24 389.945 306.085 390.206C305.931 390.466 305.847 390.763 305.842 391.066C305.836 391.369 305.91 391.668 306.056 391.934L306.904 393.485C307.548 394.665 308.499 395.649 309.655 396.334C310.811 397.019 312.131 397.379 313.475 397.378Z" fill="#7E57C2"/>
<path d="M433.705 357.574H8.479" stroke="#263238" stroke-linecap="round" stroke-linejoin="round"/>
<path d="M422.942 304.493C422.942 304.493 427.365 299.955 425.621 295.696C423.877 291.437 420.389 293.027 420.389 293.027C420.389 293.027 425.312 286.282 421.352 283.825C417.392 281.368 414.039 285.406 414.039 285.406C414.039 285.406 417.595 276.252 413.076 274.999C408.557 273.747 406.504 277.89 406.504 277.89C406.504 277.89 408.759 268.101 405.001 268.101C401.243 268.101 399.991 274.132 399.991 274.132C399.991 274.132 397.746 268.043 394.21 269.045C390.673 270.047 392.957 277.139 392.957 277.139C392.957 277.139 389.035 272.61 386.029 274.614C384.343 275.732 384.834 277.736 385.596 279.268C385.179 279.378 384.773 279.523 384.382 279.702C383.987 279.523 383.577 279.378 383.158 279.268C383.919 277.736 384.41 275.732 382.724 274.614C379.728 272.61 375.806 277.139 375.806 277.139C375.806 277.139 378.051 270.047 374.554 269.045C371.056 268.043 368.772 274.132 368.772 274.132C368.772 274.132 367.52 268.101 363.762 268.101C360.004 268.101 362.24 277.9 362.24 277.9C362.24 277.9 360.592 274.604 357.027 274.797C356.963 274.732 356.892 274.674 356.815 274.624C353.818 272.62 349.897 277.148 349.897 277.148C349.897 277.148 352.142 270.057 348.644 269.055C345.147 268.052 342.863 274.142 342.863 274.142C342.863 274.142 342.555 270.953 338.797 270.953C335.039 270.953 336.35 277.9 336.35 277.9C335.756 276.736 334.778 275.814 333.583 275.287C332.388 274.76 331.047 274.662 329.788 275.009C325.279 276.262 328.824 285.415 328.824 285.415C328.824 285.415 325.51 281.33 321.501 283.835C317.493 286.34 322.465 293.037 322.465 293.037C322.465 293.037 318.987 291.457 317.233 295.706C315.479 299.955 319.902 304.503 319.902 304.503C307.858 309.667 322.6 317.992 322.6 317.992H420.206C420.206 317.992 434.977 309.696 422.942 304.493Z" fill="#7E57C2" stroke="#263238" stroke-width="0.75" stroke-linecap="round" stroke-linejoin="round"/>
<path d="M292.172 317.954C292.172 317.954 277.43 309.658 289.474 304.464C289.474 304.464 285.051 299.926 286.805 295.667C288.558 291.409 292.037 292.998 292.037 292.998C292.037 292.998 287.113 286.254 291.073 283.797C295.033 281.34 298.396 285.377 298.396 285.377C298.396 285.377 294.831 276.223 299.36 274.971C300.619 274.624 301.959 274.722 303.155 275.248C304.35 275.775 305.327 276.698 305.921 277.861C305.921 277.861 303.667 268.072 307.424 268.072C311.182 268.072 312.435 274.103 312.435 274.103C312.435 274.103 314.689 268.014 318.216 269.016C321.742 270.018 319.469 277.11 319.469 277.11C319.469 277.11 323.39 272.581 326.396 274.585C329.403 276.589 325.433 281.33 325.433 281.33C325.433 281.33 329.913 277.274 332.418 280.02C334.924 282.766 329.441 287.342 329.441 287.342C329.441 287.342 333.922 285.974 335.174 289.269C336.427 292.565 332.139 294.945 332.139 294.945C332.139 294.945 334.856 294.723 336.234 298.481C337.612 302.239 331.59 302.961 331.59 302.961C331.59 302.961 335.849 302.345 336.359 305.601C336.87 308.858 331.84 310.168 331.84 310.168C331.84 310.168 334.866 309.706 335.367 312.414C335.868 315.121 329.942 317.925 329.942 317.925L292.172 317.954Z" fill="#7E57C2"/>
<mask id="mask3_958_8008" style="mask-type:luminance" maskUnits="userSpaceOnUse" x="284" y="268" width="53" height="50">
<path d="M292.172 317.954C292.172 317.954 277.43 309.658 289.474 304.464C289.474 304.464 285.051 299.926 286.805 295.667C288.558 291.409 292.037 292.998 292.037 292.998C292.037 292.998 287.113 286.254 291.073 283.797C295.033 281.34 298.396 285.377 298.396 285.377C298.396 285.377 294.831 276.223 299.36 274.971C300.619 274.624 301.959 274.722 303.155 275.248C304.35 275.775 305.327 276.698 305.921 277.861C305.921 277.861 303.667 268.072 307.424 268.072C311.182 268.072 312.435 274.103 312.435 274.103C312.435 274.103 314.689 268.014 318.216 269.016C321.742 270.018 319.469 277.11 319.469 277.11C319.469 277.11 323.39 272.581 326.396 274.585C329.403 276.589 325.433 281.33 325.433 281.33C325.433 281.33 329.913 277.274 332.418 280.02C334.924 282.766 329.441 287.342 329.441 287.342C329.441 287.342 333.922 285.974 335.174 289.269C336.427 292.565 332.139 294.945 332.139 294.945C332.139 294.945 334.856 294.723 336.234 298.481C337.612 302.239 331.59 302.961 331.59 302.961C331.59 302.961 335.849 302.345 336.359 305.601C336.87 308.858 331.84 310.168 331.84 310.168C331.84 310.168 334.866 309.706 335.367 312.414C335.868 315.121 329.942 317.925 329.942 317.925L292.172 317.954Z" fill="white"/>
</mask>
<g mask="url(#mask3_958_8008)">
<path opacity="0.4" d="M292.172 317.954C292.172 317.954 277.43 309.658 289.474 304.464C289.474 304.464 285.051 299.926 286.805 295.667C288.558 291.409 292.037 292.998 292.037 292.998C292.037 292.998 287.113 286.254 291.073 283.797C295.033 281.34 298.396 285.377 298.396 285.377C298.396 285.377 294.831 276.223 299.36 274.971C300.619 274.624 301.959 274.722 303.155 275.248C304.35 275.775 305.327 276.698 305.921 277.861C305.921 277.861 303.667 268.072 307.424 268.072C311.182 268.072 312.435 274.103 312.435 274.103C312.435 274.103 314.689 268.014 318.216 269.016C321.742 270.018 319.469 277.11 319.469 277.11C319.469 277.11 323.39 272.581 326.396 274.585C329.403 276.589 325.433 281.33 325.433 281.33C325.433 281.33 329.913 277.274 332.418 280.02C334.924 282.766 329.441 287.342 329.441 287.342C329.441 287.342 333.922 285.974 335.174 289.269C336.427 292.565 332.139 294.945 332.139 294.945C332.139 294.945 334.856 294.723 336.234 298.481C337.612 302.239 331.59 302.961 331.59 302.961C331.59 302.961 335.849 302.345 336.359 305.601C336.87 308.858 331.84 310.168 331.84 310.168C331.84 310.168 334.866 309.706 335.367 312.414C335.868 315.121 329.942 317.925 329.942 317.925L292.172 317.954Z" fill="white"/>
</g>
<path d="M292.172 317.954C292.172 317.954 277.43 309.658 289.474 304.464C289.474 304.464 285.051 299.926 286.805 295.667C288.558 291.409 292.037 292.998 292.037 292.998C292.037 292.998 287.113 286.254 291.073 283.797C295.033 281.34 298.396 285.377 298.396 285.377C298.396 285.377 294.831 276.223 299.36 274.971C300.619 274.624 301.959 274.722 303.155 275.248C304.35 275.775 305.327 276.698 305.921 277.861C305.921 277.861 303.667 268.072 307.424 268.072C311.182 268.072 312.435 274.103 312.435 274.103C312.435 274.103 314.689 268.014 318.216 269.016C321.742 270.018 319.469 277.11 319.469 277.11C319.469 277.11 323.39 272.581 326.396 274.585C329.403 276.589 325.433 281.33 325.433 281.33C325.433 281.33 329.913 277.274 332.418 280.02C334.924 282.766 329.441 287.342 329.441 287.342C329.441 287.342 333.922 285.974 335.174 289.269C336.427 292.565 332.139 294.945 332.139 294.945C332.139 294.945 334.856 294.723 336.234 298.481C337.612 302.239 331.59 302.961 331.59 302.961C331.59 302.961 335.849 302.345 336.359 305.601C336.87 308.858 331.84 310.168 331.84 310.168C331.84 310.168 334.866 309.706 335.367 312.414C335.868 315.121 329.942 317.925 329.942 317.925L292.172 317.954Z" stroke="#263238" stroke-width="0.75" stroke-linecap="round" stroke-linejoin="round"/>
<path d="M391.656 317.954C391.656 317.954 406.976 309.658 395.289 304.464C395.289 304.464 400.029 299.926 398.574 295.667C397.12 291.409 393.535 292.998 393.535 292.998C393.535 292.998 398.931 286.254 395.096 283.797C391.261 281.34 387.667 285.377 387.667 285.377C387.667 285.377 391.868 276.223 387.446 274.971C383.023 273.718 380.701 277.861 380.701 277.861C380.701 277.861 383.64 268.072 379.882 268.072C376.124 268.072 374.457 274.103 374.457 274.103C374.457 274.103 372.627 268.014 369.052 269.016C365.477 270.018 367.231 277.11 367.231 277.11C367.231 277.11 363.627 272.581 360.486 274.585C357.345 276.589 360.929 281.33 360.929 281.33C360.929 281.33 356.728 277.274 354.04 280.02C351.352 282.766 356.497 287.342 356.497 287.342C356.497 287.342 352.113 285.974 350.639 289.269C349.165 292.565 353.269 294.945 353.269 294.945C353.269 294.945 350.571 294.723 348.924 298.481C347.276 302.239 353.269 302.961 353.269 302.961C353.269 302.961 349.039 302.345 348.307 305.601C347.575 308.858 352.508 310.168 352.508 310.168C352.508 310.168 349.511 309.706 348.827 312.414C348.143 315.121 353.867 317.925 353.867 317.925L391.656 317.954Z" fill="#7E57C2"/>
<mask id="mask4_958_8008" style="mask-type:luminance" maskUnits="userSpaceOnUse" x="348" y="268" width="52" height="50">
<path d="M391.656 317.954C391.656 317.954 406.976 309.658 395.289 304.464C395.289 304.464 400.029 299.926 398.574 295.667C397.12 291.409 393.535 292.998 393.535 292.998C393.535 292.998 398.931 286.254 395.096 283.797C391.261 281.34 387.667 285.377 387.667 285.377C387.667 285.377 391.868 276.223 387.446 274.971C383.023 273.718 380.701 277.861 380.701 277.861C380.701 277.861 383.64 268.072 379.882 268.072C376.124 268.072 374.457 274.103 374.457 274.103C374.457 274.103 372.627 268.014 369.052 269.016C365.477 270.018 367.231 277.11 367.231 277.11C367.231 277.11 363.627 272.581 360.486 274.585C357.345 276.589 360.929 281.33 360.929 281.33C360.929 281.33 356.728 277.274 354.04 280.02C351.352 282.766 356.497 287.342 356.497 287.342C356.497 287.342 352.113 285.974 350.639 289.269C349.165 292.565 353.269 294.945 353.269 294.945C353.269 294.945 350.571 294.723 348.924 298.481C347.276 302.239 353.269 302.961 353.269 302.961C353.269 302.961 349.039 302.345 348.307 305.601C347.575 308.858 352.508 310.168 352.508 310.168C352.508 310.168 349.511 309.706 348.827 312.414C348.143 315.121 353.867 317.925 353.867 317.925L391.656 317.954Z" fill="white"/>
</mask>
<g mask="url(#mask4_958_8008)">
<path opacity="0.4" d="M391.656 317.954C391.656 317.954 406.976 309.658 395.289 304.464C395.289 304.464 400.029 299.926 398.574 295.667C397.12 291.409 393.535 292.998 393.535 292.998C393.535 292.998 398.931 286.254 395.096 283.797C391.261 281.34 387.667 285.377 387.667 285.377C387.667 285.377 391.868 276.223 387.446 274.971C383.023 273.718 380.701 277.861 380.701 277.861C380.701 277.861 383.64 268.072 379.882 268.072C376.124 268.072 374.457 274.103 374.457 274.103C374.457 274.103 372.627 268.014 369.052 269.016C365.477 270.018 367.231 277.11 367.231 277.11C367.231 277.11 363.627 272.581 360.486 274.585C357.345 276.589 360.929 281.33 360.929 281.33C360.929 281.33 356.728 277.274 354.04 280.02C351.352 282.766 356.497 287.342 356.497 287.342C356.497 287.342 352.113 285.974 350.639 289.269C349.165 292.565 353.269 294.945 353.269 294.945C353.269 294.945 350.571 294.723 348.924 298.481C347.276 302.239 353.269 302.961 353.269 302.961C353.269 302.961 349.039 302.345 348.307 305.601C347.575 308.858 352.508 310.168 352.508 310.168C352.508 310.168 349.511 309.706 348.827 312.414C348.143 315.121 353.867 317.925 353.867 317.925L391.656 317.954Z" fill="white"/>
</g>
<path d="M391.656 317.954C391.656 317.954 406.976 309.658 395.289 304.464C395.289 304.464 400.029 299.926 398.574 295.667C397.12 291.409 393.535 292.998 393.535 292.998C393.535 292.998 398.931 286.254 395.096 283.797C391.261 281.34 387.667 285.377 387.667 285.377C387.667 285.377 391.868 276.223 387.446 274.971C383.023 273.718 380.701 277.861 380.701 277.861C380.701 277.861 383.64 268.072 379.882 268.072C376.124 268.072 374.457 274.103 374.457 274.103C374.457 274.103 372.627 268.014 369.052 269.016C365.477 270.018 367.231 277.11 367.231 277.11C367.231 277.11 363.627 272.581 360.486 274.585C357.345 276.589 360.929 281.33 360.929 281.33C360.929 281.33 356.728 277.274 354.04 280.02C351.352 282.766 356.497 287.342 356.497 287.342C356.497 287.342 352.113 285.974 350.639 289.269C349.165 292.565 353.269 294.945 353.269 294.945C353.269 294.945 350.571 294.723 348.924 298.481C347.276 302.239 353.269 302.961 353.269 302.961C353.269 302.961 349.039 302.345 348.307 305.601C347.575 308.858 352.508 310.168 352.508 310.168C352.508 310.168 349.511 309.706 348.827 312.414C348.143 315.121 353.867 317.925 353.867 317.925L391.656 317.954Z" stroke="#263238" stroke-width="0.75" stroke-linecap="round" stroke-linejoin="round"/>
<path d="M282.267 319.226H430.313V355.136C430.313 355.78 430.057 356.398 429.602 356.853C429.147 357.309 428.529 357.564 427.885 357.564H284.656C284.012 357.564 283.395 357.309 282.939 356.853C282.484 356.398 282.228 355.78 282.228 355.136V319.226H282.267Z" fill="#999999" stroke="#263238" stroke-width="0.75" stroke-linecap="round" stroke-linejoin="round"/>
<path d="M432.481 315.314H280.06C279.044 315.314 278.22 316.138 278.22 317.154V321.298C278.22 322.314 279.044 323.138 280.06 323.138H432.481C433.498 323.138 434.322 322.314 434.322 321.298V317.154C434.322 316.138 433.498 315.314 432.481 315.314Z" fill="#757575" stroke="#263238" stroke-width="0.75" stroke-linecap="round" stroke-linejoin="round"/>
<path d="M167.78 223.374C167.703 223.238 167.6 223.119 167.477 223.023C167.354 222.928 167.213 222.857 167.063 222.816C166.912 222.775 166.755 222.764 166.6 222.783C166.446 222.803 166.297 222.853 166.161 222.93C163.941 224.181 162.004 225.878 160.471 227.915C158.939 229.951 157.845 232.283 157.258 234.762L148.586 272.504C148.259 273.87 147.489 275.089 146.396 275.971C145.303 276.853 143.949 277.348 142.545 277.379H105.738C104.509 277.353 103.314 277.787 102.389 278.596C101.463 279.406 100.874 280.532 100.737 281.754C100.694 282.392 100.78 283.031 100.99 283.635C101.199 284.239 101.529 284.795 101.957 285.268C102.386 285.742 102.906 286.125 103.486 286.394C104.066 286.662 104.695 286.811 105.333 286.832C106.192 286.85 107.031 286.573 107.71 286.047C108.388 285.521 108.866 284.777 109.062 283.941C109.231 283.188 109.158 282.401 108.853 281.692C108.549 280.982 108.028 280.387 107.366 279.991C107.338 279.971 107.317 279.943 107.305 279.911C107.293 279.878 107.292 279.843 107.302 279.81C107.312 279.777 107.331 279.748 107.358 279.726C107.386 279.705 107.419 279.693 107.453 279.692H140.213C147.719 279.692 154.281 285.348 154.782 292.835C154.911 294.762 154.643 296.696 153.995 298.515C153.347 300.335 152.332 302.003 151.013 303.414C149.694 304.826 148.1 305.952 146.328 306.723C144.557 307.493 142.646 307.892 140.714 307.895H105.488C105.19 307.921 104.914 308.058 104.713 308.278C104.512 308.499 104.4 308.786 104.4 309.084C104.4 309.383 104.512 309.67 104.713 309.891C104.914 310.111 105.19 310.248 105.488 310.274H115.046C113.138 311.858 111.885 314.093 111.529 316.547L101.894 383.638C101.846 383.943 101.921 384.254 102.101 384.505C102.281 384.755 102.553 384.925 102.857 384.977C103.163 385.02 103.473 384.944 103.724 384.764C103.975 384.585 104.147 384.316 104.206 384.014L110.353 340.934H150.918L157.075 384.014C157.114 384.295 157.254 384.554 157.468 384.741C157.682 384.929 157.956 385.033 158.241 385.035H158.414C158.719 384.983 158.99 384.813 159.171 384.563C159.351 384.312 159.425 384.001 159.378 383.696L149.8 316.605C149.589 315.188 149.078 313.832 148.302 312.628C147.527 311.423 146.503 310.398 145.301 309.619C148.57 308.636 151.453 306.66 153.55 303.965C155.646 301.27 156.853 297.99 157.002 294.579C157.151 291.168 156.236 287.795 154.383 284.927C152.53 282.06 149.83 279.84 146.659 278.574C147.684 277.98 148.576 277.181 149.281 276.228C149.985 275.275 150.486 274.188 150.754 273.034L159.426 235.292C159.939 233.134 160.893 231.104 162.227 229.331C163.562 227.559 165.249 226.082 167.183 224.992C167.33 224.928 167.464 224.834 167.574 224.717C167.685 224.6 167.771 224.462 167.827 224.31C167.882 224.159 167.907 223.998 167.899 223.837C167.891 223.676 167.85 223.518 167.78 223.374ZM106.779 283.199C106.776 283.545 106.637 283.876 106.392 284.12C106.146 284.363 105.814 284.5 105.468 284.5C104.95 284.499 104.447 284.328 104.035 284.014C103.623 283.7 103.326 283.259 103.188 282.76C103.05 282.26 103.08 281.729 103.272 281.249C103.465 280.768 103.81 280.363 104.254 280.097C104.36 280.029 104.437 280.097 104.399 280.212C104.321 280.364 104.282 280.533 104.283 280.704C104.283 281.018 104.408 281.319 104.63 281.542C104.853 281.764 105.154 281.889 105.468 281.889C105.816 281.889 106.149 282.027 106.395 282.273C106.641 282.518 106.779 282.852 106.779 283.199ZM147.575 316.923L150.668 338.602H110.758L113.851 316.961C114.115 315.128 115.031 313.45 116.43 312.236C117.83 311.023 119.62 310.353 121.473 310.352H139.953C141.803 310.353 143.591 311.019 144.99 312.229C146.389 313.439 147.306 315.112 147.575 316.942V316.923Z" fill="#999999" stroke="#263238" stroke-linecap="round" stroke-linejoin="round"/>
<path d="M154.974 218.816L135.164 304.214H90.4468L87.2864 314.321H360.236L381.626 218.816H154.974Z" fill="#7E57C2"/>
<mask id="mask5_958_8008" style="mask-type:luminance" maskUnits="userSpaceOnUse" x="87" y="218" width="295" height="97">
<path d="M154.974 218.816L135.164 304.214H90.4468L87.2864 314.321H360.236L381.626 218.816H154.974Z" fill="white"/>
</mask>
<g mask="url(#mask5_958_8008)">
<path opacity="0.2" d="M154.974 218.816L135.164 304.214H90.4468L87.2864 314.321H360.236L381.626 218.816H154.974Z" fill="black"/>
</g>
<path d="M154.974 218.816L135.164 304.214H90.4468L87.2864 314.321H360.236L381.626 218.816H154.974Z" stroke="#263238" stroke-linecap="round" stroke-linejoin="round"/>
<path d="M360.236 314.321L362.5 304.214H135.164H90.4468L87.2864 314.321H360.236Z" fill="#7E57C2"/>
<mask id="mask6_958_8008" style="mask-type:luminance" maskUnits="userSpaceOnUse" x="87" y="304" width="276" height="11">
<path d="M360.236 314.321L362.5 304.214H135.164H90.4468L87.2864 314.321H360.236Z" fill="white"/>
</mask>
<g mask="url(#mask6_958_8008)">
<path opacity="0.3" d="M360.236 314.321L362.5 304.214H135.164H90.4468L87.2864 314.321H360.236Z" fill="black"/>
</g>
<path d="M360.236 314.321L362.5 304.214H135.164H90.4468L87.2864 314.321H360.236Z" stroke="#263238" stroke-linecap="round" stroke-linejoin="round"/>
<path d="M371.519 218.816L351.708 304.214H306.991L303.831 314.321H360.236L381.626 218.816H371.519Z" fill="#7E57C2" stroke="#263238" stroke-linecap="round" stroke-linejoin="round"/>
<path d="M382.734 223.374C382.657 223.238 382.554 223.119 382.431 223.023C382.308 222.928 382.167 222.857 382.017 222.816C381.866 222.775 381.709 222.764 381.555 222.783C381.4 222.803 381.251 222.853 381.115 222.93C378.897 224.182 376.961 225.879 375.43 227.916C373.9 229.952 372.807 232.283 372.222 234.762L363.55 272.504C363.223 273.87 362.453 275.089 361.36 275.971C360.267 276.853 358.913 277.348 357.509 277.379H320.702C319.473 277.353 318.278 277.787 317.353 278.596C316.427 279.406 315.838 280.532 315.701 281.754C315.658 282.392 315.744 283.031 315.954 283.635C316.163 284.239 316.492 284.795 316.921 285.268C317.35 285.742 317.87 286.125 318.45 286.394C319.03 286.662 319.658 286.811 320.297 286.832C321.156 286.85 321.995 286.573 322.674 286.047C323.352 285.521 323.83 284.777 324.026 283.941C324.193 283.188 324.119 282.401 323.815 281.693C323.511 280.984 322.991 280.388 322.33 279.991C322.302 279.971 322.28 279.943 322.269 279.911C322.257 279.878 322.256 279.843 322.266 279.81C322.275 279.777 322.295 279.748 322.322 279.726C322.349 279.705 322.383 279.693 322.417 279.692H355.177C362.673 279.692 369.245 285.348 369.746 292.835C369.875 294.762 369.607 296.696 368.959 298.515C368.311 300.335 367.296 302.003 365.977 303.414C364.658 304.826 363.064 305.952 361.292 306.723C359.521 307.493 357.61 307.892 355.678 307.895H320.451C320.286 307.88 320.12 307.899 319.962 307.952C319.805 308.005 319.661 308.091 319.538 308.203C319.416 308.315 319.318 308.451 319.251 308.603C319.184 308.754 319.149 308.919 319.149 309.084C319.149 309.25 319.184 309.415 319.251 309.566C319.318 309.718 319.416 309.854 319.538 309.966C319.661 310.078 319.805 310.164 319.962 310.217C320.12 310.27 320.286 310.289 320.451 310.274H330.01C328.102 311.86 326.847 314.093 326.483 316.547L316.896 383.638C316.874 383.792 316.882 383.949 316.921 384.1C316.96 384.252 317.028 384.394 317.121 384.518C317.215 384.643 317.332 384.748 317.466 384.828C317.6 384.907 317.749 384.96 317.903 384.982C318.057 385.004 318.214 384.996 318.366 384.957C318.517 384.918 318.659 384.85 318.783 384.757C318.908 384.663 319.013 384.546 319.093 384.412C319.173 384.278 319.225 384.129 319.247 383.975L325.404 340.895H365.969L372.116 383.975C372.157 384.258 372.299 384.516 372.514 384.703C372.73 384.891 373.006 384.995 373.292 384.996H373.465C373.769 384.944 374.041 384.775 374.221 384.524C374.401 384.274 374.476 383.962 374.428 383.657L364.841 316.566C364.634 315.149 364.126 313.793 363.352 312.588C362.577 311.383 361.554 310.358 360.351 309.581C363.621 308.597 366.504 306.621 368.6 303.926C370.697 301.232 371.903 297.952 372.052 294.541C372.202 291.13 371.286 287.757 369.433 284.889C367.58 282.021 364.881 279.801 361.71 278.536C362.732 277.938 363.622 277.138 364.326 276.186C365.03 275.234 365.533 274.148 365.805 272.995L374.477 235.254C374.988 233.094 375.941 231.064 377.276 229.291C378.611 227.518 380.299 226.042 382.233 224.954C382.507 224.808 382.712 224.561 382.806 224.266C382.9 223.97 382.874 223.65 382.734 223.374ZM321.771 283.199C321.769 283.545 321.63 283.876 321.384 284.12C321.139 284.363 320.807 284.5 320.461 284.5C319.943 284.499 319.44 284.328 319.028 284.014C318.616 283.7 318.318 283.259 318.181 282.76C318.043 282.26 318.073 281.729 318.265 281.249C318.458 280.768 318.803 280.363 319.247 280.097C319.343 280.029 319.43 280.097 319.382 280.212C319.3 280.393 319.264 280.591 319.278 280.789C319.293 280.987 319.356 281.178 319.464 281.345C319.571 281.512 319.719 281.649 319.893 281.744C320.067 281.839 320.263 281.889 320.461 281.889C320.633 281.889 320.804 281.923 320.963 281.989C321.122 282.054 321.266 282.151 321.388 282.273C321.509 282.394 321.606 282.539 321.672 282.698C321.738 282.857 321.771 283.027 321.771 283.199ZM362.567 316.923L365.651 338.564H325.741L328.834 316.923C329.098 315.089 330.014 313.412 331.413 312.198C332.813 310.984 334.603 310.315 336.456 310.313H354.917C356.772 310.316 358.565 310.987 359.965 312.205C361.365 313.423 362.279 315.105 362.538 316.942L362.567 316.923Z" fill="#999999" stroke="#263238" stroke-linecap="round" stroke-linejoin="round"/>
<path d="M356.343 234.762H362.5" stroke="#263238" stroke-width="0.75" stroke-linecap="round" stroke-linejoin="round"/>
<path d="M241.336 234.762H350.851" stroke="#263238" stroke-width="0.75" stroke-linecap="round" stroke-linejoin="round"/>
<path d="M172.039 234.762H234.456" stroke="#263238" stroke-width="0.75" stroke-linecap="round" stroke-linejoin="round"/>
<path d="M157.258 234.762H166.99" stroke="#263238" stroke-width="0.75" stroke-linecap="round" stroke-linejoin="round"/>
<path d="M328.911 289.51H349.29" stroke="#263238" stroke-width="0.75" stroke-linecap="round" stroke-linejoin="round"/>
<path d="M213.124 289.51H314.025" stroke="#263238" stroke-width="0.75" stroke-linecap="round" stroke-linejoin="round"/>
<path d="M150.966 289.51H208.248" stroke="#263238" stroke-width="0.75" stroke-linecap="round" stroke-linejoin="round"/>
<path d="M144.048 289.51H147.488" stroke="#263238" stroke-width="0.75" stroke-linecap="round" stroke-linejoin="round"/>
<path d="M353.992 251.383H358.694" stroke="#263238" stroke-width="0.75" stroke-linecap="round" stroke-linejoin="round"/>
<path d="M196.937 251.383H349.29" stroke="#263238" stroke-width="0.75" stroke-linecap="round" stroke-linejoin="round"/>
<path d="M162.124 251.383H191.184" stroke="#263238" stroke-width="0.75" stroke-linecap="round" stroke-linejoin="round"/>
<path d="M153.452 251.383H157.258" stroke="#263238" stroke-width="0.75" stroke-linecap="round" stroke-linejoin="round"/>
<path d="M176.654 270.442H353.992" stroke="#263238" stroke-width="0.75" stroke-linecap="round" stroke-linejoin="round"/>
<path d="M148.75 270.442H172.029" stroke="#263238" stroke-width="0.75" stroke-linecap="round" stroke-linejoin="round"/>
<path d="M167.385 304.214H151.496L149.299 264.854H169.581L167.385 304.214Z" fill="white" stroke="#263238" stroke-linecap="round" stroke-linejoin="round"/>
<path d="M171.595 264.853H147.285L148.374 260.835H170.497L171.595 264.853Z" fill="white" stroke="#263238" stroke-linecap="round" stroke-linejoin="round"/>
<path d="M168.204 289.539L169.061 274.18H149.82L150.677 289.539H168.204Z" fill="#7E57C2"/>
<mask id="mask7_958_8008" style="mask-type:luminance" maskUnits="userSpaceOnUse" x="149" y="274" width="21" height="16">
<path d="M168.204 289.539L169.061 274.18H149.82L150.677 289.539H168.204Z" fill="white"/>
</mask>
<g mask="url(#mask7_958_8008)">
<path d="M168.926 276.541C167.541 276.497 166.193 276.997 165.171 277.933C164.149 278.87 163.534 280.169 163.457 281.553C163.381 282.937 163.848 284.297 164.76 285.34C165.673 286.384 166.957 287.03 168.339 287.14L168.926 276.541Z" fill="white"/>
</g>
<path d="M168.204 289.539L169.061 274.18H149.82L150.677 289.539H168.204Z" stroke="#263238" stroke-width="0.75" stroke-linecap="round" stroke-linejoin="round"/>
<path d="M294.156 153.604C294.156 153.604 298.483 171.054 302.587 178.039L282.883 190.218L279.78 189.987C279.78 189.987 279.038 182.076 276.716 178.945C274.394 175.813 287.363 160.965 287.363 160.965L291.478 154.982L294.156 153.604Z" fill="white"/>
<mask id="mask8_958_8008" style="mask-type:luminance" maskUnits="userSpaceOnUse" x="276" y="153" width="27" height="38">
<path d="M294.156 153.604C294.156 153.604 298.483 171.054 302.587 178.039L282.883 190.218L279.78 189.987C279.78 189.987 279.038 182.076 276.716 178.945C274.394 175.813 287.363 160.965 287.363 160.965L291.478 154.982L294.156 153.604Z" fill="white"/>
</mask>
<g mask="url(#mask8_958_8008)">
<path d="M261.357 164.521C262.456 165.899 264.364 167.816 264.364 167.816C264.364 167.816 266.512 174.927 270.684 179.783C270.684 179.783 272.236 185.747 276.466 184.283C280.696 182.818 291.526 170.793 291.497 168.327C291.487 166.886 291.335 165.45 291.044 164.039L261.357 164.521Z" fill="#263238" stroke="#263238" stroke-linecap="round" stroke-linejoin="round"/>
</g>
<path d="M294.156 153.604C294.156 153.604 298.483 171.054 302.587 178.039L282.883 190.218L279.78 189.987C279.78 189.987 279.038 182.076 276.716 178.945C274.394 175.813 287.363 160.965 287.363 160.965L291.478 154.982L294.156 153.604Z" stroke="#263238" stroke-linecap="round" stroke-linejoin="round"/>
<path d="M262.736 148.131C262.736 148.131 257.35 147.919 257.359 142.418C257.369 136.916 263.295 135.673 263.295 135.673C263.295 135.673 265.578 131.963 268.536 134.517C268.536 134.517 266.821 136.694 270.078 135.172C273.335 133.649 274.472 131.501 280.677 132.223C280.677 132.223 291.786 130.47 295.698 137.311C295.698 137.311 299.996 142.755 299.09 152.727C298.184 162.7 300.053 168.26 298.936 168.5C297.818 168.741 296.305 164.087 294.504 157.285L284.955 162.488L277.786 157.458L272.824 148.998H266.667L262.736 148.131Z" fill="#263238" stroke="#263238" stroke-linecap="round" stroke-linejoin="round"/>
<path d="M260.578 150.608C260.578 150.608 260.578 159.395 261.541 160.888C262.505 162.382 264.143 164.511 264.143 164.511C264.143 164.511 265.453 171.825 269.018 177.134C269.018 177.134 269.866 183.242 274.26 182.279C278.654 181.315 290.784 170.63 291.045 168.173C291.197 166.742 291.213 165.3 291.093 163.866C291.093 163.866 293.29 164.781 294.947 160.368C296.604 155.955 296.219 150.733 292.769 150.502C289.32 150.27 289.522 153.922 288.096 154.23C286.67 154.539 287.402 158.788 287.402 158.788L284.579 159.607C284.579 159.607 284.203 152.862 281.12 149.374C278.037 145.886 274.925 144.846 277.121 140.76C277.121 140.76 269.654 140.905 261.869 146.821L260.578 150.608Z" fill="white"/>
<mask id="mask9_958_8008" style="mask-type:luminance" maskUnits="userSpaceOnUse" x="260" y="140" width="36" height="43">
<path d="M260.578 150.608C260.578 150.608 260.578 159.395 261.541 160.888C262.505 162.382 264.143 164.511 264.143 164.511C264.143 164.511 265.453 171.825 269.018 177.134C269.018 177.134 269.866 183.242 274.26 182.279C278.654 181.315 290.784 170.63 291.045 168.173C291.197 166.742 291.213 165.3 291.093 163.866C291.093 163.866 293.29 164.781 294.947 160.368C296.604 155.955 296.219 150.733 292.769 150.502C289.32 150.27 289.522 153.922 288.096 154.23C286.67 154.539 287.402 158.788 287.402 158.788L284.579 159.607C284.579 159.607 284.203 152.862 281.12 149.374C278.037 145.886 274.925 144.846 277.121 140.76C277.121 140.76 269.654 140.905 261.869 146.821L260.578 150.608Z" fill="white"/>
</mask>
<g mask="url(#mask9_958_8008)">
<path d="M290.399 169.493C289.8 166.213 288.923 162.989 287.778 159.857L284.531 160.58C284.531 160.58 283.886 162.189 282.807 164.222C281.727 166.255 279.608 168.462 276.775 167.691C274.88 167.196 272.889 167.196 270.994 167.691C269.953 167.941 268.922 169.512 267.939 169.975C266.61 170.591 266.118 170.235 266.012 170.938C266.311 171.747 266.648 172.586 267.034 173.424C267.026 172.914 267.144 172.409 267.377 171.955C267.611 171.502 267.953 171.112 268.373 170.822C271.263 168.992 275.638 169.29 276.688 170.119C277.738 170.948 278.124 172.74 275.436 175.197C272.747 177.654 273.171 175.958 271.051 176.893C270.591 177.113 270.214 177.475 269.976 177.926C269.738 178.378 269.653 178.894 269.731 179.398C270.416 181.017 271.764 182.799 274.299 182.288C278.085 181.431 287.798 173.212 290.399 169.493Z" fill="#757575"/>
</g>
<path d="M260.578 150.608C260.578 150.608 260.578 159.395 261.541 160.888C262.505 162.382 264.143 164.511 264.143 164.511C264.143 164.511 265.453 171.825 269.018 177.134C269.018 177.134 269.866 183.242 274.26 182.279C278.654 181.315 290.784 170.63 291.045 168.173C291.197 166.742 291.213 165.3 291.093 163.866C291.093 163.866 293.29 164.781 294.947 160.368C296.604 155.955 296.219 150.733 292.769 150.502C289.32 150.27 289.522 153.922 288.096 154.23C286.67 154.539 287.402 158.788 287.402 158.788L284.579 159.607C284.579 159.607 284.203 152.862 281.12 149.374C278.037 145.886 274.925 144.846 277.121 140.76C277.121 140.76 269.654 140.905 261.869 146.821L260.578 150.608Z" stroke="#263238" stroke-linecap="round" stroke-linejoin="round"/>
<path d="M268.411 173.838C268.411 173.838 270.492 171.478 272.516 171.14C274.539 170.803 275.059 169.975 275.059 169.975" stroke="#263238" stroke-width="0.75" stroke-linecap="round" stroke-linejoin="round"/>
<path d="M266.677 156.051C267.255 156.326 267.895 156.443 268.533 156.391C269.171 156.338 269.784 156.118 270.309 155.753C271.866 154.955 273.589 154.536 275.339 154.529C275.339 154.529 272.843 151.793 266.677 156.051Z" fill="#263238" stroke="#263238" stroke-width="0.75" stroke-linecap="round" stroke-linejoin="round"/>
<path d="M273.209 159.145C273.537 159.848 273.469 160.571 273.065 160.763C272.66 160.956 272.101 160.532 271.735 159.8C271.369 159.067 271.475 158.374 271.88 158.181C272.284 157.988 272.882 158.422 273.209 159.145Z" fill="#263238"/>
<path d="M264.807 162.7C265.087 163.307 265.029 163.943 264.682 164.106C264.335 164.27 263.805 163.904 263.526 163.297C263.247 162.69 263.295 162.054 263.651 161.89C264.008 161.727 264.518 162.083 264.807 162.7Z" fill="#263238"/>
<path d="M263.343 158.595L264.432 159.106C264.662 159.21 264.85 159.387 264.967 159.611C265.085 159.835 265.123 160.091 265.077 160.339L263.844 167.19C263.818 167.341 263.822 167.495 263.857 167.644C263.891 167.793 263.955 167.934 264.045 168.058C264.135 168.182 264.249 168.287 264.38 168.366C264.511 168.445 264.656 168.497 264.807 168.52L267.332 168.915" fill="white"/>
<path d="M263.343 158.595L264.432 159.106C264.662 159.21 264.85 159.387 264.967 159.611C265.085 159.835 265.123 160.091 265.077 160.339L263.844 167.19C263.818 167.341 263.822 167.495 263.857 167.644C263.891 167.793 263.955 167.934 264.045 168.058C264.135 168.182 264.249 168.287 264.38 168.366C264.511 168.445 264.656 168.497 264.807 168.52L267.332 168.915" stroke="#263238" stroke-linecap="round" stroke-linejoin="round"/>
<path d="M260.847 161.187C260.847 161.187 261.155 159.626 264.364 159.617C264.364 159.617 262.842 158.152 261.242 158.605C259.643 159.058 260.847 161.187 260.847 161.187Z" fill="#263238" stroke="#263238" stroke-width="0.75" stroke-linecap="round" stroke-linejoin="round"/>
<path d="M229.272 207.861C229.272 207.861 233.204 253.079 247.849 254.11C262.495 255.141 264.412 247.202 267.428 242.481C267.428 242.481 255.182 229.733 255.028 231.593C254.874 233.452 251.068 238.068 251.068 238.068C249.757 233.25 244.14 223.316 242.396 218.701C241.217 215.19 240.426 211.562 240.035 207.88L229.272 207.861Z" fill="white" stroke="#263238" stroke-linecap="round" stroke-linejoin="round"/>
<path d="M230.419 211.358C230.009 210.675 229.685 209.944 229.455 209.181C228.839 207.254 230.534 204.662 232.018 201.694C232.018 201.694 231.411 195.585 234.909 195.113C235.067 194.548 235.393 194.045 235.844 193.67C236.295 193.294 236.849 193.065 237.433 193.013C239.36 192.955 244.034 191.288 246.808 192.714C249.583 194.14 254.43 198.64 253.804 199.94C253.177 201.241 252.551 202.06 248.504 199.276L246.577 198.052C246.577 198.052 249.699 201.646 249.054 203.438C248.48 204.647 247.477 205.598 246.24 206.107C246.24 206.107 246.095 208.381 244.168 208.256C244.168 208.256 243.966 210.934 242.241 210.828L240.17 210.616C240.17 210.616 236.99 213.68 233.936 213.584" fill="white"/>
<path d="M230.419 211.358C230.009 210.675 229.685 209.944 229.455 209.181C228.839 207.254 230.534 204.662 232.018 201.694C232.018 201.694 231.411 195.585 234.909 195.113C235.067 194.548 235.393 194.045 235.844 193.67C236.295 193.294 236.849 193.065 237.433 193.013C239.36 192.955 244.034 191.288 246.808 192.714C249.583 194.14 254.43 198.64 253.804 199.94C253.177 201.241 252.551 202.06 248.504 199.276L246.577 198.052C246.577 198.052 249.699 201.646 249.054 203.438C248.48 204.647 247.477 205.598 246.24 206.107C246.24 206.107 246.095 208.381 244.168 208.256C244.168 208.256 243.966 210.934 242.241 210.828L240.17 210.616C240.17 210.616 236.99 213.68 233.936 213.584" stroke="#263238" stroke-linecap="round" stroke-linejoin="round"/>
<path d="M239.1 195.2C240.347 195.352 241.586 195.571 242.81 195.855C243.538 196.155 244.249 196.496 244.939 196.876" fill="white"/>
<path d="M239.1 195.2C240.347 195.352 241.586 195.571 242.81 195.855C243.538 196.155 244.249 196.496 244.939 196.876" stroke="#263238" stroke-width="0.75" stroke-linecap="round" stroke-linejoin="round"/>
<path d="M238.522 199.931C238.522 199.931 244.766 200.701 245.402 201.607C245.883 202.479 246.209 203.428 246.365 204.411" fill="white"/>
<path d="M238.522 199.931C238.522 199.931 244.766 200.701 245.402 201.607C245.883 202.479 246.209 203.428 246.365 204.411" stroke="#263238" stroke-width="0.75" stroke-linecap="round" stroke-linejoin="round"/>
<path d="M237.838 204.209C237.838 204.209 242.771 204.864 243.407 206.955Z" fill="white"/>
<path d="M237.838 204.209C237.838 204.209 242.771 204.864 243.407 206.955" stroke="#263238" stroke-width="0.75" stroke-linecap="round" stroke-linejoin="round"/>
<path d="M266.368 246.335C272.198 235.244 289.079 193.485 278.037 190.026C278.037 190.026 264.808 193.697 261.242 204.209C258.352 212.601 254.835 228.519 253.534 234.57L266.368 246.335Z" fill="white"/>
<path d="M266.368 246.335C272.198 235.244 289.079 193.485 278.037 190.026C278.037 190.026 264.808 193.697 261.242 204.209C258.352 212.601 254.835 228.519 253.534 234.57L266.368 246.335Z" stroke="#263238" stroke-linecap="round" stroke-linejoin="round"/>
<path d="M252.599 232.778C252.599 232.778 261.136 233.934 267.862 244.34C267.976 244.523 268.03 244.737 268.014 244.952C267.999 245.167 267.915 245.371 267.775 245.535L267.052 246.402L266.667 247.501C266.619 247.683 266.519 247.848 266.378 247.974C266.238 248.1 266.063 248.182 265.876 248.21C265.689 248.238 265.498 248.21 265.327 248.13C265.156 248.05 265.012 247.922 264.913 247.761C261.389 243.043 257.146 238.907 252.339 235.505L252.975 234.406L252.599 232.778Z" fill="white" stroke="#263238" stroke-linecap="round" stroke-linejoin="round"/>
<path d="M204.153 343.198L212.025 362.883C212.025 362.883 217.806 373.28 218.856 382.982C218.889 383.339 218.846 383.699 218.731 384.038C218.616 384.377 218.432 384.689 218.19 384.953C217.948 385.217 217.653 385.427 217.325 385.571C216.996 385.714 216.642 385.788 216.284 385.786H168.406C168.014 385.786 167.629 385.689 167.284 385.506C166.938 385.322 166.643 385.057 166.423 384.733C166.204 384.409 166.067 384.036 166.024 383.647C165.982 383.258 166.035 382.864 166.18 382.501C167.144 380.053 169.071 377.211 172.838 377.731C179.274 378.627 188.611 373.318 193.419 367.296L195.558 365.745L188.939 350.328L204.153 343.198Z" fill="white" stroke="#263238" stroke-linecap="round" stroke-linejoin="round"/>
<path d="M218.856 382.983C218.269 377.317 216.043 371.42 214.289 367.508C206.109 374.87 198.603 372.548 200.039 369.262C201.474 365.976 195.558 365.745 195.558 365.745L193.419 367.296C188.601 373.318 179.274 378.628 172.838 377.731C169.071 377.211 167.134 380.054 166.18 382.501C166.035 382.865 165.982 383.258 166.024 383.647C166.067 384.036 166.204 384.409 166.423 384.733C166.643 385.057 166.938 385.322 167.284 385.506C167.629 385.69 168.014 385.786 168.406 385.787H216.284C216.642 385.788 216.996 385.715 217.325 385.571C217.653 385.428 217.948 385.217 218.19 384.953C218.432 384.689 218.616 384.378 218.731 384.038C218.846 383.699 218.889 383.339 218.856 382.983Z" fill="#263238" stroke="#263238" stroke-linecap="round" stroke-linejoin="round"/>
<path d="M255.509 258.378C255.509 258.378 251.568 261.365 244.053 273.65C244.053 273.65 178.533 275.202 166.007 279.856C153.481 284.509 150.59 289.876 153.124 299.174C155.658 308.472 173.522 341.406 176.384 363.953C176.384 363.953 204.799 362.17 211.254 356.803C211.254 356.803 198.218 317.79 189.266 306.7C189.266 306.7 208.951 310.64 216.467 305.987L259.411 301.419C259.411 301.419 289.117 305.987 294.099 296.679C299.08 287.371 302.53 266.077 302.53 266.077L255.509 258.378Z" fill="#263238"/>
<mask id="mask10_958_8008" style="mask-type:luminance" maskUnits="userSpaceOnUse" x="152" y="258" width="151" height="106">
<path d="M255.509 258.378C255.509 258.378 251.568 261.365 244.053 273.65C244.053 273.65 178.533 275.202 166.007 279.856C153.481 284.509 150.59 289.876 153.124 299.174C155.658 308.472 173.522 341.406 176.384 363.953C176.384 363.953 204.799 362.17 211.254 356.803C211.254 356.803 198.218 317.79 189.266 306.7C189.266 306.7 208.951 310.64 216.467 305.987L259.411 301.419C259.411 301.419 289.117 305.987 294.099 296.679C299.08 287.371 302.53 266.077 302.53 266.077L255.509 258.378Z" fill="white"/>
</mask>
<g mask="url(#mask10_958_8008)">
<path opacity="0.5" d="M164.6 333.312C164.6 333.312 159.84 314.042 163.135 312.837C166.431 311.633 182.406 364.145 192.446 362.247C202.486 360.349 205.184 365.745 205.184 365.745L215.06 358.836L207.015 329.217L197.871 311.18L189.295 306.699C189.295 306.699 175.189 297.218 181.78 296.399C188.37 295.58 208.836 301.217 216.467 296.399C224.098 291.582 223.212 318.618 223.212 318.618L229.272 360.291L222.585 373.453L169.678 371.256L163.502 346.31L164.6 333.312Z" fill="black"/>
</g>
<path d="M255.509 258.378C255.509 258.378 251.568 261.365 244.053 273.65C244.053 273.65 178.533 275.202 166.007 279.856C153.481 284.509 150.59 289.876 153.124 299.174C155.658 308.472 173.522 341.406 176.384 363.953C176.384 363.953 204.799 362.17 211.254 356.803C211.254 356.803 198.218 317.79 189.266 306.7C189.266 306.7 208.951 310.64 216.467 305.987L259.411 301.419C259.411 301.419 289.117 305.987 294.099 296.679C299.08 287.371 302.53 266.077 302.53 266.077L255.509 258.378Z" stroke="#263238" stroke-linecap="round" stroke-linejoin="round"/>
<path d="M184.42 301.41C185.12 302.041 185.765 302.731 186.347 303.472" stroke="#7F7F7F" stroke-width="0.75" stroke-linecap="round" stroke-linejoin="round"/>
<path d="M177.849 294.694C177.849 294.694 167.828 286.649 167.115 290.233C166.546 293.056 175.237 295.051 181.78 299.387" stroke="#7F7F7F" stroke-width="0.75" stroke-linecap="round" stroke-linejoin="round"/>
<path d="M246.799 352.737L247.763 367.354C247.763 367.354 251.472 372.249 251.992 383.175C252.012 383.514 251.962 383.853 251.846 384.172C251.73 384.491 251.551 384.783 251.318 385.031C251.085 385.278 250.805 385.475 250.493 385.61C250.182 385.745 249.846 385.815 249.507 385.815H223.404C223.018 385.815 222.638 385.726 222.292 385.553C221.947 385.381 221.646 385.131 221.413 384.823C221.181 384.515 221.023 384.157 220.952 383.777C220.881 383.398 220.899 383.007 221.005 382.636C221.608 380.451 222.767 378.459 224.368 376.855C228.424 372.798 230.573 370.89 230.332 363.972L229.619 352.757L246.799 352.737Z" fill="white" stroke="#263238" stroke-linecap="round" stroke-linejoin="round"/>
<path d="M245.132 370.871C242.242 371.112 241.278 367.296 236.46 367.296C231.643 367.296 229.86 369.223 229.86 369.223C229.022 372.268 227.143 374.041 224.378 376.797C222.776 378.401 221.618 380.393 221.015 382.578C220.909 382.949 220.891 383.34 220.962 383.72C221.033 384.099 221.19 384.457 221.423 384.765C221.655 385.073 221.956 385.323 222.302 385.496C222.647 385.668 223.028 385.758 223.414 385.758H249.507C249.844 385.758 250.179 385.69 250.489 385.557C250.8 385.425 251.08 385.23 251.313 384.986C251.547 384.742 251.728 384.453 251.846 384.137C251.965 383.821 252.018 383.484 252.002 383.146C251.482 372.22 247.772 367.325 247.772 367.325C247.772 367.325 247.994 370.64 245.132 370.871Z" fill="#263238" stroke="#263238" stroke-linecap="round" stroke-linejoin="round"/>
<path d="M260.876 258.378C260.876 258.378 254.074 263.745 251.569 275.915C251.569 275.915 216.14 275.202 212.208 287.371C208.277 299.54 218.288 326.018 218.288 326.018C218.288 326.018 216.14 364.309 220.08 366.487C224.021 368.664 242.984 366.843 248.707 358.615C248.707 358.615 249.786 349.307 246.915 345.732C246.915 345.732 248.215 316.971 244.988 310.168C249.164 310.161 253.314 309.511 257.292 308.241C261.474 306.777 265.27 304.801 269.095 303.867C273.701 302.749 278.49 304.069 288.038 303.221C293.974 302.701 299.967 301.217 303.811 297.787C311.375 291.042 315.268 268.438 315.268 268.438L260.876 258.378Z" fill="#263238"/>
<mask id="mask11_958_8008" style="mask-type:luminance" maskUnits="userSpaceOnUse" x="211" y="258" width="105" height="110">
<path d="M260.876 258.378C260.876 258.378 254.074 263.745 251.569 275.915C251.569 275.915 216.14 275.202 212.208 287.371C208.277 299.54 218.288 326.018 218.288 326.018C218.288 326.018 216.14 364.309 220.08 366.487C224.021 368.664 242.984 366.843 248.707 358.615C248.707 358.615 249.786 349.307 246.915 345.732C246.915 345.732 248.215 316.971 244.988 310.168C249.164 310.161 253.314 309.511 257.292 308.241C261.474 306.777 265.27 304.801 269.095 303.867C273.701 302.749 278.49 304.069 288.038 303.221C293.974 302.701 299.967 301.217 303.811 297.787C311.375 291.042 315.268 268.438 315.268 268.438L260.876 258.378Z" fill="white"/>
</mask>
<g mask="url(#mask11_958_8008)">
<path opacity="0.5" d="M248.389 312.837C248.389 312.837 232.761 299.743 237.434 297.835C242.107 295.927 255.933 300.475 264.413 297.835C272.892 295.195 293.319 301.785 301.027 292.275C308.735 282.765 311.269 266.568 311.269 266.568L321.935 269.941L318.727 296.39L301.383 309.272C301.383 309.272 277.16 319.698 274.096 319.698C271.032 319.698 248.389 312.837 248.389 312.837Z" fill="black"/>
</g>
<path d="M260.876 258.378C260.876 258.378 254.074 263.745 251.569 275.915C251.569 275.915 216.14 275.202 212.208 287.371C208.277 299.54 218.288 326.018 218.288 326.018C218.288 326.018 216.14 364.309 220.08 366.487C224.021 368.664 242.984 366.843 248.707 358.615C248.707 358.615 249.786 349.307 246.915 345.732C246.915 345.732 248.215 316.971 244.988 310.168C249.164 310.161 253.314 309.511 257.292 308.241C261.474 306.777 265.27 304.801 269.095 303.867C273.701 302.749 278.49 304.069 288.038 303.221C293.974 302.701 299.967 301.217 303.811 297.787C311.375 291.042 315.268 268.438 315.268 268.438L260.876 258.378Z" stroke="#263238" stroke-linecap="round" stroke-linejoin="round"/>
<path d="M226.382 335.837C231.701 343.988 242.213 359.357 244.063 356.437" stroke="#7F7F7F" stroke-width="0.75" stroke-linecap="round" stroke-linejoin="round"/>
<path d="M223.298 331.029C223.298 331.029 223.838 331.896 224.744 333.312" stroke="#7F7F7F" stroke-width="0.75" stroke-linecap="round" stroke-linejoin="round"/>
<path d="M293.829 273.082C293.829 273.082 284.386 260.874 292.152 284.5" stroke="#7F7F7F" stroke-width="0.75" stroke-linecap="round" stroke-linejoin="round"/>
<path d="M261.551 274.248C266.474 273.468 273.412 273.063 278.413 275.558" stroke="#7F7F7F" stroke-width="0.75" stroke-linecap="round" stroke-linejoin="round"/>
<path d="M255.509 275.558C255.509 275.558 256.405 275.288 257.88 274.951" stroke="#7F7F7F" stroke-width="0.75" stroke-linecap="round" stroke-linejoin="round"/>
<path d="M211.64 299.955C211.775 301.121 211.938 302.296 212.141 303.472" stroke="#7F7F7F" stroke-width="0.75" stroke-linecap="round" stroke-linejoin="round"/>
<path d="M257.292 262.396C254.463 266.444 252.513 271.039 251.568 275.886C251.568 275.886 216.139 275.173 212.198 287.342C211.385 290.275 211.094 293.328 211.341 296.361" stroke="#7F7F7F" stroke-width="0.75" stroke-linecap="round" stroke-linejoin="round"/>
<path d="M229.937 294.704C233.406 294.925 240.844 297.112 244.053 300.967" stroke="#7F7F7F" stroke-width="0.75" stroke-linecap="round" stroke-linejoin="round"/>
<path d="M244.053 308.126C244.053 308.126 240.122 301.323 230.814 297.036" stroke="#7F7F7F" stroke-width="0.75" stroke-linecap="round" stroke-linejoin="round"/>
<path d="M251.135 260.431C254.488 254.836 256.628 248.599 257.417 242.124C259.344 227.546 258.149 206.627 267.611 196.896C284.309 179.716 301.672 173.829 322.195 187.54C342.718 201.251 328.034 220.531 315.634 272.745C315.634 272.726 292.422 261.269 251.135 260.431Z" fill="white"/>
<mask id="mask12_958_8008" style="mask-type:luminance" maskUnits="userSpaceOnUse" x="251" y="179" width="82" height="94">
<path d="M251.135 260.431C254.488 254.836 256.628 248.599 257.417 242.124C259.344 227.546 258.149 206.627 267.611 196.896C284.309 179.716 301.672 173.829 322.195 187.54C342.718 201.251 328.034 220.531 315.634 272.745C315.634 272.726 292.422 261.269 251.135 260.431Z" fill="white"/>
</mask>
<g mask="url(#mask12_958_8008)">
<path opacity="0.2" d="M249.959 258.379C249.959 258.379 257.957 253.301 274.048 255.488C290.139 257.675 298.762 256.297 297.172 252.077C295.582 247.857 262.206 252.684 262.427 248.666C262.649 244.648 291.333 242.644 300.583 245.255C309.833 247.866 300.853 243.251 302.626 238.511C304.399 233.77 307.8 235.62 306.201 225.166C304.601 214.711 307.251 210.298 307.251 210.298L326.521 217.534L342.179 233.192C342.179 233.192 330.934 264.092 330.934 264.295C330.934 264.497 321.964 279.355 321.964 279.355L244.13 265.509L249.959 258.379Z" fill="black"/>
</g>
<path d="M251.135 260.431C254.488 254.836 256.628 248.599 257.417 242.124C259.344 227.546 258.149 206.627 267.611 196.896C284.309 179.716 301.672 173.829 322.195 187.54C342.718 201.251 328.034 220.531 315.634 272.745C315.634 272.726 292.422 261.269 251.135 260.431Z" stroke="#263238" stroke-linecap="round" stroke-linejoin="round"/>
<path d="M278.595 185.728L280.523 189.342C280.523 189.342 295.939 174.282 303.965 175.708L306.124 180.814C306.124 180.814 296.98 181.614 287.498 195.036L280.339 190.922L274.028 195.036L278.595 185.728Z" fill="#7E57C2"/>
<mask id="mask13_958_8008" style="mask-type:luminance" maskUnits="userSpaceOnUse" x="274" y="175" width="33" height="21">
<path d="M278.595 185.728L280.523 189.342C280.523 189.342 295.939 174.282 303.965 175.708L306.124 180.814C306.124 180.814 296.98 181.614 287.498 195.036L280.339 190.922L274.028 195.036L278.595 185.728Z" fill="white"/>
</mask>
<g mask="url(#mask13_958_8008)">
<path opacity="0.6" d="M278.595 185.728L280.523 189.342C280.523 189.342 295.939 174.282 303.965 175.708L306.124 180.814C306.124 180.814 296.98 181.614 287.498 195.036L280.339 190.922L274.028 195.036L278.595 185.728Z" fill="white"/>
</g>
<path d="M278.595 185.728L280.523 189.342C280.523 189.342 295.939 174.282 303.965 175.708L306.124 180.814C306.124 180.814 296.98 181.614 287.498 195.036L280.339 190.922L274.028 195.036L278.595 185.728Z" stroke="#263238" stroke-linecap="round" stroke-linejoin="round"/>
<path d="M237.279 212.65C237.279 212.65 241.297 201.463 253.139 200.567L264.383 230.918L245.739 241.421L237.279 212.65Z" fill="white" stroke="#263238" stroke-width="0.75" stroke-linecap="round" stroke-linejoin="round"/>
<path d="M222.624 206.039C222.624 206.039 225.438 198.331 237.279 212.649C237.279 212.649 254.873 199.516 260.404 207.494L270.232 235.745L247.194 246.036L234.023 233.577L222.624 206.039Z" fill="white" stroke="#263238" stroke-width="0.75" stroke-linecap="round" stroke-linejoin="round"/>
<path d="M251.665 248.223L245.739 248.02L234.022 216.609L239.948 216.802L251.665 248.223Z" fill="#7E57C2" stroke="#263238" stroke-linecap="round" stroke-linejoin="round"/>
<path d="M262.34 206.04L274.057 237.431L251.212 248.358L239.495 216.947C245.565 210.702 253.668 206.833 262.34 206.04Z" fill="#7E57C2"/>
<mask id="mask14_958_8008" style="mask-type:luminance" maskUnits="userSpaceOnUse" x="239" y="206" width="36" height="43">
<path d="M262.34 206.04L274.057 237.431L251.212 248.358L239.495 216.947C245.565 210.702 253.668 206.833 262.34 206.04Z" fill="white"/>
</mask>
<g mask="url(#mask14_958_8008)">
<path opacity="0.5" d="M262.34 206.04L274.057 237.431L251.212 248.358L239.495 216.947C245.565 210.702 253.668 206.833 262.34 206.04Z" fill="white"/>
</g>
<path d="M262.34 206.04L274.057 237.431L251.212 248.358L239.495 216.947C245.565 210.702 253.668 206.833 262.34 206.04Z" stroke="#263238" stroke-linecap="round" stroke-linejoin="round"/>
<path d="M234.023 216.61L245.739 248.03L232.028 235.1L220.321 203.708C220.321 203.708 227.548 206.647 234.023 216.61Z" fill="#7E57C2"/>
<mask id="mask15_958_8008" style="mask-type:luminance" maskUnits="userSpaceOnUse" x="220" y="203" width="26" height="46">
<path d="M234.023 216.61L245.739 248.03L232.028 235.1L220.321 203.708C220.321 203.708 227.548 206.647 234.023 216.61Z" fill="white"/>
</mask>
<g mask="url(#mask15_958_8008)">
<path opacity="0.2" d="M234.023 216.61L245.739 248.03L232.028 235.1L220.321 203.708C220.321 203.708 227.548 206.647 234.023 216.61Z" fill="white"/>
</g>
<path d="M234.023 216.61L245.739 248.03L232.028 235.1L220.321 203.708C220.321 203.708 227.548 206.647 234.023 216.61Z" stroke="#263238" stroke-linecap="round" stroke-linejoin="round"/>
<path d="M328.333 246.103C328.333 246.103 325.654 260.701 322.966 262.483C320.278 264.266 314.198 265.528 305.43 262.483C296.662 259.438 278.451 249.784 278.451 249.784L272.544 247.279C272.544 247.279 267.727 249.061 262.524 241.372C262.524 241.372 257.34 240.852 256.347 242.095C256.347 242.095 254.025 242.268 254.652 239.763C255.278 237.258 260.731 237.161 260.731 237.161L260.471 236.275C260.471 236.275 255.962 235.909 254.546 237.528C253.129 239.146 251.27 239.917 251.173 238.539C251.077 237.161 251.173 235.822 253.1 234.03C255.027 232.238 255.789 232.421 255.789 232.421C255.789 232.421 254.623 231.795 251.578 233.943C248.533 236.092 247.194 234.3 247.194 233.317C247.194 232.334 248.716 231.891 249.795 231.082C250.875 230.272 254.979 228.037 256.685 227.95C258.39 227.863 261.955 228.49 261.955 227.95C261.896 227.479 261.745 227.024 261.512 226.611L253.1 225.984C253.1 225.984 248.716 227.324 248.899 224.905C249.082 222.487 253.37 222.13 253.37 222.13H260.25C260.25 222.13 266.792 222.583 268.671 224.732C270.55 226.881 274.038 234.926 277.343 236.092C280.648 237.258 305.285 244.86 307.578 243.608C309.872 242.355 310.469 237.971 310.469 237.971L328.988 242.095L328.333 246.103Z" fill="white" stroke="#263238" stroke-linecap="round" stroke-linejoin="round"/>
<path d="M322.195 187.521C322.195 187.521 333.883 193.6 336.272 204.344C338.662 215.087 329.113 251.104 329.113 251.104C329.113 251.104 322.667 244.359 308.359 242.105C308.359 242.105 310.286 234.878 308.359 224.385C307.232 218.228 306.037 210.106 308.841 202.397" fill="white"/>
<path d="M322.195 187.521C322.195 187.521 333.883 193.6 336.272 204.344C338.662 215.087 329.113 251.104 329.113 251.104C329.113 251.104 322.667 244.359 308.359 242.105C308.359 242.105 310.286 234.878 308.359 224.385C307.232 218.228 306.037 210.106 308.841 202.397" stroke="#263238" stroke-linecap="round" stroke-linejoin="round"/>
<path d="M306.692 242.789C306.692 242.789 322.879 245.766 328.718 253.667C328.718 253.667 330.896 252.867 330.896 249.813C330.896 249.813 332.091 248.898 331.86 246.373C331.86 246.373 323.438 239.85 307.569 238.588C307.569 238.588 305.921 239.282 306.654 240.197C306.692 240.158 303.859 242.143 306.692 242.789Z" fill="#7E57C2"/>
<mask id="mask16_958_8008" style="mask-type:luminance" maskUnits="userSpaceOnUse" x="305" y="238" width="27" height="16">
<path d="M306.692 242.789C306.692 242.789 322.879 245.766 328.718 253.667C328.718 253.667 330.896 252.867 330.896 249.813C330.896 249.813 332.091 248.898 331.86 246.373C331.86 246.373 323.438 239.85 307.569 238.588C307.569 238.588 305.921 239.282 306.654 240.197C306.692 240.158 303.859 242.143 306.692 242.789Z" fill="white"/>
</mask>
<g mask="url(#mask16_958_8008)">
<path opacity="0.6" d="M306.692 242.789C306.692 242.789 322.879 245.766 328.718 253.667C328.718 253.667 330.896 252.867 330.896 249.813C330.896 249.813 332.091 248.898 331.86 246.373C331.86 246.373 323.438 239.85 307.569 238.588C307.569 238.588 305.921 239.282 306.654 240.197C306.692 240.158 303.859 242.143 306.692 242.789Z" fill="white"/>
</g>
<path d="M306.692 242.789C306.692 242.789 322.879 245.766 328.718 253.667C328.718 253.667 330.896 252.867 330.896 249.813C330.896 249.813 332.091 248.898 331.86 246.373C331.86 246.373 323.438 239.85 307.569 238.588C307.569 238.588 305.921 239.282 306.654 240.197C306.692 240.158 303.859 242.143 306.692 242.789Z" stroke="#263238" stroke-linecap="round" stroke-linejoin="round"/>
<path d="M261.194 231.949C261.194 231.949 258.554 230.986 257.34 231.708" stroke="#263238" stroke-width="0.75" stroke-linecap="round" stroke-linejoin="round"/>
</svg>
